<?xml version="1.0" encoding="UTF-8"?>
<svg id="Layer_2" data-name="Layer 2" xmlns="http://www.w3.org/2000/svg" viewBox="0 0 592.38 592.38">
  <defs>
    <style>
      .cls-1 {
        fill: #f3b234;
      }

      .cls-2 {
        fill: none;
      }

      .cls-3 {
        fill: #1b1d1d;
      }

      .cls-4 {
        fill: #f0efef;
      }
    </style>
  </defs>
  <g id="Layer_1-2" data-name="Layer 1">
    <g id="TextV2_WhiteBG">
      <rect class="cls-4" width="592.38" height="592.38"/>
      <g>
        <g>
          <g>
            <g>
              <path class="cls-3" d="M178.88,278.9c-.1,3.7.1,7.41.1,11.21v.96c0,2.46-.2,2.56-2.2,2.56-1.32,0-2.56-.1-3.7,0-2.28.28-4.27.28-6.55,0-.67-.1-.96-.47-1.04-1.14,0-.57-.1-1.06-.1-1.53,0-3.6-.1-7.33.1-10.93.18-4.37,0-8.65.08-13.02,0-1.61-.18-3.24-.18-4.94-.1-.37-.39-.57-.67-.65-.47-.1-1.04-.1-1.53-.1-2.93,0-5.13-.39-8.73,0-1.06.1-1.24.28-1.24,1.42,0,1.71-.18,3.42-.1,5.23,0,3.99,0,9.97.2,12.17-.28,4.07-.1,7.3-.1,10.93,0,.57-.1,1.14-.1,1.71-.08.39-.57.85-.94.75-2.38-.28-4.86.1-7.33,0-1.24-.08-2.38.1-3.52.1-1.22,0-1.42-.1-1.42-1.42v-3.05c.1-7.87-.39-15.77.2-23.56l.08-2.28c-.28-3.42,0-6.76,0-10.17,0-1.42.28-2.85,0-4.27,0-3.24.2-6.47,0-9.69,0-.39,0-.85-.08-1.24-.31-1.14-.2-2.28,0-3.42.18-.85,0-1.81-.1-2.77,0-.75-.2-1.51-.1-2.18.28-3.34.1-6.65.1-9.99,0-.37,0-.75.1-1.22.08-.39.37-.67.85-.77.37-.08.75-.08,1.22-.08,2.67.08,5.51.08,8.18.08.47,0,.85.1,1.24.1,1.04.1,1.42.39,1.51,1.32v1.73c0,2.28-.37,4.46-.08,6.74.28,2.56,0,5.13,0,7.69,0,2.2.37,4.48,0,6.65v.77c.37,2.18.37,4.27.37,6.45,0,.57.39.85.96.85.39,0,.85.1,1.24-.08.96-.28,1.99-.28,2.95-.2,1.99.2,3.99-.08,5.98-.08.75,0,1.04-.28,1.04-1.14-.08-2.85,0-5.8-.28-8.65-.08-1.06,0-1.99,0-3.05.1-2.46-.18-4.94.28-7.41.2-1.24.1-2.48-.08-3.7-.28-1.99-.1-3.99-.2-6,0-.37.2-.75.28-1.14.1-.37.39-.57.67-.65.28,0,.57-.1.75-.1,3.52.28,7.51.1,11.03.1.85,0,1.06.18,1.06.94v6.37c0,5.05-.2,10.07-.31,15.12-.08,1.42,0,2.95-.08,4.48.18,1.71.08,3.6-.1,5.41-.1,1.22-.18,2.46.1,3.7v.75c0,3.42.08,6.94,0,10.46,0,3.42-.1,6.94.39,10.46.18,1.14-.2,2.28-.2,3.42Z"/>
              <path class="cls-3" d="M229.36,293.73c-1.34-.96-2.2-2.87-2.67-4.29-.49-1.51-.77-3.13-.96-4.64-.39-3.34-1.32-6.47-1.81-9.81-.37-2.85-.75-5.7-1.04-8.55l-1.99-13.31c-.57-3.6-1.04-7.31-1.91-10.93-.47-1.61-.65-3.24-.94-4.94-.28-1.71-.39-3.42-.67-5.13-.39-2.46-.75-4.84-1.24-7.33-.28-2.08-.57-4.07-1.14-6.08-.18-.57-.65-.94-1.32-1.04h-1.71c-3.24-.18-6.19.28-9.42.1-1.14-.1-2.56-.1-3.78-.2-.57,0-1.14.39-1.34.85-.37,1.53-.75,2.95-1.04,4.37-.39,2.67-.67,5.43-1.14,8.08-.28,1.63-.49,3.34-.77,4.94-.65,2.95-1.42,5.8-1.99,8.75-.37,1.71-.75,3.52-.85,5.31-.18,1.71-.47,3.44-.75,5.15-.28,1.32-.57,2.65-.75,3.89-.39,2.28-.67,4.48-1.24,6.65-.28.85-.57,1.71-.57,2.67,0,2.28-.67,4.37-1.06,6.55-.75,4.27-1.79,8.46-2.65,12.64-.39,1.53-.67,3.7-.96,5.23-.1.49.18.85.57.85h.75c2.48.1,5.05.1,7.51.2.96,0,1.99-.1,2.95-.1.49,0,.77-.28.96-.67l.39-.96c.28-1.42.57-3.5.94-4.92l1.14-5.9c.1-.28.39-.47.77-.57.28-.1.57-.1.94-.1,2.77,0,5.62.2,8.46-.18,2.1-.39,3.03.47,3.34,2.56,0,.1.08.1.08.18,0,2.58,1.06,5.33,1.71,7.71.67,2.1,2.38,3.32,4.09,4.56.18.18.39.18.67.28,1.42.28,2.85.67,4.37.85,2.18.39,4.27-.1,6.08-1.53,1.22-.94.47-.85,0-1.22ZM209.3,268.64c-.67-.1-1.24,0-1.89,0-2.1.28-3.72.08-5.51.08-.77,0-.85-.28-.77-1.14.49-3.03.77-5.41,1.24-8.46,0,0,.1-.57.18-.57.28-2.93.57-5.98.96-8.93.18-1.22.57-2.56.75-3.89.31-1.42.49-2.95.77-4.37.18-.85.39-1.42.47-2.28.1-.18.2-.47.49-.39,0,.1.28.39.28.49.47,3.03.75,5.8,1.32,8.83.67,3.6,1.14,7.22,1.53,10.83.28,2.87.85,5.72,1.22,8.57.1.96-.18,1.32-1.04,1.24Z"/>
              <path class="cls-3" d="M311.75,238.12c0-1.22-.18-2.46-.28-3.7-.28-2.28-.47-4.66-1.14-6.84-.47-1.71-1.32-3.34-2.46-4.56-2.28-2.38-4.84-4.29-8.18-4.76-1.42-.18-2.85-.39-4.17-.67-2.85.57-5.62.1-8.46.2-2.18.08-4.37-.2-6.65-.28-1.24,0-2.46.08-3.7.28-.67.08-.85.28-.85.94v11.23c0,5.7-.1,11.5-.1,17.19,0,2.75.1,5.62.1,8.46,0,1.14-.1,2.28.08,3.42.2,1.14-.18,2.28-.18,3.42.1,2.95-.18,5.8.28,8.75v.18c0,3.13,0,6.37-.1,9.5h.1c0,1.14-.1,2.28,0,3.42v8.18c0,.57.28.96.85,1.04.49,0,1.06.1,1.53.1,1.99,0,3.99.1,5.98,0,1.34,0,2.56-.18,3.91-.39.65,0,.94-.37.94-.94,0-.77.1-1.53-.08-2.2-.28-1.89-.1-4.94-.2-6.84-.08-2.77,0-5.51,0-8.18,0-1.32,0-2.56.1-3.81.18-1.79.47-3.6.1-5.41-.1-.39.08-.67.47-.67.67-.08,1.32-.18,1.99-.18,1.91.18,3.81,0,5.7-.28,3.62-.39,6.76-1.61,9.22-4.37,2.87-2.95,4.66-6.45,4.86-10.64,0-1.14,0-2.28.18-3.42.47-2.75.18-5.51.18-8.18ZM277.67,284.01s.02,0,.06.02l.02.04s-.06-.04-.08-.06ZM298.83,247.34c0,1.24-.28,2.67-.57,3.91-.39,1.61-1.42,2.38-2.95,2.56-.57.1-1.14.1-1.71.1h-3.7c-.57-.1-.96-.49-.96-1.06-.08-.65,0-1.42,0-2.18-.08-3.13.1-6.29-.08-8.93l.28-10.93c0-1.34.28-1.53,1.61-1.53.67.1,1.34,0,1.99,0,1.24,0,2.48.28,3.62.85,1.42.67,2.08,1.71,2.28,3.24.08.75.37,1.61.37,2.36.2,4.09.1,7.71-.18,11.6Z"/>
              <path class="cls-3" d="M268.62,233.17c-.2-3.78-1.81-7.02-3.91-10.07-.37-.75-1.04-1.32-1.89-1.89-.67-.39-1.42-.96-1.99-1.53-1.53-1.32-3.34-1.71-5.33-1.81-3.32-.08-6.65-.18-9.87-.18,0,0-2.58,0-2.58.1-3.42-.2-4.27-.1-7.69-.1-.57,0-1.14,0-1.71.18-.85.1-.96.39-.96,1.24v7.22c0,2.1-.08,4.19-.08,6.19-.1,2.08,0,4.17.08,6.17,0,2.48.1,4.86.1,7.22,0,1.81,0,3.62.1,5.41,0,1.24.08,2.38.08,3.52,0,2.56-.08,5.15-.08,7.71,0,.47.08.94,0,1.42-.28,2.08-.39,4.17-.2,6.27.49,3.52.28,8.08.28,11.6s-.18,7.12-.18,10.74c0,.75.28,1.04,1.04,1.04,3.13,0,6.29.1,9.42.1.28,0,.57,0,.75-.1,1.14-.1,1.63-.67,1.63-1.81,0-2.1.28-4.27-.2-6.45-.08-.49-.08-.96-.08-1.42v-3.81c.08-4.37.08-9.71.18-14.08,0-.85.18-1.04.96-1.14,2.85-.18,5.7-.28,8.44-.37.57-.1,1.24,0,1.71-.2,2.48-.85,4.76-2.08,6.47-4.07,1.04-1.24,1.81-2.67,2.85-4.01.75-1.14,1.14-2.36,1.61-3.6.49-1.24.39-2.48.67-3.7.39-1.81.57-3.7.57-5.62v-3.99c0-2.1,0-4.19-.18-6.19ZM256.16,248.29c0,1.04-.28,2.1-.67,3.13-.65,1.71-1.99,2.56-3.81,2.67-.85.1-1.61.1-2.46,0-1.14-.1-2.28.28-3.42-.39-.28-1.04-.1-2.1-.1-3.13-.08-1.89.1-3.89-.18-5.8.28-4.84,0-9.03.1-11.88,0-.94,0-1.99.08-2.93,0-.39.2-.67.57-.67,2.1-.18,4.48-.39,6.47.18.47.2,1.04.28,1.32.77.85,1.04,1.63,2.18,1.91,3.7.28,1.71.47,3.42.37,5.13,0,3.03-.18,6.19-.18,9.22Z"/>
              <path class="cls-3" d="M360.06,218.08c-4.29,3.03-6,8.55-7.22,13.1-.57,1.91-1.99,5.15-2.48,7.04-.47,1.71-.96,3.42-1.32,5.13-.1.47-.2.96-.39,1.42-1.61,3.52-2.28,7.22-3.52,10.85-.47,1.32-.75,2.75-1.32,3.99-.67,1.42-1.06,2.85-1.42,4.27-.2.75-.28,1.61-.67,2.38-.85,1.99-.96,3.99-.96,6.08.1,3.81.1,7.59.2,11.5,0,.67,0,1.42.18,2.18.28,2.2.18,4.76,0,6.94,0,.39-.28.57-.67.67-.18.1-.47.1-.65.1-3.34,0-6.65,0-9.99-.1h-.28c-.75,0-1.04-.18-1.04-.96v-6.37c0-1.22-.1-2.85-.1-4.37-.08-.37-.08-.65-.08-1.04.37-2.75.18-5.6.28-8.46,0-1.51-.28-3.13-.67-4.64-.47-1.73-1.04-3.52-1.63-5.23-1.32-4.29-2.75-8.46-3.6-12.84-.28-1.42-.75-2.75-1.24-4.09-.57-2.18-1.22-4.27-1.89-6.45-.96-2.85-1.91-5.8-2.95-8.65,0-.2-.1-.39-.1-.49-.65-3.6-1.61-7.12-2.75-10.64-.18-.75-.39-1.53.28-1.61.75,0,1.89-.1,2.75-.1,3.24,0,6.47.1,9.71.1.96,0,1.24.18,1.42,1.04.75,3.81,2.1,7.51,2.95,11.31.75,3.99,1.89,7.9,2.85,11.78l1.99,7.22c0,.1.18.18.28.18s.18-.08.18-.08c.2-.2.39-.49.39-.67.47-1.53.85-3.03,1.24-4.56,1.51-5.9,3.89-13.02,5.41-18.92.47-1.99,1.61-3.6,2.75-5.23.67-.85,1.63-1.61,2.67-2.08,1.81-.96,3.52-1.24,5.33-1.53,1.51-.28,3.03-.1,4.46.39,1.63.47,2.28,1.22,1.63,1.42Z"/>
              <path class="cls-3" d="M173.18,307.73c-.1.2-.28.39-.47.39-.96.1-2.1.28-3.05.28-2.28,0-3.81-.18-6.47-.1-.37,0-.75,0-1.22.1-.39,0-.57.28-.57.57-.1.39-.1.67-.1,1.04.28,4.66-.1,9.32-.1,13.88v1.53c.49,5.9-.08,11.78,0,17.68.1,1.51-.08,3.13.28,4.66.1.47,0,.85,0,1.22-.47,3.81-.37,7.71-.37,11.52v11.01c0,.85-.2,1.14-.96,1.14-1.71,0-3.32.67-4.94.2-1.71.28-3.32-.1-4.94,0-.37.08-.65.08-1.04.08-.75-.08-1.04-.28-1.04-1.04,0-2.28,0-4.48.08-6.76,0-5.23.1-11.4.1-16.62,0-.47,0-1.04-.1-1.53-.47-1.89-.18-3.7-.08-5.6.08-.49.18-.85.18-1.24-.39-1.89.18-3.7.18-5.51,0-.47.1-.96,0-1.42-.37-1.61-.28-3.13-.28-4.76-.08-3.22.1-6.45.1-9.69,0-.47,0-.96-.1-1.53-.37-2.28-.37-4.56-.08-6.94.08-.18.08-.47,0-.65,0-.57-.49-.96-.96-.96-.67,0-1.24-.1-1.91,0-2.75.28-4.46-.1-7.31-.1l-.96.1c-.57-.1-.96-.47-.96-1.04v-2.95c0-2.2-.18-4.37.1-6.57,0-1.04.18-1.22,1.32-1.22,1.4,0,2.83-.1,4.13-.1.39.79,1.18,1.1,2.52,1.1l1.42-.1c.77,0,1.34-.08,2.01,0,1.14,0,2.18,0,3.21-.08,1.42,0,2.67-.1,3.99.08.73.12,1.42-.2,1.91-.73,3.24.14,6.57-.08,9.89-.08.28,0,.59,0,.9-.02.37.51.94.83,1.67.94,1.4.16,2.71.24,4.07.2.02.12.02.26.02.41.08,1.42,0,2.85,0,4.27,0,1.06.08,2.2.18,3.24.1.57,0,1.14-.28,1.71Z"/>
              <path class="cls-3" d="M192.96,370.36c0,.49,0,1.24-.2,1.71-.08.2-.47.28-.75.39-.67.1-1.42.18-2.2.18-3.22,0-6.45-.18-9.69,0-.67,0-.85-.18-.85-.94,0-3.24,0-6.47.1-9.71,0-3.89.08-7.87-.1-11.88-.1-2.08,0-4.17.1-6.17.08-1.06.18-2.2,0-3.24-.2-.75-.2-1.53-.1-2.18.39-2.48.28-4.86.1-7.22-.2-2.2-.1-4.48,0-6.65.18-.67.18-1.34.08-1.99,0-3.24-.08-6.47-.08-9.71,0-2.85,0-5.6.08-8.46.1-2.08-.18-4.27,0-6.37,0-.08.02-.16.04-.22h.16c1.57,0,2.5-.22,2.99-.92h1.47c.49,0,.98.08,1.44.12.37.43.92.69,1.51.69h.75l4.92.14c0,.14,0,.31.02.49.1.37,0,.75,0,1.22,0,2.85-.08,6-.08,8.85-.2,3.7.08,7.3.08,11.01-.08,5.51-.28,13.51-.28,16.16,0,2.1-.08,4.29.28,6.37.2.96.1,2.87,0,3.7-.28,3.24,0,4.58,0,7.81,0,.65.1,1.79.1,2.18-.1.75-.1,1.53-.1,2.18.1,1.91.1,3.81.1,5.72-.1,2.28.18,4.46.1,6.74Z"/>
              <path class="cls-3" d="M254.35,368.08c-.1.85,0,1.81,0,2.67,0,.47,0,.85-.1,1.24-.08.47-.47.75-.85.85-.18.08-.37.08-.47.08-1.71-.18-3.52,0-5.23,0h-3.89c-.49,0-.85-.08-1.24-.18-.28-.1-.67-.47-.67-.67.39-1.51-.28-3.03-.08-4.46.08-1.06,0-2.2.18-3.24.18-.75.18-1.71.08-2.46-.26-1.24-.26-2.48-.26-3.72,0-4.64-.1-9.3-.1-13.96l.1-9.5c0-.57-.1-1.14-.1-1.71,0,0-.1-.2-.2-.2-.08,0-.18.1-.18.1-.39.47-.57,1.04-.57,1.61-.39,3.15-.96,7.33-1.42,10.38-.57,3.03-1.14,6.06-1.53,9.12-.37,2.46-.85,5.03-1.22,7.59-.1.96-.39,1.91-.57,2.95-.28,2.2-.67,4.37-.96,6.57-.18,1.22-.47,1.42-1.53,1.51-.47.1-.96.1-1.53.1-1.99,0-4.07-.1-6.17-.1-.57,0-1.14,0-1.71-.08-1.06,0-1.42-.28-1.63-1.42-.28-.96-.47-1.91-.65-2.95-.2-.85-.39-1.71-.49-2.67-.08-1.32-.37-2.56-.57-3.91-.57-3.5-.94-7.02-1.51-10.54-.49-2.56-.96-5.03-1.53-7.61-.28-1.61-.77-3.22-.96-4.84,0-.75-.28-1.42-.39-2.18-.28-.96.1-3.05-.85-3.7-.65.94-.37,2.93-.37,3.89,0,5.51.08,11.03.08,16.83.28,1.42,0,3.13-.08,4.84-.1,4.19-.1,8.93.28,13.12v.28c.08.65-.28,1.04-.96,1.14h-1.24c-3.13,0-6.17-.1-9.22.18-.75,0-1.14-.39-1.14-1.04-.1-.67-.1-1.34-.1-2.48.1-3.89.1-7.98-.18-11.88-.1-.28,0-.65,0-.94.18-.67.18-1.34,0-1.99-.28-1.81-.28-3.62.1-5.43.18-.65.08-1.32.08-1.99.1-6.17.1-12.45.2-18.62,0-2.95-.2-5.8,0-8.75.18-2.95.28-5.98.08-8.93-.08-1.53-.18-3.13-.18-4.66,0-.08-.1-.18-.1-.28.49-2.28,0-4.56,0-6.94v-.47c.1-1.34.49-1.71,1.91-1.53.85,0,1.71,0,2.67-.1,1.22-.18,2.46-.28,3.7-.08,1.32.18,2.67,0,3.99,0,.73,0,1.49-.06,2.24-.02.88,1,1.95,1.81,2.89,2.44.2.14.47.28.69.37.51,2.06,1.04,4.11,1.12,6.23.1.77.28,1.44.39,2.2.57,3.03.85,6.08,1.14,9.12.28,3.52,1.22,7.04,1.79,10.56l2.95,15.77c.1.18.2.39.28.47,0,.1.1.1.2.2.18.08.28,0,.37-.2l2.1-11.86c.18-1.06.47-2.01.67-2.95l1.51-8.08c.39-2.85.59-5.8,1.24-8.65.39-1.63.2-3.42.67-5.13.75-2.67,1.04-5.43,1.53-8.08,0-.39.08-.67.18-.96.04-.16.08-.31.12-.43l8.91.1c.28,0,.67,0,.96-.1.87-.08,1.59-.41,2.08-.96.73,0,1.47-.02,2.2-.04h1.42c.85.08,1.22.47,1.22,1.32v7.43c0,1.89-.37,3.78,0,5.7.2.75.1,1.51.1,2.28,0,4.56-.39,9.12-.18,13.67.08,2.77.28,5.62.18,8.46-.18,3.91.18,7.79,0,11.7v.47c.67,6.65.47,13.41.28,20.14Z"/>
              <path class="cls-3" d="M297.79,364.77c-.28,1.71,0,3.5,0,5.23,0,.47-.1.94-.1,1.51-.08.85-.37,1.24-1.22,1.24-2.01,0-4.01.18-6.76-.18-.28-.1-.67-.2-.96-.1-1.42.39-2.85.18-4.27.28-5.8.47-11.6.1-17.4.1-.18,0-.47,0-.75-.1-1.81,0-1.99,0-1.91-1.89.1-.49,0-.85,0-1.24s-.08-.67-.08-1.06c.47-7.12.28-14.35.37-21.57,0-2.56,0-5.13-.18-7.69-.1-1.42,0-2.85-.1-4.27,0-6.37,0-12.74-.08-19.11,0-1.89-.1-3.7-.2-5.51-.08-1.42-.08-2.75.2-4.17.08-.57.08-1.16.08-1.73-.18-2.28-.18-4.46-.08-6.74,0-.77.37-1.06,1.04-1.06l4.76.28c.47,0,1.22.2,1.61,0,1.91-.47,3.62-.08,5.51,0l.85.06c.37.41.9.67,1.53.75l1.61.1h1.99c1.34,0,2.67.1,3.99,0,1.42,0,2.77-.18,3.99-.39.79-.04,1.4-.35,1.77-.83,1.1,0,2.24.02,3.38.02.67,0,.85.2.96.85.08.57.37,1.14.28,1.73-.39,2.85.08,5.6-.28,8.44-.2.85-.39,1.14-1.34,1.24-1.61,0-3.13.28-4.94,0-1.22.1-2.46,0-3.7,0l-1.71.1c-2.38,0-4.74-.2-7.22,0-.39.08-.57.37-.67.65,0,.2-.08.39-.08.57.18,4.58-.57,9.03-.28,13.59,0,.67,0,1.34.08,1.99.1.57.1,1.24.39,1.71.39.67,1.04,0,1.61.1,2.01.39,4.09.47,6.08.1.49-.1.85-.1,1.24,0,1.71.37,3.52.28,5.23.28.96,0,1.04.08,1.32,1.14.39,1.53.28,3.03.1,4.46-.1,1.91,0,3.81-.1,5.72,0,.57-.28.94-.85,1.04-1.04.18-2.36.39-3.5.39-3.52,0-7.14-.39-10.66,0-.37.08-.65.28-.65.65,0,.57-.1,1.06-.1,1.53.18,2.48-.1,5.05,0,7.51.1,2.85,0,5.8.28,8.65.1.39-.1.85,0,1.24,0,.28.1.47.39.47.28.1.47.1.75.1,2.2-.28,4.27,0,6.47,0,3.13-.67,7.02.18,10.17-.28h1.04c.85.08,1.04.28,1.04,1.04,0,1.06.28,1.99.1,3.05Z"/>
              <path class="cls-3" d="M337.72,346.13c1.53,3.81,1.71,7.79,1.42,11.7-.18,2.56-1.06,5.03-1.99,7.41-.39.85-.67,1.71-1.06,2.46-.94,1.53-2.36,2.67-3.99,3.34-2.18.96-4.27,1.99-6.55,2.38-.39.08-.75.28-1.24.28-2.28.08-4.66.18-6.94-.1-1.14-.18-2.28-.39-3.32-.96-.39-.28-.77-.37-1.14-.37-1.71-.39-3.13-1.06-4.56-1.91-.2-.18-.39-.37-.57-.47-1.24-.49-2.01-1.42-2.67-2.56-.96-1.91-1.99-3.81-2.48-5.98-.37-1.73-.57-3.52-.65-5.43-.2-1.89-.1-3.89,0-5.88,0-.85.18-1.06,1.04-1.06.67-.08,1.32-.18,1.99-.08,2.95,0,5.98-.28,8.93,0,.49.08.77.37.77.85.08.94,0,1.99.08,2.95.1,1.61.39,3.32.57,4.92,0,.28.1.67.2.96.75,2.38,2.46,3.7,4.92,3.81.96.1,1.81.1,2.67-.28,2.28-.96,3.42-2.95,3.13-5.41-.47-3.91-1.79-7.51-4.74-10.46l-.77-.67c-2.36-3.24-5.31-5.88-8.26-8.65l-.85-.85c-1.61-1.99-3.24-3.89-4.74-5.98-.31-.28-.59-.67-.77-1.06-.75-2.36-2.1-4.64-2.85-7.12-.85-3.24-1.04-6.55-.67-9.89.1-1.04.2-2.08.49-3.13.37-2.18,1.51-4.09,2.46-5.98l.39-.57c1.89-2.28,4.17-4.27,7.12-5.33.67-.28,1.42-.47,2.1-.57,2.28-.47,4.66-.47,6.94-.65,2.18.47,4.37.47,6.55,1.14,1.81.47,3.34,1.32,4.84,2.46.77.57,1.42,1.34,2.2,2.2,1.99,2.28,2.95,5.31,3.42,8.65.28,2.08.1,4.66-.47,6.74-.87,2.95-2.95,4.66-5.8,5.23-2.95.77-5.72,0-8.08-1.99-.39-.28-.39-.57,0-.75,1.61-1.14,2.08-2.77,2.18-4.56,0-1.63-.18-3.15-.96-4.58-.57-1.14-1.42-1.79-2.65-1.89-.77-.28-2.1-.28-2.67-.18-2.28.08-3.34,1.22-4.19,3.6-.47,1.14-.47,2.38-.65,3.62,0,.47.08.94.28,1.51,0,.28.18.57.28.85.65,1.53,1.42,3.05,2.08,4.56l4.66,4.58c1.42,1.22,2.67,2.46,3.91,3.89.47.67,1.14,1.34,1.79,1.99,1.44,1.34,2.67,2.56,3.72,4.29.18.26.37.65.65.94,2.2,2.38,3.24,5.23,4.48,8.08Z"/>
            </g>
            <g>
              <path class="cls-1" d="M183.25,280.61c.1-.75.18-1.61.1-2.46-.49-3.44-.39-6.86-.39-10.28.1-2.38,0-4.74,0-7.02v-3.91c0-.39-.1-.67-.18-1.32,0-.77,0-1.63.08-2.56.2-2.1.28-4.01.1-5.51l.1-2.28v-2.1l.08-5.13c.1-3.34.2-6.65.2-10.09v-6.35c0-1.63-.85-2.38-2.48-2.38h-.37v-.49c0-1.61-.85-2.36-2.48-2.36h-3.03c-2.67.08-5.43.08-7.9-.1h-.1l-.85.1c-1.04.18-1.71.85-1.99,1.71v.28c-.18.47-.28,1.14-.28,1.32v2.2c0,1.22,0,2.56.2,3.89.18,1.32.28,2.38.08,3.24-.28,1.81-.28,3.6-.28,5.23v3.42c0,.67-.08,1.42,0,2.18.2,1.91.2,3.81.2,5.72l.08,2.08c0,.39.1.49.2.49l-2.1.08c-1.34.1-2.48.1-3.62,0l-1.04-.08c0-.85-.1-1.81-.28-2.77v-.57c.28-1.53.18-3.13.1-4.66l-.1-2.08.1-2.48c0-1.71.08-3.6-.1-5.41-.18-1.32-.1-2.56,0-3.99,0-.85.1-1.71.1-2.56v-1.81c-.2-1.71-1.06-2.48-2.87-2.67v-.18c-.18-1.71-1.04-2.56-2.85-2.67l-1.32-.1c-2.67,0-5.51,0-8.18-.08-.65,0-1.14,0-1.51.08-.96.2-1.73.85-2.01,1.91-.08.57-.08,1.14-.08,1.51v2.87c.08,2.36.08,4.64-.1,6.94v1.61l.1.85.08.67c.1.94.1,1.32,0,1.71-.28,1.61-.28,2.85,0,4.09.1.08.1.37.1.85.1,2.18.1,4.27,0,6.45v2.48c0,.65.1,1.14.1,1.79.08.49,0,1.06,0,1.71l-.1,1.53-.1,3.34c0,2.28-.08,4.56.1,6.84l-.1,2.18c-.37,5.15-.28,10.28-.18,15.3v11.42c0,2.1.75,2.85,2.85,2.85,0,.12,0,.22.02.33.02.59.1,1.06.31,1.42h.06c4.27.1,7.69.1,11.96.1,0,0,.96,0,1.63.08.47.04.94.06,1.42.08.35-.37.59-.83.67-1.34v-.85l.08-.96v-3.05c-.08-2.28-.08-4.46,0-7.02.1-.67.1-1.04,0-1.71-.08-2.56-.08-7.79-.08-11.31-.1-1.04,0-2.1,0-3.13l.08-2.1c2.28-.28,3.91-.18,5.7-.1l.96.1v7.04c0,2.46,0,4.84-.08,7.3-.2,2.77-.1,5.62-.1,8.36v2.67l.1.85v.77c.18,1.32.94,2.28,2.28,2.46l.57.1v.28s.02.08.02.12c.1.55.28,1.02.59,1.4.85.02,1.75,0,2.6-.06.57,0,1.14,0,1.73.08,1,.08,1.34.31,1.4,1.12.47,0,.94-.02,1.42-.08.47-.02.96-.06,1.44-.12.57-.08,1.18-.02,1.89,0h1.47c.14-.67.53-.92,1.3-.92h1.85c.26-.35.43-.81.51-1.42.04-.26.08-.55.08-.87.02-.24.02-.49.02-.77v-.96l-.1-4.56v-1.14c-.02-1.87-.06-3.68,0-5.51,0-.39.1-.75.1-1.14ZM176.78,293.63c-1.32,0-2.56-.1-3.7,0-2.28.28-4.27.28-6.55,0-.67-.1-.96-.47-1.04-1.14,0-.57-.1-1.06-.1-1.53,0-3.6-.1-7.33.1-10.93.18-4.37,0-8.65.08-13.02,0-1.61-.18-3.24-.18-4.94-.1-.37-.39-.57-.67-.65-.47-.1-1.04-.1-1.53-.1-2.93,0-5.13-.39-8.73,0-1.06.1-1.24.28-1.24,1.42,0,1.71-.18,3.42-.1,5.23,0,3.99,0,9.97.2,12.17-.28,4.07-.1,7.3-.1,10.93,0,.57-.1,1.14-.1,1.71-.08.39-.57.85-.94.75-2.38-.28-4.86.1-7.33,0-1.24-.08-2.38.1-3.52.1-1.22,0-1.42-.1-1.42-1.42v-3.05c.1-7.87-.39-15.77.2-23.56l.08-2.28c-.28-3.42,0-6.76,0-10.17,0-1.42.28-2.85,0-4.27,0-3.24.2-6.47,0-9.69,0-.39,0-.85-.08-1.24-.31-1.14-.2-2.28,0-3.42.18-.85,0-1.81-.1-2.77,0-.75-.2-1.51-.1-2.18.28-3.34.1-6.65.1-9.99,0-.37,0-.75.1-1.22.08-.39.37-.67.85-.77.37-.08.75-.08,1.22-.08,2.67.08,5.51.08,8.18.08.47,0,.85.1,1.24.1,1.04.1,1.42.39,1.51,1.32v1.73c0,2.28-.37,4.46-.08,6.74.28,2.56,0,5.13,0,7.69,0,2.2.37,4.48,0,6.65v.77c.37,2.18.37,4.27.37,6.45,0,.57.39.85.96.85.39,0,.85.1,1.24-.08.96-.28,1.99-.28,2.95-.2,1.99.2,3.99-.08,5.98-.08.75,0,1.04-.28,1.04-1.14-.08-2.85,0-5.8-.28-8.65-.08-1.06,0-1.99,0-3.05.1-2.46-.18-4.94.28-7.41.2-1.24.1-2.48-.08-3.7-.28-1.99-.1-3.99-.2-6,0-.37.2-.75.28-1.14.1-.37.39-.57.67-.65.28,0,.57-.1.75-.1,3.52.28,7.51.1,11.03.1.85,0,1.06.18,1.06.94v6.37c0,5.05-.2,10.07-.31,15.12-.08,1.42,0,2.95-.08,4.48.18,1.71.08,3.6-.1,5.41-.1,1.22-.18,2.46.1,3.7v.75c0,3.42.08,6.94,0,10.46,0,3.42-.1,6.94.39,10.46.18,1.14-.2,2.28-.2,3.42-.1,3.7.1,7.41.1,11.21v.96c0,2.46-.2,2.56-2.2,2.56Z"/>
              <path class="cls-1" d="M210.34,267.4c-.37-2.85-.94-5.7-1.22-8.57-.39-3.6-.85-7.22-1.53-10.83-.57-3.03-.85-5.8-1.32-8.83,0-.1-.28-.39-.28-.49-.28-.08-.39.2-.49.39-.08.85-.28,1.42-.47,2.28-.28,1.42-.47,2.95-.77,4.37-.18,1.32-.57,2.67-.75,3.89-.39,2.95-.67,6-.96,8.93-.08,0-.18.57-.18.57-.47,3.05-.75,5.43-1.24,8.46-.08.85,0,1.14.77,1.14,1.79,0,3.42.2,5.51-.08.65,0,1.22-.1,1.89,0,.85.08,1.14-.28,1.04-1.24ZM207.98,267.2h-.28l-1.24.1h-.57l.1-.85.28-2.18s.37-2.77.47-2.77c.18-1.81.39-3.6.67-5.41l.28,2.95c.18,1.71.47,3.42.75,5.13l.47,3.24-.94-.2ZM210.34,267.4c-.37-2.85-.94-5.7-1.22-8.57-.39-3.6-.85-7.22-1.53-10.83-.57-3.03-.85-5.8-1.32-8.83,0-.1-.28-.39-.28-.49-.28-.08-.39.2-.49.39-.08.85-.28,1.42-.47,2.28-.28,1.42-.47,2.95-.77,4.37-.18,1.32-.57,2.67-.75,3.89-.39,2.95-.67,6-.96,8.93-.08,0-.18.57-.18.57-.47,3.05-.75,5.43-1.24,8.46-.08.85,0,1.14.77,1.14,1.79,0,3.42.2,5.51-.08.65,0,1.22-.1,1.89,0,.85.08,1.14-.28,1.04-1.24ZM207.98,267.2h-.28l-1.24.1h-.57l.1-.85.28-2.18s.37-2.77.47-2.77c.18-1.81.39-3.6.67-5.41l.28,2.95c.18,1.71.47,3.42.75,5.13l.47,3.24-.94-.2ZM210.34,267.4c-.37-2.85-.94-5.7-1.22-8.57-.39-3.6-.85-7.22-1.53-10.83-.57-3.03-.85-5.8-1.32-8.83,0-.1-.28-.39-.28-.49-.28-.08-.39.2-.49.39-.08.85-.28,1.42-.47,2.28-.28,1.42-.47,2.95-.77,4.37-.18,1.32-.57,2.67-.75,3.89-.39,2.95-.67,6-.96,8.93-.08,0-.18.57-.18.57-.47,3.05-.75,5.43-1.24,8.46-.08.85,0,1.14.77,1.14,1.79,0,3.42.2,5.51-.08.65,0,1.22-.1,1.89,0,.85.08,1.14-.28,1.04-1.24ZM207.98,267.2h-.28l-1.24.1h-.57l.1-.85.28-2.18s.37-2.77.47-2.77c.18-1.81.39-3.6.67-5.41l.28,2.95c.18,1.71.47,3.42.75,5.13l.47,3.24-.94-.2ZM210.34,267.4c-.37-2.85-.94-5.7-1.22-8.57-.39-3.6-.85-7.22-1.53-10.83-.57-3.03-.85-5.8-1.32-8.83,0-.1-.28-.39-.28-.49-.28-.08-.39.2-.49.39-.08.85-.28,1.42-.47,2.28-.28,1.42-.47,2.95-.77,4.37-.18,1.32-.57,2.67-.75,3.89-.39,2.95-.67,6-.96,8.93-.08,0-.18.57-.18.57-.47,3.05-.75,5.43-1.24,8.46-.08.85,0,1.14.77,1.14,1.79,0,3.42.2,5.51-.08.65,0,1.22-.1,1.89,0,.85.08,1.14-.28,1.04-1.24ZM207.98,267.2h-.28l-1.24.1h-.57l.1-.85.28-2.18s.37-2.77.47-2.77c.18-1.81.39-3.6.67-5.41l.28,2.95c.18,1.71.47,3.42.75,5.13l.47,3.24-.94-.2ZM210.34,267.4c-.37-2.85-.94-5.7-1.22-8.57-.39-3.6-.85-7.22-1.53-10.83-.57-3.03-.85-5.8-1.32-8.83,0-.1-.28-.39-.28-.49-.28-.08-.39.2-.49.39-.08.85-.28,1.42-.47,2.28-.28,1.42-.47,2.95-.77,4.37-.18,1.32-.57,2.67-.75,3.89-.39,2.95-.67,6-.96,8.93-.08,0-.18.57-.18.57-.47,3.05-.75,5.43-1.24,8.46-.08.85,0,1.14.77,1.14,1.79,0,3.42.2,5.51-.08.65,0,1.22-.1,1.89,0,.85.08,1.14-.28,1.04-1.24ZM207.98,267.2h-.28l-1.24.1h-.57l.1-.85.28-2.18s.37-2.77.47-2.77c.18-1.81.39-3.6.67-5.41l.28,2.95c.18,1.71.47,3.42.75,5.13l.47,3.24-.94-.2ZM210.34,267.4c-.37-2.85-.94-5.7-1.22-8.57-.39-3.6-.85-7.22-1.53-10.83-.57-3.03-.85-5.8-1.32-8.83,0-.1-.28-.39-.28-.49-.28-.08-.39.2-.49.39-.08.85-.28,1.42-.47,2.28-.28,1.42-.47,2.95-.77,4.37-.18,1.32-.57,2.67-.75,3.89-.39,2.95-.67,6-.96,8.93-.08,0-.18.57-.18.57-.47,3.05-.75,5.43-1.24,8.46-.08.85,0,1.14.77,1.14,1.79,0,3.42.2,5.51-.08.65,0,1.22-.1,1.89,0,.85.08,1.14-.28,1.04-1.24ZM207.98,267.2h-.28l-1.24.1h-.57l.1-.85.28-2.18s.37-2.77.47-2.77c.18-1.81.39-3.6.67-5.41l.28,2.95c.18,1.71.47,3.42.75,5.13l.47,3.24-.94-.2ZM210.34,267.4c-.37-2.85-.94-5.7-1.22-8.57-.39-3.6-.85-7.22-1.53-10.83-.57-3.03-.85-5.8-1.32-8.83,0-.1-.28-.39-.28-.49-.28-.08-.39.2-.49.39-.08.85-.28,1.42-.47,2.28-.28,1.42-.47,2.95-.77,4.37-.18,1.32-.57,2.67-.75,3.89-.39,2.95-.67,6-.96,8.93-.08,0-.18.57-.18.57-.47,3.05-.75,5.43-1.24,8.46-.08.85,0,1.14.77,1.14,1.79,0,3.42.2,5.51-.08.65,0,1.22-.1,1.89,0,.85.08,1.14-.28,1.04-1.24ZM207.98,267.2h-.28l-1.24.1h-.57l.1-.85.28-2.18s.37-2.77.47-2.77c.18-1.81.39-3.6.67-5.41l.28,2.95c.18,1.71.47,3.42.75,5.13l.47,3.24-.94-.2ZM210.34,267.4c-.37-2.85-.94-5.7-1.22-8.57-.39-3.6-.85-7.22-1.53-10.83-.57-3.03-.85-5.8-1.32-8.83,0-.1-.28-.39-.28-.49-.28-.08-.39.2-.49.39-.08.85-.28,1.42-.47,2.28-.28,1.42-.47,2.95-.77,4.37-.18,1.32-.57,2.67-.75,3.89-.39,2.95-.67,6-.96,8.93-.08,0-.18.57-.18.57-.47,3.05-.75,5.43-1.24,8.46-.08.85,0,1.14.77,1.14,1.79,0,3.42.2,5.51-.08.65,0,1.22-.1,1.89,0,.85.08,1.14-.28,1.04-1.24ZM207.98,267.2h-.28l-1.24.1h-.57l.1-.85.28-2.18s.37-2.77.47-2.77c.18-1.81.39-3.6.67-5.41l.28,2.95c.18,1.71.47,3.42.75,5.13l.47,3.24-.94-.2ZM233.15,295.52l-.08-.08c-.28-.18-.55-.45-.81-.83-.02,0-.04-.04-.04-.04-.28-.41-.55-.87-.81-1.44-.18-.39-.35-.83-.53-1.3-.37-1.14-.65-2.56-.85-4.37-.18-1.79-.57-3.7-.94-5.41-.39-1.53-.67-2.95-.85-4.37-.39-2.85-.77-5.7-1.06-8.44l-1.99-13.41-.39-2.38c-.47-2.85-.85-5.8-1.51-8.73-.39-1.14-.57-2.38-.77-3.72l-.18-1.04c-.18-.85-.28-1.71-.39-2.56l-.28-2.56c-.37-2.48-.75-4.84-1.22-7.33-.28-2.1-.57-4.17-1.24-6.27-.28-1.14-1.34-1.99-2.56-2.1l-.28-.75c-.28-1.14-1.34-1.99-2.56-2.1h-1.81c-1.63-.1-3.24,0-4.76.1-1.51,0-3.03.08-4.56,0l-3.81-.2c-1.22,0-2.36.77-2.75,1.91l-.28.94-.85,3.52-.39,2.85c-.18,1.81-.47,3.52-.75,5.23l-.39,2.56-.39,2.38-.65,3.05c-.49,1.89-.96,3.78-1.34,5.7-.37,1.71-.75,3.6-.85,5.51-.18,1.61-.47,3.24-.75,4.94-.28,1.32-.57,2.65-.75,3.99l-.2,1.42c-.28,1.81-.57,3.42-.96,5.03-.28.85-.65,1.91-.65,3.05,0,1.42-.28,2.75-.57,4.27l-.49,1.99c-.47,2.67-1.04,5.23-1.61,7.79l-1.04,4.84-.02.1v.06l-.65,3.36-.28,1.71c-.2,1.02.26,1.89,1.02,2.3.28.18.63.26.98.26h.96l-.1.28c-.04.14-.04.26-.04.39-.02.59.18,1.1.53,1.49.75.1,1.51.14,2.26-.2,1.14.28,3.05.18,4.19.08.71-.06.71.18.73.96l1.44.02,1.14.04,2.95-.1c1.06,0,1.81-.67,2.28-1.53l.2-.57c.18-.37.28-.75.37-1.42l.2-.94c.18-1.14.37-2.38.65-3.24l1.06-5.41h2.46c1.91.08,3.91.08,5.9-.1l.96,4.94.47,1.51c.61,1.99,1.89,3.26,3.28,4.33.14.1.28.22.43.33.24.39.51.73.81,1.08.73.02,1.44.12,2.14.39.67.2.96.49,1.14,1.16.1.43.2.83.31,1.26.1.04.18.08.26.1h.18l1.42.39,1.93.35,1.2.22c2.58.39,5.15-.18,7.14-1.81,1.51-1.22,1.71-2.65.08-3.42ZM229.36,294.95c-1.81,1.42-3.91,1.91-6.08,1.53-1.53-.18-2.95-.57-4.37-.85-.28-.1-.49-.1-.67-.28-1.71-1.24-3.42-2.46-4.09-4.56-.65-2.38-1.71-5.13-1.71-7.71,0-.08-.08-.08-.08-.18-.31-2.1-1.24-2.95-3.34-2.56-2.85.39-5.7.18-8.46.18-.37,0-.65,0-.94.1-.39.1-.67.28-.77.57l-1.14,5.9c-.37,1.42-.65,3.5-.94,4.92l-.39.96c-.18.39-.47.67-.96.67-.96,0-1.99.1-2.95.1-2.46-.1-5.03-.1-7.51-.2h-.75c-.39,0-.67-.37-.57-.85.28-1.53.57-3.7.96-5.23.85-4.17,1.89-8.36,2.65-12.64.39-2.18,1.06-4.27,1.06-6.55,0-.96.28-1.81.57-2.67.57-2.18.85-4.37,1.24-6.65.18-1.24.47-2.56.75-3.89.28-1.71.57-3.44.75-5.15.1-1.79.49-3.6.85-5.31.57-2.95,1.34-5.8,1.99-8.75.28-1.61.49-3.32.77-4.94.47-2.65.75-5.41,1.14-8.08.28-1.42.67-2.85,1.04-4.37.2-.47.77-.85,1.34-.85,1.22.1,2.65.1,3.78.2,3.24.18,6.19-.28,9.42-.1h1.71c.67.1,1.14.47,1.32,1.04.57,2.01.85,4.01,1.14,6.08.49,2.48.85,4.86,1.24,7.33.28,1.71.39,3.42.67,5.13.28,1.71.47,3.34.94,4.94.87,3.62,1.34,7.33,1.91,10.93l1.99,13.31c.28,2.85.67,5.7,1.04,8.55.49,3.34,1.42,6.47,1.81,9.81.18,1.51.47,3.13.96,4.64.47,1.42,1.32,3.34,2.67,4.29.47.37,1.22.28,0,1.22ZM209.12,258.83c-.39-3.6-.85-7.22-1.53-10.83-.57-3.03-.85-5.8-1.32-8.83,0-.1-.28-.39-.28-.49-.28-.08-.39.2-.49.39-.08.85-.28,1.42-.47,2.28-.28,1.42-.47,2.95-.77,4.37-.18,1.32-.57,2.67-.75,3.89-.39,2.95-.67,6-.96,8.93-.08,0-.18.57-.18.57-.47,3.05-.75,5.43-1.24,8.46-.08.85,0,1.14.77,1.14,1.79,0,3.42.2,5.51-.08.65,0,1.22-.1,1.89,0,.85.08,1.14-.28,1.04-1.24-.37-2.85-.94-5.7-1.22-8.57ZM207.98,267.2h-.28l-1.24.1h-.57l.1-.85.28-2.18s.37-2.77.47-2.77c.18-1.81.39-3.6.67-5.41l.28,2.95c.18,1.71.47,3.42.75,5.13l.47,3.24-.94-.2ZM210.34,267.4c-.37-2.85-.94-5.7-1.22-8.57-.39-3.6-.85-7.22-1.53-10.83-.57-3.03-.85-5.8-1.32-8.83,0-.1-.28-.39-.28-.49-.28-.08-.39.2-.49.39-.08.85-.28,1.42-.47,2.28-.28,1.42-.47,2.95-.77,4.37-.18,1.32-.57,2.67-.75,3.89-.39,2.95-.67,6-.96,8.93-.08,0-.18.57-.18.57-.47,3.05-.75,5.43-1.24,8.46-.08.85,0,1.14.77,1.14,1.79,0,3.42.2,5.51-.08.65,0,1.22-.1,1.89,0,.85.08,1.14-.28,1.04-1.24ZM207.98,267.2h-.28l-1.24.1h-.57l.1-.85.28-2.18s.37-2.77.47-2.77c.18-1.81.39-3.6.67-5.41l.28,2.95c.18,1.71.47,3.42.75,5.13l.47,3.24-.94-.2ZM210.34,267.4c-.37-2.85-.94-5.7-1.22-8.57-.39-3.6-.85-7.22-1.53-10.83-.57-3.03-.85-5.8-1.32-8.83,0-.1-.28-.39-.28-.49-.28-.08-.39.2-.49.39-.08.85-.28,1.42-.47,2.28-.28,1.42-.47,2.95-.77,4.37-.18,1.32-.57,2.67-.75,3.89-.39,2.95-.67,6-.96,8.93-.08,0-.18.57-.18.57-.47,3.05-.75,5.43-1.24,8.46-.08.85,0,1.14.77,1.14,1.79,0,3.42.2,5.51-.08.65,0,1.22-.1,1.89,0,.85.08,1.14-.28,1.04-1.24ZM207.98,267.2h-.28l-1.24.1h-.57l.1-.85.28-2.18s.37-2.77.47-2.77c.18-1.81.39-3.6.67-5.41l.28,2.95c.18,1.71.47,3.42.75,5.13l.47,3.24-.94-.2ZM210.34,267.4c-.37-2.85-.94-5.7-1.22-8.57-.39-3.6-.85-7.22-1.53-10.83-.57-3.03-.85-5.8-1.32-8.83,0-.1-.28-.39-.28-.49-.28-.08-.39.2-.49.39-.08.85-.28,1.42-.47,2.28-.28,1.42-.47,2.95-.77,4.37-.18,1.32-.57,2.67-.75,3.89-.39,2.95-.67,6-.96,8.93-.08,0-.18.57-.18.57-.47,3.05-.75,5.43-1.24,8.46-.08.85,0,1.14.77,1.14,1.79,0,3.42.2,5.51-.08.65,0,1.22-.1,1.89,0,.85.08,1.14-.28,1.04-1.24ZM207.98,267.2h-.28l-1.24.1h-.57l.1-.85.28-2.18s.37-2.77.47-2.77c.18-1.81.39-3.6.67-5.41l.28,2.95c.18,1.71.47,3.42.75,5.13l.47,3.24-.94-.2ZM210.34,267.4c-.37-2.85-.94-5.7-1.22-8.57-.39-3.6-.85-7.22-1.53-10.83-.57-3.03-.85-5.8-1.32-8.83,0-.1-.28-.39-.28-.49-.28-.08-.39.2-.49.39-.08.85-.28,1.42-.47,2.28-.28,1.42-.47,2.95-.77,4.37-.18,1.32-.57,2.67-.75,3.89-.39,2.95-.67,6-.96,8.93-.08,0-.18.57-.18.57-.47,3.05-.75,5.43-1.24,8.46-.08.85,0,1.14.77,1.14,1.79,0,3.42.2,5.51-.08.65,0,1.22-.1,1.89,0,.85.08,1.14-.28,1.04-1.24ZM207.98,267.2h-.28l-1.24.1h-.57l.1-.85.28-2.18s.37-2.77.47-2.77c.18-1.81.39-3.6.67-5.41l.28,2.95c.18,1.71.47,3.42.75,5.13l.47,3.24-.94-.2ZM210.34,267.4c-.37-2.85-.94-5.7-1.22-8.57-.39-3.6-.85-7.22-1.53-10.83-.57-3.03-.85-5.8-1.32-8.83,0-.1-.28-.39-.28-.49-.28-.08-.39.2-.49.39-.08.85-.28,1.42-.47,2.28-.28,1.42-.47,2.95-.77,4.37-.18,1.32-.57,2.67-.75,3.89-.39,2.95-.67,6-.96,8.93-.08,0-.18.57-.18.57-.47,3.05-.75,5.43-1.24,8.46-.08.85,0,1.14.77,1.14,1.79,0,3.42.2,5.51-.08.65,0,1.22-.1,1.89,0,.85.08,1.14-.28,1.04-1.24ZM207.98,267.2h-.28l-1.24.1h-.57l.1-.85.28-2.18s.37-2.77.47-2.77c.18-1.81.39-3.6.67-5.41l.28,2.95c.18,1.71.47,3.42.75,5.13l.47,3.24-.94-.2ZM210.34,267.4c-.37-2.85-.94-5.7-1.22-8.57-.39-3.6-.85-7.22-1.53-10.83-.57-3.03-.85-5.8-1.32-8.83,0-.1-.28-.39-.28-.49-.28-.08-.39.2-.49.39-.08.85-.28,1.42-.47,2.28-.28,1.42-.47,2.95-.77,4.37-.18,1.32-.57,2.67-.75,3.89-.39,2.95-.67,6-.96,8.93-.08,0-.18.57-.18.57-.47,3.05-.75,5.43-1.24,8.46-.08.85,0,1.14.77,1.14,1.79,0,3.42.2,5.51-.08.65,0,1.22-.1,1.89,0,.85.08,1.14-.28,1.04-1.24ZM207.98,267.2h-.28l-1.24.1h-.57l.1-.85.28-2.18s.37-2.77.47-2.77c.18-1.81.39-3.6.67-5.41l.28,2.95c.18,1.71.47,3.42.75,5.13l.47,3.24-.94-.2ZM210.34,267.4c-.37-2.85-.94-5.7-1.22-8.57-.39-3.6-.85-7.22-1.53-10.83-.57-3.03-.85-5.8-1.32-8.83,0-.1-.28-.39-.28-.49-.28-.08-.39.2-.49.39-.08.85-.28,1.42-.47,2.28-.28,1.42-.47,2.95-.77,4.37-.18,1.32-.57,2.67-.75,3.89-.39,2.95-.67,6-.96,8.93-.08,0-.18.57-.18.57-.47,3.05-.75,5.43-1.24,8.46-.08.85,0,1.14.77,1.14,1.79,0,3.42.2,5.51-.08.65,0,1.22-.1,1.89,0,.85.08,1.14-.28,1.04-1.24ZM207.98,267.2h-.28l-1.24.1h-.57l.1-.85.28-2.18s.37-2.77.47-2.77c.18-1.81.39-3.6.67-5.41l.28,2.95c.18,1.71.47,3.42.75,5.13l.47,3.24-.94-.2ZM210.34,267.4c-.37-2.85-.94-5.7-1.22-8.57-.39-3.6-.85-7.22-1.53-10.83-.57-3.03-.85-5.8-1.32-8.83,0-.1-.28-.39-.28-.49-.28-.08-.39.2-.49.39-.08.85-.28,1.42-.47,2.28-.28,1.42-.47,2.95-.77,4.37-.18,1.32-.57,2.67-.75,3.89-.39,2.95-.67,6-.96,8.93-.08,0-.18.57-.18.57-.47,3.05-.75,5.43-1.24,8.46-.08.85,0,1.14.77,1.14,1.79,0,3.42.2,5.51-.08.65,0,1.22-.1,1.89,0,.85.08,1.14-.28,1.04-1.24ZM207.98,267.2h-.28l-1.24.1h-.57l.1-.85.28-2.18s.37-2.77.47-2.77c.18-1.81.39-3.6.67-5.41l.28,2.95c.18,1.71.47,3.42.75,5.13l.47,3.24-.94-.2Z"/>
              <path class="cls-1" d="M299.02,235.74c0-.75-.28-1.61-.37-2.36-.2-1.53-.85-2.56-2.28-3.24-1.14-.57-2.38-.85-3.62-.85-.65,0-1.32.1-1.99,0-1.32,0-1.61.18-1.61,1.53l-.28,10.93c.18,2.65,0,5.8.08,8.93,0,.75-.08,1.53,0,2.18,0,.57.39.96.96,1.06h3.7c.57,0,1.14,0,1.71-.1,1.53-.18,2.56-.96,2.95-2.56.28-1.24.57-2.67.57-3.91.28-3.89.39-7.51.18-11.6ZM297.41,247.26c0,1.14-.28,2.46-.57,3.7-.18.94-.67,1.32-1.71,1.42-.47.1-.96.1-1.53.1h-.37v-2.95c0-1.71,0-3.42-.1-4.94l.28-10.93v-.1c.67.1,1.14,0,1.61,0h.57c.57,0,1.14.1,1.63.18l.18.85.18.96c.2,3.81.1,7.33-.18,11.7ZM277.73,284.03s-.04-.02-.06-.02c.02.02.04.04.08.06l-.02-.04ZM299.02,235.74c0-.75-.28-1.61-.37-2.36-.2-1.53-.85-2.56-2.28-3.24-1.14-.57-2.38-.85-3.62-.85-.65,0-1.32.1-1.99,0-1.32,0-1.61.18-1.61,1.53l-.28,10.93c.18,2.65,0,5.8.08,8.93,0,.75-.08,1.53,0,2.18,0,.57.39.96.96,1.06h3.7c.57,0,1.14,0,1.71-.1,1.53-.18,2.56-.96,2.95-2.56.28-1.24.57-2.67.57-3.91.28-3.89.39-7.51.18-11.6ZM297.41,247.26c0,1.14-.28,2.46-.57,3.7-.18.94-.67,1.32-1.71,1.42-.47.1-.96.1-1.53.1h-.37v-2.95c0-1.71,0-3.42-.1-4.94l.28-10.93v-.1c.67.1,1.14,0,1.61,0h.57c.57,0,1.14.1,1.63.18l.18.85.18.96c.2,3.81.1,7.33-.18,11.7ZM277.73,284.03s-.04-.02-.06-.02c.02.02.04.04.08.06l-.02-.04ZM277.73,284.03s-.04-.02-.06-.02c.02.02.04.04.08.06l-.02-.04ZM299.02,235.74c0-.75-.28-1.61-.37-2.36-.2-1.53-.85-2.56-2.28-3.24-1.14-.57-2.38-.85-3.62-.85-.65,0-1.32.1-1.99,0-1.32,0-1.61.18-1.61,1.53l-.28,10.93c.18,2.65,0,5.8.08,8.93,0,.75-.08,1.53,0,2.18,0,.57.39.96.96,1.06h3.7c.57,0,1.14,0,1.71-.1,1.53-.18,2.56-.96,2.95-2.56.28-1.24.57-2.67.57-3.91.28-3.89.39-7.51.18-11.6ZM297.41,247.26c0,1.14-.28,2.46-.57,3.7-.18.94-.67,1.32-1.71,1.42-.47.1-.96.1-1.53.1h-.37v-2.95c0-1.71,0-3.42-.1-4.94l.28-10.93v-.1c.67.1,1.14,0,1.61,0h.57c.57,0,1.14.1,1.63.18l.18.85.18.96c.2,3.81.1,7.33-.18,11.7ZM299.02,235.74c0-.75-.28-1.61-.37-2.36-.2-1.53-.85-2.56-2.28-3.24-1.14-.57-2.38-.85-3.62-.85-.65,0-1.32.1-1.99,0-1.32,0-1.61.18-1.61,1.53l-.28,10.93c.18,2.65,0,5.8.08,8.93,0,.75-.08,1.53,0,2.18,0,.57.39.96.96,1.06h3.7c.57,0,1.14,0,1.71-.1,1.53-.18,2.56-.96,2.95-2.56.28-1.24.57-2.67.57-3.91.28-3.89.39-7.51.18-11.6ZM297.41,247.26c0,1.14-.28,2.46-.57,3.7-.18.94-.67,1.32-1.71,1.42-.47.1-.96.1-1.53.1h-.37v-2.95c0-1.71,0-3.42-.1-4.94l.28-10.93v-.1c.67.1,1.14,0,1.61,0h.57c.57,0,1.14.1,1.63.18l.18.85.18.96c.2,3.81.1,7.33-.18,11.7ZM277.73,284.03s-.04-.02-.06-.02c.02.02.04.04.08.06l-.02-.04ZM277.73,284.03s-.04-.02-.06-.02c.02.02.04.04.08.06l-.02-.04ZM299.02,235.74c0-.75-.28-1.61-.37-2.36-.2-1.53-.85-2.56-2.28-3.24-1.14-.57-2.38-.85-3.62-.85-.65,0-1.32.1-1.99,0-1.32,0-1.61.18-1.61,1.53l-.28,10.93c.18,2.65,0,5.8.08,8.93,0,.75-.08,1.53,0,2.18,0,.57.39.96.96,1.06h3.7c.57,0,1.14,0,1.71-.1,1.53-.18,2.56-.96,2.95-2.56.28-1.24.57-2.67.57-3.91.28-3.89.39-7.51.18-11.6ZM297.41,247.26c0,1.14-.28,2.46-.57,3.7-.18.94-.67,1.32-1.71,1.42-.47.1-.96.1-1.53.1h-.37v-2.95c0-1.71,0-3.42-.1-4.94l.28-10.93v-.1c.67.1,1.14,0,1.61,0h.57c.57,0,1.14.1,1.63.18l.18.85.18.96c.2,3.81.1,7.33-.18,11.7ZM299.02,235.74c0-.75-.28-1.61-.37-2.36-.2-1.53-.85-2.56-2.28-3.24-1.14-.57-2.38-.85-3.62-.85-.65,0-1.32.1-1.99,0-1.32,0-1.61.18-1.61,1.53l-.28,10.93c.18,2.65,0,5.8.08,8.93,0,.75-.08,1.53,0,2.18,0,.57.39.96.96,1.06h3.7c.57,0,1.14,0,1.71-.1,1.53-.18,2.56-.96,2.95-2.56.28-1.24.57-2.67.57-3.91.28-3.89.39-7.51.18-11.6ZM297.41,247.26c0,1.14-.28,2.46-.57,3.7-.18.94-.67,1.32-1.71,1.42-.47.1-.96.1-1.53.1h-.37v-2.95c0-1.71,0-3.42-.1-4.94l.28-10.93v-.1c.67.1,1.14,0,1.61,0h.57c.57,0,1.14.1,1.63.18l.18.85.18.96c.2,3.81.1,7.33-.18,11.7ZM277.73,284.03s-.04-.02-.06-.02c.02.02.04.04.08.06l-.02-.04ZM277.73,284.03s-.04-.02-.06-.02c.02.02.04.04.08.06l-.02-.04ZM299.02,235.74c0-.75-.28-1.61-.37-2.36-.2-1.53-.85-2.56-2.28-3.24-1.14-.57-2.38-.85-3.62-.85-.65,0-1.32.1-1.99,0-1.32,0-1.61.18-1.61,1.53l-.28,10.93c.18,2.65,0,5.8.08,8.93,0,.75-.08,1.53,0,2.18,0,.57.39.96.96,1.06h3.7c.57,0,1.14,0,1.71-.1,1.53-.18,2.56-.96,2.95-2.56.28-1.24.57-2.67.57-3.91.28-3.89.39-7.51.18-11.6ZM297.41,247.26c0,1.14-.28,2.46-.57,3.7-.18.94-.67,1.32-1.71,1.42-.47.1-.96.1-1.53.1h-.37v-2.95c0-1.71,0-3.42-.1-4.94l.28-10.93v-.1c.67.1,1.14,0,1.61,0h.57c.57,0,1.14.1,1.63.18l.18.85.18.96c.2,3.81.1,7.33-.18,11.7ZM299.02,235.74c0-.75-.28-1.61-.37-2.36-.2-1.53-.85-2.56-2.28-3.24-1.14-.57-2.38-.85-3.62-.85-.65,0-1.32.1-1.99,0-1.32,0-1.61.18-1.61,1.53l-.28,10.93c.18,2.65,0,5.8.08,8.93,0,.75-.08,1.53,0,2.18,0,.57.39.96.96,1.06h3.7c.57,0,1.14,0,1.71-.1,1.53-.18,2.56-.96,2.95-2.56.28-1.24.57-2.67.57-3.91.28-3.89.39-7.51.18-11.6ZM297.41,247.26c0,1.14-.28,2.46-.57,3.7-.18.94-.67,1.32-1.71,1.42-.47.1-.96.1-1.53.1h-.37v-2.95c0-1.71,0-3.42-.1-4.94l.28-10.93v-.1c.67.1,1.14,0,1.61,0h.57c.57,0,1.14.1,1.63.18l.18.85.18.96c.2,3.81.1,7.33-.18,11.7ZM277.67,284.01s.04.04.08.06l-.02-.04s-.04-.02-.06-.02ZM316.05,243.17v-2.2c0-.85-.1-1.79-.2-2.65l-.1-1.24-.18-1.14c-.18-1.91-.39-3.99-1.04-5.9-.49-1.99-1.53-3.81-2.77-5.13-.65-.75-1.42-1.42-2.08-1.99l-.77-.85c-2.95-3.13-5.8-4.76-9.03-5.23-1.22-.18-2.36-.28-3.42-.47-.65-.2-1.14-.2-1.79-.1-1.53.28-2.95.18-4.58.1h-3.03c-1.42.08-2.77,0-4.27-.1l-2.38-.18c-1.24,0-2.56.08-3.91.28-1.32.18-2.08.94-2.08,2.36v19.78l-.1,8.65v4.17l.1,4.29v.85c0,.85-.1,1.79.08,2.75.1.39.1.85-.08,1.71,0,.39-.1.96-.1,1.53v2.95c0,1.89,0,3.89.28,5.88,0,2.85,0,5.72-.1,8.57l.1,2.18c0,.67-.1,1.53,0,2.38v8.08c0,1.32.85,2.28,2.2,2.46h.65v.39c0,.08,0,.16.02.22.04.61.26,1.12.65,1.49,1.26.08,2.56.16,3.81-.14.96-.2,1.99.08,2.95,0,2.69-.2,5.37-.22,8.12-.22.33-.37.51-.85.51-1.4.02-.04.02-.08.02-.12v-.57c0-.67,0-1.42-.1-1.91-.18-1.04-.18-2.56-.18-4.09v-2.56c-.1-1.81,0-3.6,0-5.41v-2.67c0-1.32,0-2.46.08-3.7.2-1.53.49-3.32.2-5.13.28.18.85.18.85.18,1.71.2,3.6.1,5.98-.28,4.27-.47,7.59-2.1,10.07-4.84,3.24-3.32,5.03-7.33,5.23-11.6,0-1.14,0-2.18.18-3.24.39-2.08.28-4.27.2-6.17ZM311.57,246.3c-.18,1.14-.18,2.28-.18,3.42-.2,4.19-1.99,7.69-4.86,10.64-2.46,2.77-5.6,3.99-9.22,4.37-1.89.28-3.78.47-5.7.28-.67,0-1.32.1-1.99.18-.39,0-.57.28-.47.67.37,1.81.08,3.62-.1,5.41-.1,1.24-.1,2.48-.1,3.81,0,2.67-.08,5.41,0,8.18.1,1.89-.08,4.94.2,6.84.18.67.08,1.42.08,2.2,0,.57-.28.94-.94.94-1.34.2-2.56.39-3.91.39-1.99.1-3.99,0-5.98,0-.47,0-1.04-.1-1.53-.1-.57-.08-.85-.47-.85-1.04v-8.18c-.1-1.14,0-2.28,0-3.42h-.1c.1-3.13.1-6.37.1-9.5v-.18c-.47-2.95-.18-5.8-.28-8.75,0-1.14.39-2.28.18-3.42-.18-1.14-.08-2.28-.08-3.42,0-2.85-.1-5.72-.1-8.46,0-5.7.1-11.5.1-17.19v-11.23c0-.65.18-.85.85-.94,1.24-.2,2.46-.28,3.7-.28,2.28.08,4.48.37,6.65.28,2.85-.1,5.62.37,8.46-.2,1.32.28,2.75.49,4.17.67,3.34.47,5.9,2.38,8.18,4.76,1.14,1.22,1.99,2.85,2.46,4.56.67,2.18.85,4.56,1.14,6.84.1,1.24.28,2.48.28,3.7,0,2.67.28,5.43-.18,8.18ZM298.65,233.38c-.2-1.53-.85-2.56-2.28-3.24-1.14-.57-2.38-.85-3.62-.85-.65,0-1.32.1-1.99,0-1.32,0-1.61.18-1.61,1.53l-.28,10.93c.18,2.65,0,5.8.08,8.93,0,.75-.08,1.53,0,2.18,0,.57.39.96.96,1.06h3.7c.57,0,1.14,0,1.71-.1,1.53-.18,2.56-.96,2.95-2.56.28-1.24.57-2.67.57-3.91.28-3.89.39-7.51.18-11.6,0-.75-.28-1.61-.37-2.36ZM297.41,247.26c0,1.14-.28,2.46-.57,3.7-.18.94-.67,1.32-1.71,1.42-.47.1-.96.1-1.53.1h-.37v-2.95c0-1.71,0-3.42-.1-4.94l.28-10.93v-.1c.67.1,1.14,0,1.61,0h.57c.57,0,1.14.1,1.63.18l.18.85.18.96c.2,3.81.1,7.33-.18,11.7ZM277.67,284.01s.04.04.08.06l-.02-.04s-.04-.02-.06-.02ZM277.73,284.03s-.04-.02-.06-.02c.02.02.04.04.08.06l-.02-.04ZM299.02,235.74c0-.75-.28-1.61-.37-2.36-.2-1.53-.85-2.56-2.28-3.24-1.14-.57-2.38-.85-3.62-.85-.65,0-1.32.1-1.99,0-1.32,0-1.61.18-1.61,1.53l-.28,10.93c.18,2.65,0,5.8.08,8.93,0,.75-.08,1.53,0,2.18,0,.57.39.96.96,1.06h3.7c.57,0,1.14,0,1.71-.1,1.53-.18,2.56-.96,2.95-2.56.28-1.24.57-2.67.57-3.91.28-3.89.39-7.51.18-11.6ZM297.41,247.26c0,1.14-.28,2.46-.57,3.7-.18.94-.67,1.32-1.71,1.42-.47.1-.96.1-1.53.1h-.37v-2.95c0-1.71,0-3.42-.1-4.94l.28-10.93v-.1c.67.1,1.14,0,1.61,0h.57c.57,0,1.14.1,1.63.18l.18.85.18.96c.2,3.81.1,7.33-.18,11.7ZM299.02,235.74c0-.75-.28-1.61-.37-2.36-.2-1.53-.85-2.56-2.28-3.24-1.14-.57-2.38-.85-3.62-.85-.65,0-1.32.1-1.99,0-1.32,0-1.61.18-1.61,1.53l-.28,10.93c.18,2.65,0,5.8.08,8.93,0,.75-.08,1.53,0,2.18,0,.57.39.96.96,1.06h3.7c.57,0,1.14,0,1.71-.1,1.53-.18,2.56-.96,2.95-2.56.28-1.24.57-2.67.57-3.91.28-3.89.39-7.51.18-11.6ZM297.41,247.26c0,1.14-.28,2.46-.57,3.7-.18.94-.67,1.32-1.71,1.42-.47.1-.96.1-1.53.1h-.37v-2.95c0-1.71,0-3.42-.1-4.94l.28-10.93v-.1c.67.1,1.14,0,1.61,0h.57c.57,0,1.14.1,1.63.18l.18.85.18.96c.2,3.81.1,7.33-.18,11.7ZM277.73,284.03s-.04-.02-.06-.02c.02.02.04.04.08.06l-.02-.04ZM277.73,284.03s-.04-.02-.06-.02c.02.02.04.04.08.06l-.02-.04ZM299.02,235.74c0-.75-.28-1.61-.37-2.36-.2-1.53-.85-2.56-2.28-3.24-1.14-.57-2.38-.85-3.62-.85-.65,0-1.32.1-1.99,0-1.32,0-1.61.18-1.61,1.53l-.28,10.93c.18,2.65,0,5.8.08,8.93,0,.75-.08,1.53,0,2.18,0,.57.39.96.96,1.06h3.7c.57,0,1.14,0,1.71-.1,1.53-.18,2.56-.96,2.95-2.56.28-1.24.57-2.67.57-3.91.28-3.89.39-7.51.18-11.6ZM297.41,247.26c0,1.14-.28,2.46-.57,3.7-.18.94-.67,1.32-1.71,1.42-.47.1-.96.1-1.53.1h-.37v-2.95c0-1.71,0-3.42-.1-4.94l.28-10.93v-.1c.67.1,1.14,0,1.61,0h.57c.57,0,1.14.1,1.63.18l.18.85.18.96c.2,3.81.1,7.33-.18,11.7ZM299.02,235.74c0-.75-.28-1.61-.37-2.36-.2-1.53-.85-2.56-2.28-3.24-1.14-.57-2.38-.85-3.62-.85-.65,0-1.32.1-1.99,0-1.32,0-1.61.18-1.61,1.53l-.28,10.93c.18,2.65,0,5.8.08,8.93,0,.75-.08,1.53,0,2.18,0,.57.39.96.96,1.06h3.7c.57,0,1.14,0,1.71-.1,1.53-.18,2.56-.96,2.95-2.56.28-1.24.57-2.67.57-3.91.28-3.89.39-7.51.18-11.6ZM297.41,247.26c0,1.14-.28,2.46-.57,3.7-.18.94-.67,1.32-1.71,1.42-.47.1-.96.1-1.53.1h-.37v-2.95c0-1.71,0-3.42-.1-4.94l.28-10.93v-.1c.67.1,1.14,0,1.61,0h.57c.57,0,1.14.1,1.63.18l.18.85.18.96c.2,3.81.1,7.33-.18,11.7ZM277.73,284.03s-.04-.02-.06-.02c.02.02.04.04.08.06l-.02-.04ZM277.73,284.03s-.04-.02-.06-.02c.02.02.04.04.08.06l-.02-.04ZM299.02,235.74c0-.75-.28-1.61-.37-2.36-.2-1.53-.85-2.56-2.28-3.24-1.14-.57-2.38-.85-3.62-.85-.65,0-1.32.1-1.99,0-1.32,0-1.61.18-1.61,1.53l-.28,10.93c.18,2.65,0,5.8.08,8.93,0,.75-.08,1.53,0,2.18,0,.57.39.96.96,1.06h3.7c.57,0,1.14,0,1.71-.1,1.53-.18,2.56-.96,2.95-2.56.28-1.24.57-2.67.57-3.91.28-3.89.39-7.51.18-11.6ZM297.41,247.26c0,1.14-.28,2.46-.57,3.7-.18.94-.67,1.32-1.71,1.42-.47.1-.96.1-1.53.1h-.37v-2.95c0-1.71,0-3.42-.1-4.94l.28-10.93v-.1c.67.1,1.14,0,1.61,0h.57c.57,0,1.14.1,1.63.18l.18.85.18.96c.2,3.81.1,7.33-.18,11.7ZM299.02,235.74c0-.75-.28-1.61-.37-2.36-.2-1.53-.85-2.56-2.28-3.24-1.14-.57-2.38-.85-3.62-.85-.65,0-1.32.1-1.99,0-1.32,0-1.61.18-1.61,1.53l-.28,10.93c.18,2.65,0,5.8.08,8.93,0,.75-.08,1.53,0,2.18,0,.57.39.96.96,1.06h3.7c.57,0,1.14,0,1.71-.1,1.53-.18,2.56-.96,2.95-2.56.28-1.24.57-2.67.57-3.91.28-3.89.39-7.51.18-11.6ZM297.41,247.26c0,1.14-.28,2.46-.57,3.7-.18.94-.67,1.32-1.71,1.42-.47.1-.96.1-1.53.1h-.37v-2.95c0-1.71,0-3.42-.1-4.94l.28-10.93v-.1c.67.1,1.14,0,1.61,0h.57c.57,0,1.14.1,1.63.18l.18.85.18.96c.2,3.81.1,7.33-.18,11.7ZM277.73,284.03s-.04-.02-.06-.02c.02.02.04.04.08.06l-.02-.04ZM255.98,233.95c-.28-1.53-1.06-2.67-1.91-3.7-.28-.49-.85-.57-1.32-.77-1.99-.57-4.37-.37-6.47-.18-.37,0-.57.28-.57.67-.08.94-.08,1.99-.08,2.93-.1,2.85.18,7.04-.1,11.88.28,1.91.1,3.91.18,5.8,0,1.04-.18,2.1.1,3.13,1.14.67,2.28.28,3.42.39.85.1,1.61.1,2.46,0,1.81-.1,3.15-.96,3.81-2.67.39-1.04.67-2.1.67-3.13,0-3.03.18-6.19.18-9.22.1-1.71-.08-3.42-.37-5.13ZM254.92,239.08c0,1.42,0,3.03-.08,4.56,0,1.53-.1,3.13-.1,4.66,0,.67-.18,1.53-.57,2.67-.49,1.14-1.24,1.61-2.56,1.71-.57.1-1.14.1-1.63.1v-1.53c0-1.14,0-2.38-.18-3.7.18-2.95.1-5.72.1-8v-6.08c1.61-.08,3.13-.18,4.46.1l.2.67c.37,1.99.47,3.52.37,4.84ZM255.98,233.95c-.28-1.53-1.06-2.67-1.91-3.7-.28-.49-.85-.57-1.32-.77-1.99-.57-4.37-.37-6.47-.18-.37,0-.57.28-.57.67-.08.94-.08,1.99-.08,2.93-.1,2.85.18,7.04-.1,11.88.28,1.91.1,3.91.18,5.8,0,1.04-.18,2.1.1,3.13,1.14.67,2.28.28,3.42.39.85.1,1.61.1,2.46,0,1.81-.1,3.15-.96,3.81-2.67.39-1.04.67-2.1.67-3.13,0-3.03.18-6.19.18-9.22.1-1.71-.08-3.42-.37-5.13ZM254.92,239.08c0,1.42,0,3.03-.08,4.56,0,1.53-.1,3.13-.1,4.66,0,.67-.18,1.53-.57,2.67-.49,1.14-1.24,1.61-2.56,1.71-.57.1-1.14.1-1.63.1v-1.53c0-1.14,0-2.38-.18-3.7.18-2.95.1-5.72.1-8v-6.08c1.61-.08,3.13-.18,4.46.1l.2.67c.37,1.99.47,3.52.37,4.84ZM255.98,233.95c-.28-1.53-1.06-2.67-1.91-3.7-.28-.49-.85-.57-1.32-.77-1.99-.57-4.37-.37-6.47-.18-.37,0-.57.28-.57.67-.08.94-.08,1.99-.08,2.93-.1,2.85.18,7.04-.1,11.88.28,1.91.1,3.91.18,5.8,0,1.04-.18,2.1.1,3.13,1.14.67,2.28.28,3.42.39.85.1,1.61.1,2.46,0,1.81-.1,3.15-.96,3.81-2.67.39-1.04.67-2.1.67-3.13,0-3.03.18-6.19.18-9.22.1-1.71-.08-3.42-.37-5.13ZM254.92,239.08c0,1.42,0,3.03-.08,4.56,0,1.53-.1,3.13-.1,4.66,0,.67-.18,1.53-.57,2.67-.49,1.14-1.24,1.61-2.56,1.71-.57.1-1.14.1-1.63.1v-1.53c0-1.14,0-2.38-.18-3.7.18-2.95.1-5.72.1-8v-6.08c1.61-.08,3.13-.18,4.46.1l.2.67c.37,1.99.47,3.52.37,4.84ZM255.98,233.95c-.28-1.53-1.06-2.67-1.91-3.7-.28-.49-.85-.57-1.32-.77-1.99-.57-4.37-.37-6.47-.18-.37,0-.57.28-.57.67-.08.94-.08,1.99-.08,2.93-.1,2.85.18,7.04-.1,11.88.28,1.91.1,3.91.18,5.8,0,1.04-.18,2.1.1,3.13,1.14.67,2.28.28,3.42.39.85.1,1.61.1,2.46,0,1.81-.1,3.15-.96,3.81-2.67.39-1.04.67-2.1.67-3.13,0-3.03.18-6.19.18-9.22.1-1.71-.08-3.42-.37-5.13ZM254.92,239.08c0,1.42,0,3.03-.08,4.56,0,1.53-.1,3.13-.1,4.66,0,.67-.18,1.53-.57,2.67-.49,1.14-1.24,1.61-2.56,1.71-.57.1-1.14.1-1.63.1v-1.53c0-1.14,0-2.38-.18-3.7.18-2.95.1-5.72.1-8v-6.08c1.61-.08,3.13-.18,4.46.1l.2.67c.37,1.99.47,3.52.37,4.84ZM255.98,233.95c-.28-1.53-1.06-2.67-1.91-3.7-.28-.49-.85-.57-1.32-.77-1.99-.57-4.37-.37-6.47-.18-.37,0-.57.28-.57.67-.08.94-.08,1.99-.08,2.93-.1,2.85.18,7.04-.1,11.88.28,1.91.1,3.91.18,5.8,0,1.04-.18,2.1.1,3.13,1.14.67,2.28.28,3.42.39.85.1,1.61.1,2.46,0,1.81-.1,3.15-.96,3.81-2.67.39-1.04.67-2.1.67-3.13,0-3.03.18-6.19.18-9.22.1-1.71-.08-3.42-.37-5.13ZM254.92,239.08c0,1.42,0,3.03-.08,4.56,0,1.53-.1,3.13-.1,4.66,0,.67-.18,1.53-.57,2.67-.49,1.14-1.24,1.61-2.56,1.71-.57.1-1.14.1-1.63.1v-1.53c0-1.14,0-2.38-.18-3.7.18-2.95.1-5.72.1-8v-6.08c1.61-.08,3.13-.18,4.46.1l.2.67c.37,1.99.47,3.52.37,4.84ZM255.98,233.95c-.28-1.53-1.06-2.67-1.91-3.7-.28-.49-.85-.57-1.32-.77-1.99-.57-4.37-.37-6.47-.18-.37,0-.57.28-.57.67-.08.94-.08,1.99-.08,2.93-.1,2.85.18,7.04-.1,11.88.28,1.91.1,3.91.18,5.8,0,1.04-.18,2.1.1,3.13,1.14.67,2.28.28,3.42.39.85.1,1.61.1,2.46,0,1.81-.1,3.15-.96,3.81-2.67.39-1.04.67-2.1.67-3.13,0-3.03.18-6.19.18-9.22.1-1.71-.08-3.42-.37-5.13ZM254.92,239.08c0,1.42,0,3.03-.08,4.56,0,1.53-.1,3.13-.1,4.66,0,.67-.18,1.53-.57,2.67-.49,1.14-1.24,1.61-2.56,1.71-.57.1-1.14.1-1.63.1v-1.53c0-1.14,0-2.38-.18-3.7.18-2.95.1-5.72.1-8v-6.08c1.61-.08,3.13-.18,4.46.1l.2.67c.37,1.99.47,3.52.37,4.84ZM255.98,233.95c-.28-1.53-1.06-2.67-1.91-3.7-.28-.49-.85-.57-1.32-.77-1.99-.57-4.37-.37-6.47-.18-.37,0-.57.28-.57.67-.08.94-.08,1.99-.08,2.93-.1,2.85.18,7.04-.1,11.88.28,1.91.1,3.91.18,5.8,0,1.04-.18,2.1.1,3.13,1.14.67,2.28.28,3.42.39.85.1,1.61.1,2.46,0,1.81-.1,3.15-.96,3.81-2.67.39-1.04.67-2.1.67-3.13,0-3.03.18-6.19.18-9.22.1-1.71-.08-3.42-.37-5.13ZM254.92,239.08c0,1.42,0,3.03-.08,4.56,0,1.53-.1,3.13-.1,4.66,0,.67-.18,1.53-.57,2.67-.49,1.14-1.24,1.61-2.56,1.71-.57.1-1.14.1-1.63.1v-1.53c0-1.14,0-2.38-.18-3.7.18-2.95.1-5.72.1-8v-6.08c1.61-.08,3.13-.18,4.46.1l.2.67c.37,1.99.47,3.52.37,4.84ZM255.98,233.95c-.28-1.53-1.06-2.67-1.91-3.7-.28-.49-.85-.57-1.32-.77-1.99-.57-4.37-.37-6.47-.18-.37,0-.57.28-.57.67-.08.94-.08,1.99-.08,2.93-.1,2.85.18,7.04-.1,11.88.28,1.91.1,3.91.18,5.8,0,1.04-.18,2.1.1,3.13,1.14.67,2.28.28,3.42.39.85.1,1.61.1,2.46,0,1.81-.1,3.15-.96,3.81-2.67.39-1.04.67-2.1.67-3.13,0-3.03.18-6.19.18-9.22.1-1.71-.08-3.42-.37-5.13ZM254.92,239.08c0,1.42,0,3.03-.08,4.56,0,1.53-.1,3.13-.1,4.66,0,.67-.18,1.53-.57,2.67-.49,1.14-1.24,1.61-2.56,1.71-.57.1-1.14.1-1.63.1v-1.53c0-1.14,0-2.38-.18-3.7.18-2.95.1-5.72.1-8v-6.08c1.61-.08,3.13-.18,4.46.1l.2.67c.37,1.99.47,3.52.37,4.84ZM272.89,235.94c-.18-3.52-1.53-6.94-4.09-10.74-.47-.85-1.24-1.61-2.38-2.38l-.28-.08-.18-.39c-.47-.85-1.24-1.61-2.38-2.38-.57-.28-1.22-.85-1.79-1.32-1.53-1.34-3.52-2.1-6.19-2.2-3.42-.08-6.76-.18-9.97-.18l-.59.18c-3.89-.18-5.21-.18-7.31-.18h-2.38c-.57,0-1.24,0-1.99.18-1.42.2-2.1,1.14-2.1,2.67v7.22l-.08,3.13v3.05c-.1,2.08,0,4.27.08,6.17l.1,3.7v3.52c0,1.81,0,3.62.1,5.41l.08,1.91v5.41l-.08,3.91v.57c.08.37.08.47,0,.65-.28,2.38-.39,4.58-.2,6.65.39,2.67.39,6,.28,9.03v2.38c0,1.79,0,3.52-.08,5.31,0,1.81-.1,3.62-.1,5.43,0,.18.02.37.04.53.1.65.37,1.14.81,1.44,0,0,.02.04.04.04.41.31.94.45,1.57.45h.39v.39c0,1.26.59,2.06,1.57,2.34.26.08.57.12.9.12h.51c.26-.71.59-.92,1.4-.92,2.18,0,4.37-.18,6.45-.08,1.36.06,2.73.08,4.09.04.35-.37.59-.85.69-1.44.06-.26.08-.53.08-.83v-1.61c.08-1.63.18-3.42-.2-5.13-.08-.28-.08-.67-.08-1.14v-3.81l.08-7.04.1-6.94c.47,0,1.81.1,2.85,0l5.33-.18.57-.1c.47,0,1.14-.08,1.42-.18,3.03-1.04,5.41-2.56,7.02-4.48.67-.75,1.24-1.51,1.71-2.28.39-.65.77-1.22,1.24-1.79.77-1.16,1.14-2.3,1.53-3.34l.28-.67c.39-.85.47-1.79.57-2.56,0-.47.1-.85.18-1.32.39-1.91.57-3.81.57-5.9v-3.99c0-2.1,0-4.17-.18-6.27ZM268.8,243.35c0,1.91-.18,3.81-.57,5.62-.28,1.22-.18,2.46-.67,3.7-.47,1.24-.85,2.46-1.61,3.6-1.04,1.34-1.81,2.77-2.85,4.01-1.71,1.99-3.99,3.22-6.47,4.07-.47.2-1.14.1-1.71.2-2.75.08-5.6.18-8.44.37-.77.1-.96.28-.96,1.14-.1,4.37-.1,9.71-.18,14.08v3.81c0,.47,0,.94.08,1.42.49,2.18.2,4.35.2,6.45,0,1.14-.49,1.71-1.63,1.81-.18.1-.47.1-.75.1-3.13,0-6.29-.1-9.42-.1-.75,0-1.04-.28-1.04-1.04,0-3.62.18-7.14.18-10.74s.2-8.08-.28-11.6c-.18-2.1-.08-4.19.2-6.27.08-.49,0-.96,0-1.42,0-2.56.08-5.15.08-7.71,0-1.14-.08-2.28-.08-3.52-.1-1.79-.1-3.6-.1-5.41,0-2.36-.1-4.74-.1-7.22-.08-1.99-.18-4.09-.08-6.17,0-1.99.08-4.09.08-6.19v-7.22c0-.85.1-1.14.96-1.24.57-.18,1.14-.18,1.71-.18,3.42,0,4.27-.1,7.69.1,0-.1,2.58-.1,2.58-.1,3.22,0,6.55.1,9.87.18,1.99.1,3.81.49,5.33,1.81.57.57,1.32,1.14,1.99,1.53.85.57,1.53,1.14,1.89,1.89,2.1,3.05,3.7,6.29,3.91,10.07.18,1.99.18,4.09.18,6.19v3.99ZM254.07,230.24c-.28-.49-.85-.57-1.32-.77-1.99-.57-4.37-.37-6.47-.18-.37,0-.57.28-.57.67-.08.94-.08,1.99-.08,2.93-.1,2.85.18,7.04-.1,11.88.28,1.91.1,3.91.18,5.8,0,1.04-.18,2.1.1,3.13,1.14.67,2.28.28,3.42.39.85.1,1.61.1,2.46,0,1.81-.1,3.15-.96,3.81-2.67.39-1.04.67-2.1.67-3.13,0-3.03.18-6.19.18-9.22.1-1.71-.08-3.42-.37-5.13-.28-1.53-1.06-2.67-1.91-3.7ZM254.92,239.08c0,1.42,0,3.03-.08,4.56,0,1.53-.1,3.13-.1,4.66,0,.67-.18,1.53-.57,2.67-.49,1.14-1.24,1.61-2.56,1.71-.57.1-1.14.1-1.63.1v-1.53c0-1.14,0-2.38-.18-3.7.18-2.95.1-5.72.1-8v-6.08c1.61-.08,3.13-.18,4.46.1l.2.67c.37,1.99.47,3.52.37,4.84ZM255.98,233.95c-.28-1.53-1.06-2.67-1.91-3.7-.28-.49-.85-.57-1.32-.77-1.99-.57-4.37-.37-6.47-.18-.37,0-.57.28-.57.67-.08.94-.08,1.99-.08,2.93-.1,2.85.18,7.04-.1,11.88.28,1.91.1,3.91.18,5.8,0,1.04-.18,2.1.1,3.13,1.14.67,2.28.28,3.42.39.85.1,1.61.1,2.46,0,1.81-.1,3.15-.96,3.81-2.67.39-1.04.67-2.1.67-3.13,0-3.03.18-6.19.18-9.22.1-1.71-.08-3.42-.37-5.13ZM254.92,239.08c0,1.42,0,3.03-.08,4.56,0,1.53-.1,3.13-.1,4.66,0,.67-.18,1.53-.57,2.67-.49,1.14-1.24,1.61-2.56,1.71-.57.1-1.14.1-1.63.1v-1.53c0-1.14,0-2.38-.18-3.7.18-2.95.1-5.72.1-8v-6.08c1.61-.08,3.13-.18,4.46.1l.2.67c.37,1.99.47,3.52.37,4.84ZM255.98,233.95c-.28-1.53-1.06-2.67-1.91-3.7-.28-.49-.85-.57-1.32-.77-1.99-.57-4.37-.37-6.47-.18-.37,0-.57.28-.57.67-.08.94-.08,1.99-.08,2.93-.1,2.85.18,7.04-.1,11.88.28,1.91.1,3.91.18,5.8,0,1.04-.18,2.1.1,3.13,1.14.67,2.28.28,3.42.39.85.1,1.61.1,2.46,0,1.81-.1,3.15-.96,3.81-2.67.39-1.04.67-2.1.67-3.13,0-3.03.18-6.19.18-9.22.1-1.71-.08-3.42-.37-5.13ZM254.92,239.08c0,1.42,0,3.03-.08,4.56,0,1.53-.1,3.13-.1,4.66,0,.67-.18,1.53-.57,2.67-.49,1.14-1.24,1.61-2.56,1.71-.57.1-1.14.1-1.63.1v-1.53c0-1.14,0-2.38-.18-3.7.18-2.95.1-5.72.1-8v-6.08c1.61-.08,3.13-.18,4.46.1l.2.67c.37,1.99.47,3.52.37,4.84ZM255.98,233.95c-.28-1.53-1.06-2.67-1.91-3.7-.28-.49-.85-.57-1.32-.77-1.99-.57-4.37-.37-6.47-.18-.37,0-.57.28-.57.67-.08.94-.08,1.99-.08,2.93-.1,2.85.18,7.04-.1,11.88.28,1.91.1,3.91.18,5.8,0,1.04-.18,2.1.1,3.13,1.14.67,2.28.28,3.42.39.85.1,1.61.1,2.46,0,1.81-.1,3.15-.96,3.81-2.67.39-1.04.67-2.1.67-3.13,0-3.03.18-6.19.18-9.22.1-1.71-.08-3.42-.37-5.13ZM254.92,239.08c0,1.42,0,3.03-.08,4.56,0,1.53-.1,3.13-.1,4.66,0,.67-.18,1.53-.57,2.67-.49,1.14-1.24,1.61-2.56,1.71-.57.1-1.14.1-1.63.1v-1.53c0-1.14,0-2.38-.18-3.7.18-2.95.1-5.72.1-8v-6.08c1.61-.08,3.13-.18,4.46.1l.2.67c.37,1.99.47,3.52.37,4.84ZM255.98,233.95c-.28-1.53-1.06-2.67-1.91-3.7-.28-.49-.85-.57-1.32-.77-1.99-.57-4.37-.37-6.47-.18-.37,0-.57.28-.57.67-.08.94-.08,1.99-.08,2.93-.1,2.85.18,7.04-.1,11.88.28,1.91.1,3.91.18,5.8,0,1.04-.18,2.1.1,3.13,1.14.67,2.28.28,3.42.39.85.1,1.61.1,2.46,0,1.81-.1,3.15-.96,3.81-2.67.39-1.04.67-2.1.67-3.13,0-3.03.18-6.19.18-9.22.1-1.71-.08-3.42-.37-5.13ZM254.92,239.08c0,1.42,0,3.03-.08,4.56,0,1.53-.1,3.13-.1,4.66,0,.67-.18,1.53-.57,2.67-.49,1.14-1.24,1.61-2.56,1.71-.57.1-1.14.1-1.63.1v-1.53c0-1.14,0-2.38-.18-3.7.18-2.95.1-5.72.1-8v-6.08c1.61-.08,3.13-.18,4.46.1l.2.67c.37,1.99.47,3.52.37,4.84ZM255.98,233.95c-.28-1.53-1.06-2.67-1.91-3.7-.28-.49-.85-.57-1.32-.77-1.99-.57-4.37-.37-6.47-.18-.37,0-.57.28-.57.67-.08.94-.08,1.99-.08,2.93-.1,2.85.18,7.04-.1,11.88.28,1.91.1,3.91.18,5.8,0,1.04-.18,2.1.1,3.13,1.14.67,2.28.28,3.42.39.85.1,1.61.1,2.46,0,1.81-.1,3.15-.96,3.81-2.67.39-1.04.67-2.1.67-3.13,0-3.03.18-6.19.18-9.22.1-1.71-.08-3.42-.37-5.13ZM254.92,239.08c0,1.42,0,3.03-.08,4.56,0,1.53-.1,3.13-.1,4.66,0,.67-.18,1.53-.57,2.67-.49,1.14-1.24,1.61-2.56,1.71-.57.1-1.14.1-1.63.1v-1.53c0-1.14,0-2.38-.18-3.7.18-2.95.1-5.72.1-8v-6.08c1.61-.08,3.13-.18,4.46.1l.2.67c.37,1.99.47,3.52.37,4.84ZM255.98,233.95c-.28-1.53-1.06-2.67-1.91-3.7-.28-.49-.85-.57-1.32-.77-1.99-.57-4.37-.37-6.47-.18-.37,0-.57.28-.57.67-.08.94-.08,1.99-.08,2.93-.1,2.85.18,7.04-.1,11.88.28,1.91.1,3.91.18,5.8,0,1.04-.18,2.1.1,3.13,1.14.67,2.28.28,3.42.39.85.1,1.61.1,2.46,0,1.81-.1,3.15-.96,3.81-2.67.39-1.04.67-2.1.67-3.13,0-3.03.18-6.19.18-9.22.1-1.71-.08-3.42-.37-5.13ZM254.92,239.08c0,1.42,0,3.03-.08,4.56,0,1.53-.1,3.13-.1,4.66,0,.67-.18,1.53-.57,2.67-.49,1.14-1.24,1.61-2.56,1.71-.57.1-1.14.1-1.63.1v-1.53c0-1.14,0-2.38-.18-3.7.18-2.95.1-5.72.1-8v-6.08c1.61-.08,3.13-.18,4.46.1l.2.67c.37,1.99.47,3.52.37,4.84Z"/>
              <path class="cls-1" d="M361.85,218.16c.1-1.04-1.14-2.28-3.03-2.85-1.71-.57-3.42-.75-5.13-.47-1.71.28-3.72.67-5.72,1.71-1.22.57-2.28,1.42-3.13,2.46-1.14,1.63-2.46,3.52-3.03,5.8-.67,2.85-1.71,6.08-2.67,9.32-.67,2.38-1.42,4.76-1.99,6.94l-.1-.39c-.75-2.65-1.42-5.31-1.89-7.98l-1.42-5.23c-.57-2.1-1.14-4.09-1.53-6.08-.39-1.53-1.24-2.18-2.75-2.18l-.1-.67c-.39-1.53-1.24-2.18-2.85-2.18l-9.71-.1-2.85.1c-1.79.18-1.99,1.71-1.51,3.42,1.22,3.89,2.08,7.31,2.65,10.54l.1.28v.1c.85,2.38,1.61,4.84,2.46,7.22l.96,2.85c.49,1.81,1.06,3.52,1.53,5.23.47,1.42.85,2.67,1.14,3.99.75,3.7,1.89,7.33,3.03,10.85l.67,2.08c.57,1.81,1.14,3.52,1.63,5.23.37,1.63.57,3.05.57,4.27v2.87c0,1.89,0,3.7-.28,5.49,0,.49,0,.96.08,1.34l.1,2.28v8.26c0,1.53.85,2.38,2.46,2.38h.39v.47c0,.1,0,.2.02.31.1,1.34.94,2.08,2.44,2.08h.28c.43.02.85.02,1.28.02,2.91.08,5.8.08,8.71.08l.75-.1c1.14-.18,1.99-.96,1.99-1.99.28-2.85.28-5.33,0-7.33-.18-.57-.18-1.22-.18-1.89l-.1-5.8-.08-5.7c0-2.1.08-3.7.85-5.51.28-.67.47-1.42.57-1.99l.18-.57c.28-1.42.67-2.77,1.32-4.09.39-.85.67-1.71.85-2.56l.49-1.53c.47-1.42.85-2.75,1.24-4.17.65-2.28,1.32-4.48,2.28-6.57.18-.57.37-1.22.47-1.71.39-1.61.75-3.32,1.24-5.03.28-1.06.85-2.38,1.32-3.91.47-1.04.96-2.18,1.14-3.13,1.24-4.46,2.77-9.4,6.55-12.25,2.2-.77.96-3.15-1.71-4.01ZM360.06,218.08c-4.29,3.03-6,8.55-7.22,13.1-.57,1.91-1.99,5.15-2.48,7.04-.47,1.71-.96,3.42-1.32,5.13-.1.47-.2.96-.39,1.42-1.61,3.52-2.28,7.22-3.52,10.85-.47,1.32-.75,2.75-1.32,3.99-.67,1.42-1.06,2.85-1.42,4.27-.2.75-.28,1.61-.67,2.38-.85,1.99-.96,3.99-.96,6.08.1,3.81.1,7.59.2,11.5,0,.67,0,1.42.18,2.18.28,2.2.18,4.76,0,6.94,0,.39-.28.57-.67.67-.18.1-.47.1-.65.1-3.34,0-6.65,0-9.99-.1h-.28c-.75,0-1.04-.18-1.04-.96v-6.37c0-1.22-.1-2.85-.1-4.37-.08-.37-.08-.65-.08-1.04.37-2.75.18-5.6.28-8.46,0-1.51-.28-3.13-.67-4.64-.47-1.73-1.04-3.52-1.63-5.23-1.32-4.29-2.75-8.46-3.6-12.84-.28-1.42-.75-2.75-1.24-4.09-.57-2.18-1.22-4.27-1.89-6.45-.96-2.85-1.91-5.8-2.95-8.65,0-.2-.1-.39-.1-.49-.65-3.6-1.61-7.12-2.75-10.64-.18-.75-.39-1.53.28-1.61.75,0,1.89-.1,2.75-.1,3.24,0,6.47.1,9.71.1.96,0,1.24.18,1.42,1.04.75,3.81,2.1,7.51,2.95,11.31.75,3.99,1.89,7.9,2.85,11.78l1.99,7.22c0,.1.18.18.28.18s.18-.08.18-.08c.2-.2.39-.49.39-.67.47-1.53.85-3.03,1.24-4.56,1.51-5.9,3.89-13.02,5.41-18.92.47-1.99,1.61-3.6,2.75-5.23.67-.85,1.63-1.61,2.67-2.08,1.81-.96,3.52-1.24,5.33-1.53,1.51-.28,3.03-.1,4.46.39,1.63.47,2.28,1.22,1.63,1.42Z"/>
              <path class="cls-1" d="M177.74,308.69c-.1-1.04-.18-2.1-.18-3.03v-1.44c0-.94.08-1.89,0-2.93,0-1.81-.85-2.67-2.67-2.85h-.18c0-.14,0-.28-.02-.41-.12-1.53-.98-2.28-2.65-2.46-.67-.08-1.42-.08-1.99-.08-.96.08-2.08.08-3.11.08h-.31l-3.81.1c-1.87,0-3.66.06-5.41,0-.63-.02-1.28-.04-1.91-.1-.75-.08-1.81-.08-1.81-.08-4.27,0-7.69,0-11.96-.1h-.37l-3.83.1c-1.89,0-2.75.75-2.75,2.56-.18,1.61-.18,3.32-.1,4.84v4.76c0,1.04.57,1.89,1.53,2.28.47.18.85.18,1.32.18v.39c0,1.04.57,1.89,1.53,2.28.57.28,1.06.18,1.71.08h.2c.94,0,1.79.1,2.65.1.96.1,1.91.1,2.95.1,0,1.53.1,2.95.28,4.37.1.47.1.85.1,1.32l-.1,3.81c0,1.99-.1,3.99,0,5.88v.77c0,1.32,0,2.75.28,4.27v1.14c0,.57-.1,1.14-.18,1.89-.1,1.06-.28,2.38,0,3.72l-.1.57-.1.37-.08,1.24c-.1,1.53-.2,3.13.18,4.84.1.39.1.77.1,1.24v8.26l-.1,8.36c-.1,2.28-.1,4.48-.1,6.76,0,1.53.87,2.28,2.38,2.46h.49v.39c0,1.53.85,2.28,2.36,2.46.57,0,.96,0,1.34-.08h1.71c.85.08,1.89.18,2.95,0,1.22.28,2.36.08,3.32,0,.67-.1,1.14-.18,1.71-.18,1.63,0,2.38-.96,2.38-2.58v-11.01c0-3.91-.1-7.71.39-11.42v-.39c.08-.37,0-.94,0-1.22-.28-.85-.28-1.81-.28-2.85v-1.63c0-2.18,0-4.46.08-6.74.1-3.62.2-7.22-.08-10.95v-1.42c0-1.61.08-3.21.08-4.94.1-2.93.2-5.98,0-8.93v-.37l.49.08c1.61-.08,2.75,0,3.89,0l2.56.1c.77,0,1.63-.1,2.28-.18l.85-.1c.77,0,1.34-.57,1.63-1.14.47-.85.57-1.71.47-2.56ZM173.18,307.73c-.1.2-.28.39-.47.39-.96.1-2.1.28-3.05.28-2.28,0-3.81-.18-6.47-.1-.37,0-.75,0-1.22.1-.39,0-.57.28-.57.57-.1.39-.1.67-.1,1.04.28,4.66-.1,9.32-.1,13.88v1.53c.49,5.9-.08,11.78,0,17.68.1,1.51-.08,3.13.28,4.66.1.47,0,.85,0,1.22-.47,3.81-.37,7.71-.37,11.52v11.01c0,.85-.2,1.14-.96,1.14-1.71,0-3.32.67-4.94.2-1.71.28-3.32-.1-4.94,0-.37.08-.65.08-1.04.08-.75-.08-1.04-.28-1.04-1.04,0-2.28,0-4.48.08-6.76,0-5.23.1-11.4.1-16.62,0-.47,0-1.04-.1-1.53-.47-1.89-.18-3.7-.08-5.6.08-.49.18-.85.18-1.24-.39-1.89.18-3.7.18-5.51,0-.47.1-.96,0-1.42-.37-1.61-.28-3.13-.28-4.76-.08-3.22.1-6.45.1-9.69,0-.47,0-.96-.1-1.53-.37-2.28-.37-4.56-.08-6.94.08-.18.08-.47,0-.65,0-.57-.49-.96-.96-.96-.67,0-1.24-.1-1.91,0-2.75.28-4.46-.1-7.31-.1l-.96.1c-.57-.1-.96-.47-.96-1.04v-2.95c0-2.2-.18-4.37.1-6.57,0-1.04.18-1.22,1.32-1.22,1.4,0,2.83-.1,4.13-.1h.06c4.27.1,7.69.1,11.96.1,0,0,.96,0,1.63.08.47.04.94.06,1.42.08,3.24.14,6.57-.08,9.89-.08.28,0,.59,0,.9-.02.85.02,1.75,0,2.6-.06.57,0,1.14,0,1.73.08,1,.08,1.34.31,1.4,1.12.02.12.02.26.02.41.08,1.42,0,2.85,0,4.27,0,1.06.08,2.2.18,3.24.1.57,0,1.14-.28,1.71Z"/>
              <path class="cls-3" d="M173.18,307.73c-.1.2-.28.39-.47.39-.96.1-2.1.28-3.05.28-2.28,0-3.81-.18-6.47-.1-.37,0-.75,0-1.22.1-.39,0-.57.28-.57.57-.1.39-.1.67-.1,1.04.28,4.66-.1,9.32-.1,13.88v1.53c.49,5.9-.08,11.78,0,17.68.1,1.51-.08,3.13.28,4.66.1.47,0,.85,0,1.22-.47,3.81-.37,7.71-.37,11.52v11.01c0,.85-.2,1.14-.96,1.14-1.71,0-3.32.67-4.94.2-1.71.28-3.32-.1-4.94,0-.37.08-.65.08-1.04.08-.75-.08-1.04-.28-1.04-1.04,0-2.28,0-4.48.08-6.76,0-5.23.1-11.4.1-16.62,0-.47,0-1.04-.1-1.53-.47-1.89-.18-3.7-.08-5.6.08-.49.18-.85.18-1.24-.39-1.89.18-3.7.18-5.51,0-.47.1-.96,0-1.42-.37-1.61-.28-3.13-.28-4.76-.08-3.22.1-6.45.1-9.69,0-.47,0-.96-.1-1.53-.37-2.28-.37-4.56-.08-6.94.08-.18.08-.47,0-.65,0-.57-.49-.96-.96-.96-.67,0-1.24-.1-1.91,0-2.75.28-4.46-.1-7.31-.1l-.96.1c-.57-.1-.96-.47-.96-1.04v-2.95c0-2.2-.18-4.37.1-6.57,0-1.04.18-1.22,1.32-1.22,1.4,0,2.83-.1,4.13-.1h.06c4.27.1,7.69.1,11.96.1,0,0,.96,0,1.63.08.47.04.94.06,1.42.08,3.24.14,6.57-.08,9.89-.08.28,0,.59,0,.9-.02.85.02,1.75,0,2.6-.06.57,0,1.14,0,1.73.08,1,.08,1.34.31,1.4,1.12.02.12.02.26.02.41.08,1.42,0,2.85,0,4.27,0,1.06.08,2.2.18,3.24.1.57,0,1.14-.28,1.71Z"/>
              <path class="cls-1" d="M197.13,369.79v-3.32c0-1.91,0-3.81-.1-5.72v-1.22c.1-.67.1-1.24.1-1.71v-.1l-.1-1.32c0-1.14,0-2.1-.08-2.95,0-1.53-.1-2.77.08-4.76.2-1.42.2-3.22,0-4.09-.28-1.61-.28-3.22-.28-5.03v-1.04l.2-9.71.08-6.47-.08-4.17c-.1-2.28-.1-4.56,0-6.84v-4.37l.08-4.48v-1.89c-.08-1.53-.85-2.38-2.36-2.18h-.49v-.67c-.08-1.53-.85-2.38-2.36-2.2-1.24.1-2.38.1-3.15,0-.75-.08-1.14,0-1.79.2-.28,0-.77,0-1.42-.1-.12,0-.26-.02-.43-.04-.28-.02-.59-.06-.92-.06h-3.32c-1.61,0-2.54.83-2.77,2.34v.04c-.08,1.34-.08,2.56,0,3.81v2.67c-.08,2.95-.08,5.7-.08,8.55l.08,4.84v4.94l.1.85c-.1.57-.18,1.06-.18,1.71-.1,1.99-.2,4.09,0,6.08.18,2.95.18,4.94-.1,6.94-.1.96-.1,1.81.1,2.67.18.85.08,1.81,0,2.85-.1,1.99-.2,4.19-.1,6.37.18,2.95.1,5.9.1,8.83v2.95c-.1,3.24-.1,6.47-.1,9.71,0,1.51.85,2.36,2.28,2.36h.57v.49c0,1.51.85,2.38,2.28,2.38,2.2-.1,4.27-.1,6.47,0h3.24c.47,0,.94,0,1.61-.1.67-.1,1.14-.2,1.71-.47.39-.2.75-.39.96-.96.18-.39.28-1.34.28-2.2.08-1.14,0-2.28-.1-3.42ZM192.96,370.36c0,.49,0,1.24-.2,1.71-.08.2-.47.28-.75.39-.67.1-1.42.18-2.2.18-3.22,0-6.45-.18-9.69,0-.67,0-.85-.18-.85-.94,0-3.24,0-6.47.1-9.71,0-3.89.08-7.87-.1-11.88-.1-2.08,0-4.17.1-6.17.08-1.06.18-2.2,0-3.24-.2-.75-.2-1.53-.1-2.18.39-2.48.28-4.86.1-7.22-.2-2.2-.1-4.48,0-6.65.18-.67.18-1.34.08-1.99,0-3.24-.08-6.47-.08-9.71,0-2.85,0-5.6.08-8.46.1-2.08-.18-4.27,0-6.37,0-.08.02-.16.04-.22.14-.67.53-.92,1.3-.92h3.32c.49,0,.98.08,1.44.12.75.1,1.51.14,2.26-.2,1.14.28,3.05.18,4.19.08.71-.06.71.18.73.96,0,.14,0,.31.02.49.1.37,0,.75,0,1.22,0,2.85-.08,6-.08,8.85-.2,3.7.08,7.3.08,11.01-.08,5.51-.28,13.51-.28,16.16,0,2.1-.08,4.29.28,6.37.2.96.1,2.87,0,3.7-.28,3.24,0,4.58,0,7.81,0,.65.1,1.79.1,2.18-.1.75-.1,1.53-.1,2.18.1,1.91.1,3.81.1,5.72-.1,2.28.18,4.46.1,6.74Z"/>
              <path class="cls-3" d="M192.96,370.36c0,.49,0,1.24-.2,1.71-.08.2-.47.28-.75.39-.67.1-1.42.18-2.2.18-3.22,0-6.45-.18-9.69,0-.67,0-.85-.18-.85-.94,0-3.24,0-6.47.1-9.71,0-3.89.08-7.87-.1-11.88-.1-2.08,0-4.17.1-6.17.08-1.06.18-2.2,0-3.24-.2-.75-.2-1.53-.1-2.18.39-2.48.28-4.86.1-7.22-.2-2.2-.1-4.48,0-6.65.18-.67.18-1.34.08-1.99,0-3.24-.08-6.47-.08-9.71,0-2.85,0-5.6.08-8.46.1-2.08-.18-4.27,0-6.37,0-.08.02-.16.04-.22.14-.67.53-.92,1.3-.92h3.32c.49,0,.98.08,1.44.12.75.1,1.51.14,2.26-.2,1.14.28,3.05.18,4.19.08.71-.06.71.18.73.96,0,.14,0,.31.02.49.1.37,0,.75,0,1.22,0,2.85-.08,6-.08,8.85-.2,3.7.08,7.3.08,11.01-.08,5.51-.28,13.51-.28,16.16,0,2.1-.08,4.29.28,6.37.2.96.1,2.87,0,3.7-.28,3.24,0,4.58,0,7.81,0,.65.1,1.79.1,2.18-.1.75-.1,1.53-.1,2.18.1,1.91.1,3.81.1,5.72-.1,2.28.18,4.46.1,6.74Z"/>
              <path class="cls-1" d="M258.34,350.69v-.37c.1-1.99,0-3.91,0-5.9-.08-1.89-.08-3.81,0-5.7.1-2.28,0-4.48-.08-6.55l-.1-2.1c-.1-2.67,0-5.33.1-8.08,0-1.81.08-3.7.08-5.51v-.57c0-.47.1-1.24-.08-1.99-.28-1.14-.2-2.2-.1-3.42.1-.67.1-1.34.1-1.99v-7.43c0-1.61-.96-2.56-2.58-2.75h-.28v-.1c0-1.61-.94-2.56-2.56-2.75h-1.51c-.51.02-1.02.04-1.51.02-1.59.06-3.17.04-4.68-.02-1.32-.1-2.67,0-3.99,0l-2.56.08c-1.57,0-2.42.71-2.81,2.22-.02.04-.02.1-.04.16-.2.39-.28.85-.28,1.14l-.39,2.38c-.28,1.89-.57,3.7-1.04,5.51-.39,1.04-.39,2.18-.49,3.03-.1.85-.1,1.53-.28,2.2-.47,2.1-.67,4.17-.96,6.27l-.28,2.46-1.51,8-.28,1.22-.39,1.63-.18-1.42c-.2-1.24-.49-2.56-.77-3.81-.47-2.28-.85-4.46-1.04-6.55-.28-3.05-.57-6.19-1.14-9.22l-.18-1.14-.2-.96c-.1-2.2-.57-4.27-1.04-6.19l-.39-1.61c-.04-.12-.1-.26-.16-.37-.39-.85-1-1.49-1.93-1.73l-.65-.18-.1-.57c-.39-1.06-1.04-1.81-2.1-2.1-1.36-.55-2.75-.47-3.85-.47h-2.42c-.85.08-1.61.08-2.38,0-1.24-.2-2.46-.1-4.09.08-.85.1-1.61.1-2.36.1-2.2-.28-3.34.67-3.44,2.85v.57c0,.85.1,1.71.1,2.48.1,1.32.18,2.46,0,3.6,0,.57.1,1.63.1,1.63l.08,4.27c.2,2.85.1,5.8-.08,8.73-.1,1.99-.1,4.01,0,5.9v2.95l-.2,18.62v.57c0,.57,0,.85-.08,1.06-.39,1.99-.39,4.07-.1,6.08.18.57.18,1.14,0,1.71v1.04c.28,3.32.28,7.12.18,11.78,0,1.14,0,1.81.1,2.56.1,1.42,1.14,2.38,2.67,2.38h.1l.08.47c.1,1.44,1.14,2.38,2.67,2.38,2.38-.18,4.76-.18,7.22-.18h3.24c1.53-.18,2.46-1.24,2.28-2.67v-.28c-.28-3.24-.39-7.12-.28-11.96l.18,1.04.28,2.38c.1,1.04.28,1.99.49,2.85.18,1.04.37,1.99.65,2.95.39,1.71,1.24,2.46,2.77,2.56l.08.28c.39,1.71,1.24,2.56,2.95,2.56.67.1,1.24.1,1.81.1l6.19.08c.57,0,1.14,0,1.71-.08,1.71-.2,2.46-.96,2.75-2.77l.96-6.55.08-.67v.47c-.08.85,0,1.73.1,2.38.18,1.06.18,1.53,0,1.99-.18,1.06.85,2.1,1.71,2.28.49.2.85.28,1.24.28l-.1.28c-.18,1.06.85,2.1,1.71,2.3.67.18,1.06.26,1.63.26h5.7c.85-.08,1.71-.08,2.56-.08.67.08,1.53,0,1.53,0,1.04-.18,1.81-.96,2.1-1.99.08-.39.08-.85.08-1.53v-.96c0-.57-.08-1.14,0-1.61.2-6.76.39-13.59-.28-20.35ZM254.35,368.08c-.1.85,0,1.81,0,2.67,0,.47,0,.85-.1,1.24-.08.47-.47.75-.85.85-.18.08-.37.08-.47.08-1.71-.18-3.52,0-5.23,0h-3.89c-.49,0-.85-.08-1.24-.18-.28-.1-.67-.47-.67-.67.39-1.51-.28-3.03-.08-4.46.08-1.06,0-2.2.18-3.24.18-.75.18-1.71.08-2.46-.26-1.24-.26-2.48-.26-3.72,0-4.64-.1-9.3-.1-13.96l.1-9.5c0-.57-.1-1.14-.1-1.71,0,0-.1-.2-.2-.2-.08,0-.18.1-.18.1-.39.47-.57,1.04-.57,1.61-.39,3.15-.96,7.33-1.42,10.38-.57,3.03-1.14,6.06-1.53,9.12-.37,2.46-.85,5.03-1.22,7.59-.1.96-.39,1.91-.57,2.95-.28,2.2-.67,4.37-.96,6.57-.18,1.22-.47,1.42-1.53,1.51-.47.1-.96.1-1.53.1-1.99,0-4.07-.1-6.17-.1-.57,0-1.14,0-1.71-.08-1.06,0-1.42-.28-1.63-1.42-.28-.96-.47-1.91-.65-2.95-.2-.85-.39-1.71-.49-2.67-.08-1.32-.37-2.56-.57-3.91-.57-3.5-.94-7.02-1.51-10.54-.49-2.56-.96-5.03-1.53-7.61-.28-1.61-.77-3.22-.96-4.84,0-.75-.28-1.42-.39-2.18-.28-.96.1-3.05-.85-3.7-.65.94-.37,2.93-.37,3.89,0,5.51.08,11.03.08,16.83.28,1.42,0,3.13-.08,4.84-.1,4.19-.1,8.93.28,13.12v.28c.08.65-.28,1.04-.96,1.14h-1.24c-3.13,0-6.17-.1-9.22.18-.75,0-1.14-.39-1.14-1.04-.1-.67-.1-1.34-.1-2.48.1-3.89.1-7.98-.18-11.88-.1-.28,0-.65,0-.94.18-.67.18-1.34,0-1.99-.28-1.81-.28-3.62.1-5.43.18-.65.08-1.32.08-1.99.1-6.17.1-12.45.2-18.62,0-2.95-.2-5.8,0-8.75.18-2.95.28-5.98.08-8.93-.08-1.53-.18-3.13-.18-4.66,0-.08-.1-.18-.1-.28.49-2.28,0-4.56,0-6.94v-.47c.1-1.34.49-1.71,1.91-1.53.85,0,1.71,0,2.67-.1,1.22-.18,2.46-.28,3.7-.08,1.32.18,2.67,0,3.99,0,.73,0,1.49-.06,2.24-.02.73.02,1.44.12,2.14.39.67.2.96.49,1.14,1.16.1.43.2.83.31,1.26.51,2.06,1.04,4.11,1.12,6.23.1.77.28,1.44.39,2.2.57,3.03.85,6.08,1.14,9.12.28,3.52,1.22,7.04,1.79,10.56l2.95,15.77c.1.18.2.39.28.47,0,.1.1.1.2.2.18.08.28,0,.37-.2l2.1-11.86c.18-1.06.47-2.01.67-2.95l1.51-8.08c.39-2.85.59-5.8,1.24-8.65.39-1.63.2-3.42.67-5.13.75-2.67,1.04-5.43,1.53-8.08,0-.39.08-.67.18-.96.04-.16.08-.31.12-.43.26-.71.59-.92,1.4-.92,2.18,0,4.37-.18,6.45-.08,1.36.06,2.73.08,4.09.04.73,0,1.47-.02,2.2-.04h1.42c.85.08,1.22.47,1.22,1.32v7.43c0,1.89-.37,3.78,0,5.7.2.75.1,1.51.1,2.28,0,4.56-.39,9.12-.18,13.67.08,2.77.28,5.62.18,8.46-.18,3.91.18,7.79,0,11.7v.47c.67,6.65.47,13.41.28,20.14Z"/>
              <path class="cls-3" d="M254.35,368.08c-.1.85,0,1.81,0,2.67,0,.47,0,.85-.1,1.24-.08.47-.47.75-.85.85-.18.08-.37.08-.47.08-1.71-.18-3.52,0-5.23,0h-3.89c-.49,0-.85-.08-1.24-.18-.28-.1-.67-.47-.67-.67.39-1.51-.28-3.03-.08-4.46.08-1.06,0-2.2.18-3.24.18-.75.18-1.71.08-2.46-.26-1.24-.26-2.48-.26-3.72,0-4.64-.1-9.3-.1-13.96l.1-9.5c0-.57-.1-1.14-.1-1.71,0,0-.1-.2-.2-.2-.08,0-.18.1-.18.1-.39.47-.57,1.04-.57,1.61-.39,3.15-.96,7.33-1.42,10.38-.57,3.03-1.14,6.06-1.53,9.12-.37,2.46-.85,5.03-1.22,7.59-.1.96-.39,1.91-.57,2.95-.28,2.2-.67,4.37-.96,6.57-.18,1.22-.47,1.42-1.53,1.51-.47.1-.96.1-1.53.1-1.99,0-4.07-.1-6.17-.1-.57,0-1.14,0-1.71-.08-1.06,0-1.42-.28-1.63-1.42-.28-.96-.47-1.91-.65-2.95-.2-.85-.39-1.71-.49-2.67-.08-1.32-.37-2.56-.57-3.91-.57-3.5-.94-7.02-1.51-10.54-.49-2.56-.96-5.03-1.53-7.61-.28-1.61-.77-3.22-.96-4.84,0-.75-.28-1.42-.39-2.18-.28-.96.1-3.05-.85-3.7-.65.94-.37,2.93-.37,3.89,0,5.51.08,11.03.08,16.83.28,1.42,0,3.13-.08,4.84-.1,4.19-.1,8.93.28,13.12v.28c.08.65-.28,1.04-.96,1.14h-1.24c-3.13,0-6.17-.1-9.22.18-.75,0-1.14-.39-1.14-1.04-.1-.67-.1-1.34-.1-2.48.1-3.89.1-7.98-.18-11.88-.1-.28,0-.65,0-.94.18-.67.18-1.34,0-1.99-.28-1.81-.28-3.62.1-5.43.18-.65.08-1.32.08-1.99.1-6.17.1-12.45.2-18.62,0-2.95-.2-5.8,0-8.75.18-2.95.28-5.98.08-8.93-.08-1.53-.18-3.13-.18-4.66,0-.08-.1-.18-.1-.28.49-2.28,0-4.56,0-6.94v-.47c.1-1.34.49-1.71,1.91-1.53.85,0,1.71,0,2.67-.1,1.22-.18,2.46-.28,3.7-.08,1.32.18,2.67,0,3.99,0,.73,0,1.49-.06,2.24-.02.73.02,1.44.12,2.14.39.67.2.96.49,1.14,1.16.1.43.2.83.31,1.26.51,2.06,1.04,4.11,1.12,6.23.1.77.28,1.44.39,2.2.57,3.03.85,6.08,1.14,9.12.28,3.52,1.22,7.04,1.79,10.56l2.95,15.77c.1.18.2.39.28.47,0,.1.1.1.2.2.18.08.28,0,.37-.2l2.1-11.86c.18-1.06.47-2.01.67-2.95l1.51-8.08c.39-2.85.59-5.8,1.24-8.65.39-1.63.2-3.42.67-5.13.75-2.67,1.04-5.43,1.53-8.08,0-.39.08-.67.18-.96.04-.16.08-.31.12-.43.26-.71.59-.92,1.4-.92,2.18,0,4.37-.18,6.45-.08,1.36.06,2.73.08,4.09.04.73,0,1.47-.02,2.2-.04h1.42c.85.08,1.22.47,1.22,1.32v7.43c0,1.89-.37,3.78,0,5.7.2.75.1,1.51.1,2.28,0,4.56-.39,9.12-.18,13.67.08,2.77.28,5.62.18,8.46-.18,3.91.18,7.79,0,11.7v.47c.67,6.65.47,13.41.28,20.14Z"/>
              <path class="cls-1" d="M302.07,365.62l-.1-1.06c0-.37-.04-.67-.12-.94-.04-.08-.06-.16-.1-.26v-.02c-.33-.75-1.02-1.12-2.14-1.24h-.49v-.39c0-1.61-.75-2.28-2.36-2.46h-.67c-.39,0-.77.08-1.42.08-1.14.1-2.38.1-3.7,0-1.81-.08-3.81-.18-5.62.2l-3.42-.1v-3.24l-.1-2.93v-3.24c.1-1.34.1-2.77,0-4.19v-.57l.1-.28c1.99-.08,4.09-.08,6.27,0l3.62.1c1.04,0,2.36-.18,3.81-.39,1.22-.18,1.99-1.14,1.99-2.46.08-.96.08-1.91.08-2.85v-2.77c.28-1.99.2-3.52-.08-4.94-.49-1.61-1.14-2.18-2.77-2.18l-.1-.67c-.47-1.61-1.14-2.18-2.75-2.18h-.85c-1.42,0-2.75,0-4.09-.28-.47-.1-1.24-.1-1.81,0-1.14.28-2.28.28-3.6.18-.18-2.28,0-4.46.1-6.84.18-2.1.28-4.27.18-6.47h2.67l3.89.1,1.71-.1h1.24c.75,0,1.61.1,2.38,0,1.32.2,2.46.1,3.52.1l1.61-.1c1.12-.08,1.81-.49,2.28-1.32v-.04c.16-.28.28-.63.39-1.02.08-.81.12-1.61.14-2.38-.02-.02,0-.02,0-.04.02-.73-.02-1.44-.06-2.14,0-1.42,0-2.67.2-3.99.08-.39,0-1.14-.2-1.71l-.08-.39c-.2-1.32-.96-2.1-2.38-2.1h-.28l-.18-.75c-.2-1.32-.96-2.1-2.38-2.1h-2.87c-2.87,0-5.86.02-8.73.2h-1.14c-.96-.1-1.42-.1-1.99,0-1.3.37-2.71.18-4.17.08h-.1l-1.42-.08c-1.34-.1-2.95-.28-4.58.18h-.57l-.57-.1-4.74-.28c-1.63,0-2.56.96-2.56,2.48-.1,2.56-.1,4.74.08,6.84,0,.47,0,.96-.08,1.42-.28,1.34-.28,2.67-.2,4.48.1,1.79.2,3.52.2,5.41.08,6.37.08,12.74.08,19.19.1.67.1,1.34.1,2.01v2.28c.18,2.56.18,5.03.18,7.59v6.47c0,5.13,0,10.07-.37,15.02l.08.85v2.18c0,1.91.77,2.56,2.87,2.67v.18c0,2.01.85,2.67,3.13,2.67l.94.1,5.33.08c3.99.1,8.08.1,12.17-.18h1.32c.96,0,2.1,0,3.13-.28h.2l1.04.2c1.81.18,3.34.18,4.76.08h1.42c1.61,0,2.46-.96,2.65-2.56v-.75l.1-.85-.1-1.81c0-1.14-.08-2.2.1-3.24.1-.75,0-1.61,0-2.18ZM297.79,364.77c-.28,1.71,0,3.5,0,5.23,0,.47-.1.94-.1,1.51-.08.85-.37,1.24-1.22,1.24-2.01,0-4.01.18-6.76-.18-.28-.1-.67-.2-.96-.1-1.42.39-2.85.18-4.27.28-5.8.47-11.6.1-17.4.1-.18,0-.47,0-.75-.1-1.81,0-1.99,0-1.91-1.89.1-.49,0-.85,0-1.24s-.08-.67-.08-1.06c.47-7.12.28-14.35.37-21.57,0-2.56,0-5.13-.18-7.69-.1-1.42,0-2.85-.1-4.27,0-6.37,0-12.74-.08-19.11,0-1.89-.1-3.7-.2-5.51-.08-1.42-.08-2.75.2-4.17.08-.57.08-1.16.08-1.73-.18-2.28-.18-4.46-.08-6.74,0-.77.37-1.06,1.04-1.06l4.76.28c.47,0,1.22.2,1.61,0,1.91-.47,3.62-.08,5.51,0l.85.06c1.26.08,2.56.16,3.81-.14.96-.2,1.99.08,2.95,0,2.69-.2,5.37-.22,8.12-.22,1.1,0,2.24.02,3.38.02.67,0,.85.2.96.85.08.57.37,1.14.28,1.73-.39,2.85.08,5.6-.28,8.44-.2.85-.39,1.14-1.34,1.24-1.61,0-3.13.28-4.94,0-1.22.1-2.46,0-3.7,0l-1.71.1c-2.38,0-4.74-.2-7.22,0-.39.08-.57.37-.67.65,0,.2-.08.39-.08.57.18,4.58-.57,9.03-.28,13.59,0,.67,0,1.34.08,1.99.1.57.1,1.24.39,1.71.39.67,1.04,0,1.61.1,2.01.39,4.09.47,6.08.1.49-.1.85-.1,1.24,0,1.71.37,3.52.28,5.23.28.96,0,1.04.08,1.32,1.14.39,1.53.28,3.03.1,4.46-.1,1.91,0,3.81-.1,5.72,0,.57-.28.94-.85,1.04-1.04.18-2.36.39-3.5.39-3.52,0-7.14-.39-10.66,0-.37.08-.65.28-.65.65,0,.57-.1,1.06-.1,1.53.18,2.48-.1,5.05,0,7.51.1,2.85,0,5.8.28,8.65.1.39-.1.85,0,1.24,0,.28.1.47.39.47.28.1.47.1.75.1,2.2-.28,4.27,0,6.47,0,3.13-.67,7.02.18,10.17-.28h1.04c.85.08,1.04.28,1.04,1.04,0,1.06.28,1.99.1,3.05Z"/>
              <path class="cls-3" d="M297.79,364.77c-.28,1.71,0,3.5,0,5.23,0,.47-.1.94-.1,1.51-.08.85-.37,1.24-1.22,1.24-2.01,0-4.01.18-6.76-.18-.28-.1-.67-.2-.96-.1-1.42.39-2.85.18-4.27.28-5.8.47-11.6.1-17.4.1-.18,0-.47,0-.75-.1-1.81,0-1.99,0-1.91-1.89.1-.49,0-.85,0-1.24s-.08-.67-.08-1.06c.47-7.12.28-14.35.37-21.57,0-2.56,0-5.13-.18-7.69-.1-1.42,0-2.85-.1-4.27,0-6.37,0-12.74-.08-19.11,0-1.89-.1-3.7-.2-5.51-.08-1.42-.08-2.75.2-4.17.08-.57.08-1.16.08-1.73-.18-2.28-.18-4.46-.08-6.74,0-.77.37-1.06,1.04-1.06l4.76.28c.47,0,1.22.2,1.61,0,1.91-.47,3.62-.08,5.51,0l.85.06c1.26.08,2.56.16,3.81-.14.96-.2,1.99.08,2.95,0,2.69-.2,5.37-.22,8.12-.22,1.1,0,2.24.02,3.38.02.67,0,.85.2.96.85.08.57.37,1.14.28,1.73-.39,2.85.08,5.6-.28,8.44-.2.85-.39,1.14-1.34,1.24-1.61,0-3.13.28-4.94,0-1.22.1-2.46,0-3.7,0l-1.71.1c-2.38,0-4.74-.2-7.22,0-.39.08-.57.37-.67.65,0,.2-.08.39-.08.57.18,4.58-.57,9.03-.28,13.59,0,.67,0,1.34.08,1.99.1.57.1,1.24.39,1.71.39.67,1.04,0,1.61.1,2.01.39,4.09.47,6.08.1.49-.1.85-.1,1.24,0,1.71.37,3.52.28,5.23.28.96,0,1.04.08,1.32,1.14.39,1.53.28,3.03.1,4.46-.1,1.91,0,3.81-.1,5.72,0,.57-.28.94-.85,1.04-1.04.18-2.36.39-3.5.39-3.52,0-7.14-.39-10.66,0-.37.08-.65.28-.65.65,0,.57-.1,1.06-.1,1.53.18,2.48-.1,5.05,0,7.51.1,2.85,0,5.8.28,8.65.1.39-.1.85,0,1.24,0,.28.1.47.39.47.28.1.47.1.75.1,2.2-.28,4.27,0,6.47,0,3.13-.67,7.02.18,10.17-.28h1.04c.85.08,1.04.28,1.04,1.04,0,1.06.28,1.99.1,3.05Z"/>
              <path class="cls-1" d="M337.15,339.96l-.39-.49-.1-.28c-1.14-1.81-2.56-3.24-3.99-4.56-.65-.67-1.22-1.24-1.61-1.81-1.14-1.32-2.2-2.46-3.52-3.52-1.04-1.22-2.1-2.28-3.42-3.42l-1.61-1.61-.87-1.91-1.04-2.18-.18-.39v-.18c-.2-.57-.28-.96-.28-1.24l.08-.94c.1-.96.2-1.63.49-2.3.75-2.08,1.42-2.65,3.03-2.65.28-.1.85-.1,1.24,0h.39c.08.65.18,1.42.18,2.38-.1,1.71-.57,2.65-1.53,3.32-1.22.67-1.22,2.18-.08,3.13.57.47,1.32.96,1.99,1.34,0,.57.28,1.04.85,1.51,2.65,2.28,5.98,3.05,9.22,2.28,3.52-.75,5.88-2.93,6.84-6.27.67-2.28.85-5.05.57-7.33-.57-4.07-1.81-7.12-3.81-9.4-.75-.85-1.53-1.71-2.36-2.38l-.2-.08-.28-.39c-.75-.85-1.53-1.71-2.38-2.38-.14-.1-.28-.2-.43-.31h-.02c-1.34-.96-2.65-1.63-3.99-2.1-.28-.1-.59-.18-.87-.26-1.34-.47-2.77-.65-3.99-.75l-1.99-.28c-.67-.1-1.06-.18-1.73-.1h-1.32c-1.61.1-3.42.28-5.13.57-.77.1-1.63.39-2.28.67-2.85,1.04-5.41,2.95-7.79,5.8l-.49.67-.57,1.14c-.73,1.47-1.67,3.24-2.03,5.17-.02.04-.04.1-.04.14-.28,1.12-.39,2.26-.49,3.3v.04c-.37,3.52-.18,7.02.77,10.36.37,1.42.94,2.67,1.51,3.89.49,1.24.96,2.28,1.34,3.42.28.49.65.96,1.04,1.44,1.14,1.61,2.38,3.03,3.52,4.56l1.24,1.42.85.94,1.51,1.34.49.57.85.96,2.67,2.36c.75.85,1.51,1.73,2.18,2.67.47.49.75.85,1.24,1.24l.18.18c2.38,2.48,3.81,5.51,4.27,9.6.2,1.81-.57,3.24-2.28,3.89-.47.2-.96.28-1.99.2l-.85-.1-.1-.37-.18-1.73c-.18-1.14-.28-2.28-.39-3.32v-1.42c0-.47,0-.96-.08-1.53,0-1.14-.85-1.99-1.99-2.18l-.85-.1v-.57c0-1.14-.85-1.99-2.01-2.18-2.08-.2-4.17-.1-6.17-.1l-2.85.1c-.77-.1-1.63,0-2.2.08-1.61,0-2.36.85-2.36,2.48-.1,1.89-.2,3.99,0,5.98.08,2.28.37,3.99.65,5.6.14.59.33,1.18.53,1.73v.02c.04.1.06.18.1.26.59,1.57,1.36,3.01,2.03,4.35.85,1.53,1.81,2.48,2.95,3.05.85,1.53,1.89,2.46,3.13,2.95l.18.18.96.67c1.53.85,2.95,1.42,4.56,1.71q.28,0,.49.18c1.22.67,2.65.96,3.89,1.14,2.38.28,4.84.2,7.12.1.39,0,.96-.1,1.34-.28h.18c2.1-.39,3.99-1.24,5.8-2.1l1.04-.39c1.91-.85,3.62-2.18,4.66-3.99.28-.47.49-1.04.67-1.51l.47-1.06c1.34-3.32,1.91-5.6,2.1-7.9.39-4.84-.1-8.83-1.53-12.35-1.22-2.85-2.36-5.88-4.74-8.44ZM339.14,357.83c-.18,2.56-1.06,5.03-1.99,7.41-.39.85-.67,1.71-1.06,2.46-.94,1.53-2.36,2.67-3.99,3.34-2.18.96-4.27,1.99-6.55,2.38-.39.08-.75.28-1.24.28-2.28.08-4.66.18-6.94-.1-1.14-.18-2.28-.39-3.32-.96-.39-.28-.77-.37-1.14-.37-1.71-.39-3.13-1.06-4.56-1.91-.2-.18-.39-.37-.57-.47-1.24-.49-2.01-1.42-2.67-2.56-.96-1.91-1.99-3.81-2.48-5.98-.37-1.73-.57-3.52-.65-5.43-.2-1.89-.1-3.89,0-5.88,0-.85.18-1.06,1.04-1.06.67-.08,1.32-.18,1.99-.08,2.95,0,5.98-.28,8.93,0,.49.08.77.37.77.85.08.94,0,1.99.08,2.95.1,1.61.39,3.32.57,4.92,0,.28.1.67.2.96.75,2.38,2.46,3.7,4.92,3.81.96.1,1.81.1,2.67-.28,2.28-.96,3.42-2.95,3.13-5.41-.47-3.91-1.79-7.51-4.74-10.46l-.77-.67c-2.36-3.24-5.31-5.88-8.26-8.65l-.85-.85c-1.61-1.99-3.24-3.89-4.74-5.98-.31-.28-.59-.67-.77-1.06-.75-2.36-2.1-4.64-2.85-7.12-.85-3.24-1.04-6.55-.67-9.89.1-1.04.2-2.08.49-3.13.37-2.18,1.51-4.09,2.46-5.98l.39-.57c1.89-2.28,4.17-4.27,7.12-5.33.67-.28,1.42-.47,2.1-.57,2.28-.47,4.66-.47,6.94-.65,2.18.47,4.37.47,6.55,1.14,1.81.47,3.34,1.32,4.84,2.46.77.57,1.42,1.34,2.2,2.2,1.99,2.28,2.95,5.31,3.42,8.65.28,2.08.1,4.66-.47,6.74-.87,2.95-2.95,4.66-5.8,5.23-2.95.77-5.72,0-8.08-1.99-.39-.28-.39-.57,0-.75,1.61-1.14,2.08-2.77,2.18-4.56,0-1.63-.18-3.15-.96-4.58-.57-1.14-1.42-1.79-2.65-1.89-.77-.28-2.1-.28-2.67-.18-2.28.08-3.34,1.22-4.19,3.6-.47,1.14-.47,2.38-.65,3.62,0,.47.08.94.28,1.51,0,.28.18.57.28.85.65,1.53,1.42,3.05,2.08,4.56l4.66,4.58c1.42,1.22,2.67,2.46,3.91,3.89.47.67,1.14,1.34,1.79,1.99,1.44,1.34,2.67,2.56,3.72,4.29.18.26.37.65.65.94,2.2,2.38,3.24,5.23,4.48,8.08,1.53,3.81,1.71,7.79,1.42,11.7Z"/>
            </g>
          </g>
          <g>
            <path class="cls-3" d="M387.37,299.26c-.53-4.97-1.18-9.93-2.1-14.9-.77-4.19-1.18-7.98-1.83-12.17,0-.12-.39-.53-.39-.65-.39-.14-.53.26-.65.53-.14,1.16-.39,1.95-.65,3.13-.41,1.95-.65,4.05-1.06,6-.26,1.83-.77,3.66-1.04,5.37-.53,4.05-.92,8.24-1.3,12.29-.14,0-.26.79-.26.79-.65,4.17-1.06,7.45-1.71,11.64-.12,1.16,0,1.57,1.06,1.57,2.48,0,4.7.26,7.57-.14.92,0,1.71-.12,2.63,0,1.18.14,1.57-.39,1.44-1.69-.53-3.93-1.32-7.85-1.71-11.78ZM385.8,310.78h-.39l-1.71.12h-.77l.12-1.18.39-2.99s.53-3.81.65-3.81c.26-2.48.53-4.97.92-7.45l.41,4.05c.26,2.36.65,4.72,1.04,7.06l.65,4.46-1.3-.26ZM387.37,299.26c-.53-4.97-1.18-9.93-2.1-14.9-.77-4.19-1.18-7.98-1.83-12.17,0-.12-.39-.53-.39-.65-.39-.14-.53.26-.65.53-.14,1.16-.39,1.95-.65,3.13-.41,1.95-.65,4.05-1.06,6-.26,1.83-.77,3.66-1.04,5.37-.53,4.05-.92,8.24-1.3,12.29-.14,0-.26.79-.26.79-.65,4.17-1.06,7.45-1.71,11.64-.12,1.16,0,1.57,1.06,1.57,2.48,0,4.7.26,7.57-.14.92,0,1.71-.12,2.63,0,1.18.14,1.57-.39,1.44-1.69-.53-3.93-1.32-7.85-1.71-11.78ZM385.8,310.78h-.39l-1.71.12h-.77l.12-1.18.39-2.99s.53-3.81.65-3.81c.26-2.48.53-4.97.92-7.45l.41,4.05c.26,2.36.65,4.72,1.04,7.06l.65,4.46-1.3-.26ZM420.46,349.75l-.12-.12c-.71-.43-1.4-1.4-2.06-2.73-.33-.67-.65-1.4-.96-2.24-.53-1.59-.92-3.54-1.18-6.02-.18-1.75-.51-3.58-.85-5.33-.14-.73-.31-1.44-.45-2.14-.1-.41-.2-.83-.31-1.24-.37-1.63-.67-3.19-.87-4.76-.53-3.93-1.06-7.85-1.44-11.64l-2.75-18.44-.51-3.28c-.67-3.93-1.18-7.98-2.1-12.03-.53-1.57-.79-3.28-1.06-5.11l-.26-1.44c-.24-1.16-.39-2.34-.51-3.52l-.41-3.54c-.51-3.4-1.04-6.65-1.69-10.07-.39-2.87-.79-5.74-1.71-8.63-.39-1.57-1.83-2.75-3.52-2.87l-.39-1.06c-.41-1.57-1.83-2.75-3.54-2.87h-2.48c-2.22-.12-4.46,0-6.53.12-2.1,0-4.19.14-6.29,0l-5.23-.24c-1.71,0-3.28,1.04-3.78,2.6l-.41,1.3-1.18,4.84-.51,3.93c-.26,2.48-.65,4.84-1.06,7.18l-.51,3.54-.53,3.28-.92,4.17c-.65,2.63-1.3,5.23-1.83,7.85-.53,2.36-1.04,4.97-1.18,7.59-.26,2.22-.65,4.44-1.04,6.8-.41,1.83-.79,3.66-1.06,5.49l-.26,1.95c-.39,2.48-.77,4.72-1.3,6.94-.39,1.18-.92,2.6-.92,4.19,0,1.95-.39,3.78-.77,5.88l-.67,2.75c-.65,3.66-1.42,7.18-2.22,10.72l-1.42,6.67-.92,4.82-.41,2.36c-.39,1.95,1.06,3.54,2.75,3.54h1.3l-.12.39c-.39,1.95,1.04,3.52,2.75,3.52h1.04l10.34.26,4.05-.12c1.44,0,2.5-.92,3.15-2.1l.26-.79c.24-.51.39-1.04.51-1.95l.26-1.3c.26-1.57.53-3.28.92-4.46l1.44-7.45h3.4c2.6.12,5.35.12,8.1-.14l1.32,6.82.65,2.08c.92,3.01,3.01,4.84,5.09,6.41,1.32,2.1,3.42,3.66,5.11,4.84.39.26.92.53,1.3.65h.26l1.97.53,4.31.79c3.52.51,7.06-.26,9.81-2.48.69-.55,1.18-1.14,1.44-1.71.55-1.18.16-2.3-1.32-3.01ZM415.23,348.97c-2.48,1.95-5.35,2.6-8.36,2.08-2.1-.24-4.07-.77-6.02-1.16-.39-.14-.65-.14-.92-.41-2.36-1.69-4.7-3.4-5.62-6.27-.92-3.28-2.36-7.06-2.36-10.6,0-.12-.12-.12-.12-.26-.41-2.87-1.71-4.05-4.58-3.52-3.93.53-7.85.26-11.64.26-.53,0-.92,0-1.32.12-.51.14-.92.39-1.04.79l-1.57,8.1c-.53,1.97-.92,4.84-1.3,6.8l-.53,1.32c-.26.51-.65.92-1.3.92-1.32,0-2.75.12-4.07.12-3.4-.12-6.92-.12-10.32-.26h-1.06c-.53,0-.92-.53-.77-1.18.39-2.1.77-5.09,1.3-7.18,1.18-5.76,2.6-11.52,3.66-17.4.53-3.01,1.44-5.88,1.44-9.01,0-1.32.39-2.5.77-3.66.79-3.01,1.18-6.02,1.71-9.16.26-1.71.65-3.54,1.04-5.37.39-2.34.79-4.7,1.06-7.06.12-2.48.65-4.97,1.16-7.33.79-4.05,1.83-7.98,2.75-12.03.41-2.22.65-4.58,1.06-6.8.65-3.66,1.04-7.47,1.57-11.13.39-1.95.92-3.91,1.44-6,.24-.65,1.04-1.18,1.83-1.18,1.69.12,3.64.12,5.23.26,4.44.26,8.49-.39,12.94-.14h2.36c.92.14,1.57.67,1.83,1.44.77,2.75,1.16,5.49,1.57,8.36.65,3.42,1.18,6.67,1.69,10.07.41,2.36.53,4.72.92,7.06.39,2.36.65,4.58,1.32,6.82,1.16,4.97,1.81,10.05,2.6,15.04l2.75,18.29c.39,3.93.92,7.85,1.44,11.78.65,4.58,1.95,8.89,2.48,13.47.26,2.1.65,4.31,1.3,6.41.37,1.08.88,2.36,1.59,3.5.57.94,1.26,1.79,2.08,2.38.61.49,1.57.41.33,1.44-.1.08-.2.16-.33.26ZM385.27,284.37c-.77-4.19-1.18-7.98-1.83-12.17,0-.12-.39-.53-.39-.65-.39-.14-.53.26-.65.53-.14,1.16-.39,1.95-.65,3.13-.41,1.95-.65,4.05-1.06,6-.26,1.83-.77,3.66-1.04,5.37-.53,4.05-.92,8.24-1.3,12.29-.14,0-.26.79-.26.79-.65,4.17-1.06,7.45-1.71,11.64-.12,1.16,0,1.57,1.06,1.57,2.48,0,4.7.26,7.57-.14.92,0,1.71-.12,2.63,0,1.18.14,1.57-.39,1.44-1.69-.53-3.93-1.32-7.85-1.71-11.78-.53-4.97-1.18-9.93-2.1-14.9ZM385.8,310.78h-.39l-1.71.12h-.77l.12-1.18.39-2.99s.53-3.81.65-3.81c.26-2.48.53-4.97.92-7.45l.41,4.05c.26,2.36.65,4.72,1.04,7.06l.65,4.46-1.3-.26ZM387.37,299.26c-.53-4.97-1.18-9.93-2.1-14.9-.77-4.19-1.18-7.98-1.83-12.17,0-.12-.39-.53-.39-.65-.39-.14-.53.26-.65.53-.14,1.16-.39,1.95-.65,3.13-.41,1.95-.65,4.05-1.06,6-.26,1.83-.77,3.66-1.04,5.37-.53,4.05-.92,8.24-1.3,12.29-.14,0-.26.79-.26.79-.65,4.17-1.06,7.45-1.71,11.64-.12,1.16,0,1.57,1.06,1.57,2.48,0,4.7.26,7.57-.14.92,0,1.71-.12,2.63,0,1.18.14,1.57-.39,1.44-1.69-.53-3.93-1.32-7.85-1.71-11.78ZM385.8,310.78h-.39l-1.71.12h-.77l.12-1.18.39-2.99s.53-3.81.65-3.81c.26-2.48.53-4.97.92-7.45l.41,4.05c.26,2.36.65,4.72,1.04,7.06l.65,4.46-1.3-.26ZM387.37,299.26c-.53-4.97-1.18-9.93-2.1-14.9-.77-4.19-1.18-7.98-1.83-12.17,0-.12-.39-.53-.39-.65-.39-.14-.53.26-.65.53-.14,1.16-.39,1.95-.65,3.13-.41,1.95-.65,4.05-1.06,6-.26,1.83-.77,3.66-1.04,5.37-.53,4.05-.92,8.24-1.3,12.29-.14,0-.26.79-.26.79-.65,4.17-1.06,7.45-1.71,11.64-.12,1.16,0,1.57,1.06,1.57,2.48,0,4.7.26,7.57-.14.92,0,1.71-.12,2.63,0,1.18.14,1.57-.39,1.44-1.69-.53-3.93-1.32-7.85-1.71-11.78ZM385.8,310.78h-.39l-1.71.12h-.77l.12-1.18.39-2.99s.53-3.81.65-3.81c.26-2.48.53-4.97.92-7.45l.41,4.05c.26,2.36.65,4.72,1.04,7.06l.65,4.46-1.3-.26Z"/>
            <path class="cls-1" d="M413.13,345.31l.02-.43c-.71-1.14-1.22-2.42-1.59-3.5-.65-2.1-1.04-4.31-1.3-6.41-.53-4.58-1.83-8.89-2.48-13.47-.53-3.93-1.06-7.85-1.44-11.78l-2.75-18.29c-.79-4.99-1.44-10.07-2.6-15.04-.67-2.24-.94-4.46-1.32-6.82-.39-2.34-.51-4.7-.92-7.06-.51-3.4-1.04-6.65-1.69-10.07-.41-2.87-.79-5.62-1.57-8.36-.26-.77-.92-1.3-1.83-1.44h-2.36c-4.46-.24-8.51.41-12.94.14-1.59-.14-3.54-.14-5.23-.26-.79,0-1.59.53-1.83,1.18-.53,2.1-1.06,4.05-1.44,6-.53,3.66-.92,7.47-1.57,11.13-.41,2.22-.65,4.58-1.06,6.8-.92,4.05-1.95,7.98-2.75,12.03-.51,2.36-1.04,4.84-1.16,7.33-.26,2.36-.67,4.72-1.06,7.06-.39,1.83-.77,3.66-1.04,5.37-.53,3.13-.92,6.15-1.71,9.16-.39,1.16-.77,2.34-.77,3.66,0,3.13-.92,6-1.44,9.01-1.06,5.88-2.48,11.64-3.66,17.4-.53,2.1-.92,5.09-1.3,7.18-.14.65.24,1.18.77,1.18h1.06c3.4.14,6.92.14,10.32.26,1.32,0,2.75-.12,4.07-.12.65,0,1.04-.41,1.3-.92l.53-1.32c.39-1.95.77-4.82,1.3-6.8l1.57-8.1c.12-.41.53-.65,1.04-.79.41-.12.79-.12,1.32-.12,3.78,0,7.71.26,11.64-.26,2.87-.53,4.17.65,4.58,3.52,0,.14.12.14.12.26,0,3.54,1.44,7.33,2.36,10.6.92,2.87,3.26,4.58,5.62,6.27.26.26.53.26.92.41,1.95.39,3.93.92,6.02,1.16,3.01.53,5.88-.12,8.36-2.08.12-.1.22-.18.33-.26-1.53-.35-2.42-1.55-2.42-3.4ZM387.63,312.73c-.92-.12-1.71,0-2.63,0-2.87.41-5.09.14-7.57.14-1.06,0-1.18-.41-1.06-1.57.65-4.19,1.06-7.47,1.71-11.64,0,0,.12-.79.26-.79.39-4.05.77-8.24,1.3-12.29.26-1.71.77-3.54,1.04-5.37.41-1.95.65-4.05,1.06-6,.26-1.18.51-1.97.65-3.13.12-.26.26-.67.65-.53,0,.12.39.53.39.65.65,4.19,1.06,7.98,1.83,12.17.92,4.97,1.57,9.93,2.1,14.9.39,3.93,1.18,7.85,1.71,11.78.12,1.3-.26,1.83-1.44,1.69Z"/>
            <path class="cls-3" d="M457.91,263.9c-.12-1.42-1.16-2.36-2.75-2.62l-1.04-.12-.12-1.18c-.14-1.42-1.18-2.36-2.75-2.62l-.92-.12c-3.93-.53-8.24-.14-11.9.12h-1.71c-1.57.16-2.75.16-3.93-.12-.39,0-1.16-.14-1.69,0h-.53c-2.1.39-4.44.28-7.18-.14-1.06-.12-2.24-.12-3.4,0-5.49.26-8.65.14-10.34-.39-.92-.12-2.1-.12-3.01,0-1.18.26-2.48.39-3.66.39-1.83,0-3.01,1.08-3.28,2.89-.24,2.63-.12,5.09-.12,7.47v4.84l.12.9c.26,2.1,1.44,3.26,3.81,3.26l.12.69c.26,2.06,1.44,3.24,3.81,3.24,3.78.14,7.71.26,14.51.26.92,0,1.71-.12,2.48-.26,1.06-.12,1.83-.12,2.75-.12l.92.12c-.92,2.24-1.83,4.46-2.6,6.55-.92,2.22-1.71,4.31-2.62,6.41-1.04,2.62-2.1,5.09-3.28,7.57l-2.34,5.37c-1.32,2.77-2.48,5.35-3.66,8.12-1.57,3.64-3.01,7.04-4.84,10.7-2.22,4.07-3.78,7.35-4.84,10.48-.53,1.32-1.18,2.6-1.95,4.05l-2.36,4.17-1.08,2.16-.88,1.77c-.41,1.3-.41,2.91-.41,4.19v6.8l-.1,2.22-.02.41c0,1.87.9,3.05,2.42,3.42.31.06.63.12.98.12h.53v.39c0,2.22,1.3,3.54,3.4,3.54h3.13c2.63.1,5.37.1,8.24-.16h3.66c3.28.16,6.53.16,9.93-.12,1.57-.1,2.75-.1,4.19.12,1.18.16,2.22,0,3.28,0l1.69-.12c.92,0,1.32,0,1.83.12,1.57.55,3.4.55,5.37.26,1.42-.26,4.05-.39,5.62-.39l2.62-.1c2.22-.28,3.4-1.73,3.4-3.81,0-1.2-.14-2.89-.26-4.44v-.53c-.39-1.59-.39-3.03-.39-4.7v-2.77c0-2.08-1.32-3.54-3.42-3.54h-.51v-.39c0-2.08-1.3-3.54-3.4-3.54h-3.01c-2.22,0-4.72.14-6.53,0l-10.21-.12h-1.3l1.04-2.22c1.71-4.07,3.54-8.12,5.37-12.17l1.83-4.05,3.52-7.96c1.71-3.17,3.15-6.31,4.46-9.42l1.3-2.77c2.1-4.46,4.05-8.89,6.02-13.47.53-1.04.92-2.36,1.3-3.54l.65-1.69,2.89-7.2c.65-1.57,1.04-3.38,1.04-5.35,0-1.57,0-2.99.12-4.58,0-1.57.14-3.11.14-4.7,0-.53,0-1.06-.14-1.57ZM451.91,270.81c0,1.59-.26,3.13-.92,4.58-.92,2.48-1.97,4.84-2.89,7.33-.65,1.71-1.16,3.56-1.95,5.11-1.95,4.58-3.93,9.01-6.02,13.47-1.83,4.05-3.52,8.12-5.62,12.05-1.95,4.03-3.66,8.08-5.49,12.15-1.83,4.05-3.66,8.1-5.35,12.17-1.18,2.73-2.5,5.35-3.66,8.12-.26.65,0,1.04.77,1.16,1.97.12,4.05.24,6.15-.12.65-.26,1.71-.26,2.75-.26,3.4,0,6.8.12,10.21.12,2.73.14,6.8,0,9.54,0,.92,0,1.42.51,1.42,1.57v2.77c0,1.67,0,3.38.41,5.09v.24c.12,1.32.26,3.17.26,4.33s-.53,1.69-1.59,1.81c-.77,0-1.69.14-2.48.14-1.57,0-4.44.12-6,.39-1.44.26-3.01.26-4.46-.12-.77-.26-1.57-.26-2.36-.26-1.57,0-3.13.26-4.7.12-1.69-.26-3.01-.26-4.58-.12-4.58.39-9.16.12-13.59.12-3.19.35-6.39.2-9.5.16-.59-.02-1.18-.02-1.75-.02-1.04,0-1.44-.53-1.44-1.57,0-2.08.14-2.89.14-4.99.12,0-.14-1.14,0-1.14v-2.38c0-1.18-.08-2.4.06-3.48.04-.35.1-.67.2-.98.51-1.18,1.3-2.46,1.83-3.66l2.34-4.17c.79-1.44,1.57-2.87,2.1-4.29,1.18-3.54,2.87-6.96,4.7-10.24,1.83-3.66,3.42-7.16,4.99-10.85,1.95-4.58,4.05-9.03,6-13.47,1.18-2.46,2.24-4.97,3.28-7.59,2.1-4.97,3.93-10.19,6.15-15.16.53-.92.79-2.08,1.18-3.15.39-1.04,0-1.57-1.18-1.42-2.48.26-4.97.26-7.45,0-1.83-.14-3.66.39-5.37.39-6.8,0-10.72-.12-14.51-.26-1.3,0-1.71-.39-1.83-1.57,0-.24-.14-.37-.14-.63.14-4.07-.24-8,.14-12.05.12-.79.53-1.18,1.3-1.18,1.44,0,2.75-.12,4.05-.39.65-.12,1.44-.12,2.1,0,2.75.77,8.24.51,10.99.39,1.04-.12,2.1-.12,3.01,0,2.48.39,5.11.51,7.59.12.51,0,1.04-.12,1.69,0,1.97.39,4.05.14,6.15.14,3.66-.26,7.85-.65,11.64-.14.26,0,.65,0,.92.14.53.12.92.39.92.92.14.39.14.92.14,1.3,0,3.13-.26,6.17-.26,9.28Z"/>
            <path class="cls-1" d="M402.26,362.91c-.59-.02-1.18-.02-1.75-.02-1.04,0-1.44-.53-1.44-1.57,0-2.08.14-2.89.14-4.99.12,0-.14-1.14,0-1.14v-2.38c0-1.18-.08-2.4.06-3.48.35,1.73.67,3.58.85,5.31.26,2.48.65,4.44,1.18,6.02.31.83.63,1.57.96,2.24Z"/>
            <path class="cls-1" d="M420,345.78c-.26.65,0,1.04.77,1.16,1.97.12,4.05.24,6.15-.12.65-.26,1.71-.26,2.75-.26,3.4,0,6.8.12,10.21.12,2.73.14,6.8,0,9.54,0,.92,0,1.42.51,1.42,1.57v2.77c0,1.67,0,3.38.41,5.09v.24c.12,1.32.26,3.17.26,4.33s-.53,1.69-1.59,1.81c-.77,0-1.69.14-2.48.14-1.57,0-4.44.12-6,.39-1.44.26-3.01.26-4.46-.12-.77-.26-1.57-.26-2.36-.26-1.57,0-3.13.26-4.7.12-1.69-.26-3.01-.26-4.58-.12-4.58.39-9.16.12-13.59.12-3.19.35-6.39.2-9.5.16-.33-.67-.65-1.4-.96-2.24-.53-1.59-.92-3.54-1.18-6.02-.18-1.73-.51-3.58-.85-5.31.04-.35.1-.67.2-.98.51-1.18,1.3-2.46,1.83-3.66l2.34-4.17c.79-1.44,1.57-2.87,2.1-4.29,1.18-3.54,2.87-6.96,4.7-10.24,1.83-3.66,3.42-7.16,4.99-10.85,1.95-4.58,4.05-9.03,6-13.47,1.18-2.46,2.24-4.97,3.28-7.59,2.1-4.97,3.93-10.19,6.15-15.16.53-.92.79-2.08,1.18-3.15.39-1.04,0-1.57-1.18-1.42-2.48.26-4.97.26-7.45,0-1.83-.14-3.66.39-5.37.39-6.8,0-10.72-.12-14.51-.26-1.3,0-1.71-.39-1.83-1.57,0-.24-.14-.37-.14-.63.14-4.07-.24-8,.14-12.05.12-.79.53-1.18,1.3-1.18,1.44,0,2.75-.12,4.05-.39.65-.12,1.44-.12,2.1,0,2.75.77,8.24.51,10.99.39,1.04-.12,2.1-.12,3.01,0,2.48.39,5.11.51,7.59.12.51,0,1.04-.12,1.69,0,1.97.39,4.05.14,6.15.14,3.66-.26,7.85-.65,11.64-.14.26,0,.65,0,.92.14.53.12.92.39.92.92.14.39.14.92.14,1.3,0,3.13-.26,6.17-.26,9.28,0,1.59-.26,3.13-.92,4.58-.92,2.48-1.97,4.84-2.89,7.33-.65,1.71-1.16,3.56-1.95,5.11-1.95,4.58-3.93,9.01-6.02,13.47-1.83,4.05-3.52,8.12-5.62,12.05-1.95,4.03-3.66,8.08-5.49,12.15-1.83,4.05-3.66,8.1-5.35,12.17-1.18,2.73-2.5,5.35-3.66,8.12Z"/>
          </g>
        </g>
        <path class="cls-2" d="M472.01,377.77v.85c.06,4.16.09,8.29.09,12.43-4.57-.01-9.08-.03-13.48-.03h-2.49c-19.74-.2-38.94.09-58.68.09-29.4-.09-72.02-.29-86.12-.29-11.17,0-22.88-.08-33.95.29-5.1.2-15.29.1-19.74,0-17.24-.29-24.4,0-41.65,0-3.47,0-9.54.1-11.6.1-4.02-.1-8.14-.1-11.61-.1-10.19.1-20.28.1-30.47.1-9.63-.08-18.93.08-28.42.1-2.48.01-4.97.01-7.49,0-1.67,0-3.92,0-5.98-.05,0-4.52.01-9.07.01-13.65.01-8.79,0-17.67-.11-26.59-.1-7.34,0-14.76.1-21.82.08-3.75.18-7.79,0-11.46-.2-2.66-.2-5.39-.1-7.71.38-8.78.28-17.21.1-25.57-.2-7.77-.1-15.84,0-23.55.18-2.38.18-4.76.08-7.06,0-11.45-.08-22.91-.08-34.36v-4.74c0-4.57,0-9.1.01-13.65,4.43,0,8.87,0,13.29.01,12.42,0,24.84.01,37.26.09,20.71,0,41.97.08,63.34-.1,11.07-.1,22.24,0,32.87.1,5.64.08,11.7.18,17.24,0,4.02-.2,8.14-.2,11.61-.1,13.23.38,25.91.28,38.51.1,11.7-.2,23.85-.1,35.47,0,3.57.18,7.15.18,10.62.08,17.25,0,34.5-.08,51.73-.08,8.87,0,17.55,0,26.28.01,4.4.01,8.83.03,13.28.04v2.47c-.05,3.63-.08,7.23-.08,10.81.01,9.39.17,18.67.17,28.15-.09,19.53-.29,47.83-.29,57.19,0,7.42-.08,15.2.29,22.54.2,3.4.1,10.16,0,13.12-.29,11.45,0,16.21,0,27.65,0,2.3.1,6.35.1,7.71-.09,2.35-.1,4.74-.1,6.86Z"/>
      </g>
    </g>
  </g>
</svg>