<?xml version="1.0" encoding="UTF-8"?>
<svg id="Layer_2" data-name="Layer 2" xmlns="http://www.w3.org/2000/svg" xmlns:xlink="http://www.w3.org/1999/xlink" viewBox="0 0 179.1 178.54">
  <defs>
    <style>
      .cls-1 {
        fill: #f3b234;
      }

      .cls-2 {
        fill: none;
      }

      .cls-3 {
        clip-path: url(#clippath-1);
      }

      .cls-4 {
        fill: #1b1d1d;
      }

      .cls-5 {
        clip-path: url(#clippath);
      }

      .cls-6 {
        fill: #f0efef;
      }
    </style>
    <clipPath id="clippath">
      <polygon class="cls-2" points="152.33 28.65 152.33 135.85 101.55 135.85 65.92 124.14 35.58 114.17 45.43 77.06 46.07 74.63 45.23 72.24 33.15 38.01 48.26 38.01 48.26 24.77 140.68 24.77 152.33 28.65"/>
    </clipPath>
    <clipPath id="clippath-1">
      <path class="cls-2" d="M-47.81,18.17h404.67v118.1H-47.81V18.17Z"/>
    </clipPath>
  </defs>
  <g id="Layer_1-2" data-name="Layer 1">
    <g id="IconWhite">
      <g>
        <path class="cls-6" d="M129.87,149.98h-31.25l-79.38-26.08-.03-3.36c-.02-2.11-.03-4.23-.04-6.34v-.57s10.2-38.47,10.2-38.47L11.28,23.88h20.84v-13.25h111.53l24.82,8.28v131.07h-18.21v17.84l-20.38-17.84Z"/>
        <path class="cls-4" d="M162.88,22.28v122.81h-18.21v10.92l-12.48-10.92h-32.56c-24.94-8.2-49.9-16.39-74.84-24.59-.02-2.11-.03-4.22-.04-6.33l10.4-39.2L18.85,28.77h18.85v-13.25h104.92l20.26,6.76Z"/>
        <polygon class="cls-6" points="152.33 28.65 152.33 135.85 101.55 135.85 65.92 124.14 35.58 114.17 45.43 77.06 46.07 74.63 45.23 72.24 33.15 38.01 48.26 38.01 48.26 24.77 140.68 24.77 152.33 28.65"/>
        <path class="cls-2" d="M132.19,24.86v120.22l-18.07-15.82c-4.29.01-8.59.02-12.48.02l-64.38-20.85,8.29-31.27.65-2.43-.84-2.39-12.07-34.23h15.1v-13.25h83.81Z"/>
        <g class="cls-5">
          <g>
            <path class="cls-1" d="M-47.81,18.17h404.67v118.1H-47.81V18.17Z"/>
            <path id="a" class="cls-1" d="M356.86,45.85v49.21l-202.34,41.21,202.34-90.42ZM252.18,18.17h58.31l-155.97,118.1L252.18,18.17ZM173.49,18.17h33.72l-52.69,118.1,18.97-118.1Z"/>
            <path id="a-2" data-name="a" class="cls-6" d="M-47.81,45.85v49.21l202.34,41.21L-47.81,45.85ZM56.87,18.17H-1.44l155.97,118.1L56.87,18.17ZM135.55,18.17h-33.72l52.69,118.1-18.97-118.1Z"/>
          </g>
          <g class="cls-3">
            <g>
              <path class="cls-1" d="M173.45,152.26c-3.46,0-6.85-.58-9.98-1.65l-19.89.18c-1.85.61-3.78,1.04-5.75,1.25-1.05.11-2.12.17-3.17.17-3.09,0-6.19-.49-9.21-1.47l-3.91-1.26,1.66-3.35c1.67-3.38,4.36-6.44,7.74-8.85-7.76-4.22-13.53-11.15-15.41-18.96l-.81-3.35,3.82-.74c2.21-.43,4.49-.64,6.77-.64,4.92,0,9.75,1.01,14.11,2.87-1.24-10.92,2.93-22.01,11.35-29.97l2.86-2.71,2.9,2.68c5.42,5.01,9.17,11.18,10.82,17.84.99,3.97,1.23,8.05.75,12.08,4.33-1.84,9.13-2.83,13.96-2.83,2.33,0,4.64.23,6.88.68l3.66.74-.67,3.24c-1.63,7.9-7.31,14.98-15.16,19.14,2.74,1.91,5.03,4.26,6.7,6.89.3.47.62.98.88,1.49l.76.8-.22,1.55-.24,1.51-1.94,1.18-.49.15c-2.81.87-5.77,1.31-8.79,1.31Z"/>
              <path class="cls-6" d="M180.93,147.53c.03.08.12.07-.01.16-9.38,2.91-20.17-.02-26.03-6.98.28,1.67.95,3.38,1.78,4.91.3.54.68,1.04.95,1.59l-8.11.07,1.36-2.22c.5-1.04.98-2.12,1.27-3.23.03-.11.3-1.13.15-1.14-3.39,4.33-8.98,7.26-14.95,7.91-3.6.39-7.14-.02-10.53-1.11,1.86-3.75,5.11-6.91,9.05-9.07l3.32-1.54c-9.82-2.86-17.66-10.38-19.8-19.28,9.47-1.83,19.45.87,26.12,6.95-.82-2.24-1.56-4.51-1.95-6.85-1.74-10.42,1.95-21.17,10.1-28.87,4.85,4.48,8.33,10.14,9.83,16.2,1.61,6.47,1.04,13.16-1.51,19.37,1.01-.78,1.96-1.6,3.03-2.31,6.46-4.36,15.03-6.11,23.05-4.49-1.65,7.97-7.88,14.86-16.29,18.17-1.12.44-2.36.87-3.56,1.11-.04.17.01.12.11.17.4.19,1.01.33,1.46.52,4.28,1.79,7.95,4.72,10.26,8.36.28.44.72,1.13.91,1.6Z"/>
            </g>
          </g>
        </g>
      </g>
      <rect class="cls-2" width="179.1" height="178.54"/>
    </g>
  </g>
</svg>