<?xml version="1.0" encoding="UTF-8"?>
<svg id="Layer_2" data-name="Layer 2" xmlns="http://www.w3.org/2000/svg" viewBox="0 0 342 184.93">
  <defs>
    <style>
      .cls-1 {
        fill: #f3b234;
      }

      .cls-2 {
        fill: none;
      }

      .cls-3 {
        fill: #1b1d1d;
      }
    </style>
  </defs>
  <g id="Layer_1-2" data-name="Layer 1">
    <g id="Text">
      <g>
        <g>
          <g>
            <path class="cls-1" d="M56.99,75.66c-.1,3.6.1,7.2.1,10.9v.93c0,2.39-.2,2.49-2.14,2.49-1.29,0-2.49-.1-3.6,0-2.21.28-4.15.28-6.37,0-.65-.1-.93-.45-1.01-1.11,0-.55-.1-1.03-.1-1.48,0-3.5-.1-7.12.1-10.62.18-4.25,0-8.4.08-12.66,0-1.56-.18-3.14-.18-4.81-.1-.36-.38-.55-.65-.63-.45-.1-1.01-.1-1.48-.1-2.85,0-4.98-.38-8.48,0-1.03.1-1.21.28-1.21,1.38,0,1.66-.18,3.32-.1,5.08,0,3.88,0,9.69.2,11.83-.28,3.96-.1,7.1-.1,10.62,0,.55-.1,1.11-.1,1.66-.08.38-.55.83-.91.73-2.31-.28-4.73.1-7.12,0-1.21-.08-2.31.1-3.42.1-1.19,0-1.38-.1-1.38-1.38v-2.97c.1-7.65-.38-15.33.2-22.9l.08-2.21c-.28-3.32,0-6.57,0-9.89,0-1.38.28-2.77,0-4.15,0-3.14.2-6.29,0-9.41,0-.38,0-.83-.08-1.21-.3-1.11-.2-2.22,0-3.32.18-.83,0-1.76-.1-2.69,0-.73-.2-1.46-.1-2.12.28-3.24.1-6.47.1-9.71,0-.36,0-.73.1-1.19.08-.38.36-.65.83-.75.36-.08.73-.08,1.19-.08,2.59.08,5.36.08,7.95.08.45,0,.83.1,1.21.1,1.01.1,1.38.38,1.46,1.29v1.68c0,2.21-.36,4.33-.08,6.55.28,2.49,0,4.98,0,7.48,0,2.14.36,4.35,0,6.47v.75c.36,2.12.36,4.15.36,6.27,0,.55.38.83.93.83.38,0,.83.1,1.21-.08.93-.28,1.94-.28,2.87-.2,1.94.2,3.88-.08,5.81-.08.73,0,1.01-.28,1.01-1.11-.08-2.77,0-5.64-.28-8.4-.08-1.03,0-1.94,0-2.97.1-2.39-.18-4.81.28-7.2.2-1.21.1-2.41-.08-3.6-.28-1.94-.1-3.88-.2-5.83,0-.36.2-.73.28-1.11.1-.36.38-.55.65-.63.28,0,.55-.1.73-.1,3.42.28,7.3.1,10.72.1.83,0,1.03.18,1.03.91v6.19c0,4.9-.2,9.79-.3,14.69-.08,1.38,0,2.87-.08,4.35.18,1.66.08,3.5-.1,5.26-.1,1.19-.18,2.39.1,3.6v.73c0,3.32.08,6.74,0,10.17,0,3.32-.1,6.74.38,10.16.18,1.11-.2,2.21-.2,3.32Z"/>
            <path class="cls-1" d="M106.05,90.08c-1.31-.93-2.14-2.79-2.59-4.17-.47-1.46-.75-3.05-.93-4.51-.38-3.24-1.29-6.29-1.76-9.53-.36-2.77-.73-5.54-1.01-8.31l-1.94-12.93c-.55-3.5-1.01-7.1-1.86-10.62-.45-1.56-.63-3.14-.91-4.81-.28-1.66-.38-3.32-.65-4.98-.38-2.39-.73-4.71-1.21-7.12-.28-2.02-.55-3.96-1.11-5.91-.18-.55-.63-.91-1.29-1.01h-1.66c-3.14-.18-6.01.28-9.16.1-1.11-.1-2.49-.1-3.68-.2-.55,0-1.11.38-1.31.83-.36,1.48-.73,2.87-1.01,4.25-.38,2.59-.65,5.28-1.11,7.85-.28,1.58-.47,3.24-.75,4.81-.63,2.87-1.38,5.64-1.94,8.5-.36,1.66-.73,3.42-.83,5.16-.18,1.66-.45,3.34-.73,5-.28,1.29-.55,2.57-.73,3.78-.38,2.21-.65,4.35-1.21,6.47-.28.83-.55,1.66-.55,2.59,0,2.21-.65,4.25-1.03,6.37-.73,4.15-1.74,8.23-2.57,12.28-.38,1.48-.65,3.6-.93,5.08-.1.47.18.83.55.83h.73c2.41.1,4.9.1,7.3.2.93,0,1.94-.1,2.87-.1.47,0,.75-.28.93-.65l.38-.93c.28-1.38.55-3.4.91-4.79l1.11-5.74c.1-.28.38-.45.75-.55.28-.1.55-.1.91-.1,2.69,0,5.46.2,8.23-.18,2.04-.38,2.95.45,3.24,2.49,0,.1.08.1.08.18,0,2.51,1.03,5.18,1.66,7.5.65,2.04,2.31,3.22,3.97,4.43.18.18.38.18.65.28,1.38.28,2.77.65,4.25.83,2.12.38,4.15-.1,5.91-1.48,1.19-.91.45-.83,0-1.19ZM86.55,65.69c-.65-.1-1.21,0-1.84,0-2.04.28-3.62.08-5.36.08-.75,0-.83-.28-.75-1.11.47-2.95.75-5.26,1.21-8.23,0,0,.1-.55.18-.55.28-2.85.55-5.81.93-8.68.18-1.19.55-2.49.73-3.78.3-1.38.47-2.87.75-4.25.18-.83.38-1.38.45-2.21.1-.18.2-.45.47-.38,0,.1.28.38.28.47.45,2.95.73,5.64,1.29,8.58.65,3.5,1.11,7.02,1.48,10.52.28,2.79.83,5.56,1.19,8.33.1.93-.18,1.29-1.01,1.21Z"/>
            <path class="cls-1" d="M186.13,36.03c0-1.19-.18-2.39-.28-3.6-.28-2.21-.45-4.53-1.11-6.64-.45-1.66-1.29-3.24-2.39-4.43-2.21-2.31-4.71-4.17-7.95-4.63-1.38-.18-2.77-.38-4.05-.65-2.77.55-5.46.1-8.23.2-2.12.08-4.25-.2-6.47-.28-1.21,0-2.39.08-3.6.28-.65.08-.83.28-.83.91v10.92c0,5.54-.1,11.17-.1,16.71,0,2.67.1,5.46.1,8.23,0,1.11-.1,2.22.08,3.32.2,1.11-.18,2.21-.18,3.32.1,2.87-.18,5.64.28,8.5v.18c0,3.05,0,6.19-.1,9.24h.1c0,1.11-.1,2.21,0,3.32v7.95c0,.55.28.93.83,1.01.47,0,1.03.1,1.48.1,1.94,0,3.88.1,5.81,0,1.31,0,2.49-.18,3.8-.38.63,0,.91-.36.91-.91,0-.75.1-1.48-.08-2.14-.28-1.84-.1-4.81-.2-6.64-.08-2.69,0-5.36,0-7.95,0-1.29,0-2.49.1-3.7.18-1.74.45-3.5.1-5.26-.1-.38.08-.65.45-.65.65-.08,1.29-.18,1.94-.18,1.86.18,3.7,0,5.54-.28,3.52-.38,6.57-1.56,8.96-4.25,2.79-2.87,4.53-6.27,4.73-10.34,0-1.11,0-2.21.18-3.32.45-2.67.18-5.36.18-7.95ZM153,80.62s.02,0,.06.02l.02.04s-.06-.04-.08-.06ZM173.57,44.99c0,1.21-.28,2.59-.55,3.8-.38,1.56-1.38,2.31-2.87,2.49-.55.1-1.11.1-1.66.1h-3.6c-.55-.1-.93-.47-.93-1.03-.08-.63,0-1.38,0-2.12-.08-3.05.1-6.11-.08-8.68l.28-10.62c0-1.31.28-1.48,1.56-1.48.65.1,1.31,0,1.94,0,1.21,0,2.41.28,3.52.83,1.38.65,2.02,1.66,2.21,3.14.08.73.36,1.56.36,2.29.2,3.98.1,7.5-.18,11.27Z"/>
            <path class="cls-1" d="M144.2,31.22c-.2-3.68-1.76-6.82-3.8-9.79-.36-.73-1.01-1.29-1.84-1.84-.65-.38-1.38-.93-1.94-1.48-1.48-1.29-3.24-1.66-5.18-1.76-3.22-.08-6.47-.18-9.59-.18,0,0-2.51,0-2.51.1-3.32-.2-4.15-.1-7.48-.1-.55,0-1.11,0-1.66.18-.83.1-.93.38-.93,1.21v7.02c0,2.04-.08,4.07-.08,6.01-.1,2.02,0,4.05.08,5.99,0,2.41.1,4.73.1,7.02,0,1.76,0,3.52.1,5.26,0,1.21.08,2.31.08,3.42,0,2.49-.08,5-.08,7.5,0,.45.08.91,0,1.38-.28,2.02-.38,4.05-.2,6.09.47,3.42.28,7.85.28,11.27s-.18,6.92-.18,10.44c0,.73.28,1.01,1.01,1.01,3.05,0,6.11.1,9.16.1.28,0,.55,0,.73-.1,1.11-.1,1.58-.65,1.58-1.76,0-2.04.28-4.15-.2-6.27-.08-.47-.08-.93-.08-1.38v-3.7c.08-4.25.08-9.43.18-13.69,0-.83.18-1.01.93-1.11,2.77-.18,5.54-.28,8.21-.36.55-.1,1.21,0,1.66-.2,2.41-.83,4.63-2.02,6.29-3.96,1.01-1.21,1.76-2.59,2.77-3.9.73-1.11,1.11-2.29,1.56-3.5.47-1.21.38-2.41.65-3.6.38-1.76.55-3.6.55-5.46v-3.88c0-2.04,0-4.07-.18-6.01ZM132.1,45.92c0,1.01-.28,2.04-.65,3.05-.63,1.66-1.94,2.49-3.7,2.59-.83.1-1.56.1-2.39,0-1.11-.1-2.21.28-3.32-.38-.28-1.01-.1-2.04-.1-3.05-.08-1.84.1-3.78-.18-5.64.28-4.71,0-8.78.1-11.55,0-.91,0-1.94.08-2.85,0-.38.2-.65.55-.65,2.04-.18,4.35-.38,6.29.18.45.2,1.01.28,1.29.75.83,1.01,1.58,2.12,1.86,3.6.28,1.66.45,3.32.36,4.98,0,2.95-.18,6.01-.18,8.96Z"/>
            <path class="cls-1" d="M233.08,16.55c-4.17,2.95-5.83,8.31-7.02,12.74-.55,1.86-1.94,5-2.41,6.84-.45,1.66-.93,3.32-1.29,4.98-.1.45-.2.93-.38,1.38-1.56,3.42-2.21,7.02-3.42,10.54-.45,1.29-.73,2.67-1.29,3.88-.65,1.38-1.03,2.77-1.38,4.15-.2.73-.28,1.56-.65,2.31-.83,1.94-.93,3.88-.93,5.91.1,3.7.1,7.38.2,11.17,0,.65,0,1.38.18,2.12.28,2.14.18,4.63,0,6.74,0,.38-.28.55-.65.65-.18.1-.45.1-.63.1-3.24,0-6.47,0-9.71-.1h-.28c-.73,0-1.01-.18-1.01-.93v-6.19c0-1.19-.1-2.77-.1-4.25-.08-.36-.08-.63-.08-1.01.36-2.67.18-5.44.28-8.23,0-1.46-.28-3.05-.65-4.51-.45-1.68-1.01-3.42-1.58-5.08-1.29-4.17-2.67-8.23-3.5-12.48-.28-1.38-.73-2.67-1.21-3.98-.55-2.12-1.19-4.15-1.84-6.27-.93-2.77-1.86-5.64-2.87-8.4,0-.2-.1-.38-.1-.47-.63-3.5-1.56-6.92-2.67-10.34-.18-.73-.38-1.48.28-1.56.73,0,1.84-.1,2.67-.1,3.14,0,6.29.1,9.43.1.93,0,1.21.18,1.38,1.01.73,3.7,2.04,7.3,2.87,11,.73,3.88,1.84,7.67,2.77,11.45l1.94,7.02c0,.1.18.18.28.18s.18-.08.18-.08c.2-.2.38-.47.38-.65.45-1.48.83-2.95,1.21-4.43,1.46-5.74,3.78-12.66,5.26-18.39.45-1.94,1.56-3.5,2.67-5.08.65-.83,1.58-1.56,2.59-2.02,1.76-.93,3.42-1.21,5.18-1.48,1.46-.28,2.95-.1,4.33.38,1.58.45,2.21,1.19,1.58,1.38Z"/>
            <path class="cls-1" d="M51.45,103.68c-.1.2-.28.38-.45.38-.93.1-2.04.28-2.97.28-2.21,0-3.7-.18-6.29-.1-.36,0-.73,0-1.19.1-.38,0-.55.28-.55.55-.1.38-.1.65-.1,1.01.28,4.53-.1,9.06-.1,13.49v1.48c.47,5.74-.08,11.45,0,17.19.1,1.46-.08,3.05.28,4.53.1.45,0,.83,0,1.19-.45,3.7-.36,7.5-.36,11.19v10.7c0,.83-.2,1.11-.93,1.11-1.66,0-3.22.65-4.81.2-1.66.28-3.22-.1-4.81,0-.36.08-.63.08-1.01.08-.73-.08-1.01-.28-1.01-1.01,0-2.21,0-4.35.08-6.57,0-5.08.1-11.07.1-16.16,0-.45,0-1.01-.1-1.48-.45-1.84-.18-3.6-.08-5.44.08-.47.18-.83.18-1.21-.38-1.84.18-3.6.18-5.36,0-.45.1-.93,0-1.38-.36-1.56-.28-3.05-.28-4.63-.08-3.12.1-6.27.1-9.41,0-.45,0-.93-.1-1.48-.36-2.21-.36-4.43-.08-6.74.08-.18.08-.45,0-.63,0-.55-.47-.93-.93-.93-.65,0-1.21-.1-1.86,0-2.67.28-4.33-.1-7.1-.1l-.93.1c-.55-.1-.93-.45-.93-1.01v-2.87c0-2.14-.18-4.25.1-6.39,0-1.01.18-1.19,1.29-1.19,1.36,0,2.75-.1,4.01-.1.38.77,1.15,1.07,2.45,1.07l1.38-.1c.75,0,1.31-.08,1.96,0,1.11,0,2.12,0,3.12-.08,1.38,0,2.59-.1,3.88.08.71.12,1.38-.2,1.86-.71,3.14.14,6.39-.08,9.61-.08.28,0,.57,0,.87-.02.36.49.91.81,1.62.91,1.36.16,2.63.24,3.96.2.02.12.02.26.02.4.08,1.38,0,2.77,0,4.15,0,1.03.08,2.14.18,3.14.1.55,0,1.11-.28,1.66Z"/>
            <path class="cls-1" d="M70.67,164.56c0,.47,0,1.21-.2,1.66-.08.2-.45.28-.73.38-.65.1-1.38.18-2.14.18-3.12,0-6.27-.18-9.41,0-.65,0-.83-.18-.83-.91,0-3.14,0-6.29.1-9.43,0-3.78.08-7.65-.1-11.55-.1-2.02,0-4.05.1-5.99.08-1.03.18-2.14,0-3.14-.2-.73-.2-1.48-.1-2.12.38-2.41.28-4.73.1-7.02-.2-2.14-.1-4.35,0-6.47.18-.65.18-1.31.08-1.94,0-3.14-.08-6.29-.08-9.43,0-2.77,0-5.44.08-8.23.1-2.02-.18-4.15,0-6.19,0-.08.02-.16.04-.22h.16c1.52,0,2.43-.22,2.91-.89h1.42c.47,0,.95.08,1.4.12.36.42.89.67,1.46.67h.73l4.79.14c0,.14,0,.3.02.47.1.36,0,.73,0,1.19,0,2.77-.08,5.83-.08,8.6-.2,3.6.08,7.1.08,10.7-.08,5.36-.28,13.13-.28,15.7,0,2.04-.08,4.17.28,6.19.2.93.1,2.79,0,3.6-.28,3.14,0,4.45,0,7.59,0,.63.1,1.74.1,2.12-.1.73-.1,1.48-.1,2.12.1,1.86.1,3.7.1,5.56-.1,2.21.18,4.33.1,6.55Z"/>
            <path class="cls-1" d="M130.34,162.34c-.1.83,0,1.76,0,2.59,0,.45,0,.83-.1,1.21-.08.45-.45.73-.83.83-.18.08-.36.08-.45.08-1.66-.18-3.42,0-5.08,0h-3.78c-.47,0-.83-.08-1.21-.18-.28-.1-.65-.45-.65-.65.38-1.46-.28-2.95-.08-4.33.08-1.03,0-2.14.18-3.14.18-.73.18-1.66.08-2.39-.26-1.21-.26-2.41-.26-3.62,0-4.51-.1-9.04-.1-13.57l.1-9.24c0-.55-.1-1.11-.1-1.66,0,0-.1-.2-.2-.2-.08,0-.18.1-.18.1-.38.45-.55,1.01-.55,1.56-.38,3.07-.93,7.12-1.38,10.09-.55,2.95-1.11,5.89-1.48,8.86-.36,2.39-.83,4.88-1.19,7.38-.1.93-.38,1.86-.55,2.87-.28,2.14-.65,4.25-.93,6.39-.18,1.19-.45,1.38-1.48,1.46-.45.1-.93.1-1.48.1-1.94,0-3.96-.1-5.99-.1-.55,0-1.11,0-1.66-.08-1.03,0-1.38-.28-1.58-1.38-.28-.93-.45-1.86-.63-2.87-.2-.83-.38-1.66-.47-2.59-.08-1.29-.36-2.49-.55-3.8-.55-3.4-.91-6.82-1.46-10.24-.47-2.49-.93-4.88-1.48-7.4-.28-1.56-.75-3.12-.93-4.71,0-.73-.28-1.38-.38-2.12-.28-.93.1-2.97-.83-3.6-.63.91-.36,2.85-.36,3.78,0,5.36.08,10.72.08,16.36.28,1.38,0,3.05-.08,4.71-.1,4.07-.1,8.68.28,12.76v.28c.08.63-.28,1.01-.93,1.11h-1.21c-3.05,0-5.99-.1-8.96.18-.73,0-1.11-.38-1.11-1.01-.1-.65-.1-1.31-.1-2.41.1-3.78.1-7.75-.18-11.55-.1-.28,0-.63,0-.91.18-.65.18-1.31,0-1.94-.28-1.76-.28-3.52.1-5.28.18-.63.08-1.29.08-1.94.1-5.99.1-12.1.2-18.1,0-2.87-.2-5.64,0-8.5.18-2.87.28-5.81.08-8.68-.08-1.48-.18-3.05-.18-4.53,0-.08-.1-.18-.1-.28.47-2.21,0-4.43,0-6.74v-.45c.1-1.31.47-1.66,1.86-1.48.83,0,1.66,0,2.59-.1,1.19-.18,2.39-.28,3.6-.08,1.29.18,2.59,0,3.88,0,.71,0,1.44-.06,2.18-.02.85.97,1.9,1.76,2.81,2.37.2.14.45.28.67.36.49,2,1.01,3.99,1.09,6.05.1.75.28,1.4.38,2.14.55,2.95.83,5.91,1.11,8.86.28,3.42,1.19,6.84,1.74,10.26l2.87,15.33c.1.18.2.38.28.45,0,.1.1.1.2.2.18.08.28,0,.36-.2l2.04-11.53c.18-1.03.45-1.96.65-2.87l1.46-7.85c.38-2.77.57-5.64,1.21-8.4.38-1.58.2-3.32.65-4.98.73-2.59,1.01-5.28,1.48-7.85,0-.38.08-.65.18-.93.04-.16.08-.3.12-.42l8.66.1c.28,0,.65,0,.93-.1.85-.08,1.54-.4,2.02-.93.71,0,1.42-.02,2.14-.04h1.38c.83.08,1.19.45,1.19,1.29v7.22c0,1.84-.36,3.68,0,5.54.2.73.1,1.46.1,2.21,0,4.43-.38,8.86-.18,13.29.08,2.69.28,5.46.18,8.23-.18,3.8.18,7.57,0,11.37v.45c.65,6.47.45,13.03.28,19.58Z"/>
            <path class="cls-1" d="M172.56,159.12c-.28,1.66,0,3.4,0,5.08,0,.45-.1.91-.1,1.46-.08.83-.36,1.21-1.19,1.21-1.96,0-3.9.18-6.57-.18-.28-.1-.65-.2-.93-.1-1.38.38-2.77.18-4.15.28-5.64.45-11.27.1-16.91.1-.18,0-.45,0-.73-.1-1.76,0-1.94,0-1.86-1.84.1-.47,0-.83,0-1.21s-.08-.65-.08-1.03c.45-6.92.28-13.94.36-20.96,0-2.49,0-4.98-.18-7.48-.1-1.38,0-2.77-.1-4.15,0-6.19,0-12.38-.08-18.57,0-1.84-.1-3.6-.2-5.36-.08-1.38-.08-2.67.2-4.05.08-.55.08-1.13.08-1.68-.18-2.21-.18-4.33-.08-6.55,0-.75.36-1.03,1.01-1.03l4.63.28c.45,0,1.19.2,1.56,0,1.86-.45,3.52-.08,5.36,0l.83.06c.36.4.87.65,1.48.73l1.56.1h1.94c1.31,0,2.59.1,3.88,0,1.38,0,2.69-.18,3.88-.38.77-.04,1.36-.34,1.72-.81,1.07,0,2.18.02,3.28.02.65,0,.83.2.93.83.08.55.36,1.11.28,1.68-.38,2.77.08,5.44-.28,8.21-.2.83-.38,1.11-1.31,1.21-1.56,0-3.05.28-4.81,0-1.19.1-2.39,0-3.6,0l-1.66.1c-2.31,0-4.61-.2-7.02,0-.38.08-.55.36-.65.63,0,.2-.08.38-.08.55.18,4.45-.55,8.78-.28,13.21,0,.65,0,1.31.08,1.94.1.55.1,1.21.38,1.66.38.65,1.01,0,1.56.1,1.96.38,3.98.45,5.91.1.47-.1.83-.1,1.21,0,1.66.36,3.42.28,5.08.28.93,0,1.01.08,1.29,1.11.38,1.48.28,2.95.1,4.33-.1,1.86,0,3.7-.1,5.56,0,.55-.28.91-.83,1.01-1.01.18-2.29.38-3.4.38-3.42,0-6.94-.38-10.36,0-.36.08-.63.28-.63.63,0,.55-.1,1.03-.1,1.48.18,2.41-.1,4.9,0,7.3.1,2.77,0,5.64.28,8.4.1.38-.1.83,0,1.21,0,.28.1.45.38.45.28.1.45.1.73.1,2.14-.28,4.15,0,6.29,0,3.05-.65,6.82.18,9.89-.28h1.01c.83.08,1.01.28,1.01,1.01,0,1.03.28,1.94.1,2.97Z"/>
            <path class="cls-1" d="M211.36,141c1.48,3.7,1.66,7.57,1.38,11.37-.18,2.49-1.03,4.88-1.94,7.2-.38.83-.65,1.66-1.03,2.39-.91,1.48-2.29,2.59-3.88,3.24-2.12.93-4.15,1.94-6.37,2.31-.38.08-.73.28-1.21.28-2.21.08-4.53.18-6.74-.1-1.11-.18-2.21-.38-3.22-.93-.38-.28-.75-.36-1.11-.36-1.66-.38-3.05-1.03-4.43-1.86-.2-.18-.38-.36-.55-.45-1.21-.47-1.96-1.38-2.59-2.49-.93-1.86-1.94-3.7-2.41-5.81-.36-1.68-.55-3.42-.63-5.28-.2-1.84-.1-3.78,0-5.72,0-.83.18-1.03,1.01-1.03.65-.08,1.29-.18,1.94-.08,2.87,0,5.81-.28,8.68,0,.47.08.75.36.75.83.08.91,0,1.94.08,2.87.1,1.56.38,3.22.55,4.79,0,.28.1.65.2.93.73,2.31,2.39,3.6,4.79,3.7.93.1,1.76.1,2.59-.28,2.21-.93,3.32-2.87,3.05-5.26-.45-3.8-1.74-7.3-4.61-10.17l-.75-.65c-2.29-3.14-5.16-5.72-8.03-8.4l-.83-.83c-1.56-1.94-3.14-3.78-4.61-5.81-.3-.28-.57-.65-.75-1.03-.73-2.29-2.04-4.51-2.77-6.92-.83-3.14-1.01-6.37-.65-9.61.1-1.01.2-2.02.47-3.05.36-2.12,1.46-3.98,2.39-5.81l.38-.55c1.84-2.21,4.05-4.15,6.92-5.18.65-.28,1.38-.45,2.04-.55,2.21-.45,4.53-.45,6.74-.63,2.12.45,4.25.45,6.37,1.11,1.76.45,3.24,1.29,4.71,2.39.75.55,1.38,1.31,2.14,2.14,1.94,2.21,2.87,5.16,3.32,8.4.28,2.02.1,4.53-.45,6.55-.85,2.87-2.87,4.53-5.64,5.08-2.87.75-5.56,0-7.85-1.94-.38-.28-.38-.55,0-.73,1.56-1.11,2.02-2.69,2.12-4.43,0-1.58-.18-3.07-.93-4.45-.55-1.11-1.38-1.74-2.57-1.84-.75-.28-2.04-.28-2.59-.18-2.21.08-3.24,1.19-4.07,3.5-.45,1.11-.45,2.31-.63,3.52,0,.45.08.91.28,1.46,0,.28.18.55.28.83.63,1.48,1.38,2.97,2.02,4.43l4.53,4.45c1.38,1.19,2.59,2.39,3.8,3.78.45.65,1.11,1.31,1.74,1.94,1.4,1.31,2.59,2.49,3.62,4.17.18.26.36.63.63.91,2.14,2.31,3.14,5.08,4.35,7.85Z"/>
          </g>
          <g>
            <path class="cls-3" d="M61.24,77.32c.1-.73.18-1.56.1-2.39-.47-3.34-.38-6.66-.38-9.99.1-2.31,0-4.61,0-6.82v-3.8c0-.38-.1-.65-.18-1.29,0-.75,0-1.58.08-2.49.2-2.04.28-3.9.1-5.36l.1-2.21v-2.04l.08-4.98c.1-3.24.2-6.47.2-9.81v-6.17c0-1.58-.83-2.31-2.41-2.31h-.36v-.47c0-1.56-.83-2.29-2.41-2.29h-2.95c-2.59.08-5.28.08-7.67-.1h-.1l-.83.1c-1.01.18-1.66.83-1.94,1.66v.28c-.18.45-.28,1.11-.28,1.29v2.14c0,1.19,0,2.49.2,3.78.18,1.29.28,2.31.08,3.14-.28,1.76-.28,3.5-.28,5.08v3.32c0,.65-.08,1.38,0,2.12.2,1.86.2,3.7.2,5.56l.08,2.02c0,.38.1.47.2.47l-2.04.08c-1.31.1-2.41.1-3.52,0l-1.01-.08c0-.83-.1-1.76-.28-2.69v-.55c.28-1.48.18-3.05.1-4.53l-.1-2.02.1-2.41c0-1.66.08-3.5-.1-5.26-.18-1.29-.1-2.49,0-3.88,0-.83.1-1.66.1-2.49v-1.76c-.2-1.66-1.03-2.41-2.79-2.59v-.18c-.18-1.66-1.01-2.49-2.77-2.59l-1.29-.1c-2.59,0-5.36,0-7.95-.08-.63,0-1.11,0-1.46.08-.93.2-1.68.83-1.96,1.86-.08.55-.08,1.11-.08,1.46v2.79c.08,2.29.08,4.51-.1,6.74v1.56l.1.83.08.65c.1.91.1,1.29,0,1.66-.28,1.56-.28,2.77,0,3.97.1.08.1.36.1.83.1,2.12.1,4.15,0,6.27v2.41c0,.63.1,1.11.1,1.74.08.47,0,1.03,0,1.66l-.1,1.48-.1,3.24c0,2.21-.08,4.43.1,6.64l-.1,2.12c-.36,5-.28,9.99-.18,14.87v11.09c0,2.04.73,2.77,2.77,2.77,0,.12,0,.22.02.32.02.57.1,1.03.3,1.38h.06c4.15.1,7.48.1,11.63.1,0,0,.93,0,1.58.08.45.04.91.06,1.38.08.34-.36.57-.81.65-1.31v-.83l.08-.93v-2.97c-.08-2.21-.08-4.33,0-6.82.1-.65.1-1.01,0-1.66-.08-2.49-.08-7.57-.08-11-.1-1.01,0-2.04,0-3.05l.08-2.04c2.21-.28,3.8-.18,5.54-.1l.93.1v6.84c0,2.39,0,4.71-.08,7.1-.2,2.69-.1,5.46-.1,8.13v2.59l.1.83v.75c.18,1.29.91,2.21,2.21,2.39l.55.1v.28s.02.08.02.12c.1.53.28.99.57,1.36.83.02,1.7,0,2.53-.06.55,0,1.11,0,1.68.08.97.08,1.31.3,1.36,1.09.45,0,.91-.02,1.38-.08.45-.02.93-.06,1.4-.12.55-.08,1.15-.02,1.84,0h1.42c.14-.65.51-.89,1.27-.89h1.8c.26-.34.42-.79.49-1.38.04-.26.08-.53.08-.85.02-.24.02-.47.02-.75v-.93l-.1-4.43v-1.11c-.02-1.82-.06-3.58,0-5.36,0-.38.1-.73.1-1.11ZM54.95,89.98c-1.29,0-2.49-.1-3.6,0-2.21.28-4.15.28-6.37,0-.65-.1-.93-.45-1.01-1.11,0-.55-.1-1.03-.1-1.48,0-3.5-.1-7.12.1-10.62.18-4.25,0-8.4.08-12.66,0-1.56-.18-3.14-.18-4.81-.1-.36-.38-.55-.65-.63-.45-.1-1.01-.1-1.48-.1-2.85,0-4.98-.38-8.48,0-1.03.1-1.21.28-1.21,1.38,0,1.66-.18,3.32-.1,5.08,0,3.88,0,9.69.2,11.83-.28,3.96-.1,7.1-.1,10.62,0,.55-.1,1.11-.1,1.66-.08.38-.55.83-.91.73-2.31-.28-4.73.1-7.12,0-1.21-.08-2.31.1-3.42.1-1.19,0-1.38-.1-1.38-1.38v-2.97c.1-7.65-.38-15.33.2-22.9l.08-2.21c-.28-3.32,0-6.57,0-9.89,0-1.38.28-2.77,0-4.15,0-3.14.2-6.29,0-9.41,0-.38,0-.83-.08-1.21-.3-1.11-.2-2.22,0-3.32.18-.83,0-1.76-.1-2.69,0-.73-.2-1.46-.1-2.12.28-3.24.1-6.47.1-9.71,0-.36,0-.73.1-1.19.08-.38.36-.65.83-.75.36-.08.73-.08,1.19-.08,2.59.08,5.36.08,7.95.08.45,0,.83.1,1.21.1,1.01.1,1.38.38,1.46,1.29v1.68c0,2.21-.36,4.33-.08,6.55.28,2.49,0,4.98,0,7.48,0,2.14.36,4.35,0,6.47v.75c.36,2.12.36,4.15.36,6.27,0,.55.38.83.93.83.38,0,.83.1,1.21-.08.93-.28,1.94-.28,2.87-.2,1.94.2,3.88-.08,5.81-.08.73,0,1.01-.28,1.01-1.11-.08-2.77,0-5.64-.28-8.4-.08-1.03,0-1.94,0-2.97.1-2.39-.18-4.81.28-7.2.2-1.21.1-2.41-.08-3.6-.28-1.94-.1-3.88-.2-5.83,0-.36.2-.73.28-1.11.1-.36.38-.55.65-.63.28,0,.55-.1.73-.1,3.42.28,7.3.1,10.72.1.83,0,1.03.18,1.03.91v6.19c0,4.9-.2,9.79-.3,14.69-.08,1.38,0,2.87-.08,4.35.18,1.66.08,3.5-.1,5.26-.1,1.19-.18,2.39.1,3.6v.73c0,3.32.08,6.74,0,10.17,0,3.32-.1,6.74.38,10.16.18,1.11-.2,2.21-.2,3.32-.1,3.6.1,7.2.1,10.9v.93c0,2.39-.2,2.49-2.14,2.49Z"/>
            <path class="cls-3" d="M87.56,64.49c-.36-2.77-.91-5.54-1.19-8.33-.38-3.5-.83-7.02-1.48-10.52-.55-2.95-.83-5.64-1.29-8.58,0-.1-.28-.38-.28-.47-.28-.08-.38.2-.47.38-.08.83-.28,1.38-.45,2.21-.28,1.38-.45,2.87-.75,4.25-.18,1.29-.55,2.59-.73,3.78-.38,2.87-.65,5.83-.93,8.68-.08,0-.18.55-.18.55-.45,2.97-.73,5.28-1.21,8.23-.08.83,0,1.11.75,1.11,1.74,0,3.32.2,5.36-.08.63,0,1.19-.1,1.84,0,.83.08,1.11-.28,1.01-1.21ZM85.27,64.29h-.28l-1.21.1h-.55l.1-.83.28-2.12s.36-2.69.45-2.69c.18-1.76.38-3.5.65-5.26l.28,2.87c.18,1.66.45,3.32.73,4.98l.45,3.14-.91-.2ZM87.56,64.49c-.36-2.77-.91-5.54-1.19-8.33-.38-3.5-.83-7.02-1.48-10.52-.55-2.95-.83-5.64-1.29-8.58,0-.1-.28-.38-.28-.47-.28-.08-.38.2-.47.38-.08.83-.28,1.38-.45,2.21-.28,1.38-.45,2.87-.75,4.25-.18,1.29-.55,2.59-.73,3.78-.38,2.87-.65,5.83-.93,8.68-.08,0-.18.55-.18.55-.45,2.97-.73,5.28-1.21,8.23-.08.83,0,1.11.75,1.11,1.74,0,3.32.2,5.36-.08.63,0,1.19-.1,1.84,0,.83.08,1.11-.28,1.01-1.21ZM85.27,64.29h-.28l-1.21.1h-.55l.1-.83.28-2.12s.36-2.69.45-2.69c.18-1.76.38-3.5.65-5.26l.28,2.87c.18,1.66.45,3.32.73,4.98l.45,3.14-.91-.2ZM87.56,64.49c-.36-2.77-.91-5.54-1.19-8.33-.38-3.5-.83-7.02-1.48-10.52-.55-2.95-.83-5.64-1.29-8.58,0-.1-.28-.38-.28-.47-.28-.08-.38.2-.47.38-.08.83-.28,1.38-.45,2.21-.28,1.38-.45,2.87-.75,4.25-.18,1.29-.55,2.59-.73,3.78-.38,2.87-.65,5.83-.93,8.68-.08,0-.18.55-.18.55-.45,2.97-.73,5.28-1.21,8.23-.08.83,0,1.11.75,1.11,1.74,0,3.32.2,5.36-.08.63,0,1.19-.1,1.84,0,.83.08,1.11-.28,1.01-1.21ZM85.27,64.29h-.28l-1.21.1h-.55l.1-.83.28-2.12s.36-2.69.45-2.69c.18-1.76.38-3.5.65-5.26l.28,2.87c.18,1.66.45,3.32.73,4.98l.45,3.14-.91-.2ZM87.56,64.49c-.36-2.77-.91-5.54-1.19-8.33-.38-3.5-.83-7.02-1.48-10.52-.55-2.95-.83-5.64-1.29-8.58,0-.1-.28-.38-.28-.47-.28-.08-.38.2-.47.38-.08.83-.28,1.38-.45,2.21-.28,1.38-.45,2.87-.75,4.25-.18,1.29-.55,2.59-.73,3.78-.38,2.87-.65,5.83-.93,8.68-.08,0-.18.55-.18.55-.45,2.97-.73,5.28-1.21,8.23-.08.83,0,1.11.75,1.11,1.74,0,3.32.2,5.36-.08.63,0,1.19-.1,1.84,0,.83.08,1.11-.28,1.01-1.21ZM85.27,64.29h-.28l-1.21.1h-.55l.1-.83.28-2.12s.36-2.69.45-2.69c.18-1.76.38-3.5.65-5.26l.28,2.87c.18,1.66.45,3.32.73,4.98l.45,3.14-.91-.2ZM87.56,64.49c-.36-2.77-.91-5.54-1.19-8.33-.38-3.5-.83-7.02-1.48-10.52-.55-2.95-.83-5.64-1.29-8.58,0-.1-.28-.38-.28-.47-.28-.08-.38.2-.47.38-.08.83-.28,1.38-.45,2.21-.28,1.38-.45,2.87-.75,4.25-.18,1.29-.55,2.59-.73,3.78-.38,2.87-.65,5.83-.93,8.68-.08,0-.18.55-.18.55-.45,2.97-.73,5.28-1.21,8.23-.08.83,0,1.11.75,1.11,1.74,0,3.32.2,5.36-.08.63,0,1.19-.1,1.84,0,.83.08,1.11-.28,1.01-1.21ZM85.27,64.29h-.28l-1.21.1h-.55l.1-.83.28-2.12s.36-2.69.45-2.69c.18-1.76.38-3.5.65-5.26l.28,2.87c.18,1.66.45,3.32.73,4.98l.45,3.14-.91-.2ZM87.56,64.49c-.36-2.77-.91-5.54-1.19-8.33-.38-3.5-.83-7.02-1.48-10.52-.55-2.95-.83-5.64-1.29-8.58,0-.1-.28-.38-.28-.47-.28-.08-.38.2-.47.38-.08.83-.28,1.38-.45,2.21-.28,1.38-.45,2.87-.75,4.25-.18,1.29-.55,2.59-.73,3.78-.38,2.87-.65,5.83-.93,8.68-.08,0-.18.55-.18.55-.45,2.97-.73,5.28-1.21,8.23-.08.83,0,1.11.75,1.11,1.74,0,3.32.2,5.36-.08.63,0,1.19-.1,1.84,0,.83.08,1.11-.28,1.01-1.21ZM85.27,64.29h-.28l-1.21.1h-.55l.1-.83.28-2.12s.36-2.69.45-2.69c.18-1.76.38-3.5.65-5.26l.28,2.87c.18,1.66.45,3.32.73,4.98l.45,3.14-.91-.2ZM87.56,64.49c-.36-2.77-.91-5.54-1.19-8.33-.38-3.5-.83-7.02-1.48-10.52-.55-2.95-.83-5.64-1.29-8.58,0-.1-.28-.38-.28-.47-.28-.08-.38.2-.47.38-.08.83-.28,1.38-.45,2.21-.28,1.38-.45,2.87-.75,4.25-.18,1.29-.55,2.59-.73,3.78-.38,2.87-.65,5.83-.93,8.68-.08,0-.18.55-.18.55-.45,2.97-.73,5.28-1.21,8.23-.08.83,0,1.11.75,1.11,1.74,0,3.32.2,5.36-.08.63,0,1.19-.1,1.84,0,.83.08,1.11-.28,1.01-1.21ZM85.27,64.29h-.28l-1.21.1h-.55l.1-.83.28-2.12s.36-2.69.45-2.69c.18-1.76.38-3.5.65-5.26l.28,2.87c.18,1.66.45,3.32.73,4.98l.45,3.14-.91-.2ZM87.56,64.49c-.36-2.77-.91-5.54-1.19-8.33-.38-3.5-.83-7.02-1.48-10.52-.55-2.95-.83-5.64-1.29-8.58,0-.1-.28-.38-.28-.47-.28-.08-.38.2-.47.38-.08.83-.28,1.38-.45,2.21-.28,1.38-.45,2.87-.75,4.25-.18,1.29-.55,2.59-.73,3.78-.38,2.87-.65,5.83-.93,8.68-.08,0-.18.55-.18.55-.45,2.97-.73,5.28-1.21,8.23-.08.83,0,1.11.75,1.11,1.74,0,3.32.2,5.36-.08.63,0,1.19-.1,1.84,0,.83.08,1.11-.28,1.01-1.21ZM85.27,64.29h-.28l-1.21.1h-.55l.1-.83.28-2.12s.36-2.69.45-2.69c.18-1.76.38-3.5.65-5.26l.28,2.87c.18,1.66.45,3.32.73,4.98l.45,3.14-.91-.2ZM109.73,91.82l-.08-.08c-.28-.18-.53-.44-.79-.81-.02,0-.04-.04-.04-.04-.28-.4-.53-.85-.79-1.4-.18-.38-.34-.81-.51-1.27-.36-1.11-.63-2.49-.83-4.25-.18-1.74-.55-3.6-.91-5.26-.38-1.48-.65-2.87-.83-4.25-.38-2.77-.75-5.54-1.03-8.21l-1.94-13.03-.38-2.31c-.45-2.77-.83-5.64-1.46-8.48-.38-1.11-.55-2.31-.75-3.62l-.18-1.01c-.18-.83-.28-1.66-.38-2.49l-.28-2.49c-.36-2.41-.73-4.71-1.19-7.12-.28-2.04-.55-4.05-1.21-6.09-.28-1.11-1.31-1.94-2.49-2.04l-.28-.73c-.28-1.11-1.31-1.94-2.49-2.04h-1.76c-1.58-.1-3.14,0-4.63.1-1.46,0-2.95.08-4.43,0l-3.7-.2c-1.19,0-2.29.75-2.67,1.86l-.28.91-.83,3.42-.38,2.77c-.18,1.76-.45,3.42-.73,5.08l-.38,2.49-.38,2.31-.63,2.97c-.47,1.84-.93,3.68-1.31,5.54-.36,1.66-.73,3.5-.83,5.36-.18,1.56-.45,3.14-.73,4.81-.28,1.29-.55,2.57-.73,3.88l-.2,1.38c-.28,1.76-.55,3.32-.93,4.88-.28.83-.63,1.86-.63,2.97,0,1.38-.28,2.67-.55,4.15l-.47,1.94c-.45,2.59-1.01,5.08-1.56,7.57l-1.01,4.71-.02.1v.06l-.63,3.26-.28,1.66c-.2.99.26,1.84.99,2.23.28.18.61.26.95.26h.93l-.1.28c-.04.14-.04.26-.04.38-.02.57.18,1.07.51,1.44.73.1,1.46.14,2.2-.2,1.11.28,2.97.18,4.07.08.69-.06.69.18.71.93l1.4.02,1.11.04,2.87-.1c1.03,0,1.76-.65,2.21-1.48l.2-.55c.18-.36.28-.73.36-1.38l.2-.91c.18-1.11.36-2.31.63-3.14l1.03-5.26h2.39c1.86.08,3.8.08,5.74-.1l.93,4.81.45,1.46c.59,1.94,1.84,3.16,3.18,4.21.14.1.28.22.42.32.24.38.49.71.79,1.05.71.02,1.4.12,2.08.38.65.2.93.47,1.11,1.13.1.42.2.81.3,1.23.1.04.18.08.26.1h.18l1.38.38,1.88.34,1.17.22c2.51.38,5-.18,6.94-1.76,1.46-1.19,1.66-2.57.08-3.32ZM106.05,91.26c-1.76,1.38-3.8,1.86-5.91,1.48-1.48-.18-2.87-.55-4.25-.83-.28-.1-.47-.1-.65-.28-1.66-1.21-3.32-2.39-3.97-4.43-.63-2.31-1.66-4.98-1.66-7.5,0-.08-.08-.08-.08-.18-.3-2.04-1.21-2.87-3.24-2.49-2.77.38-5.54.18-8.23.18-.36,0-.63,0-.91.1-.38.1-.65.28-.75.55l-1.11,5.74c-.36,1.38-.63,3.4-.91,4.79l-.38.93c-.18.38-.45.65-.93.65-.93,0-1.94.1-2.87.1-2.39-.1-4.88-.1-7.3-.2h-.73c-.38,0-.65-.36-.55-.83.28-1.48.55-3.6.93-5.08.83-4.05,1.84-8.13,2.57-12.28.38-2.12,1.03-4.15,1.03-6.37,0-.93.28-1.76.55-2.59.55-2.12.83-4.25,1.21-6.47.18-1.21.45-2.49.73-3.78.28-1.66.55-3.34.73-5,.1-1.74.47-3.5.83-5.16.55-2.87,1.31-5.64,1.94-8.5.28-1.56.47-3.22.75-4.81.45-2.57.73-5.26,1.11-7.85.28-1.38.65-2.77,1.01-4.25.2-.45.75-.83,1.31-.83,1.19.1,2.57.1,3.68.2,3.14.18,6.01-.28,9.16-.1h1.66c.65.1,1.11.45,1.29,1.01.55,1.96.83,3.9,1.11,5.91.47,2.41.83,4.73,1.21,7.12.28,1.66.38,3.32.65,4.98.28,1.66.45,3.24.91,4.81.85,3.52,1.31,7.12,1.86,10.62l1.94,12.93c.28,2.77.65,5.54,1.01,8.31.47,3.24,1.38,6.29,1.76,9.53.18,1.46.45,3.05.93,4.51.45,1.38,1.29,3.24,2.59,4.17.45.36,1.19.28,0,1.19ZM86.37,56.16c-.38-3.5-.83-7.02-1.48-10.52-.55-2.95-.83-5.64-1.29-8.58,0-.1-.28-.38-.28-.47-.28-.08-.38.2-.47.38-.08.83-.28,1.38-.45,2.21-.28,1.38-.45,2.87-.75,4.25-.18,1.29-.55,2.59-.73,3.78-.38,2.87-.65,5.83-.93,8.68-.08,0-.18.55-.18.55-.45,2.97-.73,5.28-1.21,8.23-.08.83,0,1.11.75,1.11,1.74,0,3.32.2,5.36-.08.63,0,1.19-.1,1.84,0,.83.08,1.11-.28,1.01-1.21-.36-2.77-.91-5.54-1.19-8.33ZM85.27,64.29h-.28l-1.21.1h-.55l.1-.83.28-2.12s.36-2.69.45-2.69c.18-1.76.38-3.5.65-5.26l.28,2.87c.18,1.66.45,3.32.73,4.98l.45,3.14-.91-.2ZM87.56,64.49c-.36-2.77-.91-5.54-1.19-8.33-.38-3.5-.83-7.02-1.48-10.52-.55-2.95-.83-5.64-1.29-8.58,0-.1-.28-.38-.28-.47-.28-.08-.38.2-.47.38-.08.83-.28,1.38-.45,2.21-.28,1.38-.45,2.87-.75,4.25-.18,1.29-.55,2.59-.73,3.78-.38,2.87-.65,5.83-.93,8.68-.08,0-.18.55-.18.55-.45,2.97-.73,5.28-1.21,8.23-.08.83,0,1.11.75,1.11,1.74,0,3.32.2,5.36-.08.63,0,1.19-.1,1.84,0,.83.08,1.11-.28,1.01-1.21ZM85.27,64.29h-.28l-1.21.1h-.55l.1-.83.28-2.12s.36-2.69.45-2.69c.18-1.76.38-3.5.65-5.26l.28,2.87c.18,1.66.45,3.32.73,4.98l.45,3.14-.91-.2ZM87.56,64.49c-.36-2.77-.91-5.54-1.19-8.33-.38-3.5-.83-7.02-1.48-10.52-.55-2.95-.83-5.64-1.29-8.58,0-.1-.28-.38-.28-.47-.28-.08-.38.2-.47.38-.08.83-.28,1.38-.45,2.21-.28,1.38-.45,2.87-.75,4.25-.18,1.29-.55,2.59-.73,3.78-.38,2.87-.65,5.83-.93,8.68-.08,0-.18.55-.18.55-.45,2.97-.73,5.28-1.21,8.23-.08.83,0,1.11.75,1.11,1.74,0,3.32.2,5.36-.08.63,0,1.19-.1,1.84,0,.83.08,1.11-.28,1.01-1.21ZM85.27,64.29h-.28l-1.21.1h-.55l.1-.83.28-2.12s.36-2.69.45-2.69c.18-1.76.38-3.5.65-5.26l.28,2.87c.18,1.66.45,3.32.73,4.98l.45,3.14-.91-.2ZM87.56,64.49c-.36-2.77-.91-5.54-1.19-8.33-.38-3.5-.83-7.02-1.48-10.52-.55-2.95-.83-5.64-1.29-8.58,0-.1-.28-.38-.28-.47-.28-.08-.38.2-.47.38-.08.83-.28,1.38-.45,2.21-.28,1.38-.45,2.87-.75,4.25-.18,1.29-.55,2.59-.73,3.78-.38,2.87-.65,5.83-.93,8.68-.08,0-.18.55-.18.55-.45,2.97-.73,5.28-1.21,8.23-.08.83,0,1.11.75,1.11,1.74,0,3.32.2,5.36-.08.63,0,1.19-.1,1.84,0,.83.08,1.11-.28,1.01-1.21ZM85.27,64.29h-.28l-1.21.1h-.55l.1-.83.28-2.12s.36-2.69.45-2.69c.18-1.76.38-3.5.65-5.26l.28,2.87c.18,1.66.45,3.32.73,4.98l.45,3.14-.91-.2ZM87.56,64.49c-.36-2.77-.91-5.54-1.19-8.33-.38-3.5-.83-7.02-1.48-10.52-.55-2.95-.83-5.64-1.29-8.58,0-.1-.28-.38-.28-.47-.28-.08-.38.2-.47.38-.08.83-.28,1.38-.45,2.21-.28,1.38-.45,2.87-.75,4.25-.18,1.29-.55,2.59-.73,3.78-.38,2.87-.65,5.83-.93,8.68-.08,0-.18.55-.18.55-.45,2.97-.73,5.28-1.21,8.23-.08.83,0,1.11.75,1.11,1.74,0,3.32.2,5.36-.08.63,0,1.19-.1,1.84,0,.83.08,1.11-.28,1.01-1.21ZM85.27,64.29h-.28l-1.21.1h-.55l.1-.83.28-2.12s.36-2.69.45-2.69c.18-1.76.38-3.5.65-5.26l.28,2.87c.18,1.66.45,3.32.73,4.98l.45,3.14-.91-.2ZM87.56,64.49c-.36-2.77-.91-5.54-1.19-8.33-.38-3.5-.83-7.02-1.48-10.52-.55-2.95-.83-5.64-1.29-8.58,0-.1-.28-.38-.28-.47-.28-.08-.38.2-.47.38-.08.83-.28,1.38-.45,2.21-.28,1.38-.45,2.87-.75,4.25-.18,1.29-.55,2.59-.73,3.78-.38,2.87-.65,5.83-.93,8.68-.08,0-.18.55-.18.55-.45,2.97-.73,5.28-1.21,8.23-.08.83,0,1.11.75,1.11,1.74,0,3.32.2,5.36-.08.63,0,1.19-.1,1.84,0,.83.08,1.11-.28,1.01-1.21ZM85.27,64.29h-.28l-1.21.1h-.55l.1-.83.28-2.12s.36-2.69.45-2.69c.18-1.76.38-3.5.65-5.26l.28,2.87c.18,1.66.45,3.32.73,4.98l.45,3.14-.91-.2ZM87.56,64.49c-.36-2.77-.91-5.54-1.19-8.33-.38-3.5-.83-7.02-1.48-10.52-.55-2.95-.83-5.64-1.29-8.58,0-.1-.28-.38-.28-.47-.28-.08-.38.2-.47.38-.08.83-.28,1.38-.45,2.21-.28,1.38-.45,2.87-.75,4.25-.18,1.29-.55,2.59-.73,3.78-.38,2.87-.65,5.83-.93,8.68-.08,0-.18.55-.18.55-.45,2.97-.73,5.28-1.21,8.23-.08.83,0,1.11.75,1.11,1.74,0,3.32.2,5.36-.08.63,0,1.19-.1,1.84,0,.83.08,1.11-.28,1.01-1.21ZM85.27,64.29h-.28l-1.21.1h-.55l.1-.83.28-2.12s.36-2.69.45-2.69c.18-1.76.38-3.5.65-5.26l.28,2.87c.18,1.66.45,3.32.73,4.98l.45,3.14-.91-.2ZM87.56,64.49c-.36-2.77-.91-5.54-1.19-8.33-.38-3.5-.83-7.02-1.48-10.52-.55-2.95-.83-5.64-1.29-8.58,0-.1-.28-.38-.28-.47-.28-.08-.38.2-.47.38-.08.83-.28,1.38-.45,2.21-.28,1.38-.45,2.87-.75,4.25-.18,1.29-.55,2.59-.73,3.78-.38,2.87-.65,5.83-.93,8.68-.08,0-.18.55-.18.55-.45,2.97-.73,5.28-1.21,8.23-.08.83,0,1.11.75,1.11,1.74,0,3.32.2,5.36-.08.63,0,1.19-.1,1.84,0,.83.08,1.11-.28,1.01-1.21ZM85.27,64.29h-.28l-1.21.1h-.55l.1-.83.28-2.12s.36-2.69.45-2.69c.18-1.76.38-3.5.65-5.26l.28,2.87c.18,1.66.45,3.32.73,4.98l.45,3.14-.91-.2ZM87.56,64.49c-.36-2.77-.91-5.54-1.19-8.33-.38-3.5-.83-7.02-1.48-10.52-.55-2.95-.83-5.64-1.29-8.58,0-.1-.28-.38-.28-.47-.28-.08-.38.2-.47.38-.08.83-.28,1.38-.45,2.21-.28,1.38-.45,2.87-.75,4.25-.18,1.29-.55,2.59-.73,3.78-.38,2.87-.65,5.83-.93,8.68-.08,0-.18.55-.18.55-.45,2.97-.73,5.28-1.21,8.23-.08.83,0,1.11.75,1.11,1.74,0,3.32.2,5.36-.08.63,0,1.19-.1,1.84,0,.83.08,1.11-.28,1.01-1.21ZM85.27,64.29h-.28l-1.21.1h-.55l.1-.83.28-2.12s.36-2.69.45-2.69c.18-1.76.38-3.5.65-5.26l.28,2.87c.18,1.66.45,3.32.73,4.98l.45,3.14-.91-.2Z"/>
            <path class="cls-3" d="M173.75,33.71c0-.73-.28-1.56-.36-2.29-.2-1.48-.83-2.49-2.21-3.14-1.11-.55-2.31-.83-3.52-.83-.63,0-1.29.1-1.94,0-1.29,0-1.56.18-1.56,1.48l-.28,10.62c.18,2.57,0,5.64.08,8.68,0,.73-.08,1.48,0,2.12,0,.55.38.93.93,1.03h3.6c.55,0,1.11,0,1.66-.1,1.48-.18,2.49-.93,2.87-2.49.28-1.21.55-2.59.55-3.8.28-3.78.38-7.3.18-11.27ZM172.18,44.91c0,1.11-.28,2.39-.55,3.6-.18.91-.65,1.29-1.66,1.38-.45.1-.93.1-1.48.1h-.36v-2.87c0-1.66,0-3.32-.1-4.81l.28-10.62v-.1c.65.1,1.11,0,1.56,0h.55c.55,0,1.11.1,1.58.18l.18.83.18.93c.2,3.7.1,7.12-.18,11.37ZM153.06,80.64s-.04-.02-.06-.02c.02.02.04.04.08.06l-.02-.04ZM173.75,33.71c0-.73-.28-1.56-.36-2.29-.2-1.48-.83-2.49-2.21-3.14-1.11-.55-2.31-.83-3.52-.83-.63,0-1.29.1-1.94,0-1.29,0-1.56.18-1.56,1.48l-.28,10.62c.18,2.57,0,5.64.08,8.68,0,.73-.08,1.48,0,2.12,0,.55.38.93.93,1.03h3.6c.55,0,1.11,0,1.66-.1,1.48-.18,2.49-.93,2.87-2.49.28-1.21.55-2.59.55-3.8.28-3.78.38-7.3.18-11.27ZM172.18,44.91c0,1.11-.28,2.39-.55,3.6-.18.91-.65,1.29-1.66,1.38-.45.1-.93.1-1.48.1h-.36v-2.87c0-1.66,0-3.32-.1-4.81l.28-10.62v-.1c.65.1,1.11,0,1.56,0h.55c.55,0,1.11.1,1.58.18l.18.83.18.93c.2,3.7.1,7.12-.18,11.37ZM153.06,80.64s-.04-.02-.06-.02c.02.02.04.04.08.06l-.02-.04ZM153.06,80.64s-.04-.02-.06-.02c.02.02.04.04.08.06l-.02-.04ZM173.75,33.71c0-.73-.28-1.56-.36-2.29-.2-1.48-.83-2.49-2.21-3.14-1.11-.55-2.31-.83-3.52-.83-.63,0-1.29.1-1.94,0-1.29,0-1.56.18-1.56,1.48l-.28,10.62c.18,2.57,0,5.64.08,8.68,0,.73-.08,1.48,0,2.12,0,.55.38.93.93,1.03h3.6c.55,0,1.11,0,1.66-.1,1.48-.18,2.49-.93,2.87-2.49.28-1.21.55-2.59.55-3.8.28-3.78.38-7.3.18-11.27ZM172.18,44.91c0,1.11-.28,2.39-.55,3.6-.18.91-.65,1.29-1.66,1.38-.45.1-.93.1-1.48.1h-.36v-2.87c0-1.66,0-3.32-.1-4.81l.28-10.62v-.1c.65.1,1.11,0,1.56,0h.55c.55,0,1.11.1,1.58.18l.18.83.18.93c.2,3.7.1,7.12-.18,11.37ZM173.75,33.71c0-.73-.28-1.56-.36-2.29-.2-1.48-.83-2.49-2.21-3.14-1.11-.55-2.31-.83-3.52-.83-.63,0-1.29.1-1.94,0-1.29,0-1.56.18-1.56,1.48l-.28,10.62c.18,2.57,0,5.64.08,8.68,0,.73-.08,1.48,0,2.12,0,.55.38.93.93,1.03h3.6c.55,0,1.11,0,1.66-.1,1.48-.18,2.49-.93,2.87-2.49.28-1.21.55-2.59.55-3.8.28-3.78.38-7.3.18-11.27ZM172.18,44.91c0,1.11-.28,2.39-.55,3.6-.18.91-.65,1.29-1.66,1.38-.45.1-.93.1-1.48.1h-.36v-2.87c0-1.66,0-3.32-.1-4.81l.28-10.62v-.1c.65.1,1.11,0,1.56,0h.55c.55,0,1.11.1,1.58.18l.18.83.18.93c.2,3.7.1,7.12-.18,11.37ZM153.06,80.64s-.04-.02-.06-.02c.02.02.04.04.08.06l-.02-.04ZM153.06,80.64s-.04-.02-.06-.02c.02.02.04.04.08.06l-.02-.04ZM173.75,33.71c0-.73-.28-1.56-.36-2.29-.2-1.48-.83-2.49-2.21-3.14-1.11-.55-2.31-.83-3.52-.83-.63,0-1.29.1-1.94,0-1.29,0-1.56.18-1.56,1.48l-.28,10.62c.18,2.57,0,5.64.08,8.68,0,.73-.08,1.48,0,2.12,0,.55.38.93.93,1.03h3.6c.55,0,1.11,0,1.66-.1,1.48-.18,2.49-.93,2.87-2.49.28-1.21.55-2.59.55-3.8.28-3.78.38-7.3.18-11.27ZM172.18,44.91c0,1.11-.28,2.39-.55,3.6-.18.91-.65,1.29-1.66,1.38-.45.1-.93.1-1.48.1h-.36v-2.87c0-1.66,0-3.32-.1-4.81l.28-10.62v-.1c.65.1,1.11,0,1.56,0h.55c.55,0,1.11.1,1.58.18l.18.83.18.93c.2,3.7.1,7.12-.18,11.37ZM173.75,33.71c0-.73-.28-1.56-.36-2.29-.2-1.48-.83-2.49-2.21-3.14-1.11-.55-2.31-.83-3.52-.83-.63,0-1.29.1-1.94,0-1.29,0-1.56.18-1.56,1.48l-.28,10.62c.18,2.57,0,5.64.08,8.68,0,.73-.08,1.48,0,2.12,0,.55.38.93.93,1.03h3.6c.55,0,1.11,0,1.66-.1,1.48-.18,2.49-.93,2.87-2.49.28-1.21.55-2.59.55-3.8.28-3.78.38-7.3.18-11.27ZM172.18,44.91c0,1.11-.28,2.39-.55,3.6-.18.91-.65,1.29-1.66,1.38-.45.1-.93.1-1.48.1h-.36v-2.87c0-1.66,0-3.32-.1-4.81l.28-10.62v-.1c.65.1,1.11,0,1.56,0h.55c.55,0,1.11.1,1.58.18l.18.83.18.93c.2,3.7.1,7.12-.18,11.37ZM153.06,80.64s-.04-.02-.06-.02c.02.02.04.04.08.06l-.02-.04ZM153.06,80.64s-.04-.02-.06-.02c.02.02.04.04.08.06l-.02-.04ZM173.75,33.71c0-.73-.28-1.56-.36-2.29-.2-1.48-.83-2.49-2.21-3.14-1.11-.55-2.31-.83-3.52-.83-.63,0-1.29.1-1.94,0-1.29,0-1.56.18-1.56,1.48l-.28,10.62c.18,2.57,0,5.64.08,8.68,0,.73-.08,1.48,0,2.12,0,.55.38.93.93,1.03h3.6c.55,0,1.11,0,1.66-.1,1.48-.18,2.49-.93,2.87-2.49.28-1.21.55-2.59.55-3.8.28-3.78.38-7.3.18-11.27ZM172.18,44.91c0,1.11-.28,2.39-.55,3.6-.18.91-.65,1.29-1.66,1.38-.45.1-.93.1-1.48.1h-.36v-2.87c0-1.66,0-3.32-.1-4.81l.28-10.62v-.1c.65.1,1.11,0,1.56,0h.55c.55,0,1.11.1,1.58.18l.18.83.18.93c.2,3.7.1,7.12-.18,11.37ZM173.75,33.71c0-.73-.28-1.56-.36-2.29-.2-1.48-.83-2.49-2.21-3.14-1.11-.55-2.31-.83-3.52-.83-.63,0-1.29.1-1.94,0-1.29,0-1.56.18-1.56,1.48l-.28,10.62c.18,2.57,0,5.64.08,8.68,0,.73-.08,1.48,0,2.12,0,.55.38.93.93,1.03h3.6c.55,0,1.11,0,1.66-.1,1.48-.18,2.49-.93,2.87-2.49.28-1.21.55-2.59.55-3.8.28-3.78.38-7.3.18-11.27ZM172.18,44.91c0,1.11-.28,2.39-.55,3.6-.18.91-.65,1.29-1.66,1.38-.45.1-.93.1-1.48.1h-.36v-2.87c0-1.66,0-3.32-.1-4.81l.28-10.62v-.1c.65.1,1.11,0,1.56,0h.55c.55,0,1.11.1,1.58.18l.18.83.18.93c.2,3.7.1,7.12-.18,11.37ZM153,80.62s.04.04.08.06l-.02-.04s-.04-.02-.06-.02ZM190.3,40.93v-2.14c0-.83-.1-1.74-.2-2.57l-.1-1.21-.18-1.11c-.18-1.86-.38-3.88-1.01-5.74-.47-1.94-1.48-3.7-2.69-4.98-.63-.73-1.38-1.38-2.02-1.94l-.75-.83c-2.87-3.05-5.64-4.63-8.78-5.08-1.19-.18-2.29-.28-3.32-.45-.63-.2-1.11-.2-1.74-.1-1.48.28-2.87.18-4.45.1h-2.95c-1.38.08-2.69,0-4.15-.1l-2.31-.18c-1.21,0-2.49.08-3.8.28-1.29.18-2.02.91-2.02,2.29v19.22l-.1,8.4v4.05l.1,4.17v.83c0,.83-.1,1.74.08,2.67.1.38.1.83-.08,1.66,0,.38-.1.93-.1,1.48v2.87c0,1.84,0,3.78.28,5.72,0,2.77,0,5.56-.1,8.33l.1,2.12c0,.65-.1,1.48,0,2.31v7.85c0,1.29.83,2.21,2.14,2.39h.63v.38c0,.08,0,.16.02.22.04.59.26,1.09.63,1.44,1.23.08,2.49.16,3.7-.14.93-.2,1.94.08,2.87,0,2.61-.2,5.22-.22,7.89-.22.32-.36.49-.83.49-1.36.02-.04.02-.08.02-.12v-.55c0-.65,0-1.38-.1-1.86-.18-1.01-.18-2.49-.18-3.98v-2.49c-.1-1.76,0-3.5,0-5.26v-2.59c0-1.29,0-2.39.08-3.6.2-1.48.47-3.22.2-4.98.28.18.83.18.83.18,1.66.2,3.5.1,5.81-.28,4.15-.45,7.38-2.04,9.79-4.71,3.14-3.22,4.88-7.12,5.08-11.27,0-1.11,0-2.12.18-3.14.38-2.02.28-4.15.2-5.99ZM185.95,43.98c-.18,1.11-.18,2.21-.18,3.32-.2,4.07-1.94,7.48-4.73,10.34-2.39,2.69-5.44,3.88-8.96,4.25-1.84.28-3.68.45-5.54.28-.65,0-1.29.1-1.94.18-.38,0-.55.28-.45.65.36,1.76.08,3.52-.1,5.26-.1,1.21-.1,2.41-.1,3.7,0,2.59-.08,5.26,0,7.95.1,1.84-.08,4.81.2,6.64.18.65.08,1.38.08,2.14,0,.55-.28.91-.91.91-1.31.2-2.49.38-3.8.38-1.94.1-3.88,0-5.81,0-.45,0-1.01-.1-1.48-.1-.55-.08-.83-.45-.83-1.01v-7.95c-.1-1.11,0-2.21,0-3.32h-.1c.1-3.05.1-6.19.1-9.24v-.18c-.45-2.87-.18-5.64-.28-8.5,0-1.11.38-2.21.18-3.32-.18-1.11-.08-2.21-.08-3.32,0-2.77-.1-5.56-.1-8.23,0-5.54.1-11.17.1-16.71v-10.92c0-.63.18-.83.83-.91,1.21-.2,2.39-.28,3.6-.28,2.21.08,4.35.36,6.47.28,2.77-.1,5.46.36,8.23-.2,1.29.28,2.67.47,4.05.65,3.24.45,5.74,2.31,7.95,4.63,1.11,1.19,1.94,2.77,2.39,4.43.65,2.12.83,4.43,1.11,6.64.1,1.21.28,2.41.28,3.6,0,2.59.28,5.28-.18,7.95ZM173.39,31.42c-.2-1.48-.83-2.49-2.21-3.14-1.11-.55-2.31-.83-3.52-.83-.63,0-1.29.1-1.94,0-1.29,0-1.56.18-1.56,1.48l-.28,10.62c.18,2.57,0,5.64.08,8.68,0,.73-.08,1.48,0,2.12,0,.55.38.93.93,1.03h3.6c.55,0,1.11,0,1.66-.1,1.48-.18,2.49-.93,2.87-2.49.28-1.21.55-2.59.55-3.8.28-3.78.38-7.3.18-11.27,0-.73-.28-1.56-.36-2.29ZM172.18,44.91c0,1.11-.28,2.39-.55,3.6-.18.91-.65,1.29-1.66,1.38-.45.1-.93.1-1.48.1h-.36v-2.87c0-1.66,0-3.32-.1-4.81l.28-10.62v-.1c.65.1,1.11,0,1.56,0h.55c.55,0,1.11.1,1.58.18l.18.83.18.93c.2,3.7.1,7.12-.18,11.37ZM153,80.62s.04.04.08.06l-.02-.04s-.04-.02-.06-.02ZM153.06,80.64s-.04-.02-.06-.02c.02.02.04.04.08.06l-.02-.04ZM173.75,33.71c0-.73-.28-1.56-.36-2.29-.2-1.48-.83-2.49-2.21-3.14-1.11-.55-2.31-.83-3.52-.83-.63,0-1.29.1-1.94,0-1.29,0-1.56.18-1.56,1.48l-.28,10.62c.18,2.57,0,5.64.08,8.68,0,.73-.08,1.48,0,2.12,0,.55.38.93.93,1.03h3.6c.55,0,1.11,0,1.66-.1,1.48-.18,2.49-.93,2.87-2.49.28-1.21.55-2.59.55-3.8.28-3.78.38-7.3.18-11.27ZM172.18,44.91c0,1.11-.28,2.39-.55,3.6-.18.91-.65,1.29-1.66,1.38-.45.1-.93.1-1.48.1h-.36v-2.87c0-1.66,0-3.32-.1-4.81l.28-10.62v-.1c.65.1,1.11,0,1.56,0h.55c.55,0,1.11.1,1.58.18l.18.83.18.93c.2,3.7.1,7.12-.18,11.37ZM173.75,33.71c0-.73-.28-1.56-.36-2.29-.2-1.48-.83-2.49-2.21-3.14-1.11-.55-2.31-.83-3.52-.83-.63,0-1.29.1-1.94,0-1.29,0-1.56.18-1.56,1.48l-.28,10.62c.18,2.57,0,5.64.08,8.68,0,.73-.08,1.48,0,2.12,0,.55.38.93.93,1.03h3.6c.55,0,1.11,0,1.66-.1,1.48-.18,2.49-.93,2.87-2.49.28-1.21.55-2.59.55-3.8.28-3.78.38-7.3.18-11.27ZM172.18,44.91c0,1.11-.28,2.39-.55,3.6-.18.91-.65,1.29-1.66,1.38-.45.1-.93.1-1.48.1h-.36v-2.87c0-1.66,0-3.32-.1-4.81l.28-10.62v-.1c.65.1,1.11,0,1.56,0h.55c.55,0,1.11.1,1.58.18l.18.83.18.93c.2,3.7.1,7.12-.18,11.37ZM153.06,80.64s-.04-.02-.06-.02c.02.02.04.04.08.06l-.02-.04ZM153.06,80.64s-.04-.02-.06-.02c.02.02.04.04.08.06l-.02-.04ZM173.75,33.71c0-.73-.28-1.56-.36-2.29-.2-1.48-.83-2.49-2.21-3.14-1.11-.55-2.31-.83-3.52-.83-.63,0-1.29.1-1.94,0-1.29,0-1.56.18-1.56,1.48l-.28,10.62c.18,2.57,0,5.64.08,8.68,0,.73-.08,1.48,0,2.12,0,.55.38.93.93,1.03h3.6c.55,0,1.11,0,1.66-.1,1.48-.18,2.49-.93,2.87-2.49.28-1.21.55-2.59.55-3.8.28-3.78.38-7.3.18-11.27ZM172.18,44.91c0,1.11-.28,2.39-.55,3.6-.18.91-.65,1.29-1.66,1.38-.45.1-.93.1-1.48.1h-.36v-2.87c0-1.66,0-3.32-.1-4.81l.28-10.62v-.1c.65.1,1.11,0,1.56,0h.55c.55,0,1.11.1,1.58.18l.18.83.18.93c.2,3.7.1,7.12-.18,11.37ZM173.75,33.71c0-.73-.28-1.56-.36-2.29-.2-1.48-.83-2.49-2.21-3.14-1.11-.55-2.31-.83-3.52-.83-.63,0-1.29.1-1.94,0-1.29,0-1.56.18-1.56,1.48l-.28,10.62c.18,2.57,0,5.64.08,8.68,0,.73-.08,1.48,0,2.12,0,.55.38.93.93,1.03h3.6c.55,0,1.11,0,1.66-.1,1.48-.18,2.49-.93,2.87-2.49.28-1.21.55-2.59.55-3.8.28-3.78.38-7.3.18-11.27ZM172.18,44.91c0,1.11-.28,2.39-.55,3.6-.18.91-.65,1.29-1.66,1.38-.45.1-.93.1-1.48.1h-.36v-2.87c0-1.66,0-3.32-.1-4.81l.28-10.62v-.1c.65.1,1.11,0,1.56,0h.55c.55,0,1.11.1,1.58.18l.18.83.18.93c.2,3.7.1,7.12-.18,11.37ZM153.06,80.64s-.04-.02-.06-.02c.02.02.04.04.08.06l-.02-.04ZM153.06,80.64s-.04-.02-.06-.02c.02.02.04.04.08.06l-.02-.04ZM173.75,33.71c0-.73-.28-1.56-.36-2.29-.2-1.48-.83-2.49-2.21-3.14-1.11-.55-2.31-.83-3.52-.83-.63,0-1.29.1-1.94,0-1.29,0-1.56.18-1.56,1.48l-.28,10.62c.18,2.57,0,5.64.08,8.68,0,.73-.08,1.48,0,2.12,0,.55.38.93.93,1.03h3.6c.55,0,1.11,0,1.66-.1,1.48-.18,2.49-.93,2.87-2.49.28-1.21.55-2.59.55-3.8.28-3.78.38-7.3.18-11.27ZM172.18,44.91c0,1.11-.28,2.39-.55,3.6-.18.91-.65,1.29-1.66,1.38-.45.1-.93.1-1.48.1h-.36v-2.87c0-1.66,0-3.32-.1-4.81l.28-10.62v-.1c.65.1,1.11,0,1.56,0h.55c.55,0,1.11.1,1.58.18l.18.83.18.93c.2,3.7.1,7.12-.18,11.37ZM173.75,33.71c0-.73-.28-1.56-.36-2.29-.2-1.48-.83-2.49-2.21-3.14-1.11-.55-2.31-.83-3.52-.83-.63,0-1.29.1-1.94,0-1.29,0-1.56.18-1.56,1.48l-.28,10.62c.18,2.57,0,5.64.08,8.68,0,.73-.08,1.48,0,2.12,0,.55.38.93.93,1.03h3.6c.55,0,1.11,0,1.66-.1,1.48-.18,2.49-.93,2.87-2.49.28-1.21.55-2.59.55-3.8.28-3.78.38-7.3.18-11.27ZM172.18,44.91c0,1.11-.28,2.39-.55,3.6-.18.91-.65,1.29-1.66,1.38-.45.1-.93.1-1.48.1h-.36v-2.87c0-1.66,0-3.32-.1-4.81l.28-10.62v-.1c.65.1,1.11,0,1.56,0h.55c.55,0,1.11.1,1.58.18l.18.83.18.93c.2,3.7.1,7.12-.18,11.37ZM153.06,80.64s-.04-.02-.06-.02c.02.02.04.04.08.06l-.02-.04ZM131.92,31.97c-.28-1.48-1.03-2.59-1.86-3.6-.28-.47-.83-.55-1.29-.75-1.94-.55-4.25-.36-6.29-.18-.36,0-.55.28-.55.65-.08.91-.08,1.94-.08,2.85-.1,2.77.18,6.84-.1,11.55.28,1.86.1,3.8.18,5.64,0,1.01-.18,2.04.1,3.05,1.11.65,2.21.28,3.32.38.83.1,1.56.1,2.39,0,1.76-.1,3.07-.93,3.7-2.59.38-1.01.65-2.04.65-3.05,0-2.95.18-6.01.18-8.96.1-1.66-.08-3.32-.36-4.98ZM130.89,36.96c0,1.38,0,2.95-.08,4.43,0,1.48-.1,3.05-.1,4.53,0,.65-.18,1.48-.55,2.59-.47,1.11-1.21,1.56-2.49,1.66-.55.1-1.11.1-1.58.1v-1.48c0-1.11,0-2.31-.18-3.6.18-2.87.1-5.56.1-7.77v-5.91c1.56-.08,3.05-.18,4.33.1l.2.65c.36,1.94.45,3.42.36,4.71ZM131.92,31.97c-.28-1.48-1.03-2.59-1.86-3.6-.28-.47-.83-.55-1.29-.75-1.94-.55-4.25-.36-6.29-.18-.36,0-.55.28-.55.65-.08.91-.08,1.94-.08,2.85-.1,2.77.18,6.84-.1,11.55.28,1.86.1,3.8.18,5.64,0,1.01-.18,2.04.1,3.05,1.11.65,2.21.28,3.32.38.83.1,1.56.1,2.39,0,1.76-.1,3.07-.93,3.7-2.59.38-1.01.65-2.04.65-3.05,0-2.95.18-6.01.18-8.96.1-1.66-.08-3.32-.36-4.98ZM130.89,36.96c0,1.38,0,2.95-.08,4.43,0,1.48-.1,3.05-.1,4.53,0,.65-.18,1.48-.55,2.59-.47,1.11-1.21,1.56-2.49,1.66-.55.1-1.11.1-1.58.1v-1.48c0-1.11,0-2.31-.18-3.6.18-2.87.1-5.56.1-7.77v-5.91c1.56-.08,3.05-.18,4.33.1l.2.65c.36,1.94.45,3.42.36,4.71ZM131.92,31.97c-.28-1.48-1.03-2.59-1.86-3.6-.28-.47-.83-.55-1.29-.75-1.94-.55-4.25-.36-6.29-.18-.36,0-.55.28-.55.65-.08.91-.08,1.94-.08,2.85-.1,2.77.18,6.84-.1,11.55.28,1.86.1,3.8.18,5.64,0,1.01-.18,2.04.1,3.05,1.11.65,2.21.28,3.32.38.83.1,1.56.1,2.39,0,1.76-.1,3.07-.93,3.7-2.59.38-1.01.65-2.04.65-3.05,0-2.95.18-6.01.18-8.96.1-1.66-.08-3.32-.36-4.98ZM130.89,36.96c0,1.38,0,2.95-.08,4.43,0,1.48-.1,3.05-.1,4.53,0,.65-.18,1.48-.55,2.59-.47,1.11-1.21,1.56-2.49,1.66-.55.1-1.11.1-1.58.1v-1.48c0-1.11,0-2.31-.18-3.6.18-2.87.1-5.56.1-7.77v-5.91c1.56-.08,3.05-.18,4.33.1l.2.65c.36,1.94.45,3.42.36,4.71ZM131.92,31.97c-.28-1.48-1.03-2.59-1.86-3.6-.28-.47-.83-.55-1.29-.75-1.94-.55-4.25-.36-6.29-.18-.36,0-.55.28-.55.65-.08.91-.08,1.94-.08,2.85-.1,2.77.18,6.84-.1,11.55.28,1.86.1,3.8.18,5.64,0,1.01-.18,2.04.1,3.05,1.11.65,2.21.28,3.32.38.83.1,1.56.1,2.39,0,1.76-.1,3.07-.93,3.7-2.59.38-1.01.65-2.04.65-3.05,0-2.95.18-6.01.18-8.96.1-1.66-.08-3.32-.36-4.98ZM130.89,36.96c0,1.38,0,2.95-.08,4.43,0,1.48-.1,3.05-.1,4.53,0,.65-.18,1.48-.55,2.59-.47,1.11-1.21,1.56-2.49,1.66-.55.1-1.11.1-1.58.1v-1.48c0-1.11,0-2.31-.18-3.6.18-2.87.1-5.56.1-7.77v-5.91c1.56-.08,3.05-.18,4.33.1l.2.65c.36,1.94.45,3.42.36,4.71ZM131.92,31.97c-.28-1.48-1.03-2.59-1.86-3.6-.28-.47-.83-.55-1.29-.75-1.94-.55-4.25-.36-6.29-.18-.36,0-.55.28-.55.65-.08.91-.08,1.94-.08,2.85-.1,2.77.18,6.84-.1,11.55.28,1.86.1,3.8.18,5.64,0,1.01-.18,2.04.1,3.05,1.11.65,2.21.28,3.32.38.83.1,1.56.1,2.39,0,1.76-.1,3.07-.93,3.7-2.59.38-1.01.65-2.04.65-3.05,0-2.95.18-6.01.18-8.96.1-1.66-.08-3.32-.36-4.98ZM130.89,36.96c0,1.38,0,2.95-.08,4.43,0,1.48-.1,3.05-.1,4.53,0,.65-.18,1.48-.55,2.59-.47,1.11-1.21,1.56-2.49,1.66-.55.1-1.11.1-1.58.1v-1.48c0-1.11,0-2.31-.18-3.6.18-2.87.1-5.56.1-7.77v-5.91c1.56-.08,3.05-.18,4.33.1l.2.65c.36,1.94.45,3.42.36,4.71ZM131.92,31.97c-.28-1.48-1.03-2.59-1.86-3.6-.28-.47-.83-.55-1.29-.75-1.94-.55-4.25-.36-6.29-.18-.36,0-.55.28-.55.65-.08.91-.08,1.94-.08,2.85-.1,2.77.18,6.84-.1,11.55.28,1.86.1,3.8.18,5.64,0,1.01-.18,2.04.1,3.05,1.11.65,2.21.28,3.32.38.83.1,1.56.1,2.39,0,1.76-.1,3.07-.93,3.7-2.59.38-1.01.65-2.04.65-3.05,0-2.95.18-6.01.18-8.96.1-1.66-.08-3.32-.36-4.98ZM130.89,36.96c0,1.38,0,2.95-.08,4.43,0,1.48-.1,3.05-.1,4.53,0,.65-.18,1.48-.55,2.59-.47,1.11-1.21,1.56-2.49,1.66-.55.1-1.11.1-1.58.1v-1.48c0-1.11,0-2.31-.18-3.6.18-2.87.1-5.56.1-7.77v-5.91c1.56-.08,3.05-.18,4.33.1l.2.65c.36,1.94.45,3.42.36,4.71ZM131.92,31.97c-.28-1.48-1.03-2.59-1.86-3.6-.28-.47-.83-.55-1.29-.75-1.94-.55-4.25-.36-6.29-.18-.36,0-.55.28-.55.65-.08.91-.08,1.94-.08,2.85-.1,2.77.18,6.84-.1,11.55.28,1.86.1,3.8.18,5.64,0,1.01-.18,2.04.1,3.05,1.11.65,2.21.28,3.32.38.83.1,1.56.1,2.39,0,1.76-.1,3.07-.93,3.7-2.59.38-1.01.65-2.04.65-3.05,0-2.95.18-6.01.18-8.96.1-1.66-.08-3.32-.36-4.98ZM130.89,36.96c0,1.38,0,2.95-.08,4.43,0,1.48-.1,3.05-.1,4.53,0,.65-.18,1.48-.55,2.59-.47,1.11-1.21,1.56-2.49,1.66-.55.1-1.11.1-1.58.1v-1.48c0-1.11,0-2.31-.18-3.6.18-2.87.1-5.56.1-7.77v-5.91c1.56-.08,3.05-.18,4.33.1l.2.65c.36,1.94.45,3.42.36,4.71ZM131.92,31.97c-.28-1.48-1.03-2.59-1.86-3.6-.28-.47-.83-.55-1.29-.75-1.94-.55-4.25-.36-6.29-.18-.36,0-.55.28-.55.65-.08.91-.08,1.94-.08,2.85-.1,2.77.18,6.84-.1,11.55.28,1.86.1,3.8.18,5.64,0,1.01-.18,2.04.1,3.05,1.11.65,2.21.28,3.32.38.83.1,1.56.1,2.39,0,1.76-.1,3.07-.93,3.7-2.59.38-1.01.65-2.04.65-3.05,0-2.95.18-6.01.18-8.96.1-1.66-.08-3.32-.36-4.98ZM130.89,36.96c0,1.38,0,2.95-.08,4.43,0,1.48-.1,3.05-.1,4.53,0,.65-.18,1.48-.55,2.59-.47,1.11-1.21,1.56-2.49,1.66-.55.1-1.11.1-1.58.1v-1.48c0-1.11,0-2.31-.18-3.6.18-2.87.1-5.56.1-7.77v-5.91c1.56-.08,3.05-.18,4.33.1l.2.65c.36,1.94.45,3.42.36,4.71ZM148.35,33.91c-.18-3.42-1.48-6.74-3.98-10.44-.45-.83-1.21-1.56-2.31-2.31l-.28-.08-.18-.38c-.45-.83-1.21-1.56-2.31-2.31-.55-.28-1.19-.83-1.74-1.29-1.48-1.31-3.42-2.04-6.01-2.14-3.32-.08-6.57-.18-9.69-.18l-.57.18c-3.78-.18-5.06-.18-7.1-.18h-2.31c-.55,0-1.21,0-1.94.18-1.38.2-2.04,1.11-2.04,2.59v7.02l-.08,3.05v2.97c-.1,2.02,0,4.15.08,5.99l.1,3.6v3.42c0,1.76,0,3.52.1,5.26l.08,1.86v5.26l-.08,3.8v.55c.08.36.08.45,0,.63-.28,2.31-.38,4.45-.2,6.47.38,2.59.38,5.83.28,8.78v2.31c0,1.74,0,3.42-.08,5.16,0,1.76-.1,3.52-.1,5.28,0,.18.02.36.04.51.1.63.36,1.11.79,1.4,0,0,.02.04.04.04.4.3.91.44,1.52.44h.38v.38c0,1.23.57,2,1.52,2.27.26.08.55.12.87.12h.49c.26-.69.57-.89,1.36-.89,2.12,0,4.25-.18,6.27-.08,1.32.06,2.65.08,3.98.04.34-.36.57-.83.67-1.4.06-.26.08-.51.08-.81v-1.56c.08-1.58.18-3.32-.2-4.98-.08-.28-.08-.65-.08-1.11v-3.7l.08-6.84.1-6.74c.45,0,1.76.1,2.77,0l5.18-.18.55-.1c.45,0,1.11-.08,1.38-.18,2.95-1.01,5.26-2.49,6.82-4.35.65-.73,1.21-1.46,1.66-2.21.38-.63.75-1.19,1.21-1.74.75-1.13,1.11-2.23,1.48-3.24l.28-.65c.38-.83.45-1.74.55-2.49,0-.45.1-.83.18-1.29.38-1.86.55-3.7.55-5.74v-3.88c0-2.04,0-4.05-.18-6.09ZM144.38,41.11c0,1.86-.18,3.7-.55,5.46-.28,1.19-.18,2.39-.65,3.6-.45,1.21-.83,2.39-1.56,3.5-1.01,1.31-1.76,2.69-2.77,3.9-1.66,1.94-3.88,3.12-6.29,3.96-.45.2-1.11.1-1.66.2-2.67.08-5.44.18-8.21.36-.75.1-.93.28-.93,1.11-.1,4.25-.1,9.43-.18,13.69v3.7c0,.45,0,.91.08,1.38.47,2.12.2,4.23.2,6.27,0,1.11-.47,1.66-1.58,1.76-.18.1-.45.1-.73.1-3.05,0-6.11-.1-9.16-.1-.73,0-1.01-.28-1.01-1.01,0-3.52.18-6.94.18-10.44s.2-7.85-.28-11.27c-.18-2.04-.08-4.07.2-6.09.08-.47,0-.93,0-1.38,0-2.49.08-5,.08-7.5,0-1.11-.08-2.22-.08-3.42-.1-1.74-.1-3.5-.1-5.26,0-2.29-.1-4.61-.1-7.02-.08-1.94-.18-3.98-.08-5.99,0-1.94.08-3.98.08-6.01v-7.02c0-.83.1-1.11.93-1.21.55-.18,1.11-.18,1.66-.18,3.32,0,4.15-.1,7.48.1,0-.1,2.51-.1,2.51-.1,3.12,0,6.37.1,9.59.18,1.94.1,3.7.47,5.18,1.76.55.55,1.29,1.11,1.94,1.48.83.55,1.48,1.11,1.84,1.84,2.04,2.97,3.6,6.11,3.8,9.79.18,1.94.18,3.98.18,6.01v3.88ZM130.06,28.37c-.28-.47-.83-.55-1.29-.75-1.94-.55-4.25-.36-6.29-.18-.36,0-.55.28-.55.65-.08.91-.08,1.94-.08,2.85-.1,2.77.18,6.84-.1,11.55.28,1.86.1,3.8.18,5.64,0,1.01-.18,2.04.1,3.05,1.11.65,2.21.28,3.32.38.83.1,1.56.1,2.39,0,1.76-.1,3.07-.93,3.7-2.59.38-1.01.65-2.04.65-3.05,0-2.95.18-6.01.18-8.96.1-1.66-.08-3.32-.36-4.98-.28-1.48-1.03-2.59-1.86-3.6ZM130.89,36.96c0,1.38,0,2.95-.08,4.43,0,1.48-.1,3.05-.1,4.53,0,.65-.18,1.48-.55,2.59-.47,1.11-1.21,1.56-2.49,1.66-.55.1-1.11.1-1.58.1v-1.48c0-1.11,0-2.31-.18-3.6.18-2.87.1-5.56.1-7.77v-5.91c1.56-.08,3.05-.18,4.33.1l.2.65c.36,1.94.45,3.42.36,4.71ZM131.92,31.97c-.28-1.48-1.03-2.59-1.86-3.6-.28-.47-.83-.55-1.29-.75-1.94-.55-4.25-.36-6.29-.18-.36,0-.55.28-.55.65-.08.91-.08,1.94-.08,2.85-.1,2.77.18,6.84-.1,11.55.28,1.86.1,3.8.18,5.64,0,1.01-.18,2.04.1,3.05,1.11.65,2.21.28,3.32.38.83.1,1.56.1,2.39,0,1.76-.1,3.07-.93,3.7-2.59.38-1.01.65-2.04.65-3.05,0-2.95.18-6.01.18-8.96.1-1.66-.08-3.32-.36-4.98ZM130.89,36.96c0,1.38,0,2.95-.08,4.43,0,1.48-.1,3.05-.1,4.53,0,.65-.18,1.48-.55,2.59-.47,1.11-1.21,1.56-2.49,1.66-.55.1-1.11.1-1.58.1v-1.48c0-1.11,0-2.31-.18-3.6.18-2.87.1-5.56.1-7.77v-5.91c1.56-.08,3.05-.18,4.33.1l.2.65c.36,1.94.45,3.42.36,4.71ZM131.92,31.97c-.28-1.48-1.03-2.59-1.86-3.6-.28-.47-.83-.55-1.29-.75-1.94-.55-4.25-.36-6.29-.18-.36,0-.55.28-.55.65-.08.91-.08,1.94-.08,2.85-.1,2.77.18,6.84-.1,11.55.28,1.86.1,3.8.18,5.64,0,1.01-.18,2.04.1,3.05,1.11.65,2.21.28,3.32.38.83.1,1.56.1,2.39,0,1.76-.1,3.07-.93,3.7-2.59.38-1.01.65-2.04.65-3.05,0-2.95.18-6.01.18-8.96.1-1.66-.08-3.32-.36-4.98ZM130.89,36.96c0,1.38,0,2.95-.08,4.43,0,1.48-.1,3.05-.1,4.53,0,.65-.18,1.48-.55,2.59-.47,1.11-1.21,1.56-2.49,1.66-.55.1-1.11.1-1.58.1v-1.48c0-1.11,0-2.31-.18-3.6.18-2.87.1-5.56.1-7.77v-5.91c1.56-.08,3.05-.18,4.33.1l.2.65c.36,1.94.45,3.42.36,4.71ZM131.92,31.97c-.28-1.48-1.03-2.59-1.86-3.6-.28-.47-.83-.55-1.29-.75-1.94-.55-4.25-.36-6.29-.18-.36,0-.55.28-.55.65-.08.91-.08,1.94-.08,2.85-.1,2.77.18,6.84-.1,11.55.28,1.86.1,3.8.18,5.64,0,1.01-.18,2.04.1,3.05,1.11.65,2.21.28,3.32.38.83.1,1.56.1,2.39,0,1.76-.1,3.07-.93,3.7-2.59.38-1.01.65-2.04.65-3.05,0-2.95.18-6.01.18-8.96.1-1.66-.08-3.32-.36-4.98ZM130.89,36.96c0,1.38,0,2.95-.08,4.43,0,1.48-.1,3.05-.1,4.53,0,.65-.18,1.48-.55,2.59-.47,1.11-1.21,1.56-2.49,1.66-.55.1-1.11.1-1.58.1v-1.48c0-1.11,0-2.31-.18-3.6.18-2.87.1-5.56.1-7.77v-5.91c1.56-.08,3.05-.18,4.33.1l.2.65c.36,1.94.45,3.42.36,4.71ZM131.92,31.97c-.28-1.48-1.03-2.59-1.86-3.6-.28-.47-.83-.55-1.29-.75-1.94-.55-4.25-.36-6.29-.18-.36,0-.55.28-.55.65-.08.91-.08,1.94-.08,2.85-.1,2.77.18,6.84-.1,11.55.28,1.86.1,3.8.18,5.64,0,1.01-.18,2.04.1,3.05,1.11.65,2.21.28,3.32.38.83.1,1.56.1,2.39,0,1.76-.1,3.07-.93,3.7-2.59.38-1.01.65-2.04.65-3.05,0-2.95.18-6.01.18-8.96.1-1.66-.08-3.32-.36-4.98ZM130.89,36.96c0,1.38,0,2.95-.08,4.43,0,1.48-.1,3.05-.1,4.53,0,.65-.18,1.48-.55,2.59-.47,1.11-1.21,1.56-2.49,1.66-.55.1-1.11.1-1.58.1v-1.48c0-1.11,0-2.31-.18-3.6.18-2.87.1-5.56.1-7.77v-5.91c1.56-.08,3.05-.18,4.33.1l.2.65c.36,1.94.45,3.42.36,4.71ZM131.92,31.97c-.28-1.48-1.03-2.59-1.86-3.6-.28-.47-.83-.55-1.29-.75-1.94-.55-4.25-.36-6.29-.18-.36,0-.55.28-.55.65-.08.91-.08,1.94-.08,2.85-.1,2.77.18,6.84-.1,11.55.28,1.86.1,3.8.18,5.64,0,1.01-.18,2.04.1,3.05,1.11.65,2.21.28,3.32.38.83.1,1.56.1,2.39,0,1.76-.1,3.07-.93,3.7-2.59.38-1.01.65-2.04.65-3.05,0-2.95.18-6.01.18-8.96.1-1.66-.08-3.32-.36-4.98ZM130.89,36.96c0,1.38,0,2.95-.08,4.43,0,1.48-.1,3.05-.1,4.53,0,.65-.18,1.48-.55,2.59-.47,1.11-1.21,1.56-2.49,1.66-.55.1-1.11.1-1.58.1v-1.48c0-1.11,0-2.31-.18-3.6.18-2.87.1-5.56.1-7.77v-5.91c1.56-.08,3.05-.18,4.33.1l.2.65c.36,1.94.45,3.42.36,4.71ZM131.92,31.97c-.28-1.48-1.03-2.59-1.86-3.6-.28-.47-.83-.55-1.29-.75-1.94-.55-4.25-.36-6.29-.18-.36,0-.55.28-.55.65-.08.91-.08,1.94-.08,2.85-.1,2.77.18,6.84-.1,11.55.28,1.86.1,3.8.18,5.64,0,1.01-.18,2.04.1,3.05,1.11.65,2.21.28,3.32.38.83.1,1.56.1,2.39,0,1.76-.1,3.07-.93,3.7-2.59.38-1.01.65-2.04.65-3.05,0-2.95.18-6.01.18-8.96.1-1.66-.08-3.32-.36-4.98ZM130.89,36.96c0,1.38,0,2.95-.08,4.43,0,1.48-.1,3.05-.1,4.53,0,.65-.18,1.48-.55,2.59-.47,1.11-1.21,1.56-2.49,1.66-.55.1-1.11.1-1.58.1v-1.48c0-1.11,0-2.31-.18-3.6.18-2.87.1-5.56.1-7.77v-5.91c1.56-.08,3.05-.18,4.33.1l.2.65c.36,1.94.45,3.42.36,4.71Z"/>
            <path class="cls-3" d="M234.82,16.63c.1-1.01-1.11-2.21-2.95-2.77-1.66-.55-3.32-.73-4.98-.45-1.66.28-3.62.65-5.56,1.66-1.19.55-2.21,1.38-3.05,2.39-1.11,1.58-2.39,3.42-2.95,5.64-.65,2.77-1.66,5.91-2.59,9.06-.65,2.31-1.38,4.63-1.94,6.74l-.1-.38c-.73-2.57-1.38-5.16-1.84-7.75l-1.38-5.08c-.55-2.04-1.11-3.98-1.48-5.91-.38-1.48-1.21-2.12-2.67-2.12l-.1-.65c-.38-1.48-1.21-2.12-2.77-2.12l-9.43-.1-2.77.1c-1.74.18-1.94,1.66-1.46,3.32,1.19,3.78,2.02,7.1,2.57,10.24l.1.28v.1c.83,2.31,1.56,4.71,2.39,7.02l.93,2.77c.47,1.76,1.03,3.42,1.48,5.08.45,1.38.83,2.59,1.11,3.88.73,3.6,1.84,7.12,2.95,10.54l.65,2.02c.55,1.76,1.11,3.42,1.58,5.08.36,1.58.55,2.97.55,4.15v2.79c0,1.84,0,3.6-.28,5.34,0,.47,0,.93.08,1.31l.1,2.21v8.03c0,1.48.83,2.31,2.39,2.31h.38v.45c0,.1,0,.2.02.3.1,1.31.91,2.02,2.37,2.02h.28c.42.02.83.02,1.25.02,2.83.08,5.64.08,8.46.08l.73-.1c1.11-.18,1.94-.93,1.94-1.94.28-2.77.28-5.18,0-7.12-.18-.55-.18-1.19-.18-1.84l-.1-5.64-.08-5.54c0-2.04.08-3.6.83-5.36.28-.65.45-1.38.55-1.94l.18-.55c.28-1.38.65-2.69,1.29-3.98.38-.83.65-1.66.83-2.49l.47-1.48c.45-1.38.83-2.67,1.21-4.05.63-2.21,1.29-4.35,2.21-6.39.18-.55.36-1.19.45-1.66.38-1.56.73-3.22,1.21-4.88.28-1.03.83-2.31,1.29-3.8.45-1.01.93-2.12,1.11-3.05,1.21-4.33,2.69-9.14,6.37-11.91,2.14-.75.93-3.07-1.66-3.9ZM233.08,16.55c-4.17,2.95-5.83,8.31-7.02,12.74-.55,1.86-1.94,5-2.41,6.84-.45,1.66-.93,3.32-1.29,4.98-.1.45-.2.93-.38,1.38-1.56,3.42-2.21,7.02-3.42,10.54-.45,1.29-.73,2.67-1.29,3.88-.65,1.38-1.03,2.77-1.38,4.15-.2.73-.28,1.56-.65,2.31-.83,1.94-.93,3.88-.93,5.91.1,3.7.1,7.38.2,11.17,0,.65,0,1.38.18,2.12.28,2.14.18,4.63,0,6.74,0,.38-.28.55-.65.65-.18.1-.45.1-.63.1-3.24,0-6.47,0-9.71-.1h-.28c-.73,0-1.01-.18-1.01-.93v-6.19c0-1.19-.1-2.77-.1-4.25-.08-.36-.08-.63-.08-1.01.36-2.67.18-5.44.28-8.23,0-1.46-.28-3.05-.65-4.51-.45-1.68-1.01-3.42-1.58-5.08-1.29-4.17-2.67-8.23-3.5-12.48-.28-1.38-.73-2.67-1.21-3.98-.55-2.12-1.19-4.15-1.84-6.27-.93-2.77-1.86-5.64-2.87-8.4,0-.2-.1-.38-.1-.47-.63-3.5-1.56-6.92-2.67-10.34-.18-.73-.38-1.48.28-1.56.73,0,1.84-.1,2.67-.1,3.14,0,6.29.1,9.43.1.93,0,1.21.18,1.38,1.01.73,3.7,2.04,7.3,2.87,11,.73,3.88,1.84,7.67,2.77,11.45l1.94,7.02c0,.1.18.18.28.18s.18-.08.18-.08c.2-.2.38-.47.38-.65.45-1.48.83-2.95,1.21-4.43,1.46-5.74,3.78-12.66,5.26-18.39.45-1.94,1.56-3.5,2.67-5.08.65-.83,1.58-1.56,2.59-2.02,1.76-.93,3.42-1.21,5.18-1.48,1.46-.28,2.95-.1,4.33.38,1.58.45,2.21,1.19,1.58,1.38Z"/>
            <path class="cls-3" d="M55.88,104.61c-.1-1.01-.18-2.04-.18-2.95v-1.4c0-.91.08-1.84,0-2.85,0-1.76-.83-2.59-2.59-2.77h-.18c0-.14,0-.28-.02-.4-.12-1.48-.95-2.21-2.57-2.39-.65-.08-1.38-.08-1.94-.08-.93.08-2.02.08-3.03.08h-.3l-3.7.1c-1.82,0-3.56.06-5.26,0-.61-.02-1.25-.04-1.86-.1-.73-.08-1.76-.08-1.76-.08-4.15,0-7.48,0-11.63-.1h-.36l-3.72.1c-1.84,0-2.67.73-2.67,2.49-.18,1.56-.18,3.22-.1,4.71v4.63c0,1.01.55,1.84,1.48,2.21.45.18.83.18,1.29.18v.38c0,1.01.55,1.84,1.48,2.21.55.28,1.03.18,1.66.08h.2c.91,0,1.74.1,2.57.1.93.1,1.86.1,2.87.1,0,1.48.1,2.87.28,4.25.1.45.1.83.1,1.29l-.1,3.7c0,1.94-.1,3.88,0,5.72v.75c0,1.29,0,2.67.28,4.15v1.11c0,.55-.1,1.11-.18,1.84-.1,1.03-.28,2.31,0,3.62l-.1.55-.1.36-.08,1.21c-.1,1.48-.2,3.05.18,4.71.1.38.1.75.1,1.21v8.03l-.1,8.13c-.1,2.21-.1,4.35-.1,6.57,0,1.48.85,2.21,2.31,2.39h.47v.38c0,1.48.83,2.21,2.29,2.39.55,0,.93,0,1.31-.08h1.66c.83.08,1.84.18,2.87,0,1.19.28,2.29.08,3.22,0,.65-.1,1.11-.18,1.66-.18,1.58,0,2.31-.93,2.31-2.51v-10.7c0-3.8-.1-7.5.38-11.09v-.38c.08-.36,0-.91,0-1.19-.28-.83-.28-1.76-.28-2.77v-1.58c0-2.12,0-4.33.08-6.55.1-3.52.2-7.02-.08-10.64v-1.38c0-1.56.08-3.12.08-4.81.1-2.85.2-5.81,0-8.68v-.36l.47.08c1.56-.08,2.67,0,3.78,0l2.49.1c.75,0,1.58-.1,2.21-.18l.83-.1c.75,0,1.31-.55,1.58-1.11.45-.83.55-1.66.45-2.49ZM51.45,103.68c-.1.2-.28.38-.45.38-.93.1-2.04.28-2.97.28-2.21,0-3.7-.18-6.29-.1-.36,0-.73,0-1.19.1-.38,0-.55.28-.55.55-.1.38-.1.65-.1,1.01.28,4.53-.1,9.06-.1,13.49v1.48c.47,5.74-.08,11.45,0,17.19.1,1.46-.08,3.05.28,4.53.1.45,0,.83,0,1.19-.45,3.7-.36,7.5-.36,11.19v10.7c0,.83-.2,1.11-.93,1.11-1.66,0-3.22.65-4.81.2-1.66.28-3.22-.1-4.81,0-.36.08-.63.08-1.01.08-.73-.08-1.01-.28-1.01-1.01,0-2.21,0-4.35.08-6.57,0-5.08.1-11.07.1-16.16,0-.45,0-1.01-.1-1.48-.45-1.84-.18-3.6-.08-5.44.08-.47.18-.83.18-1.21-.38-1.84.18-3.6.18-5.36,0-.45.1-.93,0-1.38-.36-1.56-.28-3.05-.28-4.63-.08-3.12.1-6.27.1-9.41,0-.45,0-.93-.1-1.48-.36-2.21-.36-4.43-.08-6.74.08-.18.08-.45,0-.63,0-.55-.47-.93-.93-.93-.65,0-1.21-.1-1.86,0-2.67.28-4.33-.1-7.1-.1l-.93.1c-.55-.1-.93-.45-.93-1.01v-2.87c0-2.14-.18-4.25.1-6.39,0-1.01.18-1.19,1.29-1.19,1.36,0,2.75-.1,4.01-.1h.06c4.15.1,7.48.1,11.63.1,0,0,.93,0,1.58.08.45.04.91.06,1.38.08,3.14.14,6.39-.08,9.61-.08.28,0,.57,0,.87-.02.83.02,1.7,0,2.53-.06.55,0,1.11,0,1.68.08.97.08,1.31.3,1.36,1.09.02.12.02.26.02.4.08,1.38,0,2.77,0,4.15,0,1.03.08,2.14.18,3.14.1.55,0,1.11-.28,1.66Z"/>
            <path class="cls-1" d="M51.45,103.68c-.1.2-.28.38-.45.38-.93.1-2.04.28-2.97.28-2.21,0-3.7-.18-6.29-.1-.36,0-.73,0-1.19.1-.38,0-.55.28-.55.55-.1.38-.1.65-.1,1.01.28,4.53-.1,9.06-.1,13.49v1.48c.47,5.74-.08,11.45,0,17.19.1,1.46-.08,3.05.28,4.53.1.45,0,.83,0,1.19-.45,3.7-.36,7.5-.36,11.19v10.7c0,.83-.2,1.11-.93,1.11-1.66,0-3.22.65-4.81.2-1.66.28-3.22-.1-4.81,0-.36.08-.63.08-1.01.08-.73-.08-1.01-.28-1.01-1.01,0-2.21,0-4.35.08-6.57,0-5.08.1-11.07.1-16.16,0-.45,0-1.01-.1-1.48-.45-1.84-.18-3.6-.08-5.44.08-.47.18-.83.18-1.21-.38-1.84.18-3.6.18-5.36,0-.45.1-.93,0-1.38-.36-1.56-.28-3.05-.28-4.63-.08-3.12.1-6.27.1-9.41,0-.45,0-.93-.1-1.48-.36-2.21-.36-4.43-.08-6.74.08-.18.08-.45,0-.63,0-.55-.47-.93-.93-.93-.65,0-1.21-.1-1.86,0-2.67.28-4.33-.1-7.1-.1l-.93.1c-.55-.1-.93-.45-.93-1.01v-2.87c0-2.14-.18-4.25.1-6.39,0-1.01.18-1.19,1.29-1.19,1.36,0,2.75-.1,4.01-.1h.06c4.15.1,7.48.1,11.63.1,0,0,.93,0,1.58.08.45.04.91.06,1.38.08,3.14.14,6.39-.08,9.61-.08.28,0,.57,0,.87-.02.83.02,1.7,0,2.53-.06.55,0,1.11,0,1.68.08.97.08,1.31.3,1.36,1.09.02.12.02.26.02.4.08,1.38,0,2.77,0,4.15,0,1.03.08,2.14.18,3.14.1.55,0,1.11-.28,1.66Z"/>
            <path class="cls-3" d="M74.73,164v-3.22c0-1.86,0-3.7-.1-5.56v-1.19c.1-.65.1-1.21.1-1.66v-.1l-.1-1.29c0-1.11,0-2.04-.08-2.87,0-1.48-.1-2.69.08-4.63.2-1.38.2-3.12,0-3.98-.28-1.56-.28-3.12-.28-4.88v-1.01l.2-9.43.08-6.29-.08-4.05c-.1-2.21-.1-4.43,0-6.64v-4.25l.08-4.35v-1.84c-.08-1.48-.83-2.31-2.29-2.12h-.47v-.65c-.08-1.48-.83-2.31-2.29-2.14-1.21.1-2.31.1-3.07,0-.73-.08-1.11,0-1.74.2-.28,0-.75,0-1.38-.1-.12,0-.26-.02-.42-.04-.28-.02-.57-.06-.89-.06h-3.22c-1.56,0-2.47.81-2.69,2.27v.04c-.08,1.31-.08,2.49,0,3.7v2.59c-.08,2.87-.08,5.54-.08,8.31l.08,4.71v4.81l.1.83c-.1.55-.18,1.03-.18,1.66-.1,1.94-.2,3.98,0,5.91.18,2.87.18,4.81-.1,6.74-.1.93-.1,1.76.1,2.59.18.83.08,1.76,0,2.77-.1,1.94-.2,4.07-.1,6.19.18,2.87.1,5.74.1,8.58v2.87c-.1,3.14-.1,6.29-.1,9.43,0,1.46.83,2.29,2.21,2.29h.55v.47c0,1.46.83,2.31,2.21,2.31,2.14-.1,4.15-.1,6.29,0h3.14c.45,0,.91,0,1.56-.1.65-.1,1.11-.2,1.66-.45.38-.2.73-.38.93-.93.18-.38.28-1.31.28-2.14.08-1.11,0-2.21-.1-3.32ZM70.67,164.56c0,.47,0,1.21-.2,1.66-.08.2-.45.28-.73.38-.65.1-1.38.18-2.14.18-3.12,0-6.27-.18-9.41,0-.65,0-.83-.18-.83-.91,0-3.14,0-6.29.1-9.43,0-3.78.08-7.65-.1-11.55-.1-2.02,0-4.05.1-5.99.08-1.03.18-2.14,0-3.14-.2-.73-.2-1.48-.1-2.12.38-2.41.28-4.73.1-7.02-.2-2.14-.1-4.35,0-6.47.18-.65.18-1.31.08-1.94,0-3.14-.08-6.29-.08-9.43,0-2.77,0-5.44.08-8.23.1-2.02-.18-4.15,0-6.19,0-.08.02-.16.04-.22.14-.65.51-.89,1.27-.89h3.22c.47,0,.95.08,1.4.12.73.1,1.46.14,2.2-.2,1.11.28,2.97.18,4.07.08.69-.06.69.18.71.93,0,.14,0,.3.02.47.1.36,0,.73,0,1.19,0,2.77-.08,5.83-.08,8.6-.2,3.6.08,7.1.08,10.7-.08,5.36-.28,13.13-.28,15.7,0,2.04-.08,4.17.28,6.19.2.93.1,2.79,0,3.6-.28,3.14,0,4.45,0,7.59,0,.63.1,1.74.1,2.12-.1.73-.1,1.48-.1,2.12.1,1.86.1,3.7.1,5.56-.1,2.21.18,4.33.1,6.55Z"/>
            <path class="cls-1" d="M70.67,164.56c0,.47,0,1.21-.2,1.66-.08.2-.45.28-.73.38-.65.1-1.38.18-2.14.18-3.12,0-6.27-.18-9.41,0-.65,0-.83-.18-.83-.91,0-3.14,0-6.29.1-9.43,0-3.78.08-7.65-.1-11.55-.1-2.02,0-4.05.1-5.99.08-1.03.18-2.14,0-3.14-.2-.73-.2-1.48-.1-2.12.38-2.41.28-4.73.1-7.02-.2-2.14-.1-4.35,0-6.47.18-.65.18-1.31.08-1.94,0-3.14-.08-6.29-.08-9.43,0-2.77,0-5.44.08-8.23.1-2.02-.18-4.15,0-6.19,0-.08.02-.16.04-.22.14-.65.51-.89,1.27-.89h3.22c.47,0,.95.08,1.4.12.73.1,1.46.14,2.2-.2,1.11.28,2.97.18,4.07.08.69-.06.69.18.71.93,0,.14,0,.3.02.47.1.36,0,.73,0,1.19,0,2.77-.08,5.83-.08,8.6-.2,3.6.08,7.1.08,10.7-.08,5.36-.28,13.13-.28,15.7,0,2.04-.08,4.17.28,6.19.2.93.1,2.79,0,3.6-.28,3.14,0,4.45,0,7.59,0,.63.1,1.74.1,2.12-.1.73-.1,1.48-.1,2.12.1,1.86.1,3.7.1,5.56-.1,2.21.18,4.33.1,6.55Z"/>
            <path class="cls-3" d="M134.21,145.43v-.36c.1-1.94,0-3.8,0-5.74-.08-1.84-.08-3.7,0-5.54.1-2.21,0-4.35-.08-6.37l-.1-2.04c-.1-2.59,0-5.18.1-7.85,0-1.76.08-3.6.08-5.36v-.55c0-.45.1-1.21-.08-1.94-.28-1.11-.2-2.14-.1-3.32.1-.65.1-1.31.1-1.94v-7.22c0-1.56-.93-2.49-2.51-2.67h-.28v-.1c0-1.56-.91-2.49-2.49-2.67h-1.46c-.49.02-.99.04-1.46.02-1.54.06-3.09.04-4.55-.02-1.29-.1-2.59,0-3.88,0l-2.49.08c-1.52,0-2.35.69-2.73,2.16-.02.04-.02.1-.04.16-.2.38-.28.83-.28,1.11l-.38,2.31c-.28,1.84-.55,3.6-1.01,5.36-.38,1.01-.38,2.12-.47,2.95-.1.83-.1,1.48-.28,2.14-.45,2.04-.65,4.05-.93,6.09l-.28,2.39-1.46,7.77-.28,1.19-.38,1.58-.18-1.38c-.2-1.21-.47-2.49-.75-3.7-.45-2.21-.83-4.33-1.01-6.37-.28-2.97-.55-6.01-1.11-8.96l-.18-1.11-.2-.93c-.1-2.14-.55-4.15-1.01-6.01l-.38-1.56c-.04-.12-.1-.26-.16-.36-.38-.83-.97-1.44-1.88-1.68l-.63-.18-.1-.55c-.38-1.03-1.01-1.76-2.04-2.04-1.32-.53-2.67-.45-3.74-.45h-2.35c-.83.08-1.56.08-2.31,0-1.21-.2-2.39-.1-3.98.08-.83.1-1.56.1-2.29.1-2.14-.28-3.24.65-3.34,2.77v.55c0,.83.1,1.66.1,2.41.1,1.29.18,2.39,0,3.5,0,.55.1,1.58.1,1.58l.08,4.15c.2,2.77.1,5.64-.08,8.48-.1,1.94-.1,3.9,0,5.74v2.87l-.2,18.1v.55c0,.55,0,.83-.08,1.03-.38,1.94-.38,3.96-.1,5.91.18.55.18,1.11,0,1.66v1.01c.28,3.22.28,6.92.18,11.45,0,1.11,0,1.76.1,2.49.1,1.38,1.11,2.31,2.59,2.31h.1l.08.45c.1,1.4,1.11,2.31,2.59,2.31,2.31-.18,4.63-.18,7.02-.18h3.14c1.48-.18,2.39-1.21,2.21-2.59v-.28c-.28-3.14-.38-6.92-.28-11.63l.18,1.01.28,2.31c.1,1.01.28,1.94.47,2.77.18,1.01.36,1.94.63,2.87.38,1.66,1.21,2.39,2.69,2.49l.08.28c.38,1.66,1.21,2.49,2.87,2.49.65.1,1.21.1,1.76.1l6.01.08c.55,0,1.11,0,1.66-.08,1.66-.2,2.39-.93,2.67-2.69l.93-6.37.08-.65v.45c-.08.83,0,1.68.1,2.31.18,1.03.18,1.48,0,1.94-.18,1.03.83,2.04,1.66,2.21.47.2.83.28,1.21.28l-.1.28c-.18,1.03.83,2.04,1.66,2.23.65.18,1.03.26,1.58.26h5.54c.83-.08,1.66-.08,2.49-.08.65.08,1.48,0,1.48,0,1.01-.18,1.76-.93,2.04-1.94.08-.38.08-.83.08-1.48v-.93c0-.55-.08-1.11,0-1.56.2-6.57.38-13.21-.28-19.78ZM130.34,162.34c-.1.83,0,1.76,0,2.59,0,.45,0,.83-.1,1.21-.08.45-.45.73-.83.83-.18.08-.36.08-.45.08-1.66-.18-3.42,0-5.08,0h-3.78c-.47,0-.83-.08-1.21-.18-.28-.1-.65-.45-.65-.65.38-1.46-.28-2.95-.08-4.33.08-1.03,0-2.14.18-3.14.18-.73.18-1.66.08-2.39-.26-1.21-.26-2.41-.26-3.62,0-4.51-.1-9.04-.1-13.57l.1-9.24c0-.55-.1-1.11-.1-1.66,0,0-.1-.2-.2-.2-.08,0-.18.1-.18.1-.38.45-.55,1.01-.55,1.56-.38,3.07-.93,7.12-1.38,10.09-.55,2.95-1.11,5.89-1.48,8.86-.36,2.39-.83,4.88-1.19,7.38-.1.93-.38,1.86-.55,2.87-.28,2.14-.65,4.25-.93,6.39-.18,1.19-.45,1.38-1.48,1.46-.45.1-.93.1-1.48.1-1.94,0-3.96-.1-5.99-.1-.55,0-1.11,0-1.66-.08-1.03,0-1.38-.28-1.58-1.38-.28-.93-.45-1.86-.63-2.87-.2-.83-.38-1.66-.47-2.59-.08-1.29-.36-2.49-.55-3.8-.55-3.4-.91-6.82-1.46-10.24-.47-2.49-.93-4.88-1.48-7.4-.28-1.56-.75-3.12-.93-4.71,0-.73-.28-1.38-.38-2.12-.28-.93.1-2.97-.83-3.6-.63.91-.36,2.85-.36,3.78,0,5.36.08,10.72.08,16.36.28,1.38,0,3.05-.08,4.71-.1,4.07-.1,8.68.28,12.76v.28c.08.63-.28,1.01-.93,1.11h-1.21c-3.05,0-5.99-.1-8.96.18-.73,0-1.11-.38-1.11-1.01-.1-.65-.1-1.31-.1-2.41.1-3.78.1-7.75-.18-11.55-.1-.28,0-.63,0-.91.18-.65.18-1.31,0-1.94-.28-1.76-.28-3.52.1-5.28.18-.63.08-1.29.08-1.94.1-5.99.1-12.1.2-18.1,0-2.87-.2-5.64,0-8.5.18-2.87.28-5.81.08-8.68-.08-1.48-.18-3.05-.18-4.53,0-.08-.1-.18-.1-.28.47-2.21,0-4.43,0-6.74v-.45c.1-1.31.47-1.66,1.86-1.48.83,0,1.66,0,2.59-.1,1.19-.18,2.39-.28,3.6-.08,1.29.18,2.59,0,3.88,0,.71,0,1.44-.06,2.18-.02.71.02,1.4.12,2.08.38.65.2.93.47,1.11,1.13.1.42.2.81.3,1.23.49,2,1.01,3.99,1.09,6.05.1.75.28,1.4.38,2.14.55,2.95.83,5.91,1.11,8.86.28,3.42,1.19,6.84,1.74,10.26l2.87,15.33c.1.18.2.38.28.45,0,.1.1.1.2.2.18.08.28,0,.36-.2l2.04-11.53c.18-1.03.45-1.96.65-2.87l1.46-7.85c.38-2.77.57-5.64,1.21-8.4.38-1.58.2-3.32.65-4.98.73-2.59,1.01-5.28,1.48-7.85,0-.38.08-.65.18-.93.04-.16.08-.3.12-.42.26-.69.57-.89,1.36-.89,2.12,0,4.25-.18,6.27-.08,1.32.06,2.65.08,3.98.04.71,0,1.42-.02,2.14-.04h1.38c.83.08,1.19.45,1.19,1.29v7.22c0,1.84-.36,3.68,0,5.54.2.73.1,1.46.1,2.21,0,4.43-.38,8.86-.18,13.29.08,2.69.28,5.46.18,8.23-.18,3.8.18,7.57,0,11.37v.45c.65,6.47.45,13.03.28,19.58Z"/>
            <path class="cls-1" d="M130.34,162.34c-.1.83,0,1.76,0,2.59,0,.45,0,.83-.1,1.21-.08.45-.45.73-.83.83-.18.08-.36.08-.45.08-1.66-.18-3.42,0-5.08,0h-3.78c-.47,0-.83-.08-1.21-.18-.28-.1-.65-.45-.65-.65.38-1.46-.28-2.95-.08-4.33.08-1.03,0-2.14.18-3.14.18-.73.18-1.66.08-2.39-.26-1.21-.26-2.41-.26-3.62,0-4.51-.1-9.04-.1-13.57l.1-9.24c0-.55-.1-1.11-.1-1.66,0,0-.1-.2-.2-.2-.08,0-.18.1-.18.1-.38.45-.55,1.01-.55,1.56-.38,3.07-.93,7.12-1.38,10.09-.55,2.95-1.11,5.89-1.48,8.86-.36,2.39-.83,4.88-1.19,7.38-.1.93-.38,1.86-.55,2.87-.28,2.14-.65,4.25-.93,6.39-.18,1.19-.45,1.38-1.48,1.46-.45.1-.93.1-1.48.1-1.94,0-3.96-.1-5.99-.1-.55,0-1.11,0-1.66-.08-1.03,0-1.38-.28-1.58-1.38-.28-.93-.45-1.86-.63-2.87-.2-.83-.38-1.66-.47-2.59-.08-1.29-.36-2.49-.55-3.8-.55-3.4-.91-6.82-1.46-10.24-.47-2.49-.93-4.88-1.48-7.4-.28-1.56-.75-3.12-.93-4.71,0-.73-.28-1.38-.38-2.12-.28-.93.1-2.97-.83-3.6-.63.91-.36,2.85-.36,3.78,0,5.36.08,10.72.08,16.36.28,1.38,0,3.05-.08,4.71-.1,4.07-.1,8.68.28,12.76v.28c.08.63-.28,1.01-.93,1.11h-1.21c-3.05,0-5.99-.1-8.96.18-.73,0-1.11-.38-1.11-1.01-.1-.65-.1-1.31-.1-2.41.1-3.78.1-7.75-.18-11.55-.1-.28,0-.63,0-.91.18-.65.18-1.31,0-1.94-.28-1.76-.28-3.52.1-5.28.18-.63.08-1.29.08-1.94.1-5.99.1-12.1.2-18.1,0-2.87-.2-5.64,0-8.5.18-2.87.28-5.81.08-8.68-.08-1.48-.18-3.05-.18-4.53,0-.08-.1-.18-.1-.28.47-2.21,0-4.43,0-6.74v-.45c.1-1.31.47-1.66,1.86-1.48.83,0,1.66,0,2.59-.1,1.19-.18,2.39-.28,3.6-.08,1.29.18,2.59,0,3.88,0,.71,0,1.44-.06,2.18-.02.71.02,1.4.12,2.08.38.65.2.93.47,1.11,1.13.1.42.2.81.3,1.23.49,2,1.01,3.99,1.09,6.05.1.75.28,1.4.38,2.14.55,2.95.83,5.91,1.11,8.86.28,3.42,1.19,6.84,1.74,10.26l2.87,15.33c.1.18.2.38.28.45,0,.1.1.1.2.2.18.08.28,0,.36-.2l2.04-11.53c.18-1.03.45-1.96.65-2.87l1.46-7.85c.38-2.77.57-5.64,1.21-8.4.38-1.58.2-3.32.65-4.98.73-2.59,1.01-5.28,1.48-7.85,0-.38.08-.65.18-.93.04-.16.08-.3.12-.42.26-.69.57-.89,1.36-.89,2.12,0,4.25-.18,6.27-.08,1.32.06,2.65.08,3.98.04.71,0,1.42-.02,2.14-.04h1.38c.83.08,1.19.45,1.19,1.29v7.22c0,1.84-.36,3.68,0,5.54.2.73.1,1.46.1,2.21,0,4.43-.38,8.86-.18,13.29.08,2.69.28,5.46.18,8.23-.18,3.8.18,7.57,0,11.37v.45c.65,6.47.45,13.03.28,19.58Z"/>
            <path class="cls-3" d="M176.71,159.95l-.1-1.03c0-.36-.04-.65-.12-.91-.04-.08-.06-.16-.1-.26v-.02c-.32-.73-.99-1.09-2.08-1.21h-.47v-.38c0-1.56-.73-2.21-2.29-2.39h-.65c-.38,0-.75.08-1.38.08-1.11.1-2.31.1-3.6,0-1.76-.08-3.7-.18-5.46.2l-3.32-.1v-3.14l-.1-2.85v-3.14c.1-1.31.1-2.69,0-4.07v-.55l.1-.28c1.94-.08,3.97-.08,6.09,0l3.52.1c1.01,0,2.29-.18,3.7-.38,1.19-.18,1.94-1.11,1.94-2.39.08-.93.08-1.86.08-2.77v-2.69c.28-1.94.2-3.42-.08-4.81-.47-1.56-1.11-2.12-2.69-2.12l-.1-.65c-.45-1.56-1.11-2.12-2.67-2.12h-.83c-1.38,0-2.67,0-3.98-.28-.45-.1-1.21-.1-1.76,0-1.11.28-2.22.28-3.5.18-.18-2.21,0-4.33.1-6.64.18-2.04.28-4.15.18-6.29h2.59l3.78.1,1.66-.1h1.21c.73,0,1.56.1,2.31,0,1.29.2,2.39.1,3.42.1l1.56-.1c1.09-.08,1.76-.47,2.21-1.29v-.04c.16-.28.28-.61.38-.99.08-.79.12-1.56.14-2.31-.02-.02,0-.02,0-.04.02-.71-.02-1.4-.06-2.08,0-1.38,0-2.59.2-3.88.08-.38,0-1.11-.2-1.66l-.08-.38c-.2-1.29-.93-2.04-2.31-2.04h-.28l-.18-.73c-.2-1.29-.93-2.04-2.31-2.04h-2.79c-2.79,0-5.7.02-8.48.2h-1.11c-.93-.1-1.38-.1-1.94,0-1.27.36-2.63.18-4.05.08h-.1l-1.38-.08c-1.31-.1-2.87-.28-4.45.18h-.55l-.55-.1-4.61-.28c-1.58,0-2.49.93-2.49,2.41-.1,2.49-.1,4.61.08,6.64,0,.45,0,.93-.08,1.38-.28,1.31-.28,2.59-.2,4.35.1,1.74.2,3.42.2,5.26.08,6.19.08,12.38.08,18.65.1.65.1,1.31.1,1.96v2.21c.18,2.49.18,4.88.18,7.38v6.29c0,4.98,0,9.79-.36,14.59l.08.83v2.12c0,1.86.75,2.49,2.79,2.59v.18c0,1.96.83,2.59,3.05,2.59l.91.1,5.18.08c3.88.1,7.85.1,11.83-.18h1.29c.93,0,2.04,0,3.05-.28h.2l1.01.2c1.76.18,3.24.18,4.63.08h1.38c1.56,0,2.39-.93,2.57-2.49v-.73l.1-.83-.1-1.76c0-1.11-.08-2.14.1-3.14.1-.73,0-1.56,0-2.12ZM172.56,159.12c-.28,1.66,0,3.4,0,5.08,0,.45-.1.91-.1,1.46-.08.83-.36,1.21-1.19,1.21-1.96,0-3.9.18-6.57-.18-.28-.1-.65-.2-.93-.1-1.38.38-2.77.18-4.15.28-5.64.45-11.27.1-16.91.1-.18,0-.45,0-.73-.1-1.76,0-1.94,0-1.86-1.84.1-.47,0-.83,0-1.21s-.08-.65-.08-1.03c.45-6.92.28-13.94.36-20.96,0-2.49,0-4.98-.18-7.48-.1-1.38,0-2.77-.1-4.15,0-6.19,0-12.38-.08-18.57,0-1.84-.1-3.6-.2-5.36-.08-1.38-.08-2.67.2-4.05.08-.55.08-1.13.08-1.68-.18-2.21-.18-4.33-.08-6.55,0-.75.36-1.03,1.01-1.03l4.63.28c.45,0,1.19.2,1.56,0,1.86-.45,3.52-.08,5.36,0l.83.06c1.23.08,2.49.16,3.7-.14.93-.2,1.94.08,2.87,0,2.61-.2,5.22-.22,7.89-.22,1.07,0,2.18.02,3.28.02.65,0,.83.2.93.83.08.55.36,1.11.28,1.68-.38,2.77.08,5.44-.28,8.21-.2.83-.38,1.11-1.31,1.21-1.56,0-3.05.28-4.81,0-1.19.1-2.39,0-3.6,0l-1.66.1c-2.31,0-4.61-.2-7.02,0-.38.08-.55.36-.65.63,0,.2-.08.38-.08.55.18,4.45-.55,8.78-.28,13.21,0,.65,0,1.31.08,1.94.1.55.1,1.21.38,1.66.38.65,1.01,0,1.56.1,1.96.38,3.98.45,5.91.1.47-.1.83-.1,1.21,0,1.66.36,3.42.28,5.08.28.93,0,1.01.08,1.29,1.11.38,1.48.28,2.95.1,4.33-.1,1.86,0,3.7-.1,5.56,0,.55-.28.91-.83,1.01-1.01.18-2.29.38-3.4.38-3.42,0-6.94-.38-10.36,0-.36.08-.63.28-.63.63,0,.55-.1,1.03-.1,1.48.18,2.41-.1,4.9,0,7.3.1,2.77,0,5.64.28,8.4.1.38-.1.83,0,1.21,0,.28.1.45.38.45.28.1.45.1.73.1,2.14-.28,4.15,0,6.29,0,3.05-.65,6.82.18,9.89-.28h1.01c.83.08,1.01.28,1.01,1.01,0,1.03.28,1.94.1,2.97Z"/>
            <path class="cls-1" d="M172.56,159.12c-.28,1.66,0,3.4,0,5.08,0,.45-.1.91-.1,1.46-.08.83-.36,1.21-1.19,1.21-1.96,0-3.9.18-6.57-.18-.28-.1-.65-.2-.93-.1-1.38.38-2.77.18-4.15.28-5.64.45-11.27.1-16.91.1-.18,0-.45,0-.73-.1-1.76,0-1.94,0-1.86-1.84.1-.47,0-.83,0-1.21s-.08-.65-.08-1.03c.45-6.92.28-13.94.36-20.96,0-2.49,0-4.98-.18-7.48-.1-1.38,0-2.77-.1-4.15,0-6.19,0-12.38-.08-18.57,0-1.84-.1-3.6-.2-5.36-.08-1.38-.08-2.67.2-4.05.08-.55.08-1.13.08-1.68-.18-2.21-.18-4.33-.08-6.55,0-.75.36-1.03,1.01-1.03l4.63.28c.45,0,1.19.2,1.56,0,1.86-.45,3.52-.08,5.36,0l.83.06c1.23.08,2.49.16,3.7-.14.93-.2,1.94.08,2.87,0,2.61-.2,5.22-.22,7.89-.22,1.07,0,2.18.02,3.28.02.65,0,.83.2.93.83.08.55.36,1.11.28,1.68-.38,2.77.08,5.44-.28,8.21-.2.83-.38,1.11-1.31,1.21-1.56,0-3.05.28-4.81,0-1.19.1-2.39,0-3.6,0l-1.66.1c-2.31,0-4.61-.2-7.02,0-.38.08-.55.36-.65.63,0,.2-.08.38-.08.55.18,4.45-.55,8.78-.28,13.21,0,.65,0,1.31.08,1.94.1.55.1,1.21.38,1.66.38.65,1.01,0,1.56.1,1.96.38,3.98.45,5.91.1.47-.1.83-.1,1.21,0,1.66.36,3.42.28,5.08.28.93,0,1.01.08,1.29,1.11.38,1.48.28,2.95.1,4.33-.1,1.86,0,3.7-.1,5.56,0,.55-.28.91-.83,1.01-1.01.18-2.29.38-3.4.38-3.42,0-6.94-.38-10.36,0-.36.08-.63.28-.63.63,0,.55-.1,1.03-.1,1.48.18,2.41-.1,4.9,0,7.3.1,2.77,0,5.64.28,8.4.1.38-.1.83,0,1.21,0,.28.1.45.38.45.28.1.45.1.73.1,2.14-.28,4.15,0,6.29,0,3.05-.65,6.82.18,9.89-.28h1.01c.83.08,1.01.28,1.01,1.01,0,1.03.28,1.94.1,2.97Z"/>
            <path class="cls-3" d="M210.81,135.01l-.38-.47-.1-.28c-1.11-1.76-2.49-3.14-3.88-4.43-.63-.65-1.19-1.21-1.56-1.76-1.11-1.29-2.14-2.39-3.42-3.42-1.01-1.19-2.04-2.21-3.32-3.32l-1.56-1.56-.85-1.86-1.01-2.12-.18-.38v-.18c-.2-.55-.28-.93-.28-1.21l.08-.91c.1-.93.2-1.58.47-2.23.73-2.02,1.38-2.57,2.95-2.57.28-.1.83-.1,1.21,0h.38c.08.63.18,1.38.18,2.31-.1,1.66-.55,2.57-1.48,3.22-1.19.65-1.19,2.12-.08,3.05.55.45,1.29.93,1.94,1.31,0,.55.28,1.01.83,1.46,2.57,2.22,5.81,2.97,8.96,2.22,3.42-.73,5.72-2.85,6.64-6.09.65-2.21.83-4.9.55-7.12-.55-3.96-1.76-6.92-3.7-9.14-.73-.83-1.48-1.66-2.29-2.31l-.2-.08-.28-.38c-.73-.83-1.48-1.66-2.31-2.31-.14-.1-.28-.2-.42-.3h-.02c-1.31-.93-2.57-1.58-3.88-2.04-.28-.1-.57-.18-.85-.26-1.31-.45-2.69-.63-3.88-.73l-1.94-.28c-.65-.1-1.03-.18-1.68-.1h-1.29c-1.56.1-3.32.28-4.98.55-.75.1-1.58.38-2.21.65-2.77,1.01-5.26,2.87-7.57,5.64l-.47.65-.55,1.11c-.71,1.42-1.62,3.14-1.98,5.02-.02.04-.04.1-.04.14-.28,1.09-.38,2.2-.47,3.2v.04c-.36,3.42-.18,6.82.75,10.07.36,1.38.91,2.59,1.46,3.78.47,1.21.93,2.21,1.31,3.32.28.47.63.93,1.01,1.4,1.11,1.56,2.31,2.95,3.42,4.43l1.21,1.38.83.91,1.46,1.31.47.55.83.93,2.59,2.29c.73.83,1.46,1.68,2.12,2.59.45.47.73.83,1.21,1.21l.18.18c2.31,2.41,3.7,5.36,4.15,9.33.2,1.76-.55,3.14-2.21,3.78-.45.2-.93.28-1.94.2l-.83-.1-.1-.36-.18-1.68c-.18-1.11-.28-2.21-.38-3.22v-1.38c0-.45,0-.93-.08-1.48,0-1.11-.83-1.94-1.94-2.12l-.83-.1v-.55c0-1.11-.83-1.94-1.96-2.12-2.02-.2-4.05-.1-5.99-.1l-2.77.1c-.75-.1-1.58,0-2.14.08-1.56,0-2.29.83-2.29,2.41-.1,1.84-.2,3.88,0,5.81.08,2.21.36,3.88.63,5.44.14.57.32,1.15.51,1.68v.02c.04.1.06.18.1.26.57,1.52,1.32,2.93,1.98,4.23.83,1.48,1.76,2.41,2.87,2.97.83,1.48,1.84,2.39,3.05,2.87l.18.18.93.65c1.48.83,2.87,1.38,4.43,1.66q.28,0,.47.18c1.19.65,2.57.93,3.78,1.11,2.31.28,4.71.2,6.92.1.38,0,.93-.1,1.31-.28h.18c2.04-.38,3.88-1.21,5.64-2.04l1.01-.38c1.86-.83,3.52-2.12,4.53-3.88.28-.45.47-1.01.65-1.46l.45-1.03c1.31-3.22,1.86-5.44,2.04-7.67.38-4.71-.1-8.58-1.48-12-1.19-2.77-2.29-5.72-4.61-8.21ZM212.75,152.37c-.18,2.49-1.03,4.88-1.94,7.2-.38.83-.65,1.66-1.03,2.39-.91,1.48-2.29,2.59-3.88,3.24-2.12.93-4.15,1.94-6.37,2.31-.38.08-.73.28-1.21.28-2.21.08-4.53.18-6.74-.1-1.11-.18-2.21-.38-3.22-.93-.38-.28-.75-.36-1.11-.36-1.66-.38-3.05-1.03-4.43-1.86-.2-.18-.38-.36-.55-.45-1.21-.47-1.96-1.38-2.59-2.49-.93-1.86-1.94-3.7-2.41-5.81-.36-1.68-.55-3.42-.63-5.28-.2-1.84-.1-3.78,0-5.72,0-.83.18-1.03,1.01-1.03.65-.08,1.29-.18,1.94-.08,2.87,0,5.81-.28,8.68,0,.47.08.75.36.75.83.08.91,0,1.94.08,2.87.1,1.56.38,3.22.55,4.79,0,.28.1.65.2.93.73,2.31,2.39,3.6,4.79,3.7.93.1,1.76.1,2.59-.28,2.21-.93,3.32-2.87,3.05-5.26-.45-3.8-1.74-7.3-4.61-10.17l-.75-.65c-2.29-3.14-5.16-5.72-8.03-8.4l-.83-.83c-1.56-1.94-3.14-3.78-4.61-5.81-.3-.28-.57-.65-.75-1.03-.73-2.29-2.04-4.51-2.77-6.92-.83-3.14-1.01-6.37-.65-9.61.1-1.01.2-2.02.47-3.05.36-2.12,1.46-3.98,2.39-5.81l.38-.55c1.84-2.21,4.05-4.15,6.92-5.18.65-.28,1.38-.45,2.04-.55,2.21-.45,4.53-.45,6.74-.63,2.12.45,4.25.45,6.37,1.11,1.76.45,3.24,1.29,4.71,2.39.75.55,1.38,1.31,2.14,2.14,1.94,2.21,2.87,5.16,3.32,8.4.28,2.02.1,4.53-.45,6.55-.85,2.87-2.87,4.53-5.64,5.08-2.87.75-5.56,0-7.85-1.94-.38-.28-.38-.55,0-.73,1.56-1.11,2.02-2.69,2.12-4.43,0-1.58-.18-3.07-.93-4.45-.55-1.11-1.38-1.74-2.57-1.84-.75-.28-2.04-.28-2.59-.18-2.21.08-3.24,1.19-4.07,3.5-.45,1.11-.45,2.31-.63,3.52,0,.45.08.91.28,1.46,0,.28.18.55.28.83.63,1.48,1.38,2.97,2.02,4.43l4.53,4.45c1.38,1.19,2.59,2.39,3.8,3.78.45.65,1.11,1.31,1.74,1.94,1.4,1.31,2.59,2.49,3.62,4.17.18.26.36.63.63.91,2.14,2.31,3.14,5.08,4.35,7.85,1.48,3.7,1.66,7.57,1.38,11.37Z"/>
          </g>
        </g>
        <g>
          <path class="cls-1" d="M259.62,95.45c-.51-4.83-1.15-9.65-2.04-14.48-.75-4.07-1.15-7.75-1.78-11.83,0-.12-.38-.51-.38-.63-.38-.14-.51.26-.63.51-.14,1.13-.38,1.9-.63,3.05-.4,1.9-.63,3.94-1.03,5.83-.26,1.78-.75,3.56-1.01,5.22-.51,3.94-.89,8.01-1.27,11.94-.14,0-.26.77-.26.77-.63,4.05-1.03,7.24-1.66,11.31-.12,1.13,0,1.52,1.03,1.52,2.41,0,4.57.26,7.36-.14.89,0,1.66-.12,2.55,0,1.15.14,1.52-.38,1.4-1.64-.51-3.82-1.29-7.63-1.66-11.45ZM258.09,106.65h-.38l-1.66.12h-.75l.12-1.15.38-2.91s.51-3.7.63-3.7c.26-2.41.51-4.83.89-7.24l.4,3.94c.26,2.29.63,4.59,1.01,6.86l.63,4.33-1.27-.26ZM259.62,95.45c-.51-4.83-1.15-9.65-2.04-14.48-.75-4.07-1.15-7.75-1.78-11.83,0-.12-.38-.51-.38-.63-.38-.14-.51.26-.63.51-.14,1.13-.38,1.9-.63,3.05-.4,1.9-.63,3.94-1.03,5.83-.26,1.78-.75,3.56-1.01,5.22-.51,3.94-.89,8.01-1.27,11.94-.14,0-.26.77-.26.77-.63,4.05-1.03,7.24-1.66,11.31-.12,1.13,0,1.52,1.03,1.52,2.41,0,4.57.26,7.36-.14.89,0,1.66-.12,2.55,0,1.15.14,1.52-.38,1.4-1.64-.51-3.82-1.29-7.63-1.66-11.45ZM258.09,106.65h-.38l-1.66.12h-.75l.12-1.15.38-2.91s.51-3.7.63-3.7c.26-2.41.51-4.83.89-7.24l.4,3.94c.26,2.29.63,4.59,1.01,6.86l.63,4.33-1.27-.26ZM291.77,144.52l-.12-.12c-.69-.42-1.36-1.36-2-2.65-.32-.65-.63-1.36-.93-2.18-.51-1.54-.89-3.44-1.15-5.85-.18-1.7-.49-3.48-.83-5.18-.14-.71-.3-1.4-.44-2.08-.1-.4-.2-.81-.3-1.21-.36-1.58-.65-3.1-.85-4.63-.51-3.82-1.03-7.63-1.4-11.31l-2.67-17.92-.49-3.18c-.65-3.82-1.15-7.75-2.04-11.69-.51-1.52-.77-3.18-1.03-4.96l-.26-1.4c-.24-1.13-.38-2.27-.49-3.42l-.4-3.44c-.49-3.3-1.01-6.47-1.64-9.79-.38-2.79-.77-5.58-1.66-8.39-.38-1.52-1.78-2.67-3.42-2.79l-.38-1.03c-.4-1.52-1.78-2.67-3.44-2.79h-2.41c-2.16-.12-4.33,0-6.35.12-2.04,0-4.07.14-6.11,0l-5.08-.24c-1.66,0-3.18,1.01-3.68,2.53l-.4,1.27-1.15,4.71-.49,3.82c-.26,2.41-.63,4.71-1.03,6.98l-.49,3.44-.51,3.18-.89,4.05c-.63,2.55-1.27,5.08-1.78,7.63-.51,2.29-1.01,4.83-1.15,7.38-.26,2.16-.63,4.31-1.01,6.61-.4,1.78-.77,3.56-1.03,5.34l-.26,1.9c-.38,2.41-.75,4.59-1.27,6.74-.38,1.15-.89,2.53-.89,4.07,0,1.9-.38,3.68-.75,5.72l-.65,2.67c-.63,3.56-1.38,6.98-2.16,10.42l-1.38,6.49-.89,4.69-.4,2.29c-.38,1.9,1.03,3.44,2.67,3.44h1.27l-.12.38c-.38,1.9,1.01,3.42,2.67,3.42h1.01l10.05.26,3.94-.12c1.4,0,2.43-.89,3.07-2.04l.26-.77c.24-.49.38-1.01.49-1.9l.26-1.27c.26-1.52.51-3.18.89-4.33l1.4-7.24h3.3c2.53.12,5.2.12,7.87-.14l1.29,6.63.63,2.02c.89,2.93,2.93,4.71,4.94,6.23,1.29,2.04,3.32,3.56,4.96,4.71.38.26.89.51,1.27.63h.26l1.92.51,4.19.77c3.42.49,6.86-.26,9.53-2.41.67-.53,1.15-1.11,1.4-1.66.53-1.15.16-2.23-1.29-2.93ZM286.69,143.77c-2.41,1.9-5.2,2.53-8.13,2.02-2.04-.24-3.96-.75-5.85-1.13-.38-.14-.63-.14-.89-.4-2.29-1.64-4.57-3.3-5.46-6.09-.89-3.18-2.29-6.86-2.29-10.3,0-.12-.12-.12-.12-.26-.4-2.79-1.66-3.94-4.45-3.42-3.82.51-7.63.26-11.31.26-.51,0-.89,0-1.29.12-.49.14-.89.38-1.01.77l-1.52,7.87c-.51,1.92-.89,4.71-1.27,6.61l-.51,1.29c-.26.49-.63.89-1.27.89-1.29,0-2.67.12-3.96.12-3.3-.12-6.72-.12-10.03-.26h-1.03c-.51,0-.89-.51-.75-1.15.38-2.04.75-4.94,1.27-6.98,1.15-5.6,2.53-11.19,3.56-16.91.51-2.93,1.4-5.72,1.4-8.76,0-1.29.38-2.43.75-3.56.77-2.93,1.15-5.85,1.66-8.9.26-1.66.63-3.44,1.01-5.22.38-2.27.77-4.57,1.03-6.86.12-2.41.63-4.83,1.13-7.12.77-3.94,1.78-7.75,2.67-11.69.4-2.16.63-4.45,1.03-6.61.63-3.56,1.01-7.26,1.52-10.82.38-1.9.89-3.8,1.4-5.83.24-.63,1.01-1.15,1.78-1.15,1.64.12,3.54.12,5.08.26,4.31.26,8.25-.38,12.58-.14h2.29c.89.14,1.52.65,1.78,1.4.75,2.67,1.13,5.34,1.52,8.13.63,3.32,1.15,6.49,1.64,9.79.4,2.29.51,4.59.89,6.86.38,2.29.63,4.45,1.29,6.63,1.13,4.83,1.76,9.77,2.53,14.61l2.67,17.78c.38,3.82.89,7.63,1.4,11.45.63,4.45,1.9,8.64,2.41,13.09.26,2.04.63,4.19,1.27,6.23.36,1.05.85,2.29,1.54,3.4.55.91,1.23,1.74,2.02,2.31.59.47,1.52.4.32,1.4-.1.08-.2.16-.32.26ZM257.58,80.98c-.75-4.07-1.15-7.75-1.78-11.83,0-.12-.38-.51-.38-.63-.38-.14-.51.26-.63.51-.14,1.13-.38,1.9-.63,3.05-.4,1.9-.63,3.94-1.03,5.83-.26,1.78-.75,3.56-1.01,5.22-.51,3.94-.89,8.01-1.27,11.94-.14,0-.26.77-.26.77-.63,4.05-1.03,7.24-1.66,11.31-.12,1.13,0,1.52,1.03,1.52,2.41,0,4.57.26,7.36-.14.89,0,1.66-.12,2.55,0,1.15.14,1.52-.38,1.4-1.64-.51-3.82-1.29-7.63-1.66-11.45-.51-4.83-1.15-9.65-2.04-14.48ZM258.09,106.65h-.38l-1.66.12h-.75l.12-1.15.38-2.91s.51-3.7.63-3.7c.26-2.41.51-4.83.89-7.24l.4,3.94c.26,2.29.63,4.59,1.01,6.86l.63,4.33-1.27-.26ZM259.62,95.45c-.51-4.83-1.15-9.65-2.04-14.48-.75-4.07-1.15-7.75-1.78-11.83,0-.12-.38-.51-.38-.63-.38-.14-.51.26-.63.51-.14,1.13-.38,1.9-.63,3.05-.4,1.9-.63,3.94-1.03,5.83-.26,1.78-.75,3.56-1.01,5.22-.51,3.94-.89,8.01-1.27,11.94-.14,0-.26.77-.26.77-.63,4.05-1.03,7.24-1.66,11.31-.12,1.13,0,1.52,1.03,1.52,2.41,0,4.57.26,7.36-.14.89,0,1.66-.12,2.55,0,1.15.14,1.52-.38,1.4-1.64-.51-3.82-1.29-7.63-1.66-11.45ZM258.09,106.65h-.38l-1.66.12h-.75l.12-1.15.38-2.91s.51-3.7.63-3.7c.26-2.41.51-4.83.89-7.24l.4,3.94c.26,2.29.63,4.59,1.01,6.86l.63,4.33-1.27-.26ZM259.62,95.45c-.51-4.83-1.15-9.65-2.04-14.48-.75-4.07-1.15-7.75-1.78-11.83,0-.12-.38-.51-.38-.63-.38-.14-.51.26-.63.51-.14,1.13-.38,1.9-.63,3.05-.4,1.9-.63,3.94-1.03,5.83-.26,1.78-.75,3.56-1.01,5.22-.51,3.94-.89,8.01-1.27,11.94-.14,0-.26.77-.26.77-.63,4.05-1.03,7.24-1.66,11.31-.12,1.13,0,1.52,1.03,1.52,2.41,0,4.57.26,7.36-.14.89,0,1.66-.12,2.55,0,1.15.14,1.52-.38,1.4-1.64-.51-3.82-1.29-7.63-1.66-11.45ZM258.09,106.65h-.38l-1.66.12h-.75l.12-1.15.38-2.91s.51-3.7.63-3.7c.26-2.41.51-4.83.89-7.24l.4,3.94c.26,2.29.63,4.59,1.01,6.86l.63,4.33-1.27-.26Z"/>
          <path class="cls-3" d="M284.65,140.21l.02-.42c-.69-1.11-1.19-2.35-1.54-3.4-.63-2.04-1.01-4.19-1.27-6.23-.51-4.45-1.78-8.64-2.41-13.09-.51-3.82-1.03-7.63-1.4-11.45l-2.67-17.78c-.77-4.85-1.4-9.79-2.53-14.61-.65-2.18-.91-4.33-1.29-6.63-.38-2.27-.49-4.57-.89-6.86-.49-3.3-1.01-6.47-1.64-9.79-.4-2.79-.77-5.46-1.52-8.13-.26-.75-.89-1.27-1.78-1.4h-2.29c-4.33-.24-8.27.4-12.58.14-1.54-.14-3.44-.14-5.08-.26-.77,0-1.54.51-1.78,1.15-.51,2.04-1.03,3.94-1.4,5.83-.51,3.56-.89,7.26-1.52,10.82-.4,2.16-.63,4.45-1.03,6.61-.89,3.94-1.9,7.75-2.67,11.69-.49,2.29-1.01,4.71-1.13,7.12-.26,2.29-.65,4.59-1.03,6.86-.38,1.78-.75,3.56-1.01,5.22-.51,3.05-.89,5.97-1.66,8.9-.38,1.13-.75,2.27-.75,3.56,0,3.05-.89,5.83-1.4,8.76-1.03,5.72-2.41,11.31-3.56,16.91-.51,2.04-.89,4.94-1.27,6.98-.14.63.24,1.15.75,1.15h1.03c3.3.14,6.72.14,10.03.26,1.29,0,2.67-.12,3.96-.12.63,0,1.01-.4,1.27-.89l.51-1.29c.38-1.9.75-4.69,1.27-6.61l1.52-7.87c.12-.4.51-.63,1.01-.77.4-.12.77-.12,1.29-.12,3.68,0,7.5.26,11.31-.26,2.79-.51,4.05.63,4.45,3.42,0,.14.12.14.12.26,0,3.44,1.4,7.12,2.29,10.3.89,2.79,3.16,4.45,5.46,6.09.26.26.51.26.89.4,1.9.38,3.82.89,5.85,1.13,2.93.51,5.72-.12,8.13-2.02.12-.1.22-.18.32-.26-1.48-.34-2.35-1.5-2.35-3.3ZM259.87,108.54c-.89-.12-1.66,0-2.55,0-2.79.4-4.94.14-7.36.14-1.03,0-1.15-.4-1.03-1.52.63-4.07,1.03-7.26,1.66-11.31,0,0,.12-.77.26-.77.38-3.94.75-8.01,1.27-11.94.26-1.66.75-3.44,1.01-5.22.4-1.9.63-3.94,1.03-5.83.26-1.15.49-1.92.63-3.05.12-.26.26-.65.63-.51,0,.12.38.51.38.63.63,4.07,1.03,7.75,1.78,11.83.89,4.83,1.52,9.65,2.04,14.48.38,3.82,1.15,7.63,1.66,11.45.12,1.27-.26,1.78-1.4,1.64Z"/>
          <path class="cls-1" d="M328.18,61.08c-.12-1.38-1.13-2.29-2.67-2.55l-1.01-.12-.12-1.15c-.14-1.38-1.15-2.29-2.67-2.55l-.89-.12c-3.82-.51-8.01-.14-11.57.12h-1.66c-1.52.16-2.67.16-3.82-.12-.38,0-1.13-.14-1.64,0h-.51c-2.04.38-4.31.28-6.98-.14-1.03-.12-2.18-.12-3.3,0-5.34.26-8.4.14-10.05-.38-.89-.12-2.04-.12-2.93,0-1.15.26-2.41.38-3.56.38-1.78,0-2.93,1.05-3.18,2.81-.24,2.55-.12,4.94-.12,7.26v4.71l.12.87c.26,2.04,1.4,3.16,3.7,3.16l.12.67c.26,2,1.4,3.14,3.7,3.14,3.68.14,7.5.26,14.1.26.89,0,1.66-.12,2.41-.26,1.03-.12,1.78-.12,2.67-.12l.89.12c-.89,2.18-1.78,4.33-2.53,6.37-.89,2.16-1.66,4.19-2.55,6.23-1.01,2.55-2.04,4.94-3.18,7.36l-2.27,5.22c-1.29,2.69-2.41,5.2-3.56,7.89-1.52,3.54-2.93,6.84-4.71,10.4-2.16,3.96-3.68,7.14-4.71,10.18-.51,1.29-1.15,2.53-1.9,3.94l-2.29,4.05-1.05,2.1-.85,1.72c-.4,1.27-.4,2.83-.4,4.07v6.61l-.1,2.16-.02.4c0,1.82.87,2.97,2.35,3.32.3.06.61.12.95.12h.51v.38c0,2.16,1.27,3.44,3.3,3.44h3.05c2.55.1,5.22.1,8.01-.16h3.56c3.18.16,6.35.16,9.65-.12,1.52-.1,2.67-.1,4.07.12,1.15.16,2.16,0,3.18,0l1.64-.12c.89,0,1.29,0,1.78.12,1.52.53,3.3.53,5.22.26,1.38-.26,3.94-.38,5.46-.38l2.55-.1c2.16-.28,3.3-1.68,3.3-3.7,0-1.17-.14-2.81-.26-4.31v-.51c-.38-1.54-.38-2.95-.38-4.57v-2.69c0-2.02-1.29-3.44-3.32-3.44h-.49v-.38c0-2.02-1.27-3.44-3.3-3.44h-2.93c-2.16,0-4.59.14-6.35,0l-9.93-.12h-1.27l1.01-2.16c1.66-3.96,3.44-7.89,5.22-11.83l1.78-3.94,3.42-7.73c1.66-3.09,3.07-6.13,4.33-9.16l1.27-2.69c2.04-4.33,3.94-8.64,5.85-13.09.51-1.01.89-2.29,1.27-3.44l.63-1.64,2.81-7c.63-1.52,1.01-3.28,1.01-5.2,0-1.52,0-2.91.12-4.45,0-1.52.14-3.03.14-4.57,0-.51,0-1.03-.14-1.52ZM322.34,67.8c0,1.54-.26,3.05-.89,4.45-.89,2.41-1.92,4.71-2.81,7.12-.63,1.66-1.13,3.46-1.9,4.96-1.9,4.45-3.82,8.76-5.85,13.09-1.78,3.94-3.42,7.89-5.46,11.71-1.9,3.92-3.56,7.85-5.34,11.81-1.78,3.94-3.56,7.87-5.2,11.83-1.15,2.65-2.43,5.2-3.56,7.89-.26.63,0,1.01.75,1.13,1.92.12,3.94.24,5.97-.12.63-.26,1.66-.26,2.67-.26,3.3,0,6.61.12,9.93.12,2.65.14,6.61,0,9.28,0,.89,0,1.38.49,1.38,1.52v2.69c0,1.62,0,3.28.4,4.94v.24c.12,1.29.26,3.09.26,4.21s-.51,1.64-1.54,1.76c-.75,0-1.64.14-2.41.14-1.52,0-4.31.12-5.83.38-1.4.26-2.93.26-4.33-.12-.75-.26-1.52-.26-2.29-.26-1.52,0-3.05.26-4.57.12-1.64-.26-2.93-.26-4.45-.12-4.45.38-8.9.12-13.21.12-3.1.34-6.21.2-9.24.16-.57-.02-1.15-.02-1.7-.02-1.01,0-1.4-.51-1.4-1.52,0-2.02.14-2.81.14-4.85.12,0-.14-1.11,0-1.11v-2.31c0-1.15-.08-2.33.06-3.38.04-.34.1-.65.2-.95.49-1.15,1.27-2.39,1.78-3.56l2.27-4.05c.77-1.4,1.52-2.79,2.04-4.17,1.15-3.44,2.79-6.76,4.57-9.95,1.78-3.56,3.32-6.96,4.85-10.54,1.9-4.45,3.94-8.78,5.83-13.09,1.15-2.39,2.18-4.83,3.18-7.38,2.04-4.83,3.82-9.91,5.97-14.73.51-.89.77-2.02,1.15-3.07.38-1.01,0-1.52-1.15-1.38-2.41.26-4.83.26-7.24,0-1.78-.14-3.56.38-5.22.38-6.61,0-10.42-.12-14.1-.26-1.27,0-1.66-.38-1.78-1.52,0-.24-.14-.36-.14-.61.14-3.96-.24-7.77.14-11.71.12-.77.51-1.15,1.27-1.15,1.4,0,2.67-.12,3.94-.38.63-.12,1.4-.12,2.04,0,2.67.75,8.01.49,10.68.38,1.01-.12,2.04-.12,2.93,0,2.41.38,4.96.49,7.38.12.49,0,1.01-.12,1.64,0,1.92.38,3.94.14,5.97.14,3.56-.26,7.63-.63,11.31-.14.26,0,.63,0,.89.14.51.12.89.38.89.89.14.38.14.89.14,1.27,0,3.05-.26,5.99-.26,9.02Z"/>
          <path class="cls-3" d="M274.09,157.31c-.57-.02-1.15-.02-1.7-.02-1.01,0-1.4-.51-1.4-1.52,0-2.02.14-2.81.14-4.85.12,0-.14-1.11,0-1.11v-2.31c0-1.15-.08-2.33.06-3.38.34,1.68.65,3.48.83,5.16.26,2.41.63,4.31,1.15,5.85.3.81.61,1.52.93,2.18Z"/>
          <path class="cls-3" d="M291.33,140.66c-.26.63,0,1.01.75,1.13,1.92.12,3.94.24,5.97-.12.63-.26,1.66-.26,2.67-.26,3.3,0,6.61.12,9.93.12,2.65.14,6.61,0,9.28,0,.89,0,1.38.49,1.38,1.52v2.69c0,1.62,0,3.28.4,4.94v.24c.12,1.29.26,3.09.26,4.21s-.51,1.64-1.54,1.76c-.75,0-1.64.14-2.41.14-1.52,0-4.31.12-5.83.38-1.4.26-2.93.26-4.33-.12-.75-.26-1.52-.26-2.29-.26-1.52,0-3.05.26-4.57.12-1.64-.26-2.93-.26-4.45-.12-4.45.38-8.9.12-13.21.12-3.1.34-6.21.2-9.24.16-.32-.65-.63-1.36-.93-2.18-.51-1.54-.89-3.44-1.15-5.85-.18-1.68-.49-3.48-.83-5.16.04-.34.1-.65.2-.95.49-1.15,1.27-2.39,1.78-3.56l2.27-4.05c.77-1.4,1.52-2.79,2.04-4.17,1.15-3.44,2.79-6.76,4.57-9.95,1.78-3.56,3.32-6.96,4.85-10.54,1.9-4.45,3.94-8.78,5.83-13.09,1.15-2.39,2.18-4.83,3.18-7.38,2.04-4.83,3.82-9.91,5.97-14.73.51-.89.77-2.02,1.15-3.07.38-1.01,0-1.52-1.15-1.38-2.41.26-4.83.26-7.24,0-1.78-.14-3.56.38-5.22.38-6.61,0-10.42-.12-14.1-.26-1.27,0-1.66-.38-1.78-1.52,0-.24-.14-.36-.14-.61.14-3.96-.24-7.77.14-11.71.12-.77.51-1.15,1.27-1.15,1.4,0,2.67-.12,3.94-.38.63-.12,1.4-.12,2.04,0,2.67.75,8.01.49,10.68.38,1.01-.12,2.04-.12,2.93,0,2.41.38,4.96.49,7.38.12.49,0,1.01-.12,1.64,0,1.92.38,3.94.14,5.97.14,3.56-.26,7.63-.63,11.31-.14.26,0,.63,0,.89.14.51.12.89.38.89.89.14.38.14.89.14,1.27,0,3.05-.26,5.99-.26,9.02,0,1.54-.26,3.05-.89,4.45-.89,2.41-1.92,4.71-2.81,7.12-.63,1.66-1.13,3.46-1.9,4.96-1.9,4.45-3.82,8.76-5.85,13.09-1.78,3.94-3.42,7.89-5.46,11.71-1.9,3.92-3.56,7.85-5.34,11.81-1.78,3.94-3.56,7.87-5.2,11.83-1.15,2.65-2.43,5.2-3.56,7.89Z"/>
        </g>
      </g>
      <path class="cls-2" d="M341.88,171.75v.83c.06,4.04.09,8.06.09,12.08-4.44-.01-8.83-.02-13.1-.02h-2.42c-19.19-.2-37.84.09-57.03.09-28.57-.09-70-.28-83.7-.28-10.85,0-22.24-.07-33,.28-4.96.2-14.86.1-19.19,0-16.75-.28-23.71,0-40.48,0-3.38,0-9.27.1-11.28.1-3.91-.1-7.91-.1-11.29-.1-9.9.1-19.71.1-29.61.1-9.36-.07-18.4.07-27.62.1-2.41.01-4.83.01-7.28,0-1.62,0-3.81,0-5.81-.05,0-4.39.01-8.81.01-13.27.01-8.54,0-17.17-.11-25.84-.1-7.13,0-14.34.1-21.2.07-3.65.17-7.57,0-11.14-.2-2.58-.2-5.24-.1-7.49.37-8.53.27-16.73.1-24.85-.2-7.55-.1-15.39,0-22.88.17-2.31.17-4.62.07-6.86,0-11.13-.07-22.27-.07-33.39v-4.61C.16,8.89.16,4.49.18.06,4.48.06,8.79.06,13.1.08c12.07,0,24.15.01,36.21.09,20.13,0,40.79.07,61.56-.1,10.76-.1,21.61,0,31.95.1,5.48.07,11.37.17,16.75,0,3.91-.2,7.91-.2,11.29-.1,12.86.37,25.18.27,37.42.1,11.37-.2,23.18-.1,34.47,0,3.47.17,6.95.17,10.32.07,16.76,0,33.53-.07,50.28-.07,8.62,0,17.06,0,25.54.01,4.28.01,8.58.02,12.91.04v2.4c-.05,3.52-.07,7.02-.07,10.51.01,9.12.16,18.15.16,27.36-.09,18.98-.28,46.49-.28,55.58,0,7.21-.07,14.77.28,21.91.2,3.3.1,9.88,0,12.75-.28,11.13,0,15.75,0,26.88,0,2.24.1,6.17.1,7.49-.09,2.29-.1,4.61-.1,6.66Z"/>
    </g>
  </g>
</svg>