<?xml version="1.0" encoding="UTF-8"?>
<svg id="Layer_2" data-name="Layer 2" xmlns="http://www.w3.org/2000/svg" xmlns:xlink="http://www.w3.org/1999/xlink" viewBox="0 0 354.66 399.34">
  <defs>
    <style>
      .cls-1 {
        fill: #f3b234;
      }

      .cls-2 {
        fill: none;
      }

      .cls-3 {
        clip-path: url(#clippath-1);
      }

      .cls-4 {
        fill: #1b1d1d;
      }

      .cls-5 {
        clip-path: url(#clippath);
      }

      .cls-6 {
        fill: #f0efef;
      }
    </style>
    <clipPath id="clippath">
      <polygon class="cls-2" points="301.76 61.8 301.76 305.65 200.64 305.65 129.69 279.02 69.27 256.35 88.88 171.92 90.16 166.4 88.49 160.97 64.44 83.11 94.52 83.11 94.52 52.98 278.57 52.98 301.76 61.8"/>
    </clipPath>
    <clipPath id="clippath-1">
      <path class="cls-2" d="M64.31,37.97h253.83v84.61H64.31V37.97Z"/>
    </clipPath>
  </defs>
  <g id="Layer_1-2" data-name="Layer 1">
    <g id="LogoWhite">
      <g>
        <path class="cls-6" d="M257.05,337.8h-62.24l-158.09-59.33-.06-7.64c-.04-4.81-.06-9.61-.09-14.42v-1.3s20.32-87.52,20.32-87.52L20.87,50.96h41.5v-30.13h222.11l49.42,18.83v298.14h-36.27v40.58l-40.59-40.58Z"/>
        <path class="cls-4" d="M322.78,47.32v279.35h-36.27v24.85l-24.85-24.85h-64.83c-49.68-18.64-99.36-37.29-149.04-55.93-.04-4.8-.06-9.59-.09-14.39l20.71-89.18L35.95,62.09h37.55v-30.13h208.94l40.34,15.37Z"/>
        <polygon class="cls-6" points="301.76 61.8 301.76 305.65 200.64 305.65 129.69 279.02 69.27 256.35 88.88 171.92 90.16 166.4 88.49 160.97 64.44 83.11 94.52 83.11 94.52 52.98 278.57 52.98 301.76 61.8"/>
        <path class="cls-2" d="M261.66,53.2v273.46l-35.99-35.99c-8.54.02-17.1.04-24.86.05l-128.21-47.44,16.52-71.13,1.29-5.54-1.68-5.43-24.05-77.86h30.08v-30.13h166.9Z"/>
        <g class="cls-5">
          <g>
            <path class="cls-1" d="M64.31,37.97h253.83v84.61H64.31V37.97Z"/>
            <path id="a" class="cls-6" d="M318.14,57.8v35.25l-126.92,29.53,126.92-64.78ZM252.48,37.97h36.58l-97.83,84.61,61.25-84.61ZM203.12,37.97h21.15l-33.05,84.61,11.9-84.61Z"/>
            <path id="a-2" data-name="a" class="cls-6" d="M64.31,57.8v35.25l126.92,29.53L64.31,57.8ZM129.97,37.97h-36.58l97.83,84.61-61.25-84.61ZM179.32,37.97h-21.15l33.05,84.61-11.9-84.61Z"/>
          </g>
          <g>
            <rect class="cls-1" x="68.46" y="236.63" width="244.77" height="16.07"/>
            <rect class="cls-1" x="68.46" y="259.73" width="244.77" height="16.07"/>
            <rect class="cls-1" x="68.46" y="282.84" width="244.77" height="16.07"/>
            <rect class="cls-1" x="68.46" y="305.94" width="244.77" height="16.07"/>
          </g>
          <g class="cls-3">
            <g>
              <path class="cls-1" d="M203.09,134.04c-2.17,0-4.29-.41-6.26-1.18l-12.47.13c-1.16.44-2.37.74-3.61.9-.66.08-1.33.12-1.99.12-1.94,0-3.88-.35-5.78-1.05l-2.45-.91,1.04-2.4c1.05-2.42,2.74-4.61,4.85-6.34-4.87-3.03-8.48-7.99-9.66-13.58l-.51-2.4,2.39-.53c1.39-.31,2.82-.46,4.24-.46,3.09,0,6.12.72,8.85,2.06-.78-7.82,1.84-15.77,7.12-21.47l1.8-1.94,1.82,1.92c3.4,3.59,5.75,8.01,6.79,12.78.62,2.85.77,5.77.47,8.66,2.72-1.32,5.72-2.03,8.76-2.03,1.46,0,2.91.16,4.32.49l2.3.53-.42,2.32c-1.02,5.66-4.59,10.73-9.51,13.72,1.72,1.37,3.16,3.05,4.2,4.93.19.33.39.7.55,1.07l.48.57-.14,1.11-.15,1.08-1.22.85-.3.11c-1.76.62-3.62.94-5.51.94Z"/>
              <path class="cls-6" d="M207.79,130.66c.02.06.08.05,0,.11-5.88,2.08-12.65-.02-16.33-5,.17,1.2.6,2.42,1.11,3.52.19.39.43.75.6,1.14l-5.09.05.85-1.59c.31-.75.61-1.52.79-2.31.02-.08.19-.81.1-.81-2.13,3.11-5.63,5.2-9.38,5.67-2.26.28-4.48-.01-6.6-.79,1.17-2.69,3.2-4.95,5.68-6.5l2.09-1.1c-6.16-2.05-11.08-7.44-12.42-13.81,5.94-1.31,12.2.63,16.38,4.98-.51-1.61-.98-3.23-1.22-4.91-1.09-7.47,1.23-15.17,6.33-20.68,3.04,3.21,5.22,7.27,6.17,11.61,1.01,4.63.65,9.43-.95,13.88.63-.56,1.23-1.14,1.9-1.66,4.05-3.12,9.43-4.38,14.46-3.22-1.03,5.71-4.95,10.64-10.22,13.02-.7.32-1.48.63-2.23.79-.02.12,0,.08.07.12.25.14.64.24.91.37,2.68,1.28,4.99,3.38,6.43,5.99.18.32.45.81.57,1.14Z"/>
            </g>
          </g>
        </g>
        <g>
          <g>
            <path class="cls-4" d="M118.76,169.28c-.06,2.25.06,4.5.06,6.81v.58c0,1.5-.12,1.56-1.34,1.56-.8,0-1.56-.06-2.25,0-1.38.17-2.6.17-3.98,0-.41-.06-.58-.28-.63-.69,0-.35-.06-.64-.06-.93,0-2.19-.06-4.45.06-6.64.11-2.66,0-5.25.05-7.91,0-.98-.11-1.97-.11-3-.06-.22-.23-.35-.41-.4-.28-.06-.63-.06-.93-.06-1.78,0-3.12-.23-5.3,0-.64.06-.75.17-.75.87,0,1.04-.11,2.08-.06,3.18,0,2.42,0,6.06.12,7.39-.17,2.47-.06,4.44-.06,6.64,0,.35-.06.69-.06,1.04-.05.23-.35.52-.57.46-1.45-.17-2.95.06-4.45,0-.75-.05-1.45.06-2.14.06-.74,0-.87-.06-.87-.87v-1.85c.06-4.78-.23-9.58.12-14.32l.05-1.38c-.17-2.08,0-4.1,0-6.18,0-.87.17-1.73,0-2.6,0-1.97.12-3.93,0-5.88,0-.23,0-.52-.05-.75-.19-.69-.12-1.38,0-2.08.11-.52,0-1.1-.06-1.68,0-.46-.12-.91-.06-1.32.17-2.03.06-4.04.06-6.07,0-.22,0-.46.06-.74.05-.23.22-.41.52-.47.22-.05.46-.05.74-.05,1.62.05,3.35.05,4.97.05.28,0,.52.06.75.06.63.06.87.23.91.8v1.05c0,1.38-.22,2.71-.05,4.09.17,1.56,0,3.12,0,4.67,0,1.34.22,2.72,0,4.04v.47c.22,1.32.22,2.6.22,3.92,0,.35.23.52.58.52.23,0,.52.06.75-.05.58-.17,1.21-.17,1.79-.12,1.21.12,2.42-.05,3.63-.05.46,0,.63-.17.63-.69-.05-1.73,0-3.52-.17-5.25-.05-.64,0-1.21,0-1.85.06-1.5-.11-3,.17-4.5.12-.75.06-1.51-.05-2.25-.17-1.21-.06-2.42-.12-3.65,0-.22.12-.46.17-.69.06-.22.23-.35.41-.4.17,0,.35-.06.46-.06,2.14.17,4.56.06,6.7.06.52,0,.64.11.64.57v3.87c0,3.07-.12,6.12-.19,9.19-.05.87,0,1.79-.05,2.72.11,1.04.05,2.19-.06,3.29-.06.74-.11,1.5.06,2.25v.46c0,2.08.05,4.22,0,6.35,0,2.08-.06,4.22.23,6.35.11.69-.12,1.38-.12,2.08Z"/>
            <path class="cls-4" d="M149.43,178.29c-.82-.58-1.34-1.74-1.62-2.61-.3-.91-.47-1.9-.58-2.82-.23-2.03-.8-3.93-1.1-5.96-.22-1.73-.46-3.46-.63-5.19l-1.21-8.09c-.35-2.19-.63-4.44-1.16-6.64-.28-.98-.4-1.97-.57-3-.17-1.04-.23-2.08-.41-3.12-.23-1.5-.46-2.94-.75-4.45-.17-1.26-.35-2.47-.69-3.7-.11-.35-.4-.57-.8-.63h-1.04c-1.97-.11-3.76.17-5.72.06-.69-.06-1.56-.06-2.3-.12-.35,0-.69.23-.82.52-.22.93-.46,1.79-.63,2.66-.23,1.62-.41,3.3-.69,4.91-.17.99-.3,2.03-.47,3-.4,1.79-.87,3.52-1.21,5.32-.22,1.04-.46,2.14-.52,3.23-.11,1.04-.28,2.09-.46,3.13-.17.8-.35,1.61-.46,2.36-.23,1.38-.41,2.72-.75,4.04-.17.52-.35,1.04-.35,1.62,0,1.38-.41,2.66-.64,3.98-.46,2.6-1.09,5.14-1.61,7.68-.23.93-.41,2.25-.58,3.18-.06.3.11.52.35.52h.46c1.51.06,3.07.06,4.56.12.58,0,1.21-.06,1.79-.06.3,0,.47-.17.58-.41l.23-.58c.17-.87.35-2.13.57-2.99l.69-3.59c.06-.17.23-.28.47-.35.17-.06.35-.06.57-.06,1.68,0,3.41.12,5.14-.11,1.27-.23,1.84.28,2.03,1.56,0,.06.05.06.05.11,0,1.57.64,3.24,1.04,4.69.41,1.27,1.45,2.02,2.48,2.77.11.11.23.11.41.17.87.17,1.73.41,2.66.52,1.32.23,2.6-.06,3.7-.93.74-.57.28-.52,0-.74ZM137.24,163.05c-.41-.06-.75,0-1.15,0-1.27.17-2.26.05-3.35.05-.47,0-.52-.17-.47-.69.3-1.84.47-3.29.75-5.14,0,0,.06-.35.11-.35.17-1.78.35-3.63.58-5.43.11-.74.35-1.56.46-2.36.19-.87.3-1.79.47-2.66.11-.52.23-.87.28-1.38.06-.11.12-.28.3-.23,0,.06.17.23.17.3.28,1.84.46,3.52.8,5.37.41,2.19.69,4.39.93,6.58.17,1.74.52,3.47.74,5.2.06.58-.11.8-.63.75Z"/>
            <path class="cls-4" d="M199.49,144.5c0-.74-.11-1.5-.17-2.25-.17-1.38-.28-2.83-.69-4.15-.28-1.04-.8-2.03-1.5-2.77-1.38-1.45-2.94-2.61-4.97-2.89-.87-.11-1.73-.23-2.53-.41-1.73.35-3.41.06-5.14.12-1.32.05-2.66-.12-4.04-.17-.75,0-1.5.05-2.25.17-.41.05-.52.17-.52.57v6.82c0,3.46-.06,6.99-.06,10.45,0,1.67.06,3.41.06,5.14,0,.69-.06,1.38.05,2.08.12.69-.11,1.38-.11,2.08.06,1.79-.11,3.52.17,5.32v.11c0,1.9,0,3.87-.06,5.77h.06c0,.69-.06,1.38,0,2.08v4.97c0,.35.17.58.52.63.3,0,.64.06.93.06,1.21,0,2.42.06,3.63,0,.82,0,1.56-.11,2.37-.23.4,0,.57-.22.57-.57,0-.47.06-.93-.05-1.34-.17-1.15-.06-3-.12-4.15-.05-1.68,0-3.35,0-4.97,0-.8,0-1.56.06-2.31.11-1.09.28-2.19.06-3.29-.06-.23.05-.41.28-.41.41-.05.8-.11,1.21-.11,1.16.11,2.31,0,3.46-.17,2.2-.23,4.1-.98,5.6-2.66,1.74-1.79,2.83-3.92,2.95-6.47,0-.69,0-1.38.11-2.08.28-1.67.11-3.35.11-4.97ZM178.78,172.38s.01,0,.04.01v.02l-.04-.04ZM191.64,150.1c0,.75-.17,1.62-.35,2.37-.23.98-.87,1.45-1.79,1.56-.35.06-.69.06-1.04.06h-2.25c-.35-.06-.58-.3-.58-.64-.05-.4,0-.87,0-1.32-.05-1.9.06-3.82-.05-5.43l.17-6.64c0-.82.17-.93.98-.93.41.06.82,0,1.21,0,.75,0,1.51.17,2.2.52.87.41,1.26,1.04,1.38,1.97.05.46.22.98.22,1.43.12,2.49.06,4.69-.11,7.05Z"/>
            <path class="cls-4" d="M173.28,141.5c-.12-2.3-1.1-4.27-2.37-6.12-.22-.46-.63-.8-1.15-1.15-.41-.23-.87-.58-1.21-.93-.93-.8-2.03-1.04-3.24-1.1-2.02-.05-4.04-.11-6-.11,0,0-1.57,0-1.57.06-2.08-.12-2.6-.06-4.67-.06-.35,0-.69,0-1.04.11-.52.06-.58.23-.58.75v4.39c0,1.27-.05,2.55-.05,3.76-.06,1.26,0,2.53.05,3.75,0,1.51.06,2.95.06,4.39,0,1.1,0,2.2.06,3.29,0,.75.05,1.45.05,2.14,0,1.56-.05,3.13-.05,4.69,0,.28.05.57,0,.87-.17,1.26-.23,2.53-.12,3.81.3,2.14.17,4.91.17,7.05s-.11,4.33-.11,6.53c0,.46.17.63.63.63,1.9,0,3.82.06,5.72.06.17,0,.35,0,.46-.06.69-.06.99-.41.99-1.1,0-1.27.17-2.6-.12-3.92-.05-.3-.05-.58-.05-.87v-2.31c.05-2.66.05-5.9.11-8.56,0-.52.11-.63.58-.69,1.73-.11,3.46-.17,5.13-.22.35-.06.75,0,1.04-.12,1.51-.52,2.89-1.26,3.93-2.47.63-.75,1.1-1.62,1.73-2.44.46-.69.69-1.43.98-2.19.3-.75.23-1.51.41-2.25.23-1.1.35-2.25.35-3.41v-2.42c0-1.27,0-2.55-.11-3.76ZM165.71,150.68c0,.63-.17,1.27-.41,1.9-.4,1.04-1.21,1.56-2.31,1.62-.52.06-.98.06-1.5,0-.69-.06-1.38.17-2.08-.23-.17-.63-.06-1.27-.06-1.9-.05-1.15.06-2.36-.11-3.52.17-2.94,0-5.49.06-7.22,0-.57,0-1.21.05-1.78,0-.23.12-.41.35-.41,1.27-.11,2.72-.23,3.93.11.28.12.63.17.8.47.52.63.99,1.32,1.16,2.25.17,1.04.28,2.08.22,3.12,0,1.84-.11,3.76-.11,5.6Z"/>
            <path class="cls-4" d="M228.84,132.32c-2.61,1.84-3.65,5.19-4.39,7.96-.35,1.16-1.21,3.13-1.51,4.28-.28,1.04-.58,2.08-.8,3.12-.06.28-.12.58-.23.87-.98,2.14-1.38,4.39-2.14,6.59-.28.8-.46,1.67-.8,2.42-.41.87-.64,1.73-.87,2.6-.12.46-.17.98-.41,1.45-.52,1.21-.58,2.42-.58,3.7.06,2.31.06,4.61.12,6.99,0,.41,0,.87.11,1.32.17,1.34.11,2.89,0,4.22,0,.23-.17.35-.41.41-.11.06-.28.06-.4.06-2.03,0-4.04,0-6.07-.06h-.17c-.46,0-.63-.11-.63-.58v-3.87c0-.74-.06-1.73-.06-2.66-.05-.22-.05-.4-.05-.63.22-1.67.11-3.4.17-5.14,0-.91-.17-1.9-.41-2.82-.28-1.05-.63-2.14-.99-3.18-.8-2.61-1.67-5.14-2.19-7.8-.17-.87-.46-1.67-.75-2.49-.35-1.32-.74-2.6-1.15-3.92-.58-1.73-1.16-3.52-1.79-5.25,0-.12-.06-.23-.06-.3-.4-2.19-.98-4.33-1.67-6.47-.11-.46-.23-.93.17-.98.46,0,1.15-.06,1.67-.06,1.97,0,3.93.06,5.9.06.58,0,.75.11.87.63.46,2.31,1.27,4.56,1.79,6.87.46,2.42,1.15,4.8,1.73,7.16l1.21,4.39c0,.06.11.11.17.11s.11-.05.11-.05c.12-.12.23-.3.23-.41.28-.93.52-1.84.75-2.77.91-3.59,2.36-7.91,3.29-11.5.28-1.21.98-2.19,1.67-3.18.41-.52.99-.98,1.62-1.26,1.1-.58,2.14-.75,3.24-.93.91-.17,1.84-.06,2.71.23.99.28,1.38.74.99.87Z"/>
            <path class="cls-4" d="M115.3,186.8c-.06.12-.17.23-.28.23-.58.06-1.27.17-1.85.17-1.38,0-2.31-.11-3.93-.06-.22,0-.46,0-.74.06-.23,0-.35.17-.35.35-.06.23-.06.41-.06.63.17,2.83-.06,5.66-.06,8.43v.93c.3,3.59-.05,7.16,0,10.74.06.91-.05,1.9.17,2.83.06.28,0,.52,0,.74-.28,2.31-.22,4.69-.22,7v6.69c0,.52-.12.69-.58.69-1.04,0-2.02.41-3,.12-1.04.17-2.02-.06-3,0-.22.05-.4.05-.63.05-.46-.05-.63-.17-.63-.63,0-1.38,0-2.72.05-4.1,0-3.18.06-6.92.06-10.1,0-.28,0-.63-.06-.93-.28-1.15-.11-2.25-.05-3.4.05-.3.11-.52.11-.75-.23-1.15.11-2.25.11-3.35,0-.28.06-.58,0-.87-.22-.98-.17-1.9-.17-2.89-.05-1.95.06-3.92.06-5.88,0-.28,0-.58-.06-.93-.22-1.38-.22-2.77-.05-4.22.05-.11.05-.28,0-.4,0-.35-.3-.58-.58-.58-.41,0-.75-.06-1.16,0-1.67.17-2.71-.06-4.44-.06l-.58.06c-.35-.06-.58-.28-.58-.63v-1.79c0-1.34-.11-2.66.06-3.99,0-.63.11-.74.8-.74.85,0,1.72-.06,2.51-.06.23.48.72.67,1.53.67l.87-.06c.47,0,.82-.05,1.22,0,.69,0,1.32,0,1.95-.05.87,0,1.62-.06,2.42.05.45.07.87-.12,1.16-.45,1.97.09,3.99-.05,6.01-.05.17,0,.36,0,.54-.01.22.31.57.51,1.01.57.85.1,1.64.15,2.47.12.01.07.01.16.01.25.05.87,0,1.73,0,2.6,0,.64.05,1.34.11,1.97.06.35,0,.69-.17,1.04Z"/>
            <path class="cls-4" d="M127.31,224.85c0,.3,0,.75-.12,1.04-.05.12-.28.17-.46.23-.41.06-.87.11-1.34.11-1.95,0-3.92-.11-5.88,0-.41,0-.52-.11-.52-.57,0-1.97,0-3.93.06-5.9,0-2.36.05-4.78-.06-7.22-.06-1.26,0-2.53.06-3.75.05-.64.11-1.34,0-1.97-.12-.46-.12-.93-.06-1.32.23-1.51.17-2.95.06-4.39-.12-1.34-.06-2.72,0-4.04.11-.41.11-.82.05-1.21,0-1.97-.05-3.93-.05-5.9,0-1.73,0-3.4.05-5.14.06-1.26-.11-2.6,0-3.87,0-.05.01-.1.02-.14h.1c.95,0,1.52-.14,1.82-.56h.89c.3,0,.59.05.88.07.22.26.56.42.91.42h.46l2.99.09c0,.09,0,.19.01.3.06.22,0,.46,0,.74,0,1.73-.05,3.65-.05,5.38-.12,2.25.05,4.44.05,6.69-.05,3.35-.17,8.21-.17,9.82,0,1.27-.05,2.61.17,3.87.12.58.06,1.74,0,2.25-.17,1.97,0,2.78,0,4.75,0,.4.06,1.09.06,1.32-.06.46-.06.93-.06,1.32.06,1.16.06,2.31.06,3.47-.06,1.38.11,2.71.06,4.09Z"/>
            <path class="cls-4" d="M164.61,223.46c-.06.52,0,1.1,0,1.62,0,.28,0,.52-.06.75-.05.28-.28.46-.52.52-.11.05-.22.05-.28.05-1.04-.11-2.14,0-3.18,0h-2.36c-.3,0-.52-.05-.75-.11-.17-.06-.41-.28-.41-.41.23-.91-.17-1.84-.05-2.71.05-.64,0-1.34.11-1.97.11-.46.11-1.04.05-1.5-.16-.75-.16-1.51-.16-2.26,0-2.82-.06-5.65-.06-8.48l.06-5.77c0-.35-.06-.69-.06-1.04,0,0-.06-.12-.12-.12-.05,0-.11.06-.11.06-.23.28-.35.63-.35.98-.23,1.92-.58,4.45-.87,6.31-.35,1.84-.69,3.68-.93,5.54-.22,1.5-.52,3.05-.74,4.61-.06.58-.23,1.16-.35,1.79-.17,1.34-.41,2.66-.58,3.99-.11.74-.28.87-.93.91-.28.06-.58.06-.93.06-1.21,0-2.47-.06-3.75-.06-.35,0-.69,0-1.04-.05-.64,0-.87-.17-.99-.87-.17-.58-.28-1.16-.4-1.79-.12-.52-.23-1.04-.3-1.62-.05-.8-.22-1.56-.35-2.37-.35-2.13-.57-4.27-.91-6.4-.3-1.56-.58-3.05-.93-4.62-.17-.98-.47-1.95-.58-2.94,0-.46-.17-.87-.23-1.32-.17-.58.06-1.85-.52-2.25-.4.57-.22,1.78-.22,2.36,0,3.35.05,6.7.05,10.22.17.87,0,1.9-.05,2.94-.06,2.55-.06,5.43.17,7.97v.17c.05.4-.17.63-.58.69h-.75c-1.9,0-3.75-.06-5.6.11-.46,0-.69-.23-.69-.63-.06-.41-.06-.82-.06-1.51.06-2.36.06-4.85-.11-7.22-.06-.17,0-.4,0-.57.11-.41.11-.82,0-1.21-.17-1.1-.17-2.2.06-3.3.11-.4.05-.8.05-1.21.06-3.75.06-7.57.12-11.31,0-1.79-.12-3.52,0-5.32.11-1.79.17-3.63.05-5.43-.05-.93-.11-1.9-.11-2.83,0-.05-.06-.11-.06-.17.3-1.38,0-2.77,0-4.22v-.28c.06-.82.3-1.04,1.16-.93.52,0,1.04,0,1.62-.06.74-.11,1.5-.17,2.25-.05.8.11,1.62,0,2.42,0,.45,0,.9-.04,1.36-.01.53.61,1.19,1.1,1.76,1.48.12.09.28.17.42.22.31,1.25.63,2.5.68,3.78.06.47.17.88.23,1.34.35,1.84.52,3.7.69,5.54.17,2.14.74,4.28,1.09,6.42l1.79,9.58c.06.11.12.23.17.28,0,.06.06.06.12.12.11.05.17,0,.22-.12l1.27-7.21c.11-.64.28-1.22.41-1.79l.91-4.91c.23-1.73.36-3.52.75-5.25.23-.99.12-2.08.41-3.12.46-1.62.63-3.3.93-4.91,0-.23.05-.41.11-.58.02-.1.05-.19.07-.26l5.42.06c.17,0,.41,0,.58-.06.53-.05.96-.25,1.26-.58.45,0,.89-.01,1.34-.02h.87c.52.05.74.28.74.8v4.51c0,1.15-.22,2.3,0,3.46.12.46.06.91.06,1.38,0,2.77-.23,5.54-.11,8.31.05,1.68.17,3.41.11,5.14-.11,2.37.11,4.74,0,7.11v.28c.41,4.04.28,8.15.17,12.24Z"/>
            <path class="cls-4" d="M191.01,221.45c-.17,1.04,0,2.13,0,3.18,0,.28-.06.57-.06.91-.05.52-.22.75-.74.75-1.22,0-2.44.11-4.1-.11-.17-.06-.41-.12-.58-.06-.87.23-1.73.11-2.6.17-3.52.28-7.05.06-10.57.06-.11,0-.28,0-.46-.06-1.1,0-1.21,0-1.16-1.15.06-.3,0-.52,0-.75s-.05-.41-.05-.64c.28-4.33.17-8.72.22-13.1,0-1.56,0-3.12-.11-4.67-.06-.87,0-1.73-.06-2.6,0-3.87,0-7.74-.05-11.61,0-1.15-.06-2.25-.12-3.35-.05-.87-.05-1.67.12-2.53.05-.35.05-.7.05-1.05-.11-1.38-.11-2.71-.05-4.09,0-.47.22-.64.63-.64l2.89.17c.28,0,.74.12.98,0,1.16-.28,2.2-.05,3.35,0l.52.04c.22.25.54.41.93.46l.98.06h1.21c.82,0,1.62.06,2.42,0,.87,0,1.68-.11,2.42-.23.48-.02.85-.21,1.08-.51.67,0,1.36.01,2.05.01.41,0,.52.12.58.52.05.35.22.69.17,1.05-.23,1.73.05,3.4-.17,5.13-.12.52-.23.69-.82.75-.98,0-1.9.17-3,0-.74.06-1.5,0-2.25,0l-1.04.06c-1.45,0-2.88-.12-4.39,0-.23.05-.35.22-.41.4,0,.12-.05.23-.05.35.11,2.78-.35,5.49-.17,8.26,0,.41,0,.82.05,1.21.06.35.06.75.23,1.04.23.41.63,0,.98.06,1.22.23,2.49.28,3.7.06.3-.06.52-.06.75,0,1.04.22,2.14.17,3.18.17.58,0,.63.05.8.69.23.93.17,1.84.06,2.71-.06,1.16,0,2.31-.06,3.47,0,.35-.17.57-.52.63-.63.11-1.43.23-2.13.23-2.14,0-4.34-.23-6.48,0-.22.05-.4.17-.4.4,0,.35-.06.64-.06.93.11,1.51-.06,3.07,0,4.56.06,1.73,0,3.52.17,5.25.06.23-.06.52,0,.75,0,.17.06.28.23.28.17.06.28.06.46.06,1.34-.17,2.6,0,3.93,0,1.9-.41,4.27.11,6.18-.17h.63c.52.05.63.17.63.63,0,.64.17,1.21.06,1.85Z"/>
            <path class="cls-4" d="M215.27,210.12c.93,2.31,1.04,4.74.87,7.11-.11,1.56-.64,3.05-1.21,4.5-.23.52-.41,1.04-.64,1.5-.57.93-1.43,1.62-2.42,2.03-1.32.58-2.6,1.21-3.98,1.45-.23.05-.46.17-.75.17-1.38.05-2.83.11-4.22-.06-.69-.11-1.38-.23-2.02-.58-.23-.17-.47-.22-.69-.22-1.04-.23-1.9-.64-2.77-1.16-.12-.11-.23-.22-.35-.28-.75-.3-1.22-.87-1.62-1.56-.58-1.16-1.21-2.31-1.51-3.63-.22-1.05-.35-2.14-.4-3.3-.12-1.15-.06-2.36,0-3.57,0-.52.11-.64.63-.64.41-.05.8-.11,1.21-.05,1.79,0,3.63-.17,5.43,0,.3.05.47.22.47.52.05.57,0,1.21.05,1.79.06.98.23,2.02.35,2.99,0,.17.06.41.12.58.46,1.45,1.5,2.25,2.99,2.31.58.06,1.1.06,1.62-.17,1.38-.58,2.08-1.79,1.9-3.29-.28-2.37-1.09-4.56-2.88-6.35l-.47-.41c-1.43-1.97-3.23-3.57-5.02-5.25l-.52-.52c-.98-1.21-1.97-2.36-2.88-3.63-.19-.17-.36-.41-.47-.64-.46-1.43-1.27-2.82-1.73-4.33-.52-1.97-.63-3.98-.41-6.01.06-.63.12-1.26.3-1.9.22-1.32.91-2.49,1.5-3.63l.23-.35c1.15-1.38,2.53-2.6,4.33-3.24.41-.17.87-.28,1.27-.35,1.38-.28,2.83-.28,4.22-.4,1.32.28,2.66.28,3.98.69,1.1.28,2.03.8,2.94,1.5.47.35.87.82,1.34,1.34,1.21,1.38,1.79,3.23,2.08,5.25.17,1.26.06,2.83-.28,4.09-.53,1.79-1.79,2.83-3.52,3.18-1.79.47-3.47,0-4.91-1.21-.23-.17-.23-.35,0-.46.98-.69,1.26-1.68,1.32-2.77,0-.99-.11-1.92-.58-2.78-.35-.69-.87-1.09-1.61-1.15-.47-.17-1.27-.17-1.62-.11-1.38.05-2.03.74-2.55,2.19-.28.69-.28,1.45-.4,2.2,0,.28.05.57.17.91,0,.17.11.35.17.52.4.93.87,1.85,1.26,2.77l2.83,2.78c.87.74,1.62,1.5,2.37,2.36.28.41.69.82,1.09,1.21.88.82,1.62,1.56,2.26,2.61.11.16.22.4.4.57,1.34,1.45,1.97,3.18,2.72,4.91Z"/>
          </g>
          <g>
            <path class="cls-1" d="M121.42,170.32c.06-.46.11-.98.06-1.5-.3-2.09-.23-4.17-.23-6.24.06-1.45,0-2.88,0-4.27v-2.37c0-.23-.06-.41-.11-.8,0-.47,0-.99.05-1.56.12-1.27.17-2.44.06-3.35l.06-1.38v-1.27l.05-3.12c.06-2.03.12-4.04.12-6.13v-3.86c0-.99-.52-1.45-1.51-1.45h-.22v-.3c0-.98-.52-1.43-1.51-1.43h-1.84c-1.62.05-3.3.05-4.8-.06h-.06l-.52.06c-.63.11-1.04.52-1.21,1.04v.17c-.11.28-.17.69-.17.8v1.34c0,.74,0,1.56.12,2.36.11.8.17,1.45.05,1.97-.17,1.1-.17,2.19-.17,3.18v2.08c0,.41-.05.87,0,1.32.12,1.16.12,2.31.12,3.47l.05,1.26c0,.23.06.3.12.3l-1.27.05c-.82.06-1.51.06-2.2,0l-.63-.05c0-.52-.06-1.1-.17-1.68v-.35c.17-.93.11-1.9.06-2.83l-.06-1.26.06-1.51c0-1.04.05-2.19-.06-3.29-.11-.8-.06-1.56,0-2.42,0-.52.06-1.04.06-1.56v-1.1c-.12-1.04-.64-1.51-1.74-1.62v-.11c-.11-1.04-.63-1.56-1.73-1.62l-.8-.06c-1.62,0-3.35,0-4.97-.05-.4,0-.69,0-.91.05-.58.12-1.05.52-1.22,1.16-.05.35-.05.69-.05.91v1.74c.05,1.43.05,2.82-.06,4.22v.98l.06.52.05.41c.06.57.06.8,0,1.04-.17.98-.17,1.73,0,2.48.06.05.06.22.06.52.06,1.32.06,2.6,0,3.92v1.51c0,.4.06.69.06,1.09.05.3,0,.64,0,1.04l-.06.93-.06,2.03c0,1.38-.05,2.77.06,4.15l-.06,1.32c-.22,3.13-.17,6.24-.11,9.3v6.94c0,1.27.46,1.73,1.73,1.73,0,.07,0,.14.01.2.01.36.06.64.19.87h.04c2.6.06,4.67.06,7.27.06,0,0,.58,0,.99.05.28.02.57.04.87.05.21-.22.36-.51.41-.82v-.52l.05-.58v-1.85c-.05-1.38-.05-2.71,0-4.27.06-.41.06-.63,0-1.04-.05-1.56-.05-4.74-.05-6.87-.06-.63,0-1.27,0-1.9l.05-1.27c1.38-.17,2.37-.11,3.46-.06l.58.06v4.28c0,1.5,0,2.94-.05,4.44-.12,1.68-.06,3.41-.06,5.08v1.62l.06.52v.47c.11.8.57,1.38,1.38,1.5l.35.06v.17s.01.05.01.07c.06.33.17.62.36.85.52.01,1.06,0,1.58-.04.35,0,.69,0,1.05.05.61.05.82.19.85.68.28,0,.57-.01.87-.05.28-.01.58-.04.88-.07.35-.05.72-.01,1.15,0h.89c.09-.41.32-.56.79-.56h1.13c.16-.21.26-.49.31-.87.02-.16.05-.33.05-.53.01-.15.01-.3.01-.47v-.58l-.06-2.77v-.69c-.01-1.14-.04-2.24,0-3.35,0-.23.06-.46.06-.69ZM117.49,178.23c-.8,0-1.56-.06-2.25,0-1.38.17-2.6.17-3.98,0-.41-.06-.58-.28-.63-.69,0-.35-.06-.64-.06-.93,0-2.19-.06-4.45.06-6.64.11-2.66,0-5.25.05-7.91,0-.98-.11-1.97-.11-3-.06-.22-.23-.35-.41-.4-.28-.06-.63-.06-.93-.06-1.78,0-3.12-.23-5.3,0-.64.06-.75.17-.75.87,0,1.04-.11,2.08-.06,3.18,0,2.42,0,6.06.12,7.39-.17,2.47-.06,4.44-.06,6.64,0,.35-.06.69-.06,1.04-.05.23-.35.52-.57.46-1.45-.17-2.95.06-4.45,0-.75-.05-1.45.06-2.14.06-.74,0-.87-.06-.87-.87v-1.85c.06-4.78-.23-9.58.12-14.32l.05-1.38c-.17-2.08,0-4.1,0-6.18,0-.87.17-1.73,0-2.6,0-1.97.12-3.93,0-5.88,0-.23,0-.52-.05-.75-.19-.69-.12-1.38,0-2.08.11-.52,0-1.1-.06-1.68,0-.46-.12-.91-.06-1.32.17-2.03.06-4.04.06-6.07,0-.22,0-.46.06-.74.05-.23.22-.41.52-.47.22-.05.46-.05.74-.05,1.62.05,3.35.05,4.97.05.28,0,.52.06.75.06.63.06.87.23.91.8v1.05c0,1.38-.22,2.71-.05,4.09.17,1.56,0,3.12,0,4.67,0,1.34.22,2.72,0,4.04v.47c.22,1.32.22,2.6.22,3.92,0,.35.23.52.58.52.23,0,.52.06.75-.05.58-.17,1.21-.17,1.79-.12,1.21.12,2.42-.05,3.63-.05.46,0,.63-.17.63-.69-.05-1.73,0-3.52-.17-5.25-.05-.64,0-1.21,0-1.85.06-1.5-.11-3,.17-4.5.12-.75.06-1.51-.05-2.25-.17-1.21-.06-2.42-.12-3.65,0-.22.12-.46.17-.69.06-.22.23-.35.41-.4.17,0,.35-.06.46-.06,2.14.17,4.56.06,6.7.06.52,0,.64.11.64.57v3.87c0,3.07-.12,6.12-.19,9.19-.05.87,0,1.79-.05,2.72.11,1.04.05,2.19-.06,3.29-.06.74-.11,1.5.06,2.25v.46c0,2.08.05,4.22,0,6.35,0,2.08-.06,4.22.23,6.35.11.69-.12,1.38-.12,2.08-.06,2.25.06,4.5.06,6.81v.58c0,1.5-.12,1.56-1.34,1.56Z"/>
            <path class="cls-1" d="M137.87,162.29c-.22-1.73-.57-3.46-.74-5.2-.23-2.19-.52-4.39-.93-6.58-.35-1.84-.52-3.52-.8-5.37,0-.06-.17-.23-.17-.3-.17-.05-.23.12-.3.23-.05.52-.17.87-.28,1.38-.17.87-.28,1.79-.47,2.66-.11.8-.35,1.62-.46,2.36-.23,1.79-.41,3.65-.58,5.43-.05,0-.11.35-.11.35-.28,1.85-.46,3.3-.75,5.14-.05.52,0,.69.47.69,1.09,0,2.08.12,3.35-.05.4,0,.74-.06,1.15,0,.52.05.69-.17.63-.75ZM136.44,162.17h-.17l-.75.06h-.35l.06-.52.17-1.32s.22-1.68.28-1.68c.11-1.1.23-2.19.41-3.29l.17,1.79c.11,1.04.28,2.08.46,3.12l.28,1.97-.57-.12ZM137.87,162.29c-.22-1.73-.57-3.46-.74-5.2-.23-2.19-.52-4.39-.93-6.58-.35-1.84-.52-3.52-.8-5.37,0-.06-.17-.23-.17-.3-.17-.05-.23.12-.3.23-.05.52-.17.87-.28,1.38-.17.87-.28,1.79-.47,2.66-.11.8-.35,1.62-.46,2.36-.23,1.79-.41,3.65-.58,5.43-.05,0-.11.35-.11.35-.28,1.85-.46,3.3-.75,5.14-.05.52,0,.69.47.69,1.09,0,2.08.12,3.35-.05.4,0,.74-.06,1.15,0,.52.05.69-.17.63-.75ZM136.44,162.17h-.17l-.75.06h-.35l.06-.52.17-1.32s.22-1.68.28-1.68c.11-1.1.23-2.19.41-3.29l.17,1.79c.11,1.04.28,2.08.46,3.12l.28,1.97-.57-.12ZM137.87,162.29c-.22-1.73-.57-3.46-.74-5.2-.23-2.19-.52-4.39-.93-6.58-.35-1.84-.52-3.52-.8-5.37,0-.06-.17-.23-.17-.3-.17-.05-.23.12-.3.23-.05.52-.17.87-.28,1.38-.17.87-.28,1.79-.47,2.66-.11.8-.35,1.62-.46,2.36-.23,1.79-.41,3.65-.58,5.43-.05,0-.11.35-.11.35-.28,1.85-.46,3.3-.75,5.14-.05.52,0,.69.47.69,1.09,0,2.08.12,3.35-.05.4,0,.74-.06,1.15,0,.52.05.69-.17.63-.75ZM136.44,162.17h-.17l-.75.06h-.35l.06-.52.17-1.32s.22-1.68.28-1.68c.11-1.1.23-2.19.41-3.29l.17,1.79c.11,1.04.28,2.08.46,3.12l.28,1.97-.57-.12ZM137.87,162.29c-.22-1.73-.57-3.46-.74-5.2-.23-2.19-.52-4.39-.93-6.58-.35-1.84-.52-3.52-.8-5.37,0-.06-.17-.23-.17-.3-.17-.05-.23.12-.3.23-.05.52-.17.87-.28,1.38-.17.87-.28,1.79-.47,2.66-.11.8-.35,1.62-.46,2.36-.23,1.79-.41,3.65-.58,5.43-.05,0-.11.35-.11.35-.28,1.85-.46,3.3-.75,5.14-.05.52,0,.69.47.69,1.09,0,2.08.12,3.35-.05.4,0,.74-.06,1.15,0,.52.05.69-.17.63-.75ZM136.44,162.17h-.17l-.75.06h-.35l.06-.52.17-1.32s.22-1.68.28-1.68c.11-1.1.23-2.19.41-3.29l.17,1.79c.11,1.04.28,2.08.46,3.12l.28,1.97-.57-.12ZM137.87,162.29c-.22-1.73-.57-3.46-.74-5.2-.23-2.19-.52-4.39-.93-6.58-.35-1.84-.52-3.52-.8-5.37,0-.06-.17-.23-.17-.3-.17-.05-.23.12-.3.23-.05.52-.17.87-.28,1.38-.17.87-.28,1.79-.47,2.66-.11.8-.35,1.62-.46,2.36-.23,1.79-.41,3.65-.58,5.43-.05,0-.11.35-.11.35-.28,1.85-.46,3.3-.75,5.14-.05.52,0,.69.47.69,1.09,0,2.08.12,3.35-.05.4,0,.74-.06,1.15,0,.52.05.69-.17.63-.75ZM136.44,162.17h-.17l-.75.06h-.35l.06-.52.17-1.32s.22-1.68.28-1.68c.11-1.1.23-2.19.41-3.29l.17,1.79c.11,1.04.28,2.08.46,3.12l.28,1.97-.57-.12ZM137.87,162.29c-.22-1.73-.57-3.46-.74-5.2-.23-2.19-.52-4.39-.93-6.58-.35-1.84-.52-3.52-.8-5.37,0-.06-.17-.23-.17-.3-.17-.05-.23.12-.3.23-.05.52-.17.87-.28,1.38-.17.87-.28,1.79-.47,2.66-.11.8-.35,1.62-.46,2.36-.23,1.79-.41,3.65-.58,5.43-.05,0-.11.35-.11.35-.28,1.85-.46,3.3-.75,5.14-.05.52,0,.69.47.69,1.09,0,2.08.12,3.35-.05.4,0,.74-.06,1.15,0,.52.05.69-.17.63-.75ZM136.44,162.17h-.17l-.75.06h-.35l.06-.52.17-1.32s.22-1.68.28-1.68c.11-1.1.23-2.19.41-3.29l.17,1.79c.11,1.04.28,2.08.46,3.12l.28,1.97-.57-.12ZM137.87,162.29c-.22-1.73-.57-3.46-.74-5.2-.23-2.19-.52-4.39-.93-6.58-.35-1.84-.52-3.52-.8-5.37,0-.06-.17-.23-.17-.3-.17-.05-.23.12-.3.23-.05.52-.17.87-.28,1.38-.17.87-.28,1.79-.47,2.66-.11.8-.35,1.62-.46,2.36-.23,1.79-.41,3.65-.58,5.43-.05,0-.11.35-.11.35-.28,1.85-.46,3.3-.75,5.14-.05.52,0,.69.47.69,1.09,0,2.08.12,3.35-.05.4,0,.74-.06,1.15,0,.52.05.69-.17.63-.75ZM136.44,162.17h-.17l-.75.06h-.35l.06-.52.17-1.32s.22-1.68.28-1.68c.11-1.1.23-2.19.41-3.29l.17,1.79c.11,1.04.28,2.08.46,3.12l.28,1.97-.57-.12ZM137.87,162.29c-.22-1.73-.57-3.46-.74-5.2-.23-2.19-.52-4.39-.93-6.58-.35-1.84-.52-3.52-.8-5.37,0-.06-.17-.23-.17-.3-.17-.05-.23.12-.3.23-.05.52-.17.87-.28,1.38-.17.87-.28,1.79-.47,2.66-.11.8-.35,1.62-.46,2.36-.23,1.79-.41,3.65-.58,5.43-.05,0-.11.35-.11.35-.28,1.85-.46,3.3-.75,5.14-.05.52,0,.69.47.69,1.09,0,2.08.12,3.35-.05.4,0,.74-.06,1.15,0,.52.05.69-.17.63-.75ZM136.44,162.17h-.17l-.75.06h-.35l.06-.52.17-1.32s.22-1.68.28-1.68c.11-1.1.23-2.19.41-3.29l.17,1.79c.11,1.04.28,2.08.46,3.12l.28,1.97-.57-.12ZM151.73,179.38l-.05-.05c-.17-.11-.33-.27-.49-.51-.01,0-.02-.02-.02-.02-.17-.25-.33-.53-.49-.88-.11-.23-.21-.51-.32-.79-.22-.69-.4-1.56-.52-2.66-.11-1.09-.35-2.25-.57-3.29-.23-.93-.41-1.79-.52-2.66-.23-1.73-.47-3.46-.64-5.13l-1.21-8.15-.23-1.45c-.28-1.73-.52-3.52-.91-5.3-.23-.69-.35-1.45-.47-2.26l-.11-.63c-.11-.52-.17-1.04-.23-1.56l-.17-1.56c-.22-1.51-.46-2.94-.74-4.45-.17-1.27-.35-2.53-.75-3.81-.17-.69-.82-1.21-1.56-1.27l-.17-.46c-.17-.69-.82-1.21-1.56-1.27h-1.1c-.99-.06-1.97,0-2.89.06-.91,0-1.84.05-2.77,0l-2.31-.12c-.74,0-1.43.47-1.67,1.16l-.17.57-.52,2.14-.23,1.73c-.11,1.1-.28,2.14-.46,3.18l-.23,1.56-.23,1.45-.4,1.85c-.3,1.15-.58,2.3-.82,3.46-.22,1.04-.46,2.19-.52,3.35-.11.98-.28,1.97-.46,3-.17.8-.35,1.61-.46,2.42l-.12.87c-.17,1.1-.35,2.08-.58,3.05-.17.52-.4,1.16-.4,1.85,0,.87-.17,1.67-.35,2.6l-.3,1.21c-.28,1.62-.63,3.18-.98,4.74l-.63,2.94v.06s-.01.04-.01.04l-.4,2.04-.17,1.04c-.12.62.16,1.15.62,1.4.17.11.38.16.59.16h.58l-.06.17c-.02.09-.02.16-.02.23-.01.36.11.67.32.9.46.06.91.09,1.37-.12.69.17,1.85.11,2.55.05.43-.04.43.11.45.58h.88s.69.04.69.04l1.79-.06c.64,0,1.1-.41,1.38-.93l.12-.35c.11-.22.17-.46.22-.87l.12-.57c.11-.69.22-1.45.4-1.97l.64-3.29h1.5c1.16.05,2.37.05,3.59-.06l.58,3,.28.91c.37,1.21,1.15,1.98,1.99,2.63.09.06.17.14.26.2.15.23.31.45.49.66.45.01.88.07,1.3.23.41.12.58.3.69.7.06.26.12.51.19.77.06.02.11.05.16.06h.11l.87.23,1.17.21.73.14c1.57.23,3.13-.11,4.34-1.1.91-.74,1.04-1.61.05-2.08ZM149.43,179.03c-1.1.87-2.37,1.16-3.7.93-.93-.11-1.79-.35-2.66-.52-.17-.06-.3-.06-.41-.17-1.04-.75-2.08-1.5-2.48-2.77-.4-1.45-1.04-3.12-1.04-4.69,0-.05-.05-.05-.05-.11-.19-1.27-.75-1.79-2.03-1.56-1.73.23-3.46.11-5.14.11-.22,0-.4,0-.57.06-.23.06-.41.17-.47.35l-.69,3.59c-.22.87-.4,2.13-.57,2.99l-.23.58c-.11.23-.28.41-.58.41-.58,0-1.21.06-1.79.06-1.5-.06-3.05-.06-4.56-.12h-.46c-.23,0-.41-.22-.35-.52.17-.93.35-2.25.58-3.18.52-2.53,1.15-5.08,1.61-7.68.23-1.32.64-2.6.64-3.98,0-.58.17-1.1.35-1.62.35-1.32.52-2.66.75-4.04.11-.75.28-1.56.46-2.36.17-1.04.35-2.09.46-3.13.06-1.09.3-2.19.52-3.23.35-1.79.82-3.52,1.21-5.32.17-.98.3-2.02.47-3,.28-1.61.46-3.29.69-4.91.17-.87.41-1.73.63-2.66.12-.28.47-.52.82-.52.74.06,1.61.06,2.3.12,1.97.11,3.76-.17,5.72-.06h1.04c.41.06.69.28.8.63.35,1.22.52,2.44.69,3.7.3,1.51.52,2.95.75,4.45.17,1.04.23,2.08.41,3.12.17,1.04.28,2.03.57,3,.53,2.2.82,4.45,1.16,6.64l1.21,8.09c.17,1.73.41,3.46.63,5.19.3,2.03.87,3.93,1.1,5.96.11.91.28,1.9.58,2.82.28.87.8,2.03,1.62,2.61.28.22.74.17,0,.74ZM137.13,157.09c-.23-2.19-.52-4.39-.93-6.58-.35-1.84-.52-3.52-.8-5.37,0-.06-.17-.23-.17-.3-.17-.05-.23.12-.3.23-.05.52-.17.87-.28,1.38-.17.87-.28,1.79-.47,2.66-.11.8-.35,1.62-.46,2.36-.23,1.79-.41,3.65-.58,5.43-.05,0-.11.35-.11.35-.28,1.85-.46,3.3-.75,5.14-.05.52,0,.69.47.69,1.09,0,2.08.12,3.35-.05.4,0,.74-.06,1.15,0,.52.05.69-.17.63-.75-.22-1.73-.57-3.46-.74-5.2ZM136.44,162.17h-.17l-.75.06h-.35l.06-.52.17-1.32s.22-1.68.28-1.68c.11-1.1.23-2.19.41-3.29l.17,1.79c.11,1.04.28,2.08.46,3.12l.28,1.97-.57-.12ZM137.87,162.29c-.22-1.73-.57-3.46-.74-5.2-.23-2.19-.52-4.39-.93-6.58-.35-1.84-.52-3.52-.8-5.37,0-.06-.17-.23-.17-.3-.17-.05-.23.12-.3.23-.05.52-.17.87-.28,1.38-.17.87-.28,1.79-.47,2.66-.11.8-.35,1.62-.46,2.36-.23,1.79-.41,3.65-.58,5.43-.05,0-.11.35-.11.35-.28,1.85-.46,3.3-.75,5.14-.05.52,0,.69.47.69,1.09,0,2.08.12,3.35-.05.4,0,.74-.06,1.15,0,.52.05.69-.17.63-.75ZM136.44,162.17h-.17l-.75.06h-.35l.06-.52.17-1.32s.22-1.68.28-1.68c.11-1.1.23-2.19.41-3.29l.17,1.79c.11,1.04.28,2.08.46,3.12l.28,1.97-.57-.12ZM137.87,162.29c-.22-1.73-.57-3.46-.74-5.2-.23-2.19-.52-4.39-.93-6.58-.35-1.84-.52-3.52-.8-5.37,0-.06-.17-.23-.17-.3-.17-.05-.23.12-.3.23-.05.52-.17.87-.28,1.38-.17.87-.28,1.79-.47,2.66-.11.8-.35,1.62-.46,2.36-.23,1.79-.41,3.65-.58,5.43-.05,0-.11.35-.11.35-.28,1.85-.46,3.3-.75,5.14-.05.52,0,.69.47.69,1.09,0,2.08.12,3.35-.05.4,0,.74-.06,1.15,0,.52.05.69-.17.63-.75ZM136.44,162.17h-.17l-.75.06h-.35l.06-.52.17-1.32s.22-1.68.28-1.68c.11-1.1.23-2.19.41-3.29l.17,1.79c.11,1.04.28,2.08.46,3.12l.28,1.97-.57-.12ZM137.87,162.29c-.22-1.73-.57-3.46-.74-5.2-.23-2.19-.52-4.39-.93-6.58-.35-1.84-.52-3.52-.8-5.37,0-.06-.17-.23-.17-.3-.17-.05-.23.12-.3.23-.05.52-.17.87-.28,1.38-.17.87-.28,1.79-.47,2.66-.11.8-.35,1.62-.46,2.36-.23,1.79-.41,3.65-.58,5.43-.05,0-.11.35-.11.35-.28,1.85-.46,3.3-.75,5.14-.05.52,0,.69.47.69,1.09,0,2.08.12,3.35-.05.4,0,.74-.06,1.15,0,.52.05.69-.17.63-.75ZM136.44,162.17h-.17l-.75.06h-.35l.06-.52.17-1.32s.22-1.68.28-1.68c.11-1.1.23-2.19.41-3.29l.17,1.79c.11,1.04.28,2.08.46,3.12l.28,1.97-.57-.12ZM137.87,162.29c-.22-1.73-.57-3.46-.74-5.2-.23-2.19-.52-4.39-.93-6.58-.35-1.84-.52-3.52-.8-5.37,0-.06-.17-.23-.17-.3-.17-.05-.23.12-.3.23-.05.52-.17.87-.28,1.38-.17.87-.28,1.79-.47,2.66-.11.8-.35,1.62-.46,2.36-.23,1.79-.41,3.65-.58,5.43-.05,0-.11.35-.11.35-.28,1.85-.46,3.3-.75,5.14-.05.52,0,.69.47.69,1.09,0,2.08.12,3.35-.05.4,0,.74-.06,1.15,0,.52.05.69-.17.63-.75ZM136.44,162.17h-.17l-.75.06h-.35l.06-.52.17-1.32s.22-1.68.28-1.68c.11-1.1.23-2.19.41-3.29l.17,1.79c.11,1.04.28,2.08.46,3.12l.28,1.97-.57-.12ZM137.87,162.29c-.22-1.73-.57-3.46-.74-5.2-.23-2.19-.52-4.39-.93-6.58-.35-1.84-.52-3.52-.8-5.37,0-.06-.17-.23-.17-.3-.17-.05-.23.12-.3.23-.05.52-.17.87-.28,1.38-.17.87-.28,1.79-.47,2.66-.11.8-.35,1.62-.46,2.36-.23,1.79-.41,3.65-.58,5.43-.05,0-.11.35-.11.35-.28,1.85-.46,3.3-.75,5.14-.05.52,0,.69.47.69,1.09,0,2.08.12,3.35-.05.4,0,.74-.06,1.15,0,.52.05.69-.17.63-.75ZM136.44,162.17h-.17l-.75.06h-.35l.06-.52.17-1.32s.22-1.68.28-1.68c.11-1.1.23-2.19.41-3.29l.17,1.79c.11,1.04.28,2.08.46,3.12l.28,1.97-.57-.12ZM137.87,162.29c-.22-1.73-.57-3.46-.74-5.2-.23-2.19-.52-4.39-.93-6.58-.35-1.84-.52-3.52-.8-5.37,0-.06-.17-.23-.17-.3-.17-.05-.23.12-.3.23-.05.52-.17.87-.28,1.38-.17.87-.28,1.79-.47,2.66-.11.8-.35,1.62-.46,2.36-.23,1.79-.41,3.65-.58,5.43-.05,0-.11.35-.11.35-.28,1.85-.46,3.3-.75,5.14-.05.52,0,.69.47.69,1.09,0,2.08.12,3.35-.05.4,0,.74-.06,1.15,0,.52.05.69-.17.63-.75ZM136.44,162.17h-.17l-.75.06h-.35l.06-.52.17-1.32s.22-1.68.28-1.68c.11-1.1.23-2.19.41-3.29l.17,1.79c.11,1.04.28,2.08.46,3.12l.28,1.97-.57-.12ZM137.87,162.29c-.22-1.73-.57-3.46-.74-5.2-.23-2.19-.52-4.39-.93-6.58-.35-1.84-.52-3.52-.8-5.37,0-.06-.17-.23-.17-.3-.17-.05-.23.12-.3.23-.05.52-.17.87-.28,1.38-.17.87-.28,1.79-.47,2.66-.11.8-.35,1.62-.46,2.36-.23,1.79-.41,3.65-.58,5.43-.05,0-.11.35-.11.35-.28,1.85-.46,3.3-.75,5.14-.05.52,0,.69.47.69,1.09,0,2.08.12,3.35-.05.4,0,.74-.06,1.15,0,.52.05.69-.17.63-.75ZM136.44,162.17h-.17l-.75.06h-.35l.06-.52.17-1.32s.22-1.68.28-1.68c.11-1.1.23-2.19.41-3.29l.17,1.79c.11,1.04.28,2.08.46,3.12l.28,1.97-.57-.12ZM137.87,162.29c-.22-1.73-.57-3.46-.74-5.2-.23-2.19-.52-4.39-.93-6.58-.35-1.84-.52-3.52-.8-5.37,0-.06-.17-.23-.17-.3-.17-.05-.23.12-.3.23-.05.52-.17.87-.28,1.38-.17.87-.28,1.79-.47,2.66-.11.8-.35,1.62-.46,2.36-.23,1.79-.41,3.65-.58,5.43-.05,0-.11.35-.11.35-.28,1.85-.46,3.3-.75,5.14-.05.52,0,.69.47.69,1.09,0,2.08.12,3.35-.05.4,0,.74-.06,1.15,0,.52.05.69-.17.63-.75ZM136.44,162.17h-.17l-.75.06h-.35l.06-.52.17-1.32s.22-1.68.28-1.68c.11-1.1.23-2.19.41-3.29l.17,1.79c.11,1.04.28,2.08.46,3.12l.28,1.97-.57-.12Z"/>
            <path class="cls-1" d="M191.75,143.05c0-.46-.17-.98-.22-1.43-.12-.93-.52-1.56-1.38-1.97-.69-.35-1.45-.52-2.2-.52-.4,0-.8.06-1.21,0-.8,0-.98.11-.98.93l-.17,6.64c.11,1.61,0,3.52.05,5.43,0,.46-.05.93,0,1.32,0,.35.23.58.58.64h2.25c.35,0,.69,0,1.04-.06.93-.11,1.56-.58,1.79-1.56.17-.75.35-1.62.35-2.37.17-2.36.23-4.56.11-7.05ZM190.77,150.05c0,.69-.17,1.5-.35,2.25-.11.57-.41.8-1.04.87-.28.06-.58.06-.93.06h-.22v-1.79c0-1.04,0-2.08-.06-3l.17-6.64v-.06c.41.06.69,0,.98,0h.35c.35,0,.69.06.99.11l.11.52.11.58c.12,2.31.06,4.45-.11,7.11ZM178.82,172.39s-.02-.01-.04-.01c.01.01.02.02.05.04v-.02ZM191.75,143.05c0-.46-.17-.98-.22-1.43-.12-.93-.52-1.56-1.38-1.97-.69-.35-1.45-.52-2.2-.52-.4,0-.8.06-1.21,0-.8,0-.98.11-.98.93l-.17,6.64c.11,1.61,0,3.52.05,5.43,0,.46-.05.93,0,1.32,0,.35.23.58.58.64h2.25c.35,0,.69,0,1.04-.06.93-.11,1.56-.58,1.79-1.56.17-.75.35-1.62.35-2.37.17-2.36.23-4.56.11-7.05ZM190.77,150.05c0,.69-.17,1.5-.35,2.25-.11.57-.41.8-1.04.87-.28.06-.58.06-.93.06h-.22v-1.79c0-1.04,0-2.08-.06-3l.17-6.64v-.06c.41.06.69,0,.98,0h.35c.35,0,.69.06.99.11l.11.52.11.58c.12,2.31.06,4.45-.11,7.11ZM178.82,172.39s-.02-.01-.04-.01c.01.01.02.02.05.04v-.02ZM178.82,172.39s-.02-.01-.04-.01c.01.01.02.02.05.04v-.02ZM191.75,143.05c0-.46-.17-.98-.22-1.43-.12-.93-.52-1.56-1.38-1.97-.69-.35-1.45-.52-2.2-.52-.4,0-.8.06-1.21,0-.8,0-.98.11-.98.93l-.17,6.64c.11,1.61,0,3.52.05,5.43,0,.46-.05.93,0,1.32,0,.35.23.58.58.64h2.25c.35,0,.69,0,1.04-.06.93-.11,1.56-.58,1.79-1.56.17-.75.35-1.62.35-2.37.17-2.36.23-4.56.11-7.05ZM190.77,150.05c0,.69-.17,1.5-.35,2.25-.11.57-.41.8-1.04.87-.28.06-.58.06-.93.06h-.22v-1.79c0-1.04,0-2.08-.06-3l.17-6.64v-.06c.41.06.69,0,.98,0h.35c.35,0,.69.06.99.11l.11.52.11.58c.12,2.31.06,4.45-.11,7.11ZM191.75,143.05c0-.46-.17-.98-.22-1.43-.12-.93-.52-1.56-1.38-1.97-.69-.35-1.45-.52-2.2-.52-.4,0-.8.06-1.21,0-.8,0-.98.11-.98.93l-.17,6.64c.11,1.61,0,3.52.05,5.43,0,.46-.05.93,0,1.32,0,.35.23.58.58.64h2.25c.35,0,.69,0,1.04-.06.93-.11,1.56-.58,1.79-1.56.17-.75.35-1.62.35-2.37.17-2.36.23-4.56.11-7.05ZM190.77,150.05c0,.69-.17,1.5-.35,2.25-.11.57-.41.8-1.04.87-.28.06-.58.06-.93.06h-.22v-1.79c0-1.04,0-2.08-.06-3l.17-6.64v-.06c.41.06.69,0,.98,0h.35c.35,0,.69.06.99.11l.11.52.11.58c.12,2.31.06,4.45-.11,7.11ZM178.82,172.39s-.02-.01-.04-.01c.01.01.02.02.05.04v-.02ZM178.82,172.39s-.02-.01-.04-.01c.01.01.02.02.05.04v-.02ZM191.75,143.05c0-.46-.17-.98-.22-1.43-.12-.93-.52-1.56-1.38-1.97-.69-.35-1.45-.52-2.2-.52-.4,0-.8.06-1.21,0-.8,0-.98.11-.98.93l-.17,6.64c.11,1.61,0,3.52.05,5.43,0,.46-.05.93,0,1.32,0,.35.23.58.58.64h2.25c.35,0,.69,0,1.04-.06.93-.11,1.56-.58,1.79-1.56.17-.75.35-1.62.35-2.37.17-2.36.23-4.56.11-7.05ZM190.77,150.05c0,.69-.17,1.5-.35,2.25-.11.57-.41.8-1.04.87-.28.06-.58.06-.93.06h-.22v-1.79c0-1.04,0-2.08-.06-3l.17-6.64v-.06c.41.06.69,0,.98,0h.35c.35,0,.69.06.99.11l.11.52.11.58c.12,2.31.06,4.45-.11,7.11ZM191.75,143.05c0-.46-.17-.98-.22-1.43-.12-.93-.52-1.56-1.38-1.97-.69-.35-1.45-.52-2.2-.52-.4,0-.8.06-1.21,0-.8,0-.98.11-.98.93l-.17,6.64c.11,1.61,0,3.52.05,5.43,0,.46-.05.93,0,1.32,0,.35.23.58.58.64h2.25c.35,0,.69,0,1.04-.06.93-.11,1.56-.58,1.79-1.56.17-.75.35-1.62.35-2.37.17-2.36.23-4.56.11-7.05ZM190.77,150.05c0,.69-.17,1.5-.35,2.25-.11.57-.41.8-1.04.87-.28.06-.58.06-.93.06h-.22v-1.79c0-1.04,0-2.08-.06-3l.17-6.64v-.06c.41.06.69,0,.98,0h.35c.35,0,.69.06.99.11l.11.52.11.58c.12,2.31.06,4.45-.11,7.11ZM178.82,172.39s-.02-.01-.04-.01c.01.01.02.02.05.04v-.02ZM178.82,172.39s-.02-.01-.04-.01c.01.01.02.02.05.04v-.02ZM191.75,143.05c0-.46-.17-.98-.22-1.43-.12-.93-.52-1.56-1.38-1.97-.69-.35-1.45-.52-2.2-.52-.4,0-.8.06-1.21,0-.8,0-.98.11-.98.93l-.17,6.64c.11,1.61,0,3.52.05,5.43,0,.46-.05.93,0,1.32,0,.35.23.58.58.64h2.25c.35,0,.69,0,1.04-.06.93-.11,1.56-.58,1.79-1.56.17-.75.35-1.62.35-2.37.17-2.36.23-4.56.11-7.05ZM190.77,150.05c0,.69-.17,1.5-.35,2.25-.11.57-.41.8-1.04.87-.28.06-.58.06-.93.06h-.22v-1.79c0-1.04,0-2.08-.06-3l.17-6.64v-.06c.41.06.69,0,.98,0h.35c.35,0,.69.06.99.11l.11.52.11.58c.12,2.31.06,4.45-.11,7.11ZM191.75,143.05c0-.46-.17-.98-.22-1.43-.12-.93-.52-1.56-1.38-1.97-.69-.35-1.45-.52-2.2-.52-.4,0-.8.06-1.21,0-.8,0-.98.11-.98.93l-.17,6.64c.11,1.61,0,3.52.05,5.43,0,.46-.05.93,0,1.32,0,.35.23.58.58.64h2.25c.35,0,.69,0,1.04-.06.93-.11,1.56-.58,1.79-1.56.17-.75.35-1.62.35-2.37.17-2.36.23-4.56.11-7.05ZM190.77,150.05c0,.69-.17,1.5-.35,2.25-.11.57-.41.8-1.04.87-.28.06-.58.06-.93.06h-.22v-1.79c0-1.04,0-2.08-.06-3l.17-6.64v-.06c.41.06.69,0,.98,0h.35c.35,0,.69.06.99.11l.11.52.11.58c.12,2.31.06,4.45-.11,7.11ZM178.78,172.38s.02.02.05.04v-.02s-.04-.01-.05-.01ZM202.1,147.57v-1.34c0-.52-.06-1.09-.12-1.61l-.06-.75-.11-.69c-.11-1.16-.23-2.42-.63-3.59-.3-1.21-.93-2.31-1.68-3.12-.4-.46-.87-.87-1.26-1.21l-.47-.52c-1.79-1.9-3.52-2.89-5.49-3.18-.74-.11-1.43-.17-2.08-.28-.4-.12-.69-.12-1.09-.06-.93.17-1.79.11-2.78.06h-1.84c-.87.05-1.68,0-2.6-.06l-1.45-.11c-.75,0-1.56.05-2.37.17-.8.11-1.26.57-1.26,1.43v12.02l-.06,5.25v2.53l.06,2.61v.52c0,.52-.06,1.09.05,1.67.06.23.06.52-.05,1.04,0,.23-.06.58-.06.93v1.79c0,1.15,0,2.36.17,3.57,0,1.73,0,3.47-.06,5.2l.06,1.32c0,.41-.06.93,0,1.45v4.91c0,.8.52,1.38,1.34,1.5h.4v.23s0,.1.01.14c.02.37.16.68.4.9.77.05,1.56.1,2.31-.09.58-.12,1.21.05,1.79,0,1.63-.12,3.26-.14,4.93-.14.2-.22.31-.52.31-.85.01-.02.01-.05.01-.07v-.35c0-.41,0-.87-.06-1.16-.11-.63-.11-1.56-.11-2.49v-1.56c-.06-1.1,0-2.19,0-3.29v-1.62c0-.8,0-1.5.05-2.25.12-.93.3-2.02.12-3.12.17.11.52.11.52.11,1.04.12,2.19.06,3.63-.17,2.6-.28,4.61-1.27,6.12-2.94,1.97-2.02,3.05-4.45,3.18-7.05,0-.69,0-1.32.11-1.97.23-1.26.17-2.6.12-3.75ZM199.38,149.47c-.11.69-.11,1.38-.11,2.08-.12,2.55-1.21,4.67-2.95,6.47-1.5,1.68-3.4,2.42-5.6,2.66-1.15.17-2.3.28-3.46.17-.41,0-.8.06-1.21.11-.23,0-.35.17-.28.41.22,1.1.05,2.2-.06,3.29-.06.75-.06,1.51-.06,2.31,0,1.62-.05,3.29,0,4.97.06,1.15-.05,3,.12,4.15.11.41.05.87.05,1.34,0,.35-.17.57-.57.57-.82.12-1.56.23-2.37.23-1.21.06-2.42,0-3.63,0-.28,0-.63-.06-.93-.06-.35-.05-.52-.28-.52-.63v-4.97c-.06-.69,0-1.38,0-2.08h-.06c.06-1.9.06-3.87.06-5.77v-.11c-.28-1.79-.11-3.52-.17-5.32,0-.69.23-1.38.11-2.08-.11-.69-.05-1.38-.05-2.08,0-1.73-.06-3.47-.06-5.14,0-3.46.06-6.99.06-10.45v-6.82c0-.4.11-.52.52-.57.75-.12,1.5-.17,2.25-.17,1.38.05,2.72.22,4.04.17,1.73-.06,3.41.22,5.14-.12.8.17,1.67.3,2.53.41,2.03.28,3.59,1.45,4.97,2.89.69.74,1.21,1.73,1.5,2.77.41,1.32.52,2.77.69,4.15.06.75.17,1.51.17,2.25,0,1.62.17,3.3-.11,4.97ZM191.53,141.62c-.12-.93-.52-1.56-1.38-1.97-.69-.35-1.45-.52-2.2-.52-.4,0-.8.06-1.21,0-.8,0-.98.11-.98.93l-.17,6.64c.11,1.61,0,3.52.05,5.43,0,.46-.05.93,0,1.32,0,.35.23.58.58.64h2.25c.35,0,.69,0,1.04-.06.93-.11,1.56-.58,1.79-1.56.17-.75.35-1.62.35-2.37.17-2.36.23-4.56.11-7.05,0-.46-.17-.98-.22-1.43ZM190.77,150.05c0,.69-.17,1.5-.35,2.25-.11.57-.41.8-1.04.87-.28.06-.58.06-.93.06h-.22v-1.79c0-1.04,0-2.08-.06-3l.17-6.64v-.06c.41.06.69,0,.98,0h.35c.35,0,.69.06.99.11l.11.52.11.58c.12,2.31.06,4.45-.11,7.11ZM178.78,172.38s.02.02.05.04v-.02s-.04-.01-.05-.01ZM178.82,172.39s-.02-.01-.04-.01c.01.01.02.02.05.04v-.02ZM191.75,143.05c0-.46-.17-.98-.22-1.43-.12-.93-.52-1.56-1.38-1.97-.69-.35-1.45-.52-2.2-.52-.4,0-.8.06-1.21,0-.8,0-.98.11-.98.93l-.17,6.64c.11,1.61,0,3.52.05,5.43,0,.46-.05.93,0,1.32,0,.35.23.58.58.64h2.25c.35,0,.69,0,1.04-.06.93-.11,1.56-.58,1.79-1.56.17-.75.35-1.62.35-2.37.17-2.36.23-4.56.11-7.05ZM190.77,150.05c0,.69-.17,1.5-.35,2.25-.11.57-.41.8-1.04.87-.28.06-.58.06-.93.06h-.22v-1.79c0-1.04,0-2.08-.06-3l.17-6.64v-.06c.41.06.69,0,.98,0h.35c.35,0,.69.06.99.11l.11.52.11.58c.12,2.31.06,4.45-.11,7.11ZM191.75,143.05c0-.46-.17-.98-.22-1.43-.12-.93-.52-1.56-1.38-1.97-.69-.35-1.45-.52-2.2-.52-.4,0-.8.06-1.21,0-.8,0-.98.11-.98.93l-.17,6.64c.11,1.61,0,3.52.05,5.43,0,.46-.05.93,0,1.32,0,.35.23.58.58.64h2.25c.35,0,.69,0,1.04-.06.93-.11,1.56-.58,1.79-1.56.17-.75.35-1.62.35-2.37.17-2.36.23-4.56.11-7.05ZM190.77,150.05c0,.69-.17,1.5-.35,2.25-.11.57-.41.8-1.04.87-.28.06-.58.06-.93.06h-.22v-1.79c0-1.04,0-2.08-.06-3l.17-6.64v-.06c.41.06.69,0,.98,0h.35c.35,0,.69.06.99.11l.11.52.11.58c.12,2.31.06,4.45-.11,7.11ZM178.82,172.39s-.02-.01-.04-.01c.01.01.02.02.05.04v-.02ZM178.82,172.39s-.02-.01-.04-.01c.01.01.02.02.05.04v-.02ZM191.75,143.05c0-.46-.17-.98-.22-1.43-.12-.93-.52-1.56-1.38-1.97-.69-.35-1.45-.52-2.2-.52-.4,0-.8.06-1.21,0-.8,0-.98.11-.98.93l-.17,6.64c.11,1.61,0,3.52.05,5.43,0,.46-.05.93,0,1.32,0,.35.23.58.58.64h2.25c.35,0,.69,0,1.04-.06.93-.11,1.56-.58,1.79-1.56.17-.75.35-1.62.35-2.37.17-2.36.23-4.56.11-7.05ZM190.77,150.05c0,.69-.17,1.5-.35,2.25-.11.57-.41.8-1.04.87-.28.06-.58.06-.93.06h-.22v-1.79c0-1.04,0-2.08-.06-3l.17-6.64v-.06c.41.06.69,0,.98,0h.35c.35,0,.69.06.99.11l.11.52.11.58c.12,2.31.06,4.45-.11,7.11ZM191.75,143.05c0-.46-.17-.98-.22-1.43-.12-.93-.52-1.56-1.38-1.97-.69-.35-1.45-.52-2.2-.52-.4,0-.8.06-1.21,0-.8,0-.98.11-.98.93l-.17,6.64c.11,1.61,0,3.52.05,5.43,0,.46-.05.93,0,1.32,0,.35.23.58.58.64h2.25c.35,0,.69,0,1.04-.06.93-.11,1.56-.58,1.79-1.56.17-.75.35-1.62.35-2.37.17-2.36.23-4.56.11-7.05ZM190.77,150.05c0,.69-.17,1.5-.35,2.25-.11.57-.41.8-1.04.87-.28.06-.58.06-.93.06h-.22v-1.79c0-1.04,0-2.08-.06-3l.17-6.64v-.06c.41.06.69,0,.98,0h.35c.35,0,.69.06.99.11l.11.52.11.58c.12,2.31.06,4.45-.11,7.11ZM178.82,172.39s-.02-.01-.04-.01c.01.01.02.02.05.04v-.02ZM178.82,172.39s-.02-.01-.04-.01c.01.01.02.02.05.04v-.02ZM191.75,143.05c0-.46-.17-.98-.22-1.43-.12-.93-.52-1.56-1.38-1.97-.69-.35-1.45-.52-2.2-.52-.4,0-.8.06-1.21,0-.8,0-.98.11-.98.93l-.17,6.64c.11,1.61,0,3.52.05,5.43,0,.46-.05.93,0,1.32,0,.35.23.58.58.64h2.25c.35,0,.69,0,1.04-.06.93-.11,1.56-.58,1.79-1.56.17-.75.35-1.62.35-2.37.17-2.36.23-4.56.11-7.05ZM190.77,150.05c0,.69-.17,1.5-.35,2.25-.11.57-.41.8-1.04.87-.28.06-.58.06-.93.06h-.22v-1.79c0-1.04,0-2.08-.06-3l.17-6.64v-.06c.41.06.69,0,.98,0h.35c.35,0,.69.06.99.11l.11.52.11.58c.12,2.31.06,4.45-.11,7.11ZM191.75,143.05c0-.46-.17-.98-.22-1.43-.12-.93-.52-1.56-1.38-1.97-.69-.35-1.45-.52-2.2-.52-.4,0-.8.06-1.21,0-.8,0-.98.11-.98.93l-.17,6.64c.11,1.61,0,3.52.05,5.43,0,.46-.05.93,0,1.32,0,.35.23.58.58.64h2.25c.35,0,.69,0,1.04-.06.93-.11,1.56-.58,1.79-1.56.17-.75.35-1.62.35-2.37.17-2.36.23-4.56.11-7.05ZM190.77,150.05c0,.69-.17,1.5-.35,2.25-.11.57-.41.8-1.04.87-.28.06-.58.06-.93.06h-.22v-1.79c0-1.04,0-2.08-.06-3l.17-6.64v-.06c.41.06.69,0,.98,0h.35c.35,0,.69.06.99.11l.11.52.11.58c.12,2.31.06,4.45-.11,7.11ZM178.82,172.39s-.02-.01-.04-.01c.01.01.02.02.05.04v-.02ZM165.6,141.97c-.17-.93-.64-1.62-1.16-2.25-.17-.3-.52-.35-.8-.47-1.21-.35-2.66-.22-3.93-.11-.22,0-.35.17-.35.41-.05.57-.05,1.21-.05,1.78-.06,1.73.11,4.28-.06,7.22.17,1.16.06,2.37.11,3.52,0,.63-.11,1.27.06,1.9.69.41,1.38.17,2.08.23.52.06.98.06,1.5,0,1.1-.06,1.92-.58,2.31-1.62.23-.63.41-1.27.41-1.9,0-1.84.11-3.76.11-5.6.06-1.04-.05-2.08-.22-3.12ZM164.96,145.08c0,.87,0,1.84-.05,2.77,0,.93-.06,1.9-.06,2.83,0,.41-.11.93-.35,1.62-.3.69-.75.98-1.56,1.04-.35.06-.69.06-.99.06v-.93c0-.69,0-1.45-.11-2.25.11-1.79.06-3.47.06-4.86v-3.7c.98-.05,1.9-.11,2.71.06l.12.41c.22,1.21.28,2.14.22,2.94ZM165.6,141.97c-.17-.93-.64-1.62-1.16-2.25-.17-.3-.52-.35-.8-.47-1.21-.35-2.66-.22-3.93-.11-.22,0-.35.17-.35.41-.05.57-.05,1.21-.05,1.78-.06,1.73.11,4.28-.06,7.22.17,1.16.06,2.37.11,3.52,0,.63-.11,1.27.06,1.9.69.41,1.38.17,2.08.23.52.06.98.06,1.5,0,1.1-.06,1.92-.58,2.31-1.62.23-.63.41-1.27.41-1.9,0-1.84.11-3.76.11-5.6.06-1.04-.05-2.08-.22-3.12ZM164.96,145.08c0,.87,0,1.84-.05,2.77,0,.93-.06,1.9-.06,2.83,0,.41-.11.93-.35,1.62-.3.69-.75.98-1.56,1.04-.35.06-.69.06-.99.06v-.93c0-.69,0-1.45-.11-2.25.11-1.79.06-3.47.06-4.86v-3.7c.98-.05,1.9-.11,2.71.06l.12.41c.22,1.21.28,2.14.22,2.94ZM165.6,141.97c-.17-.93-.64-1.62-1.16-2.25-.17-.3-.52-.35-.8-.47-1.21-.35-2.66-.22-3.93-.11-.22,0-.35.17-.35.41-.05.57-.05,1.21-.05,1.78-.06,1.73.11,4.28-.06,7.22.17,1.16.06,2.37.11,3.52,0,.63-.11,1.27.06,1.9.69.41,1.38.17,2.08.23.52.06.98.06,1.5,0,1.1-.06,1.92-.58,2.31-1.62.23-.63.41-1.27.41-1.9,0-1.84.11-3.76.11-5.6.06-1.04-.05-2.08-.22-3.12ZM164.96,145.08c0,.87,0,1.84-.05,2.77,0,.93-.06,1.9-.06,2.83,0,.41-.11.93-.35,1.62-.3.69-.75.98-1.56,1.04-.35.06-.69.06-.99.06v-.93c0-.69,0-1.45-.11-2.25.11-1.79.06-3.47.06-4.86v-3.7c.98-.05,1.9-.11,2.71.06l.12.41c.22,1.21.28,2.14.22,2.94ZM165.6,141.97c-.17-.93-.64-1.62-1.16-2.25-.17-.3-.52-.35-.8-.47-1.21-.35-2.66-.22-3.93-.11-.22,0-.35.17-.35.41-.05.57-.05,1.21-.05,1.78-.06,1.73.11,4.28-.06,7.22.17,1.16.06,2.37.11,3.52,0,.63-.11,1.27.06,1.9.69.41,1.38.17,2.08.23.52.06.98.06,1.5,0,1.1-.06,1.92-.58,2.31-1.62.23-.63.41-1.27.41-1.9,0-1.84.11-3.76.11-5.6.06-1.04-.05-2.08-.22-3.12ZM164.96,145.08c0,.87,0,1.84-.05,2.77,0,.93-.06,1.9-.06,2.83,0,.41-.11.93-.35,1.62-.3.69-.75.98-1.56,1.04-.35.06-.69.06-.99.06v-.93c0-.69,0-1.45-.11-2.25.11-1.79.06-3.47.06-4.86v-3.7c.98-.05,1.9-.11,2.71.06l.12.41c.22,1.21.28,2.14.22,2.94ZM165.6,141.97c-.17-.93-.64-1.62-1.16-2.25-.17-.3-.52-.35-.8-.47-1.21-.35-2.66-.22-3.93-.11-.22,0-.35.17-.35.41-.05.57-.05,1.21-.05,1.78-.06,1.73.11,4.28-.06,7.22.17,1.16.06,2.37.11,3.52,0,.63-.11,1.27.06,1.9.69.41,1.38.17,2.08.23.52.06.98.06,1.5,0,1.1-.06,1.92-.58,2.31-1.62.23-.63.41-1.27.41-1.9,0-1.84.11-3.76.11-5.6.06-1.04-.05-2.08-.22-3.12ZM164.96,145.08c0,.87,0,1.84-.05,2.77,0,.93-.06,1.9-.06,2.83,0,.41-.11.93-.35,1.62-.3.69-.75.98-1.56,1.04-.35.06-.69.06-.99.06v-.93c0-.69,0-1.45-.11-2.25.11-1.79.06-3.47.06-4.86v-3.7c.98-.05,1.9-.11,2.71.06l.12.41c.22,1.21.28,2.14.22,2.94ZM165.6,141.97c-.17-.93-.64-1.62-1.16-2.25-.17-.3-.52-.35-.8-.47-1.21-.35-2.66-.22-3.93-.11-.22,0-.35.17-.35.41-.05.57-.05,1.21-.05,1.78-.06,1.73.11,4.28-.06,7.22.17,1.16.06,2.37.11,3.52,0,.63-.11,1.27.06,1.9.69.41,1.38.17,2.08.23.52.06.98.06,1.5,0,1.1-.06,1.92-.58,2.31-1.62.23-.63.41-1.27.41-1.9,0-1.84.11-3.76.11-5.6.06-1.04-.05-2.08-.22-3.12ZM164.96,145.08c0,.87,0,1.84-.05,2.77,0,.93-.06,1.9-.06,2.83,0,.41-.11.93-.35,1.62-.3.69-.75.98-1.56,1.04-.35.06-.69.06-.99.06v-.93c0-.69,0-1.45-.11-2.25.11-1.79.06-3.47.06-4.86v-3.7c.98-.05,1.9-.11,2.71.06l.12.41c.22,1.21.28,2.14.22,2.94ZM165.6,141.97c-.17-.93-.64-1.62-1.16-2.25-.17-.3-.52-.35-.8-.47-1.21-.35-2.66-.22-3.93-.11-.22,0-.35.17-.35.41-.05.57-.05,1.21-.05,1.78-.06,1.73.11,4.28-.06,7.22.17,1.16.06,2.37.11,3.52,0,.63-.11,1.27.06,1.9.69.41,1.38.17,2.08.23.52.06.98.06,1.5,0,1.1-.06,1.92-.58,2.31-1.62.23-.63.41-1.27.41-1.9,0-1.84.11-3.76.11-5.6.06-1.04-.05-2.08-.22-3.12ZM164.96,145.08c0,.87,0,1.84-.05,2.77,0,.93-.06,1.9-.06,2.83,0,.41-.11.93-.35,1.62-.3.69-.75.98-1.56,1.04-.35.06-.69.06-.99.06v-.93c0-.69,0-1.45-.11-2.25.11-1.79.06-3.47.06-4.86v-3.7c.98-.05,1.9-.11,2.71.06l.12.41c.22,1.21.28,2.14.22,2.94ZM165.6,141.97c-.17-.93-.64-1.62-1.16-2.25-.17-.3-.52-.35-.8-.47-1.21-.35-2.66-.22-3.93-.11-.22,0-.35.17-.35.41-.05.57-.05,1.21-.05,1.78-.06,1.73.11,4.28-.06,7.22.17,1.16.06,2.37.11,3.52,0,.63-.11,1.27.06,1.9.69.41,1.38.17,2.08.23.52.06.98.06,1.5,0,1.1-.06,1.92-.58,2.31-1.62.23-.63.41-1.27.41-1.9,0-1.84.11-3.76.11-5.6.06-1.04-.05-2.08-.22-3.12ZM164.96,145.08c0,.87,0,1.84-.05,2.77,0,.93-.06,1.9-.06,2.83,0,.41-.11.93-.35,1.62-.3.69-.75.98-1.56,1.04-.35.06-.69.06-.99.06v-.93c0-.69,0-1.45-.11-2.25.11-1.79.06-3.47.06-4.86v-3.7c.98-.05,1.9-.11,2.71.06l.12.41c.22,1.21.28,2.14.22,2.94ZM175.88,143.18c-.11-2.14-.93-4.22-2.49-6.53-.28-.52-.75-.98-1.45-1.45l-.17-.05-.11-.23c-.28-.52-.75-.98-1.45-1.45-.35-.17-.74-.52-1.09-.8-.93-.82-2.14-1.27-3.76-1.34-2.08-.05-4.1-.11-6.06-.11l-.36.11c-2.36-.11-3.16-.11-4.44-.11h-1.45c-.35,0-.75,0-1.21.11-.87.12-1.27.69-1.27,1.62v4.39l-.05,1.9v1.85c-.06,1.26,0,2.6.05,3.75l.06,2.25v2.14c0,1.1,0,2.2.06,3.29l.05,1.16v3.29l-.05,2.37v.35c.05.22.05.28,0,.4-.17,1.45-.23,2.78-.12,4.04.23,1.62.23,3.65.17,5.49v1.45c0,1.09,0,2.14-.05,3.23,0,1.1-.06,2.2-.06,3.3,0,.11.01.22.02.32.06.4.22.69.49.88,0,0,.01.02.02.02.25.19.57.27.95.27h.23v.23c0,.77.36,1.25.95,1.42.16.05.35.07.54.07h.31c.16-.43.36-.56.85-.56,1.32,0,2.66-.11,3.92-.05.83.04,1.66.05,2.49.02.21-.22.36-.52.42-.88.04-.16.05-.32.05-.51v-.98c.05-.99.11-2.08-.12-3.12-.05-.17-.05-.41-.05-.69v-2.31l.05-4.28.06-4.22c.28,0,1.1.06,1.73,0l3.24-.11.35-.06c.28,0,.69-.05.87-.11,1.84-.63,3.29-1.56,4.27-2.72.41-.46.75-.91,1.04-1.38.23-.4.47-.74.75-1.09.47-.7.69-1.4.93-2.03l.17-.41c.23-.52.28-1.09.35-1.56,0-.28.06-.52.11-.8.23-1.16.35-2.31.35-3.59v-2.42c0-1.27,0-2.53-.11-3.81ZM173.39,147.68c0,1.16-.11,2.31-.35,3.41-.17.74-.11,1.5-.41,2.25-.28.75-.52,1.5-.98,2.19-.63.82-1.1,1.68-1.73,2.44-1.04,1.21-2.42,1.95-3.93,2.47-.28.12-.69.06-1.04.12-1.67.05-3.4.11-5.13.22-.47.06-.58.17-.58.69-.06,2.66-.06,5.9-.11,8.56v2.31c0,.28,0,.57.05.87.3,1.32.12,2.65.12,3.92,0,.69-.3,1.04-.99,1.1-.11.06-.28.06-.46.06-1.9,0-3.82-.06-5.72-.06-.46,0-.63-.17-.63-.63,0-2.2.11-4.34.11-6.53s.12-4.91-.17-7.05c-.11-1.27-.05-2.55.12-3.81.05-.3,0-.58,0-.87,0-1.56.05-3.13.05-4.69,0-.69-.05-1.38-.05-2.14-.06-1.09-.06-2.19-.06-3.29,0-1.43-.06-2.88-.06-4.39-.05-1.21-.11-2.49-.05-3.75,0-1.21.05-2.49.05-3.76v-4.39c0-.52.06-.69.58-.75.35-.11.69-.11,1.04-.11,2.08,0,2.6-.06,4.67.06,0-.06,1.57-.06,1.57-.06,1.95,0,3.98.06,6,.11,1.21.06,2.31.3,3.24,1.1.35.35.8.69,1.21.93.52.35.93.69,1.15,1.15,1.27,1.85,2.25,3.82,2.37,6.12.11,1.21.11,2.49.11,3.76v2.42ZM164.44,139.72c-.17-.3-.52-.35-.8-.47-1.21-.35-2.66-.22-3.93-.11-.22,0-.35.17-.35.41-.05.57-.05,1.21-.05,1.78-.06,1.73.11,4.28-.06,7.22.17,1.16.06,2.37.11,3.52,0,.63-.11,1.27.06,1.9.69.41,1.38.17,2.08.23.52.06.98.06,1.5,0,1.1-.06,1.92-.58,2.31-1.62.23-.63.41-1.27.41-1.9,0-1.84.11-3.76.11-5.6.06-1.04-.05-2.08-.22-3.12-.17-.93-.64-1.62-1.16-2.25ZM164.96,145.08c0,.87,0,1.84-.05,2.77,0,.93-.06,1.9-.06,2.83,0,.41-.11.93-.35,1.62-.3.69-.75.98-1.56,1.04-.35.06-.69.06-.99.06v-.93c0-.69,0-1.45-.11-2.25.11-1.79.06-3.47.06-4.86v-3.7c.98-.05,1.9-.11,2.71.06l.12.41c.22,1.21.28,2.14.22,2.94ZM165.6,141.97c-.17-.93-.64-1.62-1.16-2.25-.17-.3-.52-.35-.8-.47-1.21-.35-2.66-.22-3.93-.11-.22,0-.35.17-.35.41-.05.57-.05,1.21-.05,1.78-.06,1.73.11,4.28-.06,7.22.17,1.16.06,2.37.11,3.52,0,.63-.11,1.27.06,1.9.69.41,1.38.17,2.08.23.52.06.98.06,1.5,0,1.1-.06,1.92-.58,2.31-1.62.23-.63.41-1.27.41-1.9,0-1.84.11-3.76.11-5.6.06-1.04-.05-2.08-.22-3.12ZM164.96,145.08c0,.87,0,1.84-.05,2.77,0,.93-.06,1.9-.06,2.83,0,.41-.11.93-.35,1.62-.3.69-.75.98-1.56,1.04-.35.06-.69.06-.99.06v-.93c0-.69,0-1.45-.11-2.25.11-1.79.06-3.47.06-4.86v-3.7c.98-.05,1.9-.11,2.71.06l.12.41c.22,1.21.28,2.14.22,2.94ZM165.6,141.97c-.17-.93-.64-1.62-1.16-2.25-.17-.3-.52-.35-.8-.47-1.21-.35-2.66-.22-3.93-.11-.22,0-.35.17-.35.41-.05.57-.05,1.21-.05,1.78-.06,1.73.11,4.28-.06,7.22.17,1.16.06,2.37.11,3.52,0,.63-.11,1.27.06,1.9.69.41,1.38.17,2.08.23.52.06.98.06,1.5,0,1.1-.06,1.92-.58,2.31-1.62.23-.63.41-1.27.41-1.9,0-1.84.11-3.76.11-5.6.06-1.04-.05-2.08-.22-3.12ZM164.96,145.08c0,.87,0,1.84-.05,2.77,0,.93-.06,1.9-.06,2.83,0,.41-.11.93-.35,1.62-.3.69-.75.98-1.56,1.04-.35.06-.69.06-.99.06v-.93c0-.69,0-1.45-.11-2.25.11-1.79.06-3.47.06-4.86v-3.7c.98-.05,1.9-.11,2.71.06l.12.41c.22,1.21.28,2.14.22,2.94ZM165.6,141.97c-.17-.93-.64-1.62-1.16-2.25-.17-.3-.52-.35-.8-.47-1.21-.35-2.66-.22-3.93-.11-.22,0-.35.17-.35.41-.05.57-.05,1.21-.05,1.78-.06,1.73.11,4.28-.06,7.22.17,1.16.06,2.37.11,3.52,0,.63-.11,1.27.06,1.9.69.41,1.38.17,2.08.23.52.06.98.06,1.5,0,1.1-.06,1.92-.58,2.31-1.62.23-.63.41-1.27.41-1.9,0-1.84.11-3.76.11-5.6.06-1.04-.05-2.08-.22-3.12ZM164.96,145.08c0,.87,0,1.84-.05,2.77,0,.93-.06,1.9-.06,2.83,0,.41-.11.93-.35,1.62-.3.69-.75.98-1.56,1.04-.35.06-.69.06-.99.06v-.93c0-.69,0-1.45-.11-2.25.11-1.79.06-3.47.06-4.86v-3.7c.98-.05,1.9-.11,2.71.06l.12.41c.22,1.21.28,2.14.22,2.94ZM165.6,141.97c-.17-.93-.64-1.62-1.16-2.25-.17-.3-.52-.35-.8-.47-1.21-.35-2.66-.22-3.93-.11-.22,0-.35.17-.35.41-.05.57-.05,1.21-.05,1.78-.06,1.73.11,4.28-.06,7.22.17,1.16.06,2.37.11,3.52,0,.63-.11,1.27.06,1.9.69.41,1.38.17,2.08.23.52.06.98.06,1.5,0,1.1-.06,1.92-.58,2.31-1.62.23-.63.41-1.27.41-1.9,0-1.84.11-3.76.11-5.6.06-1.04-.05-2.08-.22-3.12ZM164.96,145.08c0,.87,0,1.84-.05,2.77,0,.93-.06,1.9-.06,2.83,0,.41-.11.93-.35,1.62-.3.69-.75.98-1.56,1.04-.35.06-.69.06-.99.06v-.93c0-.69,0-1.45-.11-2.25.11-1.79.06-3.47.06-4.86v-3.7c.98-.05,1.9-.11,2.71.06l.12.41c.22,1.21.28,2.14.22,2.94ZM165.6,141.97c-.17-.93-.64-1.62-1.16-2.25-.17-.3-.52-.35-.8-.47-1.21-.35-2.66-.22-3.93-.11-.22,0-.35.17-.35.41-.05.57-.05,1.21-.05,1.78-.06,1.73.11,4.28-.06,7.22.17,1.16.06,2.37.11,3.52,0,.63-.11,1.27.06,1.9.69.41,1.38.17,2.08.23.52.06.98.06,1.5,0,1.1-.06,1.92-.58,2.31-1.62.23-.63.41-1.27.41-1.9,0-1.84.11-3.76.11-5.6.06-1.04-.05-2.08-.22-3.12ZM164.96,145.08c0,.87,0,1.84-.05,2.77,0,.93-.06,1.9-.06,2.83,0,.41-.11.93-.35,1.62-.3.69-.75.98-1.56,1.04-.35.06-.69.06-.99.06v-.93c0-.69,0-1.45-.11-2.25.11-1.79.06-3.47.06-4.86v-3.7c.98-.05,1.9-.11,2.71.06l.12.41c.22,1.21.28,2.14.22,2.94ZM165.6,141.97c-.17-.93-.64-1.62-1.16-2.25-.17-.3-.52-.35-.8-.47-1.21-.35-2.66-.22-3.93-.11-.22,0-.35.17-.35.41-.05.57-.05,1.21-.05,1.78-.06,1.73.11,4.28-.06,7.22.17,1.16.06,2.37.11,3.52,0,.63-.11,1.27.06,1.9.69.41,1.38.17,2.08.23.52.06.98.06,1.5,0,1.1-.06,1.92-.58,2.31-1.62.23-.63.41-1.27.41-1.9,0-1.84.11-3.76.11-5.6.06-1.04-.05-2.08-.22-3.12ZM164.96,145.08c0,.87,0,1.84-.05,2.77,0,.93-.06,1.9-.06,2.83,0,.41-.11.93-.35,1.62-.3.69-.75.98-1.56,1.04-.35.06-.69.06-.99.06v-.93c0-.69,0-1.45-.11-2.25.11-1.79.06-3.47.06-4.86v-3.7c.98-.05,1.9-.11,2.71.06l.12.41c.22,1.21.28,2.14.22,2.94Z"/>
            <path class="cls-1" d="M229.93,132.37c.06-.63-.69-1.38-1.84-1.73-1.04-.35-2.08-.46-3.12-.28-1.04.17-2.26.41-3.47,1.04-.74.35-1.38.87-1.9,1.5-.69.99-1.5,2.14-1.84,3.52-.41,1.73-1.04,3.7-1.62,5.66-.41,1.45-.87,2.89-1.21,4.22l-.06-.23c-.46-1.61-.87-3.23-1.15-4.85l-.87-3.18c-.35-1.27-.69-2.49-.93-3.7-.23-.93-.75-1.32-1.67-1.32l-.06-.41c-.23-.93-.75-1.32-1.73-1.32l-5.9-.06-1.73.06c-1.09.11-1.21,1.04-.91,2.08.74,2.36,1.26,4.44,1.61,6.4l.06.17v.06c.52,1.45.98,2.94,1.5,4.39l.58,1.73c.3,1.1.64,2.14.93,3.18.28.87.52,1.62.69,2.42.46,2.25,1.15,4.45,1.84,6.59l.41,1.26c.35,1.1.69,2.14.99,3.18.22.99.35,1.85.35,2.6v1.74c0,1.15,0,2.25-.17,3.34,0,.3,0,.58.05.82l.06,1.38v5.02c0,.93.52,1.45,1.5,1.45h.23v.28c0,.06,0,.12.01.19.06.82.57,1.26,1.48,1.26h.17c.26.01.52.01.78.01,1.77.05,3.52.05,5.29.05l.46-.06c.69-.11,1.21-.58,1.21-1.21.17-1.73.17-3.24,0-4.45-.11-.35-.11-.74-.11-1.15l-.06-3.52-.05-3.46c0-1.27.05-2.25.52-3.35.17-.41.28-.87.35-1.21l.11-.35c.17-.87.41-1.68.8-2.49.23-.52.41-1.04.52-1.56l.3-.93c.28-.87.52-1.67.75-2.53.4-1.38.8-2.72,1.38-3.99.11-.35.22-.74.28-1.04.23-.98.46-2.02.75-3.05.17-.64.52-1.45.8-2.37.28-.63.58-1.32.69-1.9.75-2.71,1.68-5.71,3.98-7.44,1.34-.47.58-1.92-1.04-2.44ZM228.84,132.32c-2.61,1.84-3.65,5.19-4.39,7.96-.35,1.16-1.21,3.13-1.51,4.28-.28,1.04-.58,2.08-.8,3.12-.06.28-.12.58-.23.87-.98,2.14-1.38,4.39-2.14,6.59-.28.8-.46,1.67-.8,2.42-.41.87-.64,1.73-.87,2.6-.12.46-.17.98-.41,1.45-.52,1.21-.58,2.42-.58,3.7.06,2.31.06,4.61.12,6.99,0,.41,0,.87.11,1.32.17,1.34.11,2.89,0,4.22,0,.23-.17.35-.41.41-.11.06-.28.06-.4.06-2.03,0-4.04,0-6.07-.06h-.17c-.46,0-.63-.11-.63-.58v-3.87c0-.74-.06-1.73-.06-2.66-.05-.22-.05-.4-.05-.63.22-1.67.11-3.4.17-5.14,0-.91-.17-1.9-.41-2.82-.28-1.05-.63-2.14-.99-3.18-.8-2.61-1.67-5.14-2.19-7.8-.17-.87-.46-1.67-.75-2.49-.35-1.32-.74-2.6-1.15-3.92-.58-1.73-1.16-3.52-1.79-5.25,0-.12-.06-.23-.06-.3-.4-2.19-.98-4.33-1.67-6.47-.11-.46-.23-.93.17-.98.46,0,1.15-.06,1.67-.06,1.97,0,3.93.06,5.9.06.58,0,.75.11.87.63.46,2.31,1.27,4.56,1.79,6.87.46,2.42,1.15,4.8,1.73,7.16l1.21,4.39c0,.06.11.11.17.11s.11-.05.11-.05c.12-.12.23-.3.23-.41.28-.93.52-1.84.75-2.77.91-3.59,2.36-7.91,3.29-11.5.28-1.21.98-2.19,1.67-3.18.41-.52.99-.98,1.62-1.26,1.1-.58,2.14-.75,3.24-.93.91-.17,1.84-.06,2.71.23.99.28,1.38.74.99.87Z"/>
            <path class="cls-1" d="M118.07,187.38c-.06-.63-.11-1.27-.11-1.84v-.88c0-.57.05-1.15,0-1.78,0-1.1-.52-1.62-1.62-1.73h-.11c0-.09,0-.17-.01-.25-.07-.93-.59-1.38-1.61-1.5-.41-.05-.87-.05-1.21-.05-.58.05-1.26.05-1.89.05h-.19l-2.31.06c-1.14,0-2.23.04-3.29,0-.38-.01-.78-.02-1.16-.06-.46-.05-1.1-.05-1.1-.05-2.6,0-4.67,0-7.27-.06h-.22l-2.32.06c-1.15,0-1.67.46-1.67,1.56-.11.98-.11,2.02-.06,2.94v2.89c0,.63.35,1.15.93,1.38.28.11.52.11.8.11v.23c0,.63.35,1.15.93,1.38.35.17.64.11,1.04.05h.12c.57,0,1.09.06,1.61.06.58.06,1.16.06,1.79.06,0,.93.06,1.79.17,2.66.06.28.06.52.06.8l-.06,2.31c0,1.21-.06,2.42,0,3.57v.47c0,.8,0,1.67.17,2.6v.69c0,.35-.06.69-.11,1.15-.06.64-.17,1.45,0,2.26l-.06.35-.06.22-.05.75c-.06.93-.12,1.9.11,2.94.06.23.06.47.06.75v5.02l-.06,5.08c-.06,1.38-.06,2.72-.06,4.1,0,.93.53,1.38,1.45,1.5h.3v.23c0,.93.52,1.38,1.43,1.5.35,0,.58,0,.82-.05h1.04c.52.05,1.15.11,1.79,0,.74.17,1.43.05,2.02,0,.41-.06.69-.11,1.04-.11.99,0,1.45-.58,1.45-1.57v-6.69c0-2.37-.06-4.69.23-6.94v-.23c.05-.22,0-.57,0-.74-.17-.52-.17-1.1-.17-1.73v-.99c0-1.32,0-2.71.05-4.09.06-2.2.12-4.39-.05-6.65v-.87c0-.98.05-1.95.05-3,.06-1.78.12-3.63,0-5.43v-.22l.3.05c.98-.05,1.67,0,2.36,0l1.56.06c.47,0,.99-.06,1.38-.11l.52-.06c.47,0,.82-.35.99-.69.28-.52.35-1.04.28-1.56ZM115.3,186.8c-.06.12-.17.23-.28.23-.58.06-1.27.17-1.85.17-1.38,0-2.31-.11-3.93-.06-.22,0-.46,0-.74.06-.23,0-.35.17-.35.35-.06.23-.06.41-.06.63.17,2.83-.06,5.66-.06,8.43v.93c.3,3.59-.05,7.16,0,10.74.06.91-.05,1.9.17,2.83.06.28,0,.52,0,.74-.28,2.31-.22,4.69-.22,7v6.69c0,.52-.12.69-.58.69-1.04,0-2.02.41-3,.12-1.04.17-2.02-.06-3,0-.22.05-.4.05-.63.05-.46-.05-.63-.17-.63-.63,0-1.38,0-2.72.05-4.1,0-3.18.06-6.92.06-10.1,0-.28,0-.63-.06-.93-.28-1.15-.11-2.25-.05-3.4.05-.3.11-.52.11-.75-.23-1.15.11-2.25.11-3.35,0-.28.06-.58,0-.87-.22-.98-.17-1.9-.17-2.89-.05-1.95.06-3.92.06-5.88,0-.28,0-.58-.06-.93-.22-1.38-.22-2.77-.05-4.22.05-.11.05-.28,0-.4,0-.35-.3-.58-.58-.58-.41,0-.75-.06-1.16,0-1.67.17-2.71-.06-4.44-.06l-.58.06c-.35-.06-.58-.28-.58-.63v-1.79c0-1.34-.11-2.66.06-3.99,0-.63.11-.74.8-.74.85,0,1.72-.06,2.51-.06h.04c2.6.06,4.67.06,7.27.06,0,0,.58,0,.99.05.28.02.57.04.87.05,1.97.09,3.99-.05,6.01-.05.17,0,.36,0,.54-.01.52.01,1.06,0,1.58-.04.35,0,.69,0,1.05.05.61.05.82.19.85.68.01.07.01.16.01.25.05.87,0,1.73,0,2.6,0,.64.05,1.34.11,1.97.06.35,0,.69-.17,1.04Z"/>
            <path class="cls-4" d="M115.3,186.8c-.06.12-.17.23-.28.23-.58.06-1.27.17-1.85.17-1.38,0-2.31-.11-3.93-.06-.22,0-.46,0-.74.06-.23,0-.35.17-.35.35-.06.23-.06.41-.06.63.17,2.83-.06,5.66-.06,8.43v.93c.3,3.59-.05,7.16,0,10.74.06.91-.05,1.9.17,2.83.06.28,0,.52,0,.74-.28,2.31-.22,4.69-.22,7v6.69c0,.52-.12.69-.58.69-1.04,0-2.02.41-3,.12-1.04.17-2.02-.06-3,0-.22.05-.4.05-.63.05-.46-.05-.63-.17-.63-.63,0-1.38,0-2.72.05-4.1,0-3.18.06-6.92.06-10.1,0-.28,0-.63-.06-.93-.28-1.15-.11-2.25-.05-3.4.05-.3.11-.52.11-.75-.23-1.15.11-2.25.11-3.35,0-.28.06-.58,0-.87-.22-.98-.17-1.9-.17-2.89-.05-1.95.06-3.92.06-5.88,0-.28,0-.58-.06-.93-.22-1.38-.22-2.77-.05-4.22.05-.11.05-.28,0-.4,0-.35-.3-.58-.58-.58-.41,0-.75-.06-1.16,0-1.67.17-2.71-.06-4.44-.06l-.58.06c-.35-.06-.58-.28-.58-.63v-1.79c0-1.34-.11-2.66.06-3.99,0-.63.11-.74.8-.74.85,0,1.72-.06,2.51-.06h.04c2.6.06,4.67.06,7.27.06,0,0,.58,0,.99.05.28.02.57.04.87.05,1.97.09,3.99-.05,6.01-.05.17,0,.36,0,.54-.01.52.01,1.06,0,1.58-.04.35,0,.69,0,1.05.05.61.05.82.19.85.68.01.07.01.16.01.25.05.87,0,1.73,0,2.6,0,.64.05,1.34.11,1.97.06.35,0,.69-.17,1.04Z"/>
            <path class="cls-1" d="M129.85,224.5v-2.02c0-1.16,0-2.31-.06-3.47v-.74c.06-.41.06-.75.06-1.04v-.06l-.06-.8c0-.69,0-1.27-.05-1.79,0-.93-.06-1.68.05-2.89.12-.87.12-1.95,0-2.49-.17-.98-.17-1.95-.17-3.05v-.63l.12-5.9.05-3.93-.05-2.53c-.06-1.38-.06-2.77,0-4.15v-2.66l.05-2.72v-1.15c-.05-.93-.52-1.45-1.43-1.32h-.3v-.41c-.05-.93-.52-1.45-1.43-1.34-.75.06-1.45.06-1.92,0-.46-.05-.69,0-1.09.12-.17,0-.47,0-.87-.06-.07,0-.16-.01-.26-.02-.17-.01-.36-.04-.56-.04h-2.02c-.98,0-1.55.51-1.68,1.42v.02c-.05.82-.05,1.56,0,2.31v1.62c-.05,1.79-.05,3.46-.05,5.19l.05,2.94v3l.06.52c-.06.35-.11.64-.11,1.04-.06,1.21-.12,2.49,0,3.7.11,1.79.11,3-.06,4.22-.06.58-.06,1.1.06,1.62.11.52.05,1.1,0,1.73-.06,1.21-.12,2.55-.06,3.87.11,1.79.06,3.59.06,5.37v1.79c-.06,1.97-.06,3.93-.06,5.9,0,.91.52,1.43,1.38,1.43h.35v.3c0,.91.52,1.45,1.38,1.45,1.34-.06,2.6-.06,3.93,0h1.97c.28,0,.57,0,.98-.06.41-.06.69-.12,1.04-.28.23-.12.46-.23.58-.58.11-.23.17-.82.17-1.34.05-.69,0-1.38-.06-2.08ZM127.31,224.85c0,.3,0,.75-.12,1.04-.05.12-.28.17-.46.23-.41.06-.87.11-1.34.11-1.95,0-3.92-.11-5.88,0-.41,0-.52-.11-.52-.57,0-1.97,0-3.93.06-5.9,0-2.36.05-4.78-.06-7.22-.06-1.26,0-2.53.06-3.75.05-.64.11-1.34,0-1.97-.12-.46-.12-.93-.06-1.32.23-1.51.17-2.95.06-4.39-.12-1.34-.06-2.72,0-4.04.11-.41.11-.82.05-1.21,0-1.97-.05-3.93-.05-5.9,0-1.73,0-3.4.05-5.14.06-1.26-.11-2.6,0-3.87,0-.05.01-.1.02-.14.09-.41.32-.56.79-.56h2.02c.3,0,.59.05.88.07.46.06.91.09,1.37-.12.69.17,1.85.11,2.55.05.43-.04.43.11.45.58,0,.09,0,.19.01.3.06.22,0,.46,0,.74,0,1.73-.05,3.65-.05,5.38-.12,2.25.05,4.44.05,6.69-.05,3.35-.17,8.21-.17,9.82,0,1.27-.05,2.61.17,3.87.12.58.06,1.74,0,2.25-.17,1.97,0,2.78,0,4.75,0,.4.06,1.09.06,1.32-.06.46-.06.93-.06,1.32.06,1.16.06,2.31.06,3.47-.06,1.38.11,2.71.06,4.09Z"/>
            <path class="cls-4" d="M127.31,224.85c0,.3,0,.75-.12,1.04-.05.12-.28.17-.46.23-.41.06-.87.11-1.34.11-1.95,0-3.92-.11-5.88,0-.41,0-.52-.11-.52-.57,0-1.97,0-3.93.06-5.9,0-2.36.05-4.78-.06-7.22-.06-1.26,0-2.53.06-3.75.05-.64.11-1.34,0-1.97-.12-.46-.12-.93-.06-1.32.23-1.51.17-2.95.06-4.39-.12-1.34-.06-2.72,0-4.04.11-.41.11-.82.05-1.21,0-1.97-.05-3.93-.05-5.9,0-1.73,0-3.4.05-5.14.06-1.26-.11-2.6,0-3.87,0-.05.01-.1.02-.14.09-.41.32-.56.79-.56h2.02c.3,0,.59.05.88.07.46.06.91.09,1.37-.12.69.17,1.85.11,2.55.05.43-.04.43.11.45.58,0,.09,0,.19.01.3.06.22,0,.46,0,.74,0,1.73-.05,3.65-.05,5.38-.12,2.25.05,4.44.05,6.69-.05,3.35-.17,8.21-.17,9.82,0,1.27-.05,2.61.17,3.87.12.58.06,1.74,0,2.25-.17,1.97,0,2.78,0,4.75,0,.4.06,1.09.06,1.32-.06.46-.06.93-.06,1.32.06,1.16.06,2.31.06,3.47-.06,1.38.11,2.71.06,4.09Z"/>
            <path class="cls-1" d="M167.04,212.89v-.22c.06-1.21,0-2.37,0-3.59-.05-1.15-.05-2.31,0-3.46.06-1.38,0-2.72-.05-3.98l-.06-1.27c-.06-1.62,0-3.24.06-4.91,0-1.1.05-2.25.05-3.35v-.35c0-.28.06-.75-.05-1.21-.17-.69-.12-1.34-.06-2.08.06-.41.06-.82.06-1.21v-4.51c0-.98-.58-1.56-1.57-1.67h-.17v-.06c0-.98-.57-1.56-1.56-1.67h-.91c-.31.01-.62.02-.91.01-.96.04-1.93.02-2.84-.01-.8-.06-1.62,0-2.42,0l-1.56.05c-.95,0-1.47.43-1.71,1.35-.01.02-.01.06-.02.1-.12.23-.17.52-.17.69l-.23,1.45c-.17,1.15-.35,2.25-.63,3.35-.23.63-.23,1.32-.3,1.84s-.06.93-.17,1.34c-.28,1.27-.41,2.53-.58,3.81l-.17,1.5-.91,4.86-.17.74-.23.99-.11-.87c-.12-.75-.3-1.56-.47-2.31-.28-1.38-.52-2.71-.63-3.98-.17-1.85-.35-3.76-.69-5.6l-.11-.69-.12-.58c-.06-1.34-.35-2.6-.63-3.76l-.23-.98c-.02-.07-.06-.16-.1-.22-.23-.52-.61-.9-1.17-1.05l-.4-.11-.06-.35c-.23-.64-.63-1.1-1.27-1.27-.83-.33-1.67-.28-2.34-.28h-1.47c-.52.05-.98.05-1.45,0-.75-.12-1.5-.06-2.49.05-.52.06-.98.06-1.43.06-1.34-.17-2.03.41-2.09,1.73v.35c0,.52.06,1.04.06,1.51.06.8.11,1.5,0,2.19,0,.35.06.99.06.99l.05,2.6c.12,1.73.06,3.52-.05,5.3-.06,1.21-.06,2.44,0,3.59v1.79l-.12,11.31v.35c0,.35,0,.52-.05.64-.23,1.21-.23,2.47-.06,3.7.11.35.11.69,0,1.04v.63c.17,2.02.17,4.33.11,7.16,0,.69,0,1.1.06,1.56.06.87.69,1.45,1.62,1.45h.06l.05.28c.06.88.69,1.45,1.62,1.45,1.45-.11,2.89-.11,4.39-.11h1.97c.93-.11,1.5-.75,1.38-1.62v-.17c-.17-1.97-.23-4.33-.17-7.27l.11.63.17,1.45c.06.63.17,1.21.3,1.73.11.63.22,1.21.4,1.79.23,1.04.75,1.5,1.68,1.56l.05.17c.23,1.04.75,1.56,1.79,1.56.41.06.75.06,1.1.06l3.76.05c.35,0,.69,0,1.04-.05,1.04-.12,1.5-.58,1.67-1.68l.58-3.98.05-.41v.28c-.05.52,0,1.05.06,1.45.11.64.11.93,0,1.21-.11.64.52,1.27,1.04,1.38.3.12.52.17.75.17l-.06.17c-.11.64.52,1.27,1.04,1.4.41.11.64.16.99.16h3.46c.52-.05,1.04-.05,1.56-.05.41.05.93,0,.93,0,.63-.11,1.1-.58,1.27-1.21.05-.23.05-.52.05-.93v-.58c0-.35-.05-.69,0-.98.12-4.1.23-8.26-.17-12.36ZM164.61,223.46c-.06.52,0,1.1,0,1.62,0,.28,0,.52-.06.75-.05.28-.28.46-.52.52-.11.05-.22.05-.28.05-1.04-.11-2.14,0-3.18,0h-2.36c-.3,0-.52-.05-.75-.11-.17-.06-.41-.28-.41-.41.23-.91-.17-1.84-.05-2.71.05-.64,0-1.34.11-1.97.11-.46.11-1.04.05-1.5-.16-.75-.16-1.51-.16-2.26,0-2.82-.06-5.65-.06-8.48l.06-5.77c0-.35-.06-.69-.06-1.04,0,0-.06-.12-.12-.12-.05,0-.11.06-.11.06-.23.28-.35.63-.35.98-.23,1.92-.58,4.45-.87,6.31-.35,1.84-.69,3.68-.93,5.54-.22,1.5-.52,3.05-.74,4.61-.06.58-.23,1.16-.35,1.79-.17,1.34-.41,2.66-.58,3.99-.11.74-.28.87-.93.91-.28.06-.58.06-.93.06-1.21,0-2.47-.06-3.75-.06-.35,0-.69,0-1.04-.05-.64,0-.87-.17-.99-.87-.17-.58-.28-1.16-.4-1.79-.12-.52-.23-1.04-.3-1.62-.05-.8-.22-1.56-.35-2.37-.35-2.13-.57-4.27-.91-6.4-.3-1.56-.58-3.05-.93-4.62-.17-.98-.47-1.95-.58-2.94,0-.46-.17-.87-.23-1.32-.17-.58.06-1.85-.52-2.25-.4.57-.22,1.78-.22,2.36,0,3.35.05,6.7.05,10.22.17.87,0,1.9-.05,2.94-.06,2.55-.06,5.43.17,7.97v.17c.05.4-.17.63-.58.69h-.75c-1.9,0-3.75-.06-5.6.11-.46,0-.69-.23-.69-.63-.06-.41-.06-.82-.06-1.51.06-2.36.06-4.85-.11-7.22-.06-.17,0-.4,0-.57.11-.41.11-.82,0-1.21-.17-1.1-.17-2.2.06-3.3.11-.4.05-.8.05-1.21.06-3.75.06-7.57.12-11.31,0-1.79-.12-3.52,0-5.32.11-1.79.17-3.63.05-5.43-.05-.93-.11-1.9-.11-2.83,0-.05-.06-.11-.06-.17.3-1.38,0-2.77,0-4.22v-.28c.06-.82.3-1.04,1.16-.93.52,0,1.04,0,1.62-.06.74-.11,1.5-.17,2.25-.05.8.11,1.62,0,2.42,0,.45,0,.9-.04,1.36-.01.45.01.88.07,1.3.23.41.12.58.3.69.7.06.26.12.51.19.77.31,1.25.63,2.5.68,3.78.06.47.17.88.23,1.34.35,1.84.52,3.7.69,5.54.17,2.14.74,4.28,1.09,6.42l1.79,9.58c.06.11.12.23.17.28,0,.06.06.06.12.12.11.05.17,0,.22-.12l1.27-7.21c.11-.64.28-1.22.41-1.79l.91-4.91c.23-1.73.36-3.52.75-5.25.23-.99.12-2.08.41-3.12.46-1.62.63-3.3.93-4.91,0-.23.05-.41.11-.58.02-.1.05-.19.07-.26.16-.43.36-.56.85-.56,1.32,0,2.66-.11,3.92-.05.83.04,1.66.05,2.49.02.45,0,.89-.01,1.34-.02h.87c.52.05.74.28.74.8v4.51c0,1.15-.22,2.3,0,3.46.12.46.06.91.06,1.38,0,2.77-.23,5.54-.11,8.31.05,1.68.17,3.41.11,5.14-.11,2.37.11,4.74,0,7.11v.28c.41,4.04.28,8.15.17,12.24Z"/>
            <path class="cls-4" d="M164.61,223.46c-.06.52,0,1.1,0,1.62,0,.28,0,.52-.06.75-.05.28-.28.46-.52.52-.11.05-.22.05-.28.05-1.04-.11-2.14,0-3.18,0h-2.36c-.3,0-.52-.05-.75-.11-.17-.06-.41-.28-.41-.41.23-.91-.17-1.84-.05-2.71.05-.64,0-1.34.11-1.97.11-.46.11-1.04.05-1.5-.16-.75-.16-1.51-.16-2.26,0-2.82-.06-5.65-.06-8.48l.06-5.77c0-.35-.06-.69-.06-1.04,0,0-.06-.12-.12-.12-.05,0-.11.06-.11.06-.23.28-.35.63-.35.98-.23,1.92-.58,4.45-.87,6.31-.35,1.84-.69,3.68-.93,5.54-.22,1.5-.52,3.05-.74,4.61-.06.58-.23,1.16-.35,1.79-.17,1.34-.41,2.66-.58,3.99-.11.74-.28.87-.93.91-.28.06-.58.06-.93.06-1.21,0-2.47-.06-3.75-.06-.35,0-.69,0-1.04-.05-.64,0-.87-.17-.99-.87-.17-.58-.28-1.16-.4-1.79-.12-.52-.23-1.04-.3-1.62-.05-.8-.22-1.56-.35-2.37-.35-2.13-.57-4.27-.91-6.4-.3-1.56-.58-3.05-.93-4.62-.17-.98-.47-1.95-.58-2.94,0-.46-.17-.87-.23-1.32-.17-.58.06-1.85-.52-2.25-.4.57-.22,1.78-.22,2.36,0,3.35.05,6.7.05,10.22.17.87,0,1.9-.05,2.94-.06,2.55-.06,5.43.17,7.97v.17c.05.4-.17.63-.58.69h-.75c-1.9,0-3.75-.06-5.6.11-.46,0-.69-.23-.69-.63-.06-.41-.06-.82-.06-1.51.06-2.36.06-4.85-.11-7.22-.06-.17,0-.4,0-.57.11-.41.11-.82,0-1.21-.17-1.1-.17-2.2.06-3.3.11-.4.05-.8.05-1.21.06-3.75.06-7.57.12-11.31,0-1.79-.12-3.52,0-5.32.11-1.79.17-3.63.05-5.43-.05-.93-.11-1.9-.11-2.83,0-.05-.06-.11-.06-.17.3-1.38,0-2.77,0-4.22v-.28c.06-.82.3-1.04,1.16-.93.52,0,1.04,0,1.62-.06.74-.11,1.5-.17,2.25-.05.8.11,1.62,0,2.42,0,.45,0,.9-.04,1.36-.01.45.01.88.07,1.3.23.41.12.58.3.69.7.06.26.12.51.19.77.31,1.25.63,2.5.68,3.78.06.47.17.88.23,1.34.35,1.84.52,3.7.69,5.54.17,2.14.74,4.28,1.09,6.42l1.79,9.58c.06.11.12.23.17.28,0,.06.06.06.12.12.11.05.17,0,.22-.12l1.27-7.21c.11-.64.28-1.22.41-1.79l.91-4.91c.23-1.73.36-3.52.75-5.25.23-.99.12-2.08.41-3.12.46-1.62.63-3.3.93-4.91,0-.23.05-.41.11-.58.02-.1.05-.19.07-.26.16-.43.36-.56.85-.56,1.32,0,2.66-.11,3.92-.05.83.04,1.66.05,2.49.02.45,0,.89-.01,1.34-.02h.87c.52.05.74.28.74.8v4.51c0,1.15-.22,2.3,0,3.46.12.46.06.91.06,1.38,0,2.77-.23,5.54-.11,8.31.05,1.68.17,3.41.11,5.14-.11,2.37.11,4.74,0,7.11v.28c.41,4.04.28,8.15.17,12.24Z"/>
            <path class="cls-1" d="M193.61,221.97l-.06-.64c0-.22-.02-.41-.07-.57-.02-.05-.04-.1-.06-.16h0c-.2-.47-.62-.69-1.3-.77h-.3v-.23c0-.98-.46-1.38-1.43-1.5h-.41c-.23,0-.47.05-.87.05-.69.06-1.45.06-2.25,0-1.1-.05-2.31-.11-3.41.12l-2.08-.06v-1.97l-.06-1.78v-1.97c.06-.82.06-1.68,0-2.55v-.35l.06-.17c1.21-.05,2.48-.05,3.81,0l2.2.06c.63,0,1.43-.11,2.31-.23.74-.11,1.21-.69,1.21-1.5.05-.58.05-1.16.05-1.73v-1.68c.17-1.21.12-2.14-.05-3-.3-.98-.69-1.32-1.68-1.32l-.06-.41c-.28-.98-.69-1.32-1.67-1.32h-.52c-.87,0-1.67,0-2.49-.17-.28-.06-.75-.06-1.1,0-.69.17-1.38.17-2.19.11-.11-1.38,0-2.71.06-4.15.11-1.27.17-2.6.11-3.93h1.62l2.36.06,1.04-.06h.75c.46,0,.98.06,1.45,0,.8.12,1.5.06,2.14.06l.98-.06c.68-.05,1.1-.3,1.38-.8v-.02c.1-.17.17-.38.23-.62.05-.49.07-.98.09-1.45-.01-.01,0-.01,0-.02.01-.45-.01-.88-.04-1.3,0-.87,0-1.62.12-2.42.05-.23,0-.69-.12-1.04l-.05-.23c-.12-.8-.58-1.27-1.45-1.27h-.17l-.11-.46c-.12-.8-.58-1.27-1.45-1.27h-1.74c-1.74,0-3.56.01-5.3.12h-.69c-.58-.06-.87-.06-1.21,0-.79.22-1.64.11-2.53.05h-.06l-.87-.05c-.82-.06-1.79-.17-2.78.11h-.35l-.35-.06-2.88-.17c-.99,0-1.56.58-1.56,1.51-.06,1.56-.06,2.88.05,4.15,0,.28,0,.58-.05.87-.17.82-.17,1.62-.12,2.72.06,1.09.12,2.14.12,3.29.05,3.87.05,7.74.05,11.66.06.41.06.82.06,1.22v1.38c.11,1.56.11,3.05.11,4.61v3.93c0,3.12,0,6.12-.22,9.12l.05.52v1.32c0,1.16.47,1.56,1.74,1.62v.11c0,1.22.52,1.62,1.9,1.62l.57.06,3.24.05c2.42.06,4.91.06,7.39-.11h.8c.58,0,1.27,0,1.9-.17h.12l.63.12c1.1.11,2.03.11,2.89.05h.87c.98,0,1.5-.58,1.61-1.56v-.46l.06-.52-.06-1.1c0-.69-.05-1.34.06-1.97.06-.46,0-.98,0-1.32ZM191.01,221.45c-.17,1.04,0,2.13,0,3.18,0,.28-.06.57-.06.91-.05.52-.22.75-.74.75-1.22,0-2.44.11-4.1-.11-.17-.06-.41-.12-.58-.06-.87.23-1.73.11-2.6.17-3.52.28-7.05.06-10.57.06-.11,0-.28,0-.46-.06-1.1,0-1.21,0-1.16-1.15.06-.3,0-.52,0-.75s-.05-.41-.05-.64c.28-4.33.17-8.72.22-13.1,0-1.56,0-3.12-.11-4.67-.06-.87,0-1.73-.06-2.6,0-3.87,0-7.74-.05-11.61,0-1.15-.06-2.25-.12-3.35-.05-.87-.05-1.67.12-2.53.05-.35.05-.7.05-1.05-.11-1.38-.11-2.71-.05-4.09,0-.47.22-.64.63-.64l2.89.17c.28,0,.74.12.98,0,1.16-.28,2.2-.05,3.35,0l.52.04c.77.05,1.56.1,2.31-.09.58-.12,1.21.05,1.79,0,1.63-.12,3.26-.14,4.93-.14.67,0,1.36.01,2.05.01.41,0,.52.12.58.52.05.35.22.69.17,1.05-.23,1.73.05,3.4-.17,5.13-.12.52-.23.69-.82.75-.98,0-1.9.17-3,0-.74.06-1.5,0-2.25,0l-1.04.06c-1.45,0-2.88-.12-4.39,0-.23.05-.35.22-.41.4,0,.12-.05.23-.05.35.11,2.78-.35,5.49-.17,8.26,0,.41,0,.82.05,1.21.06.35.06.75.23,1.04.23.41.63,0,.98.06,1.22.23,2.49.28,3.7.06.3-.06.52-.06.75,0,1.04.22,2.14.17,3.18.17.58,0,.63.05.8.69.23.93.17,1.84.06,2.71-.06,1.16,0,2.31-.06,3.47,0,.35-.17.57-.52.63-.63.11-1.43.23-2.13.23-2.14,0-4.34-.23-6.48,0-.22.05-.4.17-.4.4,0,.35-.06.64-.06.93.11,1.51-.06,3.07,0,4.56.06,1.73,0,3.52.17,5.25.06.23-.06.52,0,.75,0,.17.06.28.23.28.17.06.28.06.46.06,1.34-.17,2.6,0,3.93,0,1.9-.41,4.27.11,6.18-.17h.63c.52.05.63.17.63.63,0,.64.17,1.21.06,1.85Z"/>
            <path class="cls-4" d="M191.01,221.45c-.17,1.04,0,2.13,0,3.18,0,.28-.06.57-.06.91-.05.52-.22.75-.74.75-1.22,0-2.44.11-4.1-.11-.17-.06-.41-.12-.58-.06-.87.23-1.73.11-2.6.17-3.52.28-7.05.06-10.57.06-.11,0-.28,0-.46-.06-1.1,0-1.21,0-1.16-1.15.06-.3,0-.52,0-.75s-.05-.41-.05-.64c.28-4.33.17-8.72.22-13.1,0-1.56,0-3.12-.11-4.67-.06-.87,0-1.73-.06-2.6,0-3.87,0-7.74-.05-11.61,0-1.15-.06-2.25-.12-3.35-.05-.87-.05-1.67.12-2.53.05-.35.05-.7.05-1.05-.11-1.38-.11-2.71-.05-4.09,0-.47.22-.64.63-.64l2.89.17c.28,0,.74.12.98,0,1.16-.28,2.2-.05,3.35,0l.52.04c.77.05,1.56.1,2.31-.09.58-.12,1.21.05,1.79,0,1.63-.12,3.26-.14,4.93-.14.67,0,1.36.01,2.05.01.41,0,.52.12.58.52.05.35.22.69.17,1.05-.23,1.73.05,3.4-.17,5.13-.12.52-.23.69-.82.75-.98,0-1.9.17-3,0-.74.06-1.5,0-2.25,0l-1.04.06c-1.45,0-2.88-.12-4.39,0-.23.05-.35.22-.41.4,0,.12-.05.23-.05.35.11,2.78-.35,5.49-.17,8.26,0,.41,0,.82.05,1.21.06.35.06.75.23,1.04.23.41.63,0,.98.06,1.22.23,2.49.28,3.7.06.3-.06.52-.06.75,0,1.04.22,2.14.17,3.18.17.58,0,.63.05.8.69.23.93.17,1.84.06,2.71-.06,1.16,0,2.31-.06,3.47,0,.35-.17.57-.52.63-.63.11-1.43.23-2.13.23-2.14,0-4.34-.23-6.48,0-.22.05-.4.17-.4.4,0,.35-.06.64-.06.93.11,1.51-.06,3.07,0,4.56.06,1.73,0,3.52.17,5.25.06.23-.06.52,0,.75,0,.17.06.28.23.28.17.06.28.06.46.06,1.34-.17,2.6,0,3.93,0,1.9-.41,4.27.11,6.18-.17h.63c.52.05.63.17.63.63,0,.64.17,1.21.06,1.85Z"/>
            <path class="cls-1" d="M214.92,206.38l-.23-.3-.06-.17c-.69-1.1-1.56-1.97-2.42-2.77-.4-.41-.74-.75-.98-1.1-.69-.8-1.34-1.5-2.14-2.14-.63-.74-1.27-1.38-2.08-2.08l-.98-.98-.53-1.16-.63-1.32-.11-.23v-.11c-.12-.35-.17-.58-.17-.75l.05-.57c.06-.58.12-.99.3-1.4.46-1.26.87-1.61,1.84-1.61.17-.06.52-.06.75,0h.23c.05.4.11.87.11,1.45-.06,1.04-.35,1.61-.93,2.02-.74.41-.74,1.32-.05,1.9.35.28.8.58,1.21.82,0,.35.17.63.52.91,1.61,1.38,3.63,1.85,5.6,1.38,2.14-.46,3.57-1.78,4.15-3.81.41-1.38.52-3.07.35-4.45-.35-2.47-1.1-4.33-2.31-5.71-.46-.52-.93-1.04-1.43-1.45l-.12-.05-.17-.23c-.46-.52-.93-1.04-1.45-1.45-.09-.06-.17-.12-.26-.19h-.01c-.82-.58-1.61-.99-2.42-1.27-.17-.06-.36-.11-.53-.16-.82-.28-1.68-.4-2.42-.46l-1.21-.17c-.41-.06-.64-.11-1.05-.06h-.8c-.98.06-2.08.17-3.12.35-.47.06-.99.23-1.38.41-1.73.63-3.29,1.79-4.74,3.52l-.3.41-.35.69c-.45.89-1.01,1.97-1.24,3.14-.01.02-.02.06-.02.09-.17.68-.23,1.37-.3,2v.02c-.22,2.14-.11,4.27.47,6.29.22.87.57,1.62.91,2.36.3.75.58,1.38.82,2.08.17.3.4.58.63.88.69.98,1.45,1.84,2.14,2.77l.75.87.52.57.91.82.3.35.52.58,1.62,1.43c.46.52.91,1.05,1.32,1.62.28.3.46.52.75.75l.11.11c1.45,1.51,2.31,3.35,2.6,5.84.12,1.1-.35,1.97-1.38,2.36-.28.12-.58.17-1.21.12l-.52-.06-.06-.22-.11-1.05c-.11-.69-.17-1.38-.23-2.02v-.87c0-.28,0-.58-.05-.93,0-.69-.52-1.21-1.21-1.32l-.52-.06v-.35c0-.69-.52-1.21-1.22-1.32-1.26-.12-2.53-.06-3.75-.06l-1.73.06c-.47-.06-.99,0-1.34.05-.98,0-1.43.52-1.43,1.51-.06,1.15-.12,2.42,0,3.63.05,1.38.22,2.42.4,3.4.09.36.2.72.32,1.05h0c.02.07.04.12.06.17.36.95.83,1.83,1.24,2.65.52.93,1.1,1.51,1.79,1.85.52.93,1.15,1.5,1.9,1.79l.11.11.58.41c.93.52,1.79.87,2.77,1.04q.17,0,.3.11c.74.41,1.61.58,2.36.69,1.45.17,2.94.12,4.33.06.23,0,.58-.06.82-.17h.11c1.27-.23,2.42-.75,3.52-1.27l.63-.23c1.16-.52,2.2-1.32,2.83-2.42.17-.28.3-.63.41-.91l.28-.64c.82-2.02,1.16-3.4,1.27-4.8.23-2.94-.06-5.37-.93-7.5-.74-1.73-1.43-3.57-2.88-5.13ZM216.13,217.23c-.11,1.56-.64,3.05-1.21,4.5-.23.52-.41,1.04-.64,1.5-.57.93-1.43,1.62-2.42,2.03-1.32.58-2.6,1.21-3.98,1.45-.23.05-.46.17-.75.17-1.38.05-2.83.11-4.22-.06-.69-.11-1.38-.23-2.02-.58-.23-.17-.47-.22-.69-.22-1.04-.23-1.9-.64-2.77-1.16-.12-.11-.23-.22-.35-.28-.75-.3-1.22-.87-1.62-1.56-.58-1.16-1.21-2.31-1.51-3.63-.22-1.05-.35-2.14-.4-3.3-.12-1.15-.06-2.36,0-3.57,0-.52.11-.64.63-.64.41-.05.8-.11,1.21-.05,1.79,0,3.63-.17,5.43,0,.3.05.47.22.47.52.05.57,0,1.21.05,1.79.06.98.23,2.02.35,2.99,0,.17.06.41.12.58.46,1.45,1.5,2.25,2.99,2.31.58.06,1.1.06,1.62-.17,1.38-.58,2.08-1.79,1.9-3.29-.28-2.37-1.09-4.56-2.88-6.35l-.47-.41c-1.43-1.97-3.23-3.57-5.02-5.25l-.52-.52c-.98-1.21-1.97-2.36-2.88-3.63-.19-.17-.36-.41-.47-.64-.46-1.43-1.27-2.82-1.73-4.33-.52-1.97-.63-3.98-.41-6.01.06-.63.12-1.26.3-1.9.22-1.32.91-2.49,1.5-3.63l.23-.35c1.15-1.38,2.53-2.6,4.33-3.24.41-.17.87-.28,1.27-.35,1.38-.28,2.83-.28,4.22-.4,1.32.28,2.66.28,3.98.69,1.1.28,2.03.8,2.94,1.5.47.35.87.82,1.34,1.34,1.21,1.38,1.79,3.23,2.08,5.25.17,1.26.06,2.83-.28,4.09-.53,1.79-1.79,2.83-3.52,3.18-1.79.47-3.47,0-4.91-1.21-.23-.17-.23-.35,0-.46.98-.69,1.26-1.68,1.32-2.77,0-.99-.11-1.92-.58-2.78-.35-.69-.87-1.09-1.61-1.15-.47-.17-1.27-.17-1.62-.11-1.38.05-2.03.74-2.55,2.19-.28.69-.28,1.45-.4,2.2,0,.28.05.57.17.91,0,.17.11.35.17.52.4.93.87,1.85,1.26,2.77l2.83,2.78c.87.74,1.62,1.5,2.37,2.36.28.41.69.82,1.09,1.21.88.82,1.62,1.56,2.26,2.61.11.16.22.4.4.57,1.34,1.45,1.97,3.18,2.72,4.91.93,2.31,1.04,4.74.87,7.11Z"/>
          </g>
        </g>
        <g>
          <path class="cls-4" d="M245.43,181.65c-.32-3.02-.72-6.03-1.27-9.05-.47-2.55-.72-4.85-1.11-7.39,0-.07-.23-.32-.23-.4-.23-.09-.32.16-.4.32-.09.7-.23,1.19-.4,1.9-.25,1.19-.4,2.46-.64,3.65-.16,1.11-.47,2.23-.63,3.26-.32,2.46-.56,5.01-.79,7.47-.09,0-.16.48-.16.48-.4,2.53-.64,4.52-1.04,7.07-.07.7,0,.95.64.95,1.51,0,2.86.16,4.6-.09.56,0,1.04-.07,1.59,0,.72.09.95-.23.88-1.03-.32-2.39-.8-4.77-1.04-7.16ZM244.48,188.65h-.23l-1.04.07h-.47l.07-.72.23-1.82s.32-2.31.4-2.31c.16-1.51.32-3.02.56-4.52l.25,2.46c.16,1.43.4,2.87.63,4.29l.4,2.71-.79-.16ZM245.43,181.65c-.32-3.02-.72-6.03-1.27-9.05-.47-2.55-.72-4.85-1.11-7.39,0-.07-.23-.32-.23-.4-.23-.09-.32.16-.4.32-.09.7-.23,1.19-.4,1.9-.25,1.19-.4,2.46-.64,3.65-.16,1.11-.47,2.23-.63,3.26-.32,2.46-.56,5.01-.79,7.47-.09,0-.16.48-.16.48-.4,2.53-.64,4.52-1.04,7.07-.07.7,0,.95.64.95,1.51,0,2.86.16,4.6-.09.56,0,1.04-.07,1.59,0,.72.09.95-.23.88-1.03-.32-2.39-.8-4.77-1.04-7.16ZM244.48,188.65h-.23l-1.04.07h-.47l.07-.72.23-1.82s.32-2.31.4-2.31c.16-1.51.32-3.02.56-4.52l.25,2.46c.16,1.43.4,2.87.63,4.29l.4,2.71-.79-.16ZM265.54,212.32l-.07-.07c-.43-.26-.85-.85-1.25-1.66-.2-.41-.4-.85-.58-1.36-.32-.96-.56-2.15-.72-3.66-.11-1.06-.31-2.18-.52-3.24-.09-.45-.19-.88-.27-1.3-.06-.25-.12-.51-.19-.75-.22-.99-.41-1.94-.53-2.89-.32-2.39-.64-4.77-.88-7.07l-1.67-11.2-.31-1.99c-.41-2.39-.72-4.85-1.27-7.31-.32-.95-.48-1.99-.64-3.1l-.16-.88c-.15-.7-.23-1.42-.31-2.14l-.25-2.15c-.31-2.06-.63-4.04-1.03-6.12-.23-1.74-.48-3.49-1.04-5.24-.23-.95-1.11-1.67-2.14-1.74l-.23-.64c-.25-.95-1.11-1.67-2.15-1.74h-1.51c-1.35-.07-2.71,0-3.97.07-1.27,0-2.55.09-3.82,0l-3.18-.15c-1.04,0-1.99.63-2.3,1.58l-.25.79-.72,2.94-.31,2.39c-.16,1.51-.4,2.94-.64,4.36l-.31,2.15-.32,1.99-.56,2.53c-.4,1.59-.79,3.18-1.11,4.77-.32,1.43-.63,3.02-.72,4.61-.16,1.35-.4,2.7-.63,4.13-.25,1.11-.48,2.23-.64,3.34l-.16,1.19c-.23,1.51-.47,2.87-.79,4.22-.23.72-.56,1.58-.56,2.55,0,1.19-.23,2.3-.47,3.57l-.41,1.67c-.4,2.23-.87,4.36-1.35,6.52l-.87,4.06-.56,2.93-.25,1.43c-.23,1.19.64,2.15,1.67,2.15h.79l-.07.23c-.23,1.19.63,2.14,1.67,2.14h.63l6.28.16,2.46-.07c.88,0,1.52-.56,1.92-1.27l.16-.48c.15-.31.23-.63.31-1.19l.16-.79c.16-.95.32-1.99.56-2.71l.88-4.52h2.06c1.58.07,3.25.07,4.92-.09l.8,4.14.4,1.26c.56,1.83,1.83,2.94,3.09,3.89.8,1.27,2.08,2.23,3.1,2.94.23.16.56.32.79.4h.16l1.2.32,2.62.48c2.14.31,4.29-.16,5.96-1.51.42-.33.72-.69.88-1.04.33-.72.1-1.4-.8-1.83ZM262.36,211.85c-1.51,1.19-3.25,1.58-5.08,1.26-1.27-.15-2.47-.47-3.66-.7-.23-.09-.4-.09-.56-.25-1.43-1.03-2.86-2.06-3.41-3.81-.56-1.99-1.43-4.29-1.43-6.44,0-.07-.07-.07-.07-.16-.25-1.74-1.04-2.46-2.78-2.14-2.39.32-4.77.16-7.07.16-.32,0-.56,0-.8.07-.31.09-.56.23-.63.48l-.95,4.92c-.32,1.2-.56,2.94-.79,4.13l-.32.8c-.16.31-.4.56-.79.56-.8,0-1.67.07-2.47.07-2.06-.07-4.2-.07-6.27-.16h-.64c-.32,0-.56-.32-.47-.72.23-1.27.47-3.09.79-4.36.72-3.5,1.58-7,2.23-10.57.32-1.83.88-3.57.88-5.48,0-.8.23-1.52.47-2.23.48-1.83.72-3.66,1.04-5.56.16-1.04.4-2.15.63-3.26.23-1.42.48-2.86.64-4.29.07-1.51.4-3.02.7-4.45.48-2.46,1.11-4.85,1.67-7.31.25-1.35.4-2.78.64-4.13.4-2.23.63-4.54.95-6.76.23-1.19.56-2.37.88-3.65.15-.4.63-.72,1.11-.72,1.03.07,2.21.07,3.18.16,2.7.16,5.16-.23,7.86-.09h1.43c.56.09.95.41,1.11.88.47,1.67.7,3.34.95,5.08.4,2.08.72,4.06,1.03,6.12.25,1.43.32,2.87.56,4.29.23,1.43.4,2.78.8,4.14.7,3.02,1.1,6.11,1.58,9.14l1.67,11.11c.23,2.39.56,4.77.88,7.16.4,2.78,1.19,5.4,1.51,8.18.16,1.27.4,2.62.79,3.89.22.66.53,1.43.96,2.13.35.57.77,1.09,1.26,1.45.37.3.95.25.2.88-.06.05-.12.1-.2.16ZM244.16,172.6c-.47-2.55-.72-4.85-1.11-7.39,0-.07-.23-.32-.23-.4-.23-.09-.32.16-.4.32-.09.7-.23,1.19-.4,1.9-.25,1.19-.4,2.46-.64,3.65-.16,1.11-.47,2.23-.63,3.26-.32,2.46-.56,5.01-.79,7.47-.09,0-.16.48-.16.48-.4,2.53-.64,4.52-1.04,7.07-.07.7,0,.95.64.95,1.51,0,2.86.16,4.6-.09.56,0,1.04-.07,1.59,0,.72.09.95-.23.88-1.03-.32-2.39-.8-4.77-1.04-7.16-.32-3.02-.72-6.03-1.27-9.05ZM244.48,188.65h-.23l-1.04.07h-.47l.07-.72.23-1.82s.32-2.31.4-2.31c.16-1.51.32-3.02.56-4.52l.25,2.46c.16,1.43.4,2.87.63,4.29l.4,2.71-.79-.16ZM245.43,181.65c-.32-3.02-.72-6.03-1.27-9.05-.47-2.55-.72-4.85-1.11-7.39,0-.07-.23-.32-.23-.4-.23-.09-.32.16-.4.32-.09.7-.23,1.19-.4,1.9-.25,1.19-.4,2.46-.64,3.65-.16,1.11-.47,2.23-.63,3.26-.32,2.46-.56,5.01-.79,7.47-.09,0-.16.48-.16.48-.4,2.53-.64,4.52-1.04,7.07-.07.7,0,.95.64.95,1.51,0,2.86.16,4.6-.09.56,0,1.04-.07,1.59,0,.72.09.95-.23.88-1.03-.32-2.39-.8-4.77-1.04-7.16ZM244.48,188.65h-.23l-1.04.07h-.47l.07-.72.23-1.82s.32-2.31.4-2.31c.16-1.51.32-3.02.56-4.52l.25,2.46c.16,1.43.4,2.87.63,4.29l.4,2.71-.79-.16ZM245.43,181.65c-.32-3.02-.72-6.03-1.27-9.05-.47-2.55-.72-4.85-1.11-7.39,0-.07-.23-.32-.23-.4-.23-.09-.32.16-.4.32-.09.7-.23,1.19-.4,1.9-.25,1.19-.4,2.46-.64,3.65-.16,1.11-.47,2.23-.63,3.26-.32,2.46-.56,5.01-.79,7.47-.09,0-.16.48-.16.48-.4,2.53-.64,4.52-1.04,7.07-.07.7,0,.95.64.95,1.51,0,2.86.16,4.6-.09.56,0,1.04-.07,1.59,0,.72.09.95-.23.88-1.03-.32-2.39-.8-4.77-1.04-7.16ZM244.48,188.65h-.23l-1.04.07h-.47l.07-.72.23-1.82s.32-2.31.4-2.31c.16-1.51.32-3.02.56-4.52l.25,2.46c.16,1.43.4,2.87.63,4.29l.4,2.71-.79-.16Z"/>
          <path class="cls-1" d="M261.08,209.63v-.26c-.42-.69-.73-1.47-.95-2.13-.4-1.27-.63-2.62-.79-3.89-.32-2.78-1.11-5.4-1.51-8.18-.32-2.39-.64-4.77-.88-7.16l-1.67-11.11c-.48-3.03-.88-6.12-1.58-9.14-.41-1.36-.57-2.71-.8-4.14-.23-1.42-.31-2.86-.56-4.29-.31-2.06-.63-4.04-1.03-6.12-.25-1.74-.48-3.41-.95-5.08-.16-.47-.56-.79-1.11-.88h-1.43c-2.71-.15-5.17.25-7.86.09-.96-.09-2.15-.09-3.18-.16-.48,0-.96.32-1.11.72-.32,1.27-.64,2.46-.88,3.65-.32,2.23-.56,4.54-.95,6.76-.25,1.35-.4,2.78-.64,4.13-.56,2.46-1.19,4.85-1.67,7.31-.31,1.43-.63,2.94-.7,4.45-.16,1.43-.41,2.87-.64,4.29-.23,1.11-.47,2.23-.63,3.26-.32,1.9-.56,3.73-1.04,5.56-.23.7-.47,1.42-.47,2.23,0,1.9-.56,3.65-.88,5.48-.64,3.57-1.51,7.07-2.23,10.57-.32,1.27-.56,3.09-.79,4.36-.09.4.15.72.47.72h.64c2.06.09,4.2.09,6.27.16.8,0,1.67-.07,2.47-.07.4,0,.63-.25.79-.56l.32-.8c.23-1.19.47-2.93.79-4.13l.95-4.92c.07-.25.32-.4.63-.48.25-.07.48-.07.8-.07,2.3,0,4.69.16,7.07-.16,1.74-.32,2.53.4,2.78,2.14,0,.09.07.09.07.16,0,2.15.88,4.45,1.43,6.44.56,1.74,1.98,2.78,3.41,3.81.16.16.32.16.56.25,1.19.23,2.39.56,3.66.7,1.83.32,3.57-.07,5.08-1.26.07-.06.14-.11.2-.16-.93-.21-1.47-.94-1.47-2.06ZM245.59,189.83c-.56-.07-1.04,0-1.59,0-1.74.25-3.09.09-4.6.09-.64,0-.72-.25-.64-.95.4-2.55.64-4.54,1.04-7.07,0,0,.07-.48.16-.48.23-2.46.47-5.01.79-7.47.16-1.04.47-2.15.63-3.26.25-1.19.4-2.46.64-3.65.16-.72.31-1.2.4-1.9.07-.16.16-.41.4-.32,0,.07.23.32.23.4.4,2.55.64,4.85,1.11,7.39.56,3.02.95,6.03,1.27,9.05.23,2.39.72,4.77,1.04,7.16.07.79-.16,1.11-.88,1.03Z"/>
          <path class="cls-4" d="M288.29,160.16c-.07-.87-.7-1.43-1.67-1.59l-.63-.07-.07-.72c-.09-.87-.72-1.43-1.67-1.59l-.56-.07c-2.39-.32-5.01-.09-7.23.07h-1.04c-.95.1-1.67.1-2.39-.07-.23,0-.7-.09-1.03,0h-.32c-1.27.23-2.7.17-4.36-.09-.64-.07-1.36-.07-2.06,0-3.34.16-5.25.09-6.28-.23-.56-.07-1.27-.07-1.83,0-.72.16-1.51.23-2.23.23-1.11,0-1.83.66-1.99,1.76-.15,1.59-.07,3.09-.07,4.54v2.94l.07.54c.16,1.27.88,1.98,2.31,1.98l.07.42c.16,1.25.88,1.97,2.31,1.97,2.3.09,4.69.16,8.81.16.56,0,1.04-.07,1.51-.16.64-.07,1.11-.07,1.67-.07l.56.07c-.56,1.36-1.11,2.71-1.58,3.98-.56,1.35-1.04,2.62-1.59,3.89-.63,1.59-1.27,3.09-1.99,4.6l-1.42,3.26c-.8,1.68-1.51,3.25-2.23,4.93-.95,2.21-1.83,4.28-2.94,6.5-1.35,2.47-2.3,4.46-2.94,6.37-.32.8-.72,1.58-1.19,2.46l-1.43,2.53-.66,1.31-.53,1.08c-.25.79-.25,1.77-.25,2.55v4.13l-.06,1.35v.25c-.01,1.14.53,1.85,1.46,2.08.19.04.38.07.59.07h.32v.23c0,1.35.79,2.15,2.06,2.15h1.9c1.59.06,3.26.06,5.01-.1h2.23c1.99.1,3.97.1,6.03-.07.95-.06,1.67-.06,2.55.07.72.1,1.35,0,1.99,0l1.03-.07c.56,0,.8,0,1.11.07.95.33,2.06.33,3.26.16.87-.16,2.46-.23,3.41-.23l1.59-.06c1.35-.17,2.06-1.05,2.06-2.31,0-.73-.09-1.76-.16-2.7v-.32c-.23-.96-.23-1.84-.23-2.86v-1.68c0-1.26-.8-2.15-2.08-2.15h-.31v-.23c0-1.26-.79-2.15-2.06-2.15h-1.83c-1.35,0-2.87.09-3.97,0l-6.21-.07h-.79l.63-1.35c1.04-2.47,2.15-4.93,3.26-7.39l1.11-2.46,2.14-4.83c1.04-1.93,1.92-3.83,2.71-5.72l.79-1.68c1.27-2.71,2.46-5.4,3.66-8.18.32-.63.56-1.43.79-2.15l.4-1.03,1.76-4.38c.4-.95.63-2.05.63-3.25,0-.95,0-1.82.07-2.78,0-.95.09-1.89.09-2.86,0-.32,0-.64-.09-.95ZM284.65,164.37c0,.96-.16,1.9-.56,2.78-.56,1.51-1.2,2.94-1.76,4.45-.4,1.04-.7,2.16-1.19,3.1-1.19,2.78-2.39,5.48-3.66,8.18-1.11,2.46-2.14,4.93-3.41,7.32-1.19,2.45-2.23,4.91-3.34,7.38-1.11,2.46-2.23,4.92-3.25,7.39-.72,1.66-1.52,3.25-2.23,4.93-.16.4,0,.63.47.7,1.2.07,2.46.15,3.73-.07.4-.16,1.04-.16,1.67-.16,2.06,0,4.13.07,6.21.07,1.66.09,4.13,0,5.8,0,.56,0,.87.31.87.95v1.68c0,1.01,0,2.05.25,3.09v.15c.07.8.16,1.93.16,2.63s-.32,1.03-.96,1.1c-.47,0-1.03.09-1.51.09-.95,0-2.7.07-3.65.23-.88.16-1.83.16-2.71-.07-.47-.16-.95-.16-1.43-.16-.95,0-1.9.16-2.86.07-1.03-.16-1.83-.16-2.78-.07-2.78.23-5.56.07-8.26.07-1.94.21-3.88.12-5.77.1-.36-.01-.72-.01-1.06-.01-.63,0-.88-.32-.88-.95,0-1.26.09-1.76.09-3.03.07,0-.09-.69,0-.69v-1.45c0-.72-.05-1.46.04-2.11.02-.21.06-.41.12-.59.31-.72.79-1.5,1.11-2.23l1.42-2.53c.48-.88.95-1.74,1.27-2.61.72-2.15,1.74-4.23,2.86-6.22,1.11-2.23,2.08-4.35,3.03-6.59,1.19-2.78,2.46-5.49,3.65-8.18.72-1.5,1.36-3.02,1.99-4.61,1.27-3.02,2.39-6.19,3.73-9.21.32-.56.48-1.26.72-1.92.23-.63,0-.95-.72-.87-1.51.16-3.02.16-4.52,0-1.11-.09-2.23.23-3.26.23-4.13,0-6.52-.07-8.81-.16-.79,0-1.04-.23-1.11-.95,0-.15-.09-.22-.09-.38.09-2.47-.15-4.86.09-7.32.07-.48.32-.72.79-.72.88,0,1.67-.07,2.46-.23.4-.07.88-.07,1.27,0,1.67.47,5.01.31,6.68.23.63-.07,1.27-.07,1.83,0,1.51.23,3.1.31,4.61.07.31,0,.63-.07,1.03,0,1.2.23,2.46.09,3.73.09,2.23-.16,4.77-.4,7.07-.09.16,0,.4,0,.56.09.32.07.56.23.56.56.09.23.09.56.09.79,0,1.9-.16,3.75-.16,5.64Z"/>
          <path class="cls-1" d="M254.48,220.32c-.36-.01-.72-.01-1.06-.01-.63,0-.88-.32-.88-.95,0-1.26.09-1.76.09-3.03.07,0-.09-.69,0-.69v-1.45c0-.72-.05-1.46.04-2.11.21,1.05.41,2.18.52,3.23.16,1.51.4,2.7.72,3.66.19.51.38.95.58,1.36Z"/>
          <path class="cls-1" d="M265.26,209.91c-.16.4,0,.63.47.7,1.2.07,2.46.15,3.73-.07.4-.16,1.04-.16,1.67-.16,2.06,0,4.13.07,6.21.07,1.66.09,4.13,0,5.8,0,.56,0,.87.31.87.95v1.68c0,1.01,0,2.05.25,3.09v.15c.07.8.16,1.93.16,2.63s-.32,1.03-.96,1.1c-.47,0-1.03.09-1.51.09-.95,0-2.7.07-3.65.23-.88.16-1.83.16-2.71-.07-.47-.16-.95-.16-1.43-.16-.95,0-1.9.16-2.86.07-1.03-.16-1.83-.16-2.78-.07-2.78.23-5.56.07-8.26.07-1.94.21-3.88.12-5.77.1-.2-.41-.4-.85-.58-1.36-.32-.96-.56-2.15-.72-3.66-.11-1.05-.31-2.18-.52-3.23.02-.21.06-.41.12-.59.31-.72.79-1.5,1.11-2.23l1.42-2.53c.48-.88.95-1.74,1.27-2.61.72-2.15,1.74-4.23,2.86-6.22,1.11-2.23,2.08-4.35,3.03-6.59,1.19-2.78,2.46-5.49,3.65-8.18.72-1.5,1.36-3.02,1.99-4.61,1.27-3.02,2.39-6.19,3.73-9.21.32-.56.48-1.26.72-1.92.23-.63,0-.95-.72-.87-1.51.16-3.02.16-4.52,0-1.11-.09-2.23.23-3.26.23-4.13,0-6.52-.07-8.81-.16-.79,0-1.04-.23-1.11-.95,0-.15-.09-.22-.09-.38.09-2.47-.15-4.86.09-7.32.07-.48.32-.72.79-.72.88,0,1.67-.07,2.46-.23.4-.07.88-.07,1.27,0,1.67.47,5.01.31,6.68.23.63-.07,1.27-.07,1.83,0,1.51.23,3.1.31,4.61.07.31,0,.63-.07,1.03,0,1.2.23,2.46.09,3.73.09,2.23-.16,4.77-.4,7.07-.09.16,0,.4,0,.56.09.32.07.56.23.56.56.09.23.09.56.09.79,0,1.9-.16,3.75-.16,5.64,0,.96-.16,1.9-.56,2.78-.56,1.51-1.2,2.94-1.76,4.45-.4,1.04-.7,2.16-1.19,3.1-1.19,2.78-2.39,5.48-3.66,8.18-1.11,2.46-2.14,4.93-3.41,7.32-1.19,2.45-2.23,4.91-3.34,7.38-1.11,2.46-2.23,4.92-3.25,7.39-.72,1.66-1.52,3.25-2.23,4.93Z"/>
        </g>
      </g>
      <rect class="cls-2" width="354.66" height="399.34"/>
    </g>
  </g>
</svg>